<svg width="709" height="565" viewBox="0 0 709 565" fill="none" xmlns="http://www.w3.org/2000/svg">
<g clip-path="url(#clip0_33284_289459)">
<path d="M469.051 151.852C470.187 151.852 471.107 151.063 471.107 150.09C471.107 149.117 470.187 148.328 469.051 148.328C467.916 148.328 466.996 149.117 466.996 150.09C466.996 151.063 467.916 151.852 469.051 151.852Z" fill="#5082BD" fill-opacity="0.5"/>
<path d="M498.803 151.852C499.938 151.852 500.859 151.063 500.859 150.09C500.859 149.117 499.938 148.328 498.803 148.328C497.668 148.328 496.748 149.117 496.748 150.09C496.748 151.063 497.668 151.852 498.803 151.852Z" fill="#5082BD" fill-opacity="0.5"/>
<path d="M528.554 151.852C529.689 151.852 530.61 151.063 530.61 150.09C530.61 149.117 529.689 148.328 528.554 148.328C527.419 148.328 526.499 149.117 526.499 150.09C526.499 151.063 527.419 151.852 528.554 151.852Z" fill="#5082BD" fill-opacity="0.5"/>
<path d="M558.306 151.852C559.441 151.852 560.362 151.063 560.362 150.09C560.362 149.117 559.441 148.328 558.306 148.328C557.171 148.328 556.251 149.117 556.251 150.09C556.251 151.063 557.171 151.852 558.306 151.852Z" fill="#5082BD" fill-opacity="0.5"/>
<path d="M588.058 151.852C589.193 151.852 590.114 151.063 590.114 150.09C590.114 149.117 589.193 148.328 588.058 148.328C586.923 148.328 586.003 149.117 586.003 150.09C586.003 151.063 586.923 151.852 588.058 151.852Z" fill="#5082BD" fill-opacity="0.5"/>
<path d="M617.81 151.852C618.945 151.852 619.866 151.063 619.866 150.09C619.866 149.117 618.945 148.328 617.81 148.328C616.675 148.328 615.755 149.117 615.755 150.09C615.755 151.063 616.675 151.852 617.81 151.852Z" fill="#5082BD" fill-opacity="0.5"/>
<path d="M649.617 150.09C649.617 151.057 648.69 151.852 647.561 151.852C646.432 151.852 645.506 151.057 645.506 150.09C645.506 149.122 646.432 148.328 647.561 148.328C648.707 148.328 649.617 149.122 649.617 150.09Z" fill="#5082BD" fill-opacity="0.5"/>
<path d="M677.313 151.852C678.448 151.852 679.368 151.063 679.368 150.09C679.368 149.117 678.448 148.328 677.313 148.328C676.178 148.328 675.258 149.117 675.258 150.09C675.258 151.063 676.178 151.852 677.313 151.852Z" fill="#5082BD" fill-opacity="0.5"/>
<path d="M707.065 151.852C708.2 151.852 709.12 151.063 709.12 150.09C709.12 149.117 708.2 148.328 707.065 148.328C705.93 148.328 705.01 149.117 705.01 150.09C705.01 151.063 705.93 151.852 707.065 151.852Z" fill="#5082BD" fill-opacity="0.5"/>
<path d="M469.051 168.996C470.187 168.996 471.107 168.207 471.107 167.234C471.107 166.261 470.187 165.472 469.051 165.472C467.916 165.472 466.996 166.261 466.996 167.234C466.996 168.207 467.916 168.996 469.051 168.996Z" fill="#5082BD" fill-opacity="0.5"/>
<path d="M498.803 168.996C499.938 168.996 500.859 168.207 500.859 167.234C500.859 166.261 499.938 165.472 498.803 165.472C497.668 165.472 496.748 166.261 496.748 167.234C496.748 168.207 497.668 168.996 498.803 168.996Z" fill="#5082BD" fill-opacity="0.5"/>
<path d="M528.554 168.996C529.689 168.996 530.61 168.207 530.61 167.234C530.61 166.261 529.689 165.472 528.554 165.472C527.419 165.472 526.499 166.261 526.499 167.234C526.499 168.207 527.419 168.996 528.554 168.996Z" fill="#5082BD" fill-opacity="0.5"/>
<path d="M558.306 168.996C559.441 168.996 560.362 168.207 560.362 167.234C560.362 166.261 559.441 165.472 558.306 165.472C557.171 165.472 556.251 166.261 556.251 167.234C556.251 168.207 557.171 168.996 558.306 168.996Z" fill="#5082BD" fill-opacity="0.5"/>
<path d="M588.058 168.996C589.193 168.996 590.114 168.207 590.114 167.234C590.114 166.261 589.193 165.472 588.058 165.472C586.923 165.472 586.003 166.261 586.003 167.234C586.003 168.207 586.923 168.996 588.058 168.996Z" fill="#5082BD" fill-opacity="0.5"/>
<path d="M617.81 168.996C618.945 168.996 619.866 168.207 619.866 167.234C619.866 166.261 618.945 165.472 617.81 165.472C616.675 165.472 615.755 166.261 615.755 167.234C615.755 168.207 616.675 168.996 617.81 168.996Z" fill="#5082BD" fill-opacity="0.5"/>
<path d="M649.617 167.234C649.617 168.201 648.69 168.996 647.561 168.996C646.432 168.996 645.506 168.201 645.506 167.234C645.506 166.266 646.432 165.472 647.561 165.472C648.707 165.472 649.617 166.266 649.617 167.234Z" fill="#5082BD" fill-opacity="0.5"/>
<path d="M677.313 168.996C678.448 168.996 679.368 168.207 679.368 167.234C679.368 166.261 678.448 165.472 677.313 165.472C676.178 165.472 675.258 166.261 675.258 167.234C675.258 168.207 676.178 168.996 677.313 168.996Z" fill="#5082BD" fill-opacity="0.5"/>
<path d="M707.065 168.996C708.2 168.996 709.12 168.207 709.12 167.234C709.12 166.261 708.2 165.472 707.065 165.472C705.93 165.472 705.01 166.261 705.01 167.234C705.01 168.207 705.93 168.996 707.065 168.996Z" fill="#5082BD" fill-opacity="0.5"/>
<path d="M469.051 186.14C470.187 186.14 471.107 185.351 471.107 184.378C471.107 183.405 470.187 182.616 469.051 182.616C467.916 182.616 466.996 183.405 466.996 184.378C466.996 185.351 467.916 186.14 469.051 186.14Z" fill="#5082BD" fill-opacity="0.5"/>
<path d="M498.803 186.14C499.938 186.14 500.859 185.351 500.859 184.378C500.859 183.405 499.938 182.616 498.803 182.616C497.668 182.616 496.748 183.405 496.748 184.378C496.748 185.351 497.668 186.14 498.803 186.14Z" fill="#5082BD" fill-opacity="0.5"/>
<path d="M528.554 186.14C529.689 186.14 530.61 185.351 530.61 184.378C530.61 183.405 529.689 182.616 528.554 182.616C527.419 182.616 526.499 183.405 526.499 184.378C526.499 185.351 527.419 186.14 528.554 186.14Z" fill="#5082BD" fill-opacity="0.5"/>
<path d="M558.306 186.14C559.441 186.14 560.362 185.351 560.362 184.378C560.362 183.405 559.441 182.616 558.306 182.616C557.171 182.616 556.251 183.405 556.251 184.378C556.251 185.351 557.171 186.14 558.306 186.14Z" fill="#5082BD" fill-opacity="0.5"/>
<path d="M588.058 186.14C589.193 186.14 590.114 185.351 590.114 184.378C590.114 183.405 589.193 182.616 588.058 182.616C586.923 182.616 586.003 183.405 586.003 184.378C586.003 185.351 586.923 186.14 588.058 186.14Z" fill="#5082BD" fill-opacity="0.5"/>
<path d="M617.81 186.14C618.945 186.14 619.866 185.351 619.866 184.378C619.866 183.405 618.945 182.616 617.81 182.616C616.675 182.616 615.755 183.405 615.755 184.378C615.755 185.351 616.675 186.14 617.81 186.14Z" fill="#5082BD" fill-opacity="0.5"/>
<path d="M649.617 184.378C649.617 185.346 648.69 186.14 647.561 186.14C646.432 186.14 645.506 185.346 645.506 184.378C645.506 183.41 646.432 182.616 647.561 182.616C648.707 182.616 649.617 183.41 649.617 184.378Z" fill="#5082BD" fill-opacity="0.5"/>
<path d="M677.313 186.14C678.448 186.14 679.368 185.351 679.368 184.378C679.368 183.405 678.448 182.616 677.313 182.616C676.178 182.616 675.258 183.405 675.258 184.378C675.258 185.351 676.178 186.14 677.313 186.14Z" fill="#5082BD" fill-opacity="0.5"/>
<path d="M707.065 186.14C708.2 186.14 709.12 185.351 709.12 184.378C709.12 183.405 708.2 182.616 707.065 182.616C705.93 182.616 705.01 183.405 705.01 184.378C705.01 185.351 705.93 186.14 707.065 186.14Z" fill="#5082BD" fill-opacity="0.5"/>
<path d="M469.051 203.284C470.187 203.284 471.107 202.495 471.107 201.522C471.107 200.549 470.187 199.76 469.051 199.76C467.916 199.76 466.996 200.549 466.996 201.522C466.996 202.495 467.916 203.284 469.051 203.284Z" fill="#5082BD" fill-opacity="0.5"/>
<path d="M498.803 203.284C499.938 203.284 500.859 202.495 500.859 201.522C500.859 200.549 499.938 199.76 498.803 199.76C497.668 199.76 496.748 200.549 496.748 201.522C496.748 202.495 497.668 203.284 498.803 203.284Z" fill="#5082BD" fill-opacity="0.5"/>
<path d="M528.554 203.284C529.689 203.284 530.61 202.495 530.61 201.522C530.61 200.549 529.689 199.76 528.554 199.76C527.419 199.76 526.499 200.549 526.499 201.522C526.499 202.495 527.419 203.284 528.554 203.284Z" fill="#5082BD" fill-opacity="0.5"/>
<path d="M558.306 203.284C559.441 203.284 560.362 202.495 560.362 201.522C560.362 200.549 559.441 199.76 558.306 199.76C557.171 199.76 556.251 200.549 556.251 201.522C556.251 202.495 557.171 203.284 558.306 203.284Z" fill="#5082BD" fill-opacity="0.5"/>
<path d="M588.058 203.284C589.193 203.284 590.114 202.495 590.114 201.522C590.114 200.549 589.193 199.76 588.058 199.76C586.923 199.76 586.003 200.549 586.003 201.522C586.003 202.495 586.923 203.284 588.058 203.284Z" fill="#5082BD" fill-opacity="0.5"/>
<path d="M617.81 203.284C618.945 203.284 619.866 202.495 619.866 201.522C619.866 200.549 618.945 199.76 617.81 199.76C616.675 199.76 615.755 200.549 615.755 201.522C615.755 202.495 616.675 203.284 617.81 203.284Z" fill="#5082BD" fill-opacity="0.5"/>
<path d="M649.617 201.522C649.617 202.49 648.69 203.284 647.561 203.284C646.432 203.284 645.506 202.49 645.506 201.522C645.506 200.554 646.432 199.76 647.561 199.76C648.707 199.76 649.617 200.554 649.617 201.522Z" fill="#5082BD" fill-opacity="0.5"/>
<path d="M677.313 203.284C678.448 203.284 679.368 202.495 679.368 201.522C679.368 200.549 678.448 199.76 677.313 199.76C676.178 199.76 675.258 200.549 675.258 201.522C675.258 202.495 676.178 203.284 677.313 203.284Z" fill="#5082BD" fill-opacity="0.5"/>
<path d="M707.065 203.284C708.2 203.284 709.12 202.495 709.12 201.522C709.12 200.549 708.2 199.76 707.065 199.76C705.93 199.76 705.01 200.549 705.01 201.522C705.01 202.495 705.93 203.284 707.065 203.284Z" fill="#5082BD" fill-opacity="0.5"/>
<path d="M469.051 220.428C470.187 220.428 471.107 219.64 471.107 218.666C471.107 217.693 470.187 216.904 469.051 216.904C467.916 216.904 466.996 217.693 466.996 218.666C466.996 219.64 467.916 220.428 469.051 220.428Z" fill="#5082BD" fill-opacity="0.5"/>
<path d="M498.803 220.428C499.938 220.428 500.859 219.64 500.859 218.666C500.859 217.693 499.938 216.904 498.803 216.904C497.668 216.904 496.748 217.693 496.748 218.666C496.748 219.64 497.668 220.428 498.803 220.428Z" fill="#5082BD" fill-opacity="0.5"/>
<path d="M528.554 220.428C529.689 220.428 530.61 219.64 530.61 218.666C530.61 217.693 529.689 216.904 528.554 216.904C527.419 216.904 526.499 217.693 526.499 218.666C526.499 219.64 527.419 220.428 528.554 220.428Z" fill="#5082BD" fill-opacity="0.5"/>
<path d="M558.306 220.428C559.441 220.428 560.362 219.64 560.362 218.666C560.362 217.693 559.441 216.904 558.306 216.904C557.171 216.904 556.251 217.693 556.251 218.666C556.251 219.64 557.171 220.428 558.306 220.428Z" fill="#5082BD" fill-opacity="0.5"/>
<path d="M588.058 220.428C589.193 220.428 590.114 219.64 590.114 218.666C590.114 217.693 589.193 216.904 588.058 216.904C586.923 216.904 586.003 217.693 586.003 218.666C586.003 219.64 586.923 220.428 588.058 220.428Z" fill="#5082BD" fill-opacity="0.5"/>
<path d="M617.81 220.428C618.945 220.428 619.866 219.64 619.866 218.666C619.866 217.693 618.945 216.904 617.81 216.904C616.675 216.904 615.755 217.693 615.755 218.666C615.755 219.64 616.675 220.428 617.81 220.428Z" fill="#5082BD" fill-opacity="0.5"/>
<path d="M649.617 218.666C649.617 219.634 648.69 220.428 647.561 220.428C646.432 220.428 645.506 219.634 645.506 218.666C645.506 217.699 646.432 216.904 647.561 216.904C648.707 216.904 649.617 217.699 649.617 218.666Z" fill="#5082BD" fill-opacity="0.5"/>
<path d="M677.313 220.428C678.448 220.428 679.368 219.64 679.368 218.666C679.368 217.693 678.448 216.904 677.313 216.904C676.178 216.904 675.258 217.693 675.258 218.666C675.258 219.64 676.178 220.428 677.313 220.428Z" fill="#5082BD" fill-opacity="0.5"/>
<path d="M707.065 220.428C708.2 220.428 709.12 219.64 709.12 218.666C709.12 217.693 708.2 216.904 707.065 216.904C705.93 216.904 705.01 217.693 705.01 218.666C705.01 219.64 705.93 220.428 707.065 220.428Z" fill="#5082BD" fill-opacity="0.5"/>
<path d="M412.947 571.161L381.195 561.536L349.443 571.161L317.691 561.536L285.939 571.161L254.187 561.536L222.435 571.161L190.683 561.536L158.931 571.161L127.164 561.536L95.4123 571.161L63.6603 561.536L31.8941 571.161L0 561.495L0.269928 561.009L31.8941 570.603L63.6603 560.968L95.4123 570.603L127.164 560.968L158.931 570.603L190.683 560.968L222.435 570.603L254.187 560.968L285.939 570.603L317.691 560.968L349.443 570.603L381.195 560.968L412.947 570.603L444.699 560.968L476.593 570.644L476.323 571.12L444.699 561.536L412.947 571.161Z" fill="#5082BD" fill-opacity="0.5"/>
<path d="M412.947 561.981L381.195 552.346L349.443 561.981L317.691 552.346L285.939 561.981L254.187 552.346L222.435 561.981L190.683 552.346L158.931 561.981L127.164 552.346L95.4123 561.981L63.6603 552.346L31.8941 561.981L0 552.304L0.269928 551.829L31.8941 561.423L63.6603 551.787L95.4123 561.423L127.164 551.787L158.931 561.423L190.683 551.787L222.435 561.423L254.187 551.787L285.939 561.423L317.691 551.787L349.443 561.423L381.195 551.787L412.947 561.423L444.699 551.787L476.593 561.464L476.323 561.94L444.699 552.346L412.947 561.981Z" fill="#5082BD" fill-opacity="0.5"/>
<path d="M412.947 552.801L381.195 543.165L349.443 552.801L317.691 543.165L285.939 552.801L254.187 543.165L222.435 552.801L190.683 543.165L158.931 552.801L127.164 543.165L95.4123 552.801L63.6603 543.165L31.8941 552.801L0 543.124L0.269928 542.648L31.8941 552.232L63.6603 542.607L95.4123 552.232L127.164 542.607L158.931 552.232L190.683 542.607L222.435 552.232L254.187 542.607L285.939 552.232L317.691 542.607L349.443 552.232L381.195 542.607L412.947 552.232L444.699 542.607L476.593 552.273L476.323 552.759L444.699 543.165L412.947 552.801Z" fill="#5082BD" fill-opacity="0.5"/>
<path d="M412.947 543.61L381.195 533.985L349.443 543.61L317.691 533.985L285.939 543.61L254.187 533.985L222.435 543.61L190.683 533.985L158.931 543.61L127.164 533.985L95.4123 543.61L63.6603 533.985L31.8941 543.61L0 533.943L0.269928 533.468L31.8941 543.051L63.6603 533.427L95.4123 543.051L127.164 533.427L158.931 543.051L190.683 533.427L222.435 543.051L254.187 533.427L285.939 543.051L317.691 533.427L349.443 543.051L381.195 533.427L412.947 543.051L444.699 533.427L476.593 543.093L476.323 543.568L444.699 533.985L412.947 543.61Z" fill="#5082BD" fill-opacity="0.5"/>
<path d="M412.947 534.429L381.195 524.804L349.443 534.429L317.691 524.804L285.939 534.429L254.187 524.804L222.435 534.429L190.683 524.804L158.931 534.429L127.164 524.804L95.4123 534.429L63.6603 524.804L31.8941 534.429L0 524.763L0.269928 524.287L31.8941 533.871L63.6603 524.246L95.4123 533.871L127.164 524.246L158.931 533.871L190.683 524.246L222.435 533.871L254.187 524.246L285.939 533.871L317.691 524.246L349.443 533.871L381.195 524.246L412.947 533.871L444.699 524.246L476.593 533.912L476.323 534.388L444.699 524.804L412.947 534.429Z" fill="#5082BD" fill-opacity="0.5"/>
<path d="M412.947 525.249L381.195 515.624L349.443 525.249L317.691 515.624L285.939 525.249L254.187 515.624L222.435 525.249L190.683 515.624L158.931 525.249L127.164 515.624L95.4123 525.249L63.6603 515.624L31.8941 525.249L0 515.583L0.269928 515.107L31.8941 524.691L63.6603 515.066L95.4123 524.691L127.164 515.066L158.931 524.691L190.683 515.066L222.435 524.691L254.187 515.066L285.939 524.691L317.691 515.066L349.443 524.691L381.195 515.066L412.947 524.691L444.699 515.066L476.593 524.732L476.323 525.208L444.699 515.624L412.947 525.249Z" fill="#5082BD" fill-opacity="0.5"/>
<path d="M412.947 516.068L381.195 506.443L349.443 516.068L317.691 506.443L285.939 516.068L254.187 506.443L222.435 516.068L190.683 506.443L158.931 516.068L127.164 506.443L95.4123 516.068L63.6603 506.443L31.8941 516.068L0 506.402L0.269928 505.926L31.8941 515.51L63.6603 505.885L95.4123 515.51L127.164 505.885L158.931 515.51L190.683 505.885L222.435 515.51L254.187 505.885L285.939 515.51L317.691 505.885L349.443 515.51L381.195 505.885L412.947 515.51L444.699 505.885L476.593 515.551L476.323 516.027L444.699 506.443L412.947 516.068Z" fill="#5082BD" fill-opacity="0.5"/>
<path d="M412.947 506.888L381.195 497.263L349.443 506.888L317.691 497.263L285.939 506.888L254.187 497.263L222.435 506.888L190.683 497.263L158.931 506.888L127.164 497.263L95.4123 506.888L63.6603 497.263L31.8941 506.888L0 497.222L0.269928 496.736L31.8941 506.33L63.6603 496.694L95.4123 506.33L127.164 496.694L158.931 506.33L190.683 496.694L222.435 506.33L254.187 496.694L285.939 506.33L317.691 496.694L349.443 506.33L381.195 496.694L412.947 506.33L444.699 496.694L476.593 506.371L476.323 506.847L444.699 497.263L412.947 506.888Z" fill="#5082BD" fill-opacity="0.5"/>
<path d="M412.947 497.708L381.195 488.083L349.443 497.708L317.691 488.083L285.939 497.708L254.187 488.083L222.435 497.708L190.683 488.083L158.931 497.708L127.164 488.083L95.4123 497.708L63.6603 488.083L31.8941 497.708L0 488.041L0.269928 487.556L31.8941 497.149L63.6603 487.514L95.4123 497.149L127.164 487.514L158.931 497.149L190.683 487.514L222.435 497.149L254.187 487.514L285.939 497.149L317.691 487.514L349.443 497.149L381.195 487.514L412.947 497.149L444.699 487.514L476.593 497.191L476.323 497.666L444.699 488.083L412.947 497.708Z" fill="#5082BD" fill-opacity="0.5"/>
<path d="M412.947 488.527L381.195 478.892L349.443 488.527L317.691 478.892L285.939 488.527L254.187 478.892L222.435 488.527L190.683 478.892L158.931 488.527L127.164 478.892L95.4123 488.527L63.6603 478.892L31.8941 488.527L0 478.85L0.269928 478.375L31.8941 487.969L63.6603 478.333L95.4123 487.969L127.164 478.333L158.931 487.969L190.683 478.333L222.435 487.969L254.187 478.333L285.939 487.969L317.691 478.333L349.443 487.969L381.195 478.333L412.947 487.969L444.699 478.333L476.593 488.01L476.323 488.486L444.699 478.892L412.947 488.527Z" fill="#5082BD" fill-opacity="0.5"/>
<path d="M412.947 479.347L381.195 469.712L349.443 479.347L317.691 469.712L285.939 479.347L254.187 469.712L222.435 479.347L190.683 469.712L158.931 479.347L127.164 469.712L95.4123 479.347L63.6603 469.712L31.8941 479.347L0 469.67L0.269928 469.195L31.8941 478.778L63.6603 469.153L95.4123 478.778L127.164 469.153L158.931 478.778L190.683 469.153L222.435 478.778L254.187 469.153L285.939 478.778L317.691 469.153L349.443 478.778L381.195 469.153L412.947 478.778L444.699 469.153L476.593 478.82L476.323 479.306L444.699 469.712L412.947 479.347Z" fill="#5082BD" fill-opacity="0.5"/>
<path d="M412.947 470.156L381.195 460.531L349.443 470.156L317.691 460.531L285.939 470.156L254.187 460.531L222.435 470.156L190.683 460.531L158.931 470.156L127.164 460.531L95.4123 470.156L63.6603 460.531L31.8941 470.156L0 460.49L0.269928 460.014L31.8941 469.598L63.6603 459.973L95.4123 469.598L127.164 459.973L158.931 469.598L190.683 459.973L222.435 469.598L254.187 459.973L285.939 469.598L317.691 459.973L349.443 469.598L381.195 459.973L412.947 469.598L444.699 459.973L476.593 469.639L476.323 470.115L444.699 460.531L412.947 470.156Z" fill="#5082BD" fill-opacity="0.5"/>
<path d="M412.947 460.975L381.195 451.351L349.443 460.975L317.691 451.351L285.939 460.975L254.187 451.351L222.435 460.975L190.683 451.351L158.931 460.975L127.164 451.351L95.4123 460.975L63.6603 451.351L31.8941 460.975L0 451.309L0.269928 450.834L31.8941 460.417L63.6603 450.792L95.4123 460.417L127.164 450.792L158.931 460.417L190.683 450.792L222.435 460.417L254.187 450.792L285.939 460.417L317.691 450.792L349.443 460.417L381.195 450.792L412.947 460.417L444.699 450.792L476.593 460.459L476.323 460.934L444.699 451.351L412.947 460.975Z" fill="#5082BD" fill-opacity="0.5"/>
<path d="M412.947 451.795L381.195 442.17L349.443 451.795L317.691 442.17L285.939 451.795L254.187 442.17L222.435 451.795L190.683 442.17L158.931 451.795L127.164 442.17L95.4123 451.795L63.6603 442.17L31.8941 451.795L0 442.129L0.269928 441.653L31.8941 451.237L63.6603 441.612L95.4123 451.237L127.164 441.612L158.931 451.237L190.683 441.612L222.435 451.237L254.187 441.612L285.939 451.237L317.691 441.612L349.443 451.237L381.195 441.612L412.947 451.237L444.699 441.612L476.593 451.278L476.323 451.754L444.699 442.17L412.947 451.795Z" fill="#5082BD" fill-opacity="0.5"/>
<path d="M412.947 442.614L381.195 432.99L349.443 442.614L317.691 432.99L285.939 442.614L254.187 432.99L222.435 442.614L190.683 432.99L158.931 442.614L127.164 432.99L95.4123 442.614L63.6603 432.99L31.8941 442.614L0 432.948L0.269928 432.462L31.8941 442.056L63.6603 432.421L95.4123 442.056L127.164 432.421L158.931 442.056L190.683 432.421L222.435 442.056L254.187 432.421L285.939 442.056L317.691 432.421L349.443 442.056L381.195 432.421L412.947 442.056L444.699 432.421L476.593 442.098L476.323 442.573L444.699 432.99L412.947 442.614Z" fill="#5082BD" fill-opacity="0.5"/>
<path d="M412.947 433.434L381.195 423.809L349.443 433.434L317.691 423.809L285.939 433.434L254.187 423.809L222.435 433.434L190.683 423.809L158.931 433.434L127.164 423.809L95.4123 433.434L63.6603 423.809L31.8941 433.434L0 423.768L0.269928 423.282L31.8941 432.876L63.6603 423.24L95.4123 432.876L127.164 423.24L158.931 432.876L190.683 423.24L222.435 432.876L254.187 423.24L285.939 432.876L317.691 423.24L349.443 432.876L381.195 423.24L412.947 432.876L444.699 423.24L476.593 432.917L476.323 433.393L444.699 423.809L412.947 433.434Z" fill="#5082BD" fill-opacity="0.5"/>
<path d="M412.947 424.254L381.195 414.619L349.443 424.254L317.691 414.619L285.939 424.254L254.187 414.619L222.435 424.254L190.683 414.619L158.931 424.254L127.164 414.619L95.4123 424.254L63.6603 414.619L31.8941 424.254L0 414.577L0.269928 414.102L31.8941 423.696L63.6603 414.06L95.4123 423.696L127.164 414.06L158.931 423.696L190.683 414.06L222.435 423.696L254.187 414.06L285.939 423.696L317.691 414.06L349.443 423.696L381.195 414.06L412.947 423.696L444.699 414.06L476.593 423.737L476.323 424.213L444.699 414.619L412.947 424.254Z" fill="#5082BD" fill-opacity="0.5"/>
<path d="M412.947 415.073L381.195 405.438L349.443 415.073L317.691 405.438L285.939 415.073L254.187 405.438L222.435 415.073L190.683 405.438L158.931 415.073L127.164 405.438L95.4123 415.073L63.6603 405.438L31.8941 415.073L0 405.397L0.269928 404.921L31.8941 414.505L63.6603 404.88L95.4123 414.505L127.164 404.88L158.931 414.505L190.683 404.88L222.435 414.505L254.187 404.88L285.939 414.505L317.691 404.88L349.443 414.505L381.195 404.88L412.947 414.505L444.699 404.88L476.593 414.546L476.323 415.032L444.699 405.438L412.947 415.073Z" fill="#5082BD" fill-opacity="0.5"/>
<path d="M412.947 405.893L381.195 396.257L349.443 405.893L317.691 396.257L285.939 405.893L254.187 396.257L222.435 405.893L190.683 396.257L158.931 405.893L127.164 396.257L95.4123 405.893L63.6603 396.257L31.8941 405.893L0 396.216L0.269928 395.741L31.8941 405.324L63.6603 395.699L95.4123 405.324L127.164 395.699L158.931 405.324L190.683 395.699L222.435 405.324L254.187 395.699L285.939 405.324L317.691 395.699L349.443 405.324L381.195 395.699L412.947 405.324L444.699 395.699L476.593 405.366L476.323 405.851L444.699 396.257L412.947 405.893Z" fill="#5082BD" fill-opacity="0.5"/>
<rect width="294.807" height="460.189" rx="116.134" transform="matrix(0.828641 0.55978 -0.57812 0.815952 356.064 0)" fill="#906CF9"/>
<path d="M322.484 254.807L304.61 250.148L286.735 254.807L268.861 250.148L250.987 254.807L233.112 250.148L215.238 254.807L197.364 250.148L179.489 254.807L161.607 250.148L143.733 254.807L125.858 250.148L107.976 254.807L90.0215 250.128L90.1734 249.898L107.976 254.537L125.858 249.878L143.733 254.537L161.607 249.878L179.489 254.537L197.364 249.878L215.238 254.537L233.112 249.878L250.987 254.537L268.861 249.878L286.735 254.537L304.61 249.878L322.484 254.537L340.358 249.878L358.313 254.557L358.161 254.787L340.358 250.148L322.484 254.807Z" fill="#287E74" fill-opacity="0.36"/>
<path d="M322.484 250.363L304.61 245.704L286.735 250.363L268.861 245.704L250.987 250.363L233.112 245.704L215.238 250.363L197.364 245.704L179.489 250.363L161.607 245.704L143.733 250.363L125.858 245.704L107.976 250.363L90.0215 245.684L90.1734 245.454L107.976 250.093L125.858 245.434L143.733 250.093L161.607 245.434L179.489 250.093L197.364 245.434L215.238 250.093L233.112 245.434L250.987 250.093L268.861 245.434L286.735 250.093L304.61 245.434L322.484 250.093L340.358 245.434L358.313 250.113L358.161 250.343L340.358 245.704L322.484 250.363Z" fill="#287E74" fill-opacity="0.36"/>
<path d="M322.484 245.919L304.61 241.26L286.735 245.919L268.861 241.26L250.987 245.919L233.112 241.26L215.238 245.919L197.364 241.26L179.489 245.919L161.607 241.26L143.733 245.919L125.858 241.26L107.976 245.919L90.0215 241.24L90.1734 241.01L107.976 245.649L125.858 240.99L143.733 245.649L161.607 240.99L179.489 245.649L197.364 240.99L215.238 245.649L233.112 240.99L250.987 245.649L268.861 240.99L286.735 245.649L304.61 240.99L322.484 245.649L340.358 240.99L358.313 245.669L358.161 245.899L340.358 241.26L322.484 245.919Z" fill="#287E74" fill-opacity="0.36"/>
<path d="M322.484 241.475L304.61 236.816L286.735 241.475L268.861 236.816L250.987 241.475L233.112 236.816L215.238 241.475L197.364 236.816L179.489 241.475L161.607 236.816L143.733 241.475L125.858 236.816L107.976 241.475L90.0215 236.796L90.1734 236.566L107.976 241.205L125.858 236.546L143.733 241.205L161.607 236.546L179.489 241.205L197.364 236.546L215.238 241.205L233.112 236.546L250.987 241.205L268.861 236.546L286.735 241.205L304.61 236.546L322.484 241.205L340.358 236.546L358.313 241.225L358.161 241.455L340.358 236.816L322.484 241.475Z" fill="#287E74" fill-opacity="0.36"/>
<path d="M322.484 237.032L304.61 232.373L286.735 237.032L268.861 232.373L250.987 237.032L233.112 232.373L215.238 237.032L197.364 232.373L179.489 237.032L161.607 232.373L143.733 237.032L125.858 232.373L107.976 237.032L90.0215 232.353L90.1734 232.117L107.976 236.761L125.858 232.097L143.733 236.761L161.607 232.097L179.489 236.761L197.364 232.097L215.238 236.761L233.112 232.097L250.987 236.761L268.861 232.097L286.735 236.761L304.61 232.097L322.484 236.761L340.358 232.097L358.313 236.781L358.161 237.012L340.358 232.373L322.484 237.032Z" fill="#287E74" fill-opacity="0.36"/>
<path d="M322.484 232.588L304.61 227.924L286.735 232.588L268.861 227.924L250.987 232.588L233.112 227.924L215.238 232.588L197.364 227.924L179.489 232.588L161.607 227.924L143.733 232.588L125.858 227.924L107.976 232.588L90.0215 227.904L90.1734 227.674L107.976 232.318L125.858 227.654L143.733 232.318L161.607 227.654L179.489 232.318L197.364 227.654L215.238 232.318L233.112 227.654L250.987 232.318L268.861 227.654L286.735 232.318L304.61 227.654L322.484 232.318L340.358 227.654L358.313 232.338L358.161 232.568L340.358 227.924L322.484 232.588Z" fill="#287E74" fill-opacity="0.36"/>
<path d="M322.484 228.144L304.61 223.48L286.735 228.144L268.861 223.48L250.987 228.144L233.112 223.48L215.238 228.144L197.364 223.48L179.489 228.144L161.607 223.48L143.733 228.144L125.858 223.48L107.976 228.144L90.0215 223.46L90.1734 223.23L107.976 227.874L125.858 223.21L143.733 227.874L161.607 223.21L179.489 227.874L197.364 223.21L215.238 227.874L233.112 223.21L250.987 227.874L268.861 223.21L286.735 227.874L304.61 223.21L322.484 227.874L340.358 223.21L358.313 227.894L358.161 228.124L340.358 223.48L322.484 228.144Z" fill="#287E74" fill-opacity="0.36"/>
<path d="M322.484 223.7L304.61 219.036L286.735 223.7L268.861 219.036L250.987 223.7L233.112 219.036L215.238 223.7L197.364 219.036L179.489 223.7L161.607 219.036L143.733 223.7L125.858 219.036L107.976 223.7L90.0215 219.016L90.1734 218.786L107.976 223.425L125.858 218.766L143.733 223.425L161.607 218.766L179.489 223.425L197.364 218.766L215.238 223.425L233.112 218.766L250.987 223.425L268.861 218.766L286.735 223.425L304.61 218.766L322.484 223.425L340.358 218.766L358.313 223.445L358.161 223.68L340.358 219.036L322.484 223.7Z" fill="#287E74" fill-opacity="0.36"/>
<path d="M322.484 219.251L304.61 214.592L286.735 219.251L268.861 214.592L250.987 219.251L233.112 214.592L215.238 219.251L197.364 214.592L179.489 219.251L161.607 214.592L143.733 219.251L125.858 214.592L107.976 219.251L90.0215 214.572L90.1734 214.342L107.976 218.981L125.858 214.322L143.733 218.981L161.607 214.322L179.489 218.981L197.364 214.322L215.238 218.981L233.112 214.322L250.987 218.981L268.861 214.322L286.735 218.981L304.61 214.322L322.484 218.981L340.358 214.322L358.313 219.001L358.161 219.231L340.358 214.592L322.484 219.251Z" fill="#287E74" fill-opacity="0.36"/>
<path d="M322.484 214.807L304.61 210.148L286.735 214.807L268.861 210.148L250.987 214.807L233.112 210.148L215.238 214.807L197.364 210.148L179.489 214.807L161.607 210.148L143.733 214.807L125.858 210.148L107.976 214.807L90.0215 210.128L90.1734 209.898L107.976 214.537L125.858 209.878L143.733 214.537L161.607 209.878L179.489 214.537L197.364 209.878L215.238 214.537L233.112 209.878L250.987 214.537L268.861 209.878L286.735 214.537L304.61 209.878L322.484 214.537L340.358 209.878L358.313 214.557L358.161 214.787L340.358 210.148L322.484 214.807Z" fill="#287E74" fill-opacity="0.36"/>
<path d="M322.484 210.364L304.61 205.705L286.735 210.364L268.861 205.705L250.987 210.364L233.112 205.705L215.238 210.364L197.364 205.705L179.489 210.364L161.607 205.705L143.733 210.364L125.858 205.705L107.976 210.364L90.0215 205.685L90.1734 205.454L107.976 210.093L125.858 205.434L143.733 210.093L161.607 205.434L179.489 210.093L197.364 205.434L215.238 210.093L233.112 205.434L250.987 210.093L268.861 205.434L286.735 210.093L304.61 205.434L322.484 210.093L340.358 205.434L358.313 210.113L358.161 210.344L340.358 205.705L322.484 210.364Z" fill="#287E74" fill-opacity="0.36"/>
<path d="M322.484 205.92L304.61 201.261L286.735 205.92L268.861 201.261L250.987 205.92L233.112 201.261L215.238 205.92L197.364 201.261L179.489 205.92L161.607 201.261L143.733 205.92L125.858 201.261L107.976 205.92L90.0215 201.241L90.1734 201.006L107.976 205.65L125.858 200.986L143.733 205.65L161.607 200.986L179.489 205.65L197.364 200.986L215.238 205.65L233.112 200.986L250.987 205.65L268.861 200.986L286.735 205.65L304.61 200.986L322.484 205.65L340.358 200.986L358.313 205.67L358.161 205.9L340.358 201.261L322.484 205.92Z" fill="#287E74" fill-opacity="0.36"/>
<path d="M322.484 201.476L304.61 196.817L286.735 201.476L268.861 196.817L250.987 201.476L233.112 196.817L215.238 201.476L197.364 196.817L179.489 201.476L161.607 196.817L143.733 201.476L125.858 196.817L107.976 201.476L90.0215 196.797L90.1734 196.562L107.976 201.206L125.858 196.542L143.733 201.206L161.607 196.542L179.489 201.206L197.364 196.542L215.238 201.206L233.112 196.542L250.987 201.206L268.861 196.542L286.735 201.206L304.61 196.542L322.484 201.206L340.358 196.542L358.313 201.226L358.161 201.456L340.358 196.817L322.484 201.476Z" fill="#287E74" fill-opacity="0.36"/>
<path d="M143.733 197.032L125.858 192.368L107.976 197.032L90.0215 192.348L90.1734 192.118L107.976 196.762L125.858 192.098L143.733 196.762L161.607 192.098L179.489 196.762L197.364 192.098L215.238 196.762L233.112 192.098L250.987 196.762L268.861 192.098L286.735 196.762L304.61 192.098L322.484 196.762L340.358 192.098L358.313 196.782L358.161 197.012L340.358 192.368L322.484 197.032L304.61 192.368L286.735 197.032L268.861 192.368L250.987 197.032L233.112 192.368L215.238 197.032L197.364 192.368L179.489 197.032L161.607 192.368L143.733 197.032Z" fill="#287E74" fill-opacity="0.36"/>
<path d="M322.484 192.588L304.61 187.924L286.735 192.588L268.861 187.924L250.987 192.588L233.112 187.924L215.238 192.588L197.364 187.924L179.489 192.588L161.607 187.924L143.733 192.588L125.858 187.924L107.976 192.588L90.0215 187.904L90.1734 187.674L107.976 192.313L125.858 187.654L143.733 192.313L161.607 187.654L179.489 192.313L197.364 187.654L215.238 192.313L233.112 187.654L250.987 192.313L268.861 187.654L286.735 192.313L304.61 187.654L322.484 192.313L340.358 187.654L358.313 192.333L358.161 192.568L340.358 187.924L322.484 192.588Z" fill="#287E74" fill-opacity="0.36"/>
<path d="M322.484 188.144L304.61 183.48L286.735 188.144L268.861 183.48L250.987 188.144L233.112 183.48L215.238 188.144L197.364 183.48L179.489 188.144L161.607 183.48L143.733 188.144L125.858 183.48L107.976 188.144L90.0215 183.46L90.1734 183.23L107.976 187.869L125.858 183.21L143.733 187.869L161.607 183.21L179.489 187.869L197.364 183.21L215.238 187.869L233.112 183.21L250.987 187.869L268.861 183.21L286.735 187.869L304.61 183.21L322.484 187.869L340.358 183.21L358.313 187.889L358.161 188.124L340.358 183.48L322.484 188.144Z" fill="#287E74" fill-opacity="0.36"/>
<path d="M322.484 183.695L304.61 179.036L286.735 183.695L268.861 179.036L250.987 183.695L233.112 179.036L215.238 183.695L197.364 179.036L179.489 183.695L161.607 179.036L143.733 183.695L125.858 179.036L107.976 183.695L90.0215 179.016L90.1734 178.786L107.976 183.425L125.858 178.766L143.733 183.425L161.607 178.766L179.489 183.425L197.364 178.766L215.238 183.425L233.112 178.766L250.987 183.425L268.861 178.766L286.735 183.425L304.61 178.766L322.484 183.425L340.358 178.766L358.313 183.445L358.161 183.675L340.358 179.036L322.484 183.695Z" fill="#287E74" fill-opacity="0.36"/>
<path d="M322.484 179.252L304.61 174.593L286.735 179.252L268.861 174.593L250.987 179.252L233.112 174.593L215.238 179.252L197.364 174.593L179.489 179.252L161.607 174.593L143.733 179.252L125.858 174.593L107.976 179.252L90.0215 174.573L90.1734 174.343L107.976 178.982L125.858 174.323L143.733 178.982L161.607 174.323L179.489 178.982L197.364 174.323L215.238 178.982L233.112 174.323L250.987 178.982L268.861 174.323L286.735 178.982L304.61 174.323L322.484 178.982L340.358 174.323L358.313 179.002L358.161 179.232L340.358 174.593L322.484 179.252Z" fill="#287E74" fill-opacity="0.36"/>
<path d="M322.484 174.808L304.61 170.149L286.735 174.808L268.861 170.149L250.987 174.808L233.112 170.149L215.238 174.808L197.364 170.149L179.489 174.808L161.607 170.149L143.733 174.808L125.858 170.149L107.976 174.808L90.0215 170.129L90.1734 169.899L107.976 174.538L125.858 169.879L143.733 174.538L161.607 169.879L179.489 174.538L197.364 169.879L215.238 174.538L233.112 169.879L250.987 174.538L268.861 169.879L286.735 174.538L304.61 169.879L322.484 174.538L340.358 169.879L358.313 174.558L358.161 174.788L340.358 170.149L322.484 174.808Z" fill="#287E74" fill-opacity="0.36"/>
<path d="M322.484 170.364L304.61 165.705L286.735 170.364L268.861 165.705L250.987 170.364L233.112 165.705L215.238 170.364L197.364 165.705L179.489 170.364L161.607 165.705L143.733 170.364L125.858 165.705L107.976 170.364L90.0215 165.685L90.1734 165.45L107.976 170.094L125.858 165.43L143.733 170.094L161.607 165.43L179.489 170.094L197.364 165.43L215.238 170.094L233.112 165.43L250.987 170.094L268.861 165.43L286.735 170.094L304.61 165.43L322.484 170.094L340.358 165.43L358.313 170.114L358.161 170.344L340.358 165.705L322.484 170.364Z" fill="#287E74" fill-opacity="0.36"/>
<path d="M322.484 165.92L304.61 161.261L286.735 165.92L268.861 161.261L250.987 165.92L233.112 161.261L215.238 165.92L197.364 161.261L179.489 165.92L161.607 161.261L143.733 165.92L125.858 161.261L107.976 165.92L90.0215 161.241L90.1734 161.006L107.976 165.65L125.858 160.986L143.733 165.65L161.607 160.986L179.489 165.65L197.364 160.986L215.238 165.65L233.112 160.986L250.987 165.65L268.861 160.986L286.735 165.65L304.61 160.986L322.484 165.65L340.358 160.986L358.313 165.67L358.161 165.9L340.358 161.261L322.484 165.92Z" fill="#287E74" fill-opacity="0.36"/>
<path d="M322.484 161.476L304.61 156.812L286.735 161.476L268.861 156.812L250.987 161.476L233.112 156.812L215.238 161.476L197.364 156.812L179.489 161.476L161.607 156.812L143.733 161.476L125.858 156.812L107.976 161.476L90.0215 156.792L90.1734 156.562L107.976 161.206L125.858 156.542L143.733 161.206L161.607 156.542L179.489 161.206L197.364 156.542L215.238 161.206L233.112 156.542L250.987 161.206L268.861 156.542L286.735 161.206L304.61 156.542L322.484 161.206L340.358 156.542L358.313 161.226L358.161 161.456L340.358 156.812L322.484 161.476Z" fill="#287E74" fill-opacity="0.36"/>
<path d="M322.484 157.033L304.61 152.369L286.735 157.033L268.861 152.369L250.987 157.033L233.112 152.369L215.238 157.033L197.364 152.369L179.489 157.033L161.607 152.369L143.733 157.033L125.858 152.369L107.976 157.033L90.0215 152.349L90.1734 152.118L107.976 156.757L125.858 152.098L143.733 156.757L161.607 152.098L179.489 156.757L197.364 152.098L215.238 156.757L233.112 152.098L250.987 156.757L268.861 152.098L286.735 156.757L304.61 152.098L322.484 156.757L340.358 152.098L358.313 156.777L358.161 157.013L340.358 152.369L322.484 157.033Z" fill="#287E74" fill-opacity="0.36"/>
<path d="M322.484 152.584L304.61 147.925L286.735 152.584L268.861 147.925L250.987 152.584L233.112 147.925L215.238 152.584L197.364 147.925L179.489 152.584L161.607 147.925L143.733 152.584L125.858 147.925L107.976 152.584L90.0215 147.905L90.1734 147.675L107.976 152.314L125.858 147.655L143.733 152.314L161.607 147.655L179.489 152.314L197.364 147.655L215.238 152.314L233.112 147.655L250.987 152.314L268.861 147.655L286.735 152.314L304.61 147.655L322.484 152.314L340.358 147.655L358.313 152.334L358.161 152.569L340.358 147.925L322.484 152.584Z" fill="#287E74" fill-opacity="0.36"/>
<path d="M322.484 148.14L304.61 143.481L286.735 148.14L268.861 143.481L250.987 148.14L233.112 143.481L215.238 148.14L197.364 143.481L179.489 148.14L161.607 143.481L143.733 148.14L125.858 143.481L107.976 148.14L90.0215 143.461L90.1734 143.231L107.976 147.87L125.858 143.211L143.733 147.87L161.607 143.211L179.489 147.87L197.364 143.211L215.238 147.87L233.112 143.211L250.987 147.87L268.861 143.211L286.735 147.87L304.61 143.211L322.484 147.87L340.358 143.211L358.313 147.89L358.161 148.12L340.358 143.481L322.484 148.14Z" fill="#287E74" fill-opacity="0.36"/>
<path d="M322.484 143.696L304.61 139.037L286.735 143.696L268.861 139.037L250.987 143.696L233.112 139.037L215.238 143.696L197.364 139.037L179.489 143.696L161.607 139.037L143.733 143.696L125.858 139.037L107.976 143.696L90.0215 139.017L90.1734 138.787L107.976 143.426L125.858 138.767L143.733 143.426L161.607 138.767L179.489 143.426L197.364 138.767L215.238 143.426L233.112 138.767L250.987 143.426L268.861 138.767L286.735 143.426L304.61 138.767L322.484 143.426L340.358 138.767L358.313 143.446L358.161 143.676L340.358 139.037L322.484 143.696Z" fill="#287E74" fill-opacity="0.36"/>
<path d="M322.484 139.252L304.61 134.593L286.735 139.252L268.861 134.593L250.987 139.252L233.112 134.593L215.238 139.252L197.364 134.593L179.489 139.252L161.607 134.593L143.733 139.252L125.858 134.593L107.976 139.252L90.0215 134.573L90.1734 134.343L107.976 138.982L125.858 134.323L143.733 138.982L161.607 134.323L179.489 138.982L197.364 134.323L215.238 138.982L233.112 134.323L250.987 138.982L268.861 134.323L286.735 138.982L304.61 134.323L322.484 138.982L340.358 134.323L358.313 139.002L358.161 139.232L340.358 134.593L322.484 139.252Z" fill="#287E74" fill-opacity="0.36"/>
<path d="M322.484 134.809L304.61 130.15L286.735 134.809L268.861 130.15L250.987 134.809L233.112 130.15L215.238 134.809L197.364 130.15L179.489 134.809L161.607 130.15L143.733 134.809L125.858 130.15L107.976 134.809L90.0215 130.13L90.1734 129.895L107.976 134.539L125.858 129.875L143.733 134.539L161.607 129.875L179.489 134.539L197.364 129.875L215.238 134.539L233.112 129.875L250.987 134.539L268.861 129.875L286.735 134.539L304.61 129.875L322.484 134.539L340.358 129.875L358.313 134.559L358.161 134.789L340.358 130.15L322.484 134.809Z" fill="#287E74" fill-opacity="0.36"/>
<path d="M322.484 130.365L304.61 125.706L286.735 130.365L268.861 125.706L250.987 130.365L233.112 125.706L215.238 130.365L197.364 125.706L179.489 130.365L161.607 125.706L143.733 130.365L125.858 125.706L107.976 130.365L90.0215 125.686L90.1734 125.45L107.976 130.094L125.858 125.43L143.733 130.094L161.607 125.43L179.489 130.094L197.364 125.43L215.238 130.094L233.112 125.43L250.987 130.094L268.861 125.43L286.735 130.094L304.61 125.43L322.484 130.094L340.358 125.43L358.313 130.114L358.161 130.345L340.358 125.706L322.484 130.365Z" fill="#287E74" fill-opacity="0.36"/>
<path d="M322.484 125.921L304.61 121.257L286.735 125.921L268.861 121.257L250.987 125.921L233.112 121.257L215.238 125.921L197.364 121.257L179.489 125.921L161.607 121.257L143.733 125.921L125.858 121.257L107.976 125.921L90.0215 121.237L90.1734 121.007L107.976 125.651L125.858 120.987L143.733 125.651L161.607 120.987L179.489 125.651L197.364 120.987L215.238 125.651L233.112 120.987L250.987 125.651L268.861 120.987L286.735 125.651L304.61 120.987L322.484 125.651L340.358 120.987L358.313 125.671L358.161 125.901L340.358 121.257L322.484 125.921Z" fill="#287E74" fill-opacity="0.36"/>
<path d="M322.484 121.477L304.61 116.813L286.735 121.477L268.861 116.813L250.987 121.477L233.112 116.813L215.238 121.477L197.364 116.813L179.489 121.477L161.607 116.813L143.733 121.477L125.858 116.813L107.976 121.477L90.0215 116.793L90.1734 116.563L107.976 121.202L125.858 116.543L143.733 121.202L161.607 116.543L179.489 121.202L197.364 116.543L215.238 121.202L233.112 116.543L250.987 121.202L268.861 116.543L286.735 121.202L304.61 116.543L322.484 121.202L340.358 116.543L358.313 121.222L358.161 121.457L340.358 116.813L322.484 121.477Z" fill="#287E74" fill-opacity="0.36"/>
<path d="M322.484 117.029L304.61 112.37L286.735 117.029L268.861 112.37L250.987 117.029L233.112 112.37L215.238 117.029L197.364 112.37L179.489 117.029L161.607 112.37L143.733 117.029L125.858 112.37L107.976 117.029L90.0215 112.35L90.1734 112.119L107.976 116.758L125.858 112.099L143.733 116.758L161.607 112.099L179.489 116.758L197.364 112.099L215.238 116.758L233.112 112.099L250.987 116.758L268.861 112.099L286.735 116.758L304.61 112.099L322.484 116.758L340.358 112.099L358.313 116.778L358.161 117.009L340.358 112.37L322.484 117.029Z" fill="#287E74" fill-opacity="0.36"/>
<path d="M322.484 112.585L304.61 107.926L286.735 112.585L268.861 107.926L250.987 112.585L233.112 107.926L215.238 112.585L197.364 107.926L179.489 112.585L161.607 107.926L143.733 112.585L125.858 107.926L107.976 112.585L90.0215 107.905L90.1734 107.675L107.976 112.314L125.858 107.655L143.733 112.314L161.607 107.655L179.489 112.314L197.364 107.655L215.238 112.314L233.112 107.655L250.987 112.314L268.861 107.655L286.735 112.314L304.61 107.655L322.484 112.314L340.358 107.655L358.313 112.334L358.161 112.564L340.358 107.926L322.484 112.585Z" fill="#287E74" fill-opacity="0.36"/>
<path d="M322.484 108.141L304.61 103.482L286.735 108.141L268.861 103.482L250.987 108.141L233.112 103.482L215.238 108.141L197.364 103.482L179.489 108.141L161.607 103.482L143.733 108.141L125.858 103.482L107.976 108.141L90.0215 103.462L90.1734 103.231L107.976 107.87L125.858 103.211L143.733 107.87L161.607 103.211L179.489 107.87L197.364 103.211L215.238 107.87L233.112 103.211L250.987 107.87L268.861 103.211L286.735 107.87L304.61 103.211L322.484 107.87L340.358 103.211L358.313 107.89L358.161 108.121L340.358 103.482L322.484 108.141Z" fill="#287E74" fill-opacity="0.36"/>
<path d="M322.484 103.697L304.61 99.0378L286.735 103.697L268.861 99.0378L250.987 103.697L233.112 99.0378L215.238 103.697L197.364 99.0378L179.489 103.697L161.607 99.0378L143.733 103.697L125.858 99.0378L107.976 103.697L90.0215 99.0178L90.1734 98.7876L107.976 103.427L125.858 98.7676L143.733 103.427L161.607 98.7676L179.489 103.427L197.364 98.7676L215.238 103.427L233.112 98.7676L250.987 103.427L268.861 98.7676L286.735 103.427L304.61 98.7676L322.484 103.427L340.358 98.7676L358.313 103.447L358.161 103.677L340.358 99.0378L322.484 103.697Z" fill="#287E74" fill-opacity="0.36"/>
<path d="M322.484 99.2528L304.61 94.5938L286.735 99.2528L268.861 94.5938L250.987 99.2528L233.112 94.5938L215.238 99.2528L197.364 94.5938L179.489 99.2528L161.607 94.5938L143.733 99.2528L125.858 94.5938L107.976 99.2528L90.0215 94.5738L90.1734 94.3386L107.976 98.9826L125.858 94.3186L143.733 98.9826L161.607 94.3186L179.489 98.9826L197.364 94.3186L215.238 98.9826L233.112 94.3186L250.987 98.9826L268.861 94.3186L286.735 98.9826L304.61 94.3186L322.484 98.9826L340.358 94.3186L358.313 99.0026L358.161 99.2328L340.358 94.5938L322.484 99.2528Z" fill="#287E74" fill-opacity="0.36"/>
<path d="M322.484 94.809L304.61 90.15L286.735 94.809L268.861 90.15L250.987 94.809L233.112 90.15L215.238 94.809L197.364 90.15L179.489 94.809L161.607 90.15L143.733 94.809L125.858 90.15L107.976 94.809L90.0215 90.13L90.1734 89.8948L107.976 94.5388L125.858 89.8748L143.733 94.5388L161.607 89.8748L179.489 94.5388L197.364 89.8748L215.238 94.5388L233.112 89.8748L250.987 94.5388L268.861 89.8748L286.735 94.5388L304.61 89.8748L322.484 94.5388L340.358 89.8748L358.313 94.5588L358.161 94.789L340.358 90.15L322.484 94.809Z" fill="#287E74" fill-opacity="0.36"/>
<path d="M322.484 90.3654L304.61 85.7014L286.735 90.3654L268.861 85.7014L250.987 90.3654L233.112 85.7014L215.238 90.3654L197.364 85.7014L179.489 90.3654L161.607 85.7014L143.733 90.3654L125.858 85.7014L107.976 90.3654L90.0215 85.6814L90.1734 85.4512L107.976 90.0952L125.858 85.4312L143.733 90.0952L161.607 85.4312L179.489 90.0952L197.364 85.4312L215.238 90.0952L233.112 85.4312L250.987 90.0952L268.861 85.4312L286.735 90.0952L304.61 85.4312L322.484 90.0952L340.358 85.4312L358.313 90.1152L358.161 90.3454L340.358 85.7014L322.484 90.3654Z" fill="#287E74" fill-opacity="0.36"/>
<path d="M322.484 85.9218L304.61 81.2578L286.735 85.9218L268.861 81.2578L250.987 85.9218L233.112 81.2578L215.238 85.9218L197.364 81.2578L179.489 85.9218L161.607 81.2578L143.733 85.9218L125.858 81.2578L107.976 85.9218L90.0215 81.2378L90.1734 81.0076L107.976 85.6466L125.858 80.9875L143.733 85.6466L161.607 80.9875L179.489 85.6466L197.364 80.9875L215.238 85.6466L233.112 80.9875L250.987 85.6466L268.861 80.9875L286.735 85.6466L304.61 80.9875L322.484 85.6466L340.358 80.9875L358.313 85.6666L358.161 85.9018L340.358 81.2578L322.484 85.9218Z" fill="#287E74" fill-opacity="0.36"/>
<path d="M322.484 81.4727L304.61 76.8137L286.735 81.4727L268.861 76.8137L250.987 81.4727L233.112 76.8137L215.238 81.4727L197.364 76.8137L179.489 81.4727L161.607 76.8137L143.733 81.4727L125.858 76.8137L107.976 81.4727L90.0215 76.7937L90.1734 76.5635L107.976 81.2025L125.858 76.5435L143.733 81.2025L161.607 76.5435L179.489 81.2025L197.364 76.5435L215.238 81.2025L233.112 76.5435L250.987 81.2025L268.861 76.5435L286.735 81.2025L304.61 76.5435L322.484 81.2025L340.358 76.5435L358.313 81.2225L358.161 81.4527L340.358 76.8137L322.484 81.4727Z" fill="#287E74" fill-opacity="0.36"/>
<path d="M322.484 77.0288L304.61 72.3698L286.735 77.0288L268.861 72.3698L250.987 77.0288L233.112 72.3698L215.238 77.0288L197.364 72.3698L179.489 77.0288L161.607 72.3698L143.733 77.0288L125.858 72.3698L107.976 77.0288L90.0215 72.3498L90.1734 72.1196L107.976 76.7586L125.858 72.0996L143.733 76.7586L161.607 72.0996L179.489 76.7586L197.364 72.0996L215.238 76.7586L233.112 72.0996L250.987 76.7586L268.861 72.0996L286.735 76.7586L304.61 72.0996L322.484 76.7586L340.358 72.0996L358.313 76.7786L358.161 77.0088L340.358 72.3698L322.484 77.0288Z" fill="#287E74" fill-opacity="0.36"/>
<path d="M322.484 72.585L304.61 67.926L286.735 72.585L268.861 67.926L250.987 72.585L233.112 67.926L215.238 72.585L197.364 67.926L179.489 72.585L161.607 67.926L143.733 72.585L125.858 67.926L107.976 72.585L90.0215 67.906L90.1734 67.6758L107.976 72.3148L125.858 67.6558L143.733 72.3148L161.607 67.6558L179.489 72.3148L197.364 67.6558L215.238 72.3148L233.112 67.6558L250.987 72.3148L268.861 67.6558L286.735 72.3148L304.61 67.6558L322.484 72.3148L340.358 67.6558L358.313 72.3348L358.161 72.565L340.358 67.926L322.484 72.585Z" fill="#287E74" fill-opacity="0.36"/>
<path d="M322.484 68.1413L304.61 63.4823L286.735 68.1413L268.861 63.4823L250.987 68.1413L233.112 63.4823L215.238 68.1413L197.364 63.4823L179.489 68.1413L161.607 63.4823L143.733 68.1413L125.858 63.4823L107.976 68.1413L90.0215 63.4622L90.1734 63.227L107.976 67.871L125.858 63.207L143.733 67.871L161.607 63.207L179.489 67.871L197.364 63.207L215.238 67.871L233.112 63.207L250.987 67.871L268.861 63.207L286.735 67.871L304.61 63.207L322.484 67.871L340.358 63.207L358.313 67.8911L358.161 68.1213L340.358 63.4823L322.484 68.1413Z" fill="#287E74" fill-opacity="0.36"/>
<path d="M322.484 63.6977L304.61 59.0387L286.735 63.6977L268.861 59.0387L250.987 63.6977L233.112 59.0387L215.238 63.6977L197.364 59.0387L179.489 63.6977L161.607 59.0387L143.733 63.6977L125.858 59.0387L107.976 63.6977L90.0215 59.0186L90.1734 58.7834L107.976 63.4274L125.858 58.7634L143.733 63.4274L161.607 58.7634L179.489 63.4274L197.364 58.7634L215.238 63.4274L233.112 58.7634L250.987 63.4274L268.861 58.7634L286.735 63.4274L304.61 58.7634L322.484 63.4274L340.358 58.7634L358.313 63.4475L358.161 63.6777L340.358 59.0387L322.484 63.6977Z" fill="#287E74" fill-opacity="0.36"/>
<path d="M322.484 59.2536L304.61 54.5896L286.735 59.2536L268.861 54.5896L250.987 59.2536L233.112 54.5896L215.238 59.2536L197.364 54.5896L179.489 59.2536L161.607 54.5896L143.733 59.2536L125.858 54.5896L107.976 59.2536L90.0215 54.5696L90.1734 54.3394L107.976 58.9833L125.858 54.3193L143.733 58.9833L161.607 54.3193L179.489 58.9833L197.364 54.3193L215.238 58.9833L233.112 54.3193L250.987 58.9833L268.861 54.3193L286.735 58.9833L304.61 54.3193L322.484 58.9833L340.358 54.3193L358.313 59.0034L358.161 59.2336L340.358 54.5896L322.484 59.2536Z" fill="#287E74" fill-opacity="0.36"/>
<path d="M322.484 54.81L304.61 50.146L286.735 54.81L268.861 50.146L250.987 54.81L233.112 50.146L215.238 54.81L197.364 50.146L179.489 54.81L161.607 50.146L143.733 54.81L125.858 50.146L107.976 54.81L90.0215 50.1259L90.1734 49.8957L107.976 54.5347L125.858 49.8757L143.733 54.5347L161.607 49.8757L179.489 54.5347L197.364 49.8757L215.238 54.5347L233.112 49.8757L250.987 54.5347L268.861 49.8757L286.735 54.5347L304.61 49.8757L322.484 54.5347L340.358 49.8757L358.313 54.5548L358.161 54.79L340.358 50.146L322.484 54.81Z" fill="#287E74" fill-opacity="0.36"/>
<path d="M322.484 50.3659L304.61 45.7019L286.735 50.3659L268.861 45.7019L250.987 50.3659L233.112 45.7019L215.238 50.3659L197.364 45.7019L179.489 50.3659L161.607 45.7019L143.733 50.3659L125.858 45.7019L107.976 50.3659L90.0215 45.6819L90.1734 45.4517L107.976 50.0906L125.858 45.4316L143.733 50.0906L161.607 45.4316L179.489 50.0906L197.364 45.4316L215.238 50.0906L233.112 45.4316L250.987 50.0906L268.861 45.4316L286.735 50.0906L304.61 45.4316L322.484 50.0906L340.358 45.4316L358.313 50.1107L358.161 50.3459L340.358 45.7019L322.484 50.3659Z" fill="#287E74" fill-opacity="0.36"/>
<path d="M337.945 337.868C342.592 330.483 340.27 309.386 340.27 309.386L434.052 271.619C434.052 271.619 434.052 344.614 447.36 357.285C447.36 357.285 422.012 375.853 392.23 375.853C362.447 375.853 337.945 337.868 337.945 337.868Z" fill="#FFCEBA"/>
<path d="M338.648 320.358C338.648 320.358 357.238 331.963 369.347 334.282C381.455 336.601 394.138 334.356 408.706 325.906C418.634 320.146 437.938 281.574 437.938 281.574L432.99 265.832L335.017 305.583L338.648 320.358Z" fill="#E88E80"/>
<path d="M304.149 258.116C307.105 270.564 329.707 303.899 335.622 308.54C341.537 313.182 359.912 323.31 369.205 325.42C378.498 327.53 396.031 322.467 404.481 315.716C412.93 308.965 439.12 275.629 440.81 263.603C442.5 251.577 440.81 236.385 440.81 236.385C459.898 239.338 470.805 182.584 455.596 176.887C440.388 171.191 432.361 191.867 432.361 191.867C350.196 192.079 301.19 245.668 304.149 258.116Z" fill="#FFCEBA"/>
<path d="M439.968 222.67L441.446 245.483L445.285 243.115C445.285 243.115 443.765 231.267 439.968 222.67Z" fill="#E88E80"/>
<path d="M458.046 205.537C460.528 201.265 456.209 183.043 451.408 181.608C446.607 180.173 439.432 191.66 439.479 197.26C442.824 190.081 446.116 186.539 449.682 186.495C453.248 186.451 457.337 197.813 458.046 205.537Z" fill="#E88E80"/>
<path d="M441.285 198.891C439.512 199.645 439.421 201.163 439.978 203.334C440.535 205.504 446.619 210.807 445.058 213.212C443.497 215.616 438.566 216.484 438.715 218.583C438.864 220.682 455.507 218.255 454.379 208.165C453.251 198.075 443.059 198.136 441.285 198.891Z" fill="#E88E80"/>
<path d="M347.484 289.421C350.559 291.074 385.027 281.788 399.731 272.412C397.403 272.164 378.549 274.321 376.059 275.315C373.569 276.309 371.156 279.381 369.08 280.045C367.003 280.708 363.683 280.174 360.691 281.003C357.699 281.832 347.484 289.421 347.484 289.421Z" fill="#E88E80"/>
<path d="M367.336 296.555C374.456 294.958 381.473 292.934 388.349 290.495C378.797 299.128 367.336 296.555 367.336 296.555Z" fill="#E88E80"/>
<path d="M357.631 256.053C353.671 255.474 350.37 254.32 348.884 254.981C347.398 255.642 346.576 256.463 347.069 258.113C347.563 259.763 352.171 256.301 357.631 256.053Z" fill="#E88E80"/>
<path d="M362.317 253.891C365.734 250.816 368.144 247.596 369.992 247.299C371.84 247.001 373.166 247.28 373.762 249.202C374.357 251.125 367.695 250.679 362.317 253.891Z" fill="#E88E80"/>
<path d="M374.911 241.834C374.911 241.834 381.954 249.467 374.359 254.403C381.733 251.858 379.875 246.8 379.199 244.894C378.523 242.988 374.911 241.834 374.911 241.834Z" fill="#E88E80"/>
<path d="M342.805 250.24C342.805 250.24 339.424 260.085 350.107 261.573C342.937 263.057 340.991 258.419 340.756 256.033C340.665 254.978 340.8 253.915 341.154 252.916C341.507 251.917 342.07 251.005 342.805 250.24Z" fill="#E88E80"/>
<path d="M434.264 208.113C432.855 190.732 436.774 184.107 436.774 184.107C436.774 184.107 439.118 178.793 447.357 175.901C442.286 143.77 431.087 136.809 431.087 136.809C431.087 136.809 433.2 134.908 437.212 136.809C430.87 126.047 419.257 124.782 419.257 124.782C419.257 124.782 417.145 111.489 399.614 105.581C404.473 109.801 402.995 113.599 402.995 113.599C402.995 113.599 379.125 102.84 352.089 102.84C361.173 105.581 363.073 111.489 363.073 111.489C363.073 111.489 328.222 105.581 317.02 110.856C326.104 110.856 329.705 115.076 329.705 115.076C329.705 115.076 303.301 115.709 294.429 124.992C304.02 122.039 311.75 125.837 311.75 125.837C311.75 125.837 283.658 134.699 272.04 155.479C278.589 153.275 283.446 155.479 283.446 155.479C277.533 165.712 281.24 183.319 281.24 183.319C281.24 183.319 362.518 157.272 383.394 160.016C404.269 162.759 417.787 182.801 424.124 189.131C430.461 195.461 434.264 208.113 434.264 208.113Z" fill="url(#paint0_linear_33284_289459)"/>
<path d="M412.155 153.257C412.155 153.257 443.838 159.868 447.359 164.65C448.379 166.025 449.042 167.632 449.287 169.326C449.532 171.02 449.353 172.749 448.766 174.357C448.766 174.357 432.496 180.262 425.842 182.653L412.155 153.257Z" fill="#0C0A14"/>
<path d="M285.585 262.385L273.046 254.122L419.174 199.306L401.674 147.471C422.907 150.865 432.785 199.312 432.785 199.312L433.422 204.598C433.953 209.015 432.859 213.474 430.345 217.146C427.83 220.818 424.066 223.453 419.753 224.56L375.779 235.854C375.779 235.854 343.956 235.344 338.17 248.602L308.404 263.663C300.901 267.655 291.26 265.468 285.585 262.385Z" fill="url(#paint1_linear_33284_289459)"/>
<path d="M257.013 206.287L385.191 145.962L389.421 145.612C395.936 145.045 402.427 146.946 407.602 150.94C411.896 154.289 413.735 156.237 416.959 161.853C420.183 167.47 424.788 186.842 424.788 186.842C428.872 202.458 420.541 212.878 408.962 216.845C408.962 216.845 365.907 229.422 348.04 235.881C330.173 242.341 291.933 258.469 291.933 258.469C280.61 262.347 269.044 253.276 265.735 243.936C262.426 234.595 255.16 216.991 257.013 206.287Z" fill="url(#paint2_linear_33284_289459)"/>
<path d="M269.961 187.484L374.418 148.849C395.009 141.029 401.167 149.353 404.22 157.909L411.268 177.615C415.956 190.693 411.368 208.427 398.307 213.173L292.251 251.701C289.687 252.631 286.964 253.044 284.239 252.915C281.515 252.786 278.843 252.118 276.378 250.951C273.914 249.783 271.706 248.138 269.882 246.112C268.059 244.085 266.656 241.717 265.756 239.145L258.354 214.958C254.51 203.967 258.997 191.442 269.961 187.484Z" fill="url(#paint3_linear_33284_289459)"/>
<path d="M288.729 185.537C288.729 185.537 281.97 199.717 284.716 206.659C287.463 213.6 295.532 206.003 299.078 213.821C302.624 221.638 295.7 245.933 295.7 245.933L321.194 236.083C321.194 236.083 325.482 209.813 317.885 203.904C310.288 197.996 303.311 200.252 296.342 199.335C289.374 198.417 288.729 185.537 288.729 185.537Z" fill="url(#paint4_linear_33284_289459)"/>
<path fill-rule="evenodd" clip-rule="evenodd" d="M334.567 332.442C304.779 325.445 261.622 345.523 261.622 345.523C261.622 345.523 173.758 379.288 173.758 399.829C173.758 420.369 206.709 537.531 258.247 546.252C290.842 551.769 304.024 513.622 304.024 513.622C305.587 530.218 318.512 565.06 318.512 565.06H623.108L623.108 565.064H685.327C675.395 542.6 649.526 487.221 623.586 445.411L623.586 445.536C620.872 441.635 562.573 358.64 505.439 345.248C471.722 338.086 440.229 341.011 440.229 341.011C440.229 341.011 444.109 354.104 443.558 358.043C374.553 392.491 334.567 332.442 334.567 332.442Z" fill="url(#paint5_linear_33284_289459)"/>
<path d="M322.456 413.031C318.231 469.171 304.023 513.621 304.023 513.621L308 532.628C318.231 516.72 322.456 472.832 322.456 472.832C322.456 472.832 328.346 455.338 344.423 456.801C334.848 449.485 324.223 457.644 324.223 457.644C324.223 457.644 328.371 429.787 322.456 413.031Z" fill="#0B0838"/>
<path d="M246.394 375.848C246.394 375.848 286.407 378.026 287.532 448.017C279.929 388.717 249.937 387.645 249.937 387.645L246.394 375.848Z" fill="#0B0838"/>
<path d="M532.832 397.719C530.158 417.001 569.868 565.06 569.868 565.06H577.473C577.473 565.06 552.547 471.213 551.703 455.388C550.859 439.563 555.153 427.115 555.153 427.115C555.153 427.115 547.691 433.236 546.844 442.519C540.41 431.955 536.495 408.128 532.832 397.719Z" fill="#0B0838"/>
<path opacity="0.2" d="M117.022 509.858L334.057 509.858C348.221 509.858 359.703 498.388 359.703 484.24L359.703 267.45C359.703 253.302 348.221 241.833 334.057 241.833L117.022 241.833C102.858 241.833 91.3758 253.302 91.3758 267.45L91.3758 484.24C91.3758 498.388 102.858 509.858 117.022 509.858Z" fill="#7B61FF"/>
<path d="M334.054 511.236H117.027C109.862 511.228 102.993 508.382 97.9263 503.321C92.8598 498.26 90.01 491.399 90.002 484.242V267.46C90.01 260.303 92.8598 253.441 97.9263 248.38C102.993 243.32 109.862 240.473 117.027 240.465H334.054C341.219 240.473 348.088 243.32 353.154 248.38C358.221 253.441 361.071 260.303 361.079 267.46V484.242C361.071 491.399 358.221 498.26 353.154 503.321C348.088 508.382 341.219 511.228 334.054 511.236ZM117.027 243.22C110.593 243.227 104.425 245.783 99.8754 250.327C95.326 254.872 92.7669 261.033 92.7596 267.46V484.242C92.7669 490.668 95.326 496.83 99.8754 501.374C104.425 505.918 110.593 508.474 117.027 508.482H334.054C340.488 508.474 346.656 505.918 351.205 501.374C355.755 496.83 358.314 490.668 358.321 484.242V267.46C358.314 261.033 355.756 254.871 351.206 250.327C346.656 245.782 340.488 243.226 334.054 243.22H117.027Z" fill="#7B61FF"/>
<path d="M219.167 439.827C216.023 439.826 212.886 439.55 209.791 439.001C200.294 437.318 191.612 433.23 184.68 427.176L186.494 425.102C199.938 436.842 219.862 440.381 236.093 433.916C250.899 428.016 259.977 414.819 261.662 396.76L264.42 397.016C262.636 416.158 252.942 430.17 237.119 436.475C231.403 438.722 225.31 439.859 219.167 439.827Z" fill="#7B61FF"/>
<path d="M273.446 410.059L270.813 409.233C270.851 409.109 274.712 396.438 273.738 382.423C272.456 363.934 263.772 351.946 247.927 346.793L248.782 344.173C258.158 347.22 265.281 352.621 269.98 360.227C273.716 366.287 275.909 373.705 276.496 382.307C277.486 396.834 273.611 409.527 273.446 410.059Z" fill="#7B61FF"/>
<path d="M194.928 452.262C179.725 447.158 168.526 439.514 161.643 429.54C156.107 421.517 153.455 411.858 154.12 402.137C155 388.285 161.949 377.347 167.632 376.223L168.184 378.925C164.127 379.735 157.705 389.249 156.878 402.314C156.238 412.401 158.75 437.208 195.81 449.653L194.928 452.262Z" fill="#7B61FF"/>
<path d="M251.485 392.796L245.57 373.104C257.116 363.116 260.825 351.911 265.096 343.518C269.368 335.125 295.279 314.595 301.757 306.15C308.234 297.704 303.304 280.257 286.408 284.348C269.511 288.438 256.131 309.667 238.811 310.934C238.811 310.934 219.231 285.193 211 254.53C202.768 223.866 179.105 162.253 173.614 153.678C168.124 145.103 147.844 144.957 151.647 163.594C155.45 182.231 181.705 250.406 176.951 265.832C176.951 265.832 156.503 228.921 148.547 221.335C140.591 213.749 107.712 192.922 93.3475 184.272C78.9829 175.623 63.2146 191.233 78.139 204.314C93.0634 217.396 111.096 229.07 122.286 238.496C133.477 247.922 144.254 278.161 144.254 278.161C144.254 278.161 115.315 257.664 105.809 252.932C96.3036 248.2 60.6776 238.355 46.4564 236.245C32.2352 234.135 30.5448 247.076 40.26 254.951C49.9752 262.826 85.604 271.971 92.363 274.508C99.122 277.045 121.371 299.685 121.371 299.685C121.371 299.685 93.5184 289.711 83.351 289.278C73.1835 288.846 48.0227 287.309 33.3603 289.829C18.6979 292.35 22.9392 307.692 33.3603 309.386C43.7815 311.08 70.9581 311.449 81.5199 313.325C92.0817 315.201 111.758 324.853 115.034 330.062C118.31 335.271 144.041 379.153 172.98 387.028L178.683 403.487C178.683 403.487 195.863 431.476 226.208 423.529C256.553 415.582 251.485 392.796 251.485 392.796Z" fill="#FFCEBA"/>
<path d="M214.59 378.167C238.107 378.869 245.569 373.104 245.569 373.104L247.883 380.817C247.883 380.817 228.954 386.186 214.59 378.167Z" fill="#E88E80"/>
<path d="M172.979 387.028C172.979 387.028 185.018 387.579 198.396 379.996C189.665 392.375 175.16 393.769 175.16 393.769L172.979 387.028Z" fill="#E88E80"/>
<path d="M238.81 310.934C232.405 311.804 225.912 311.804 219.507 310.934C235.137 309.791 236.687 307.995 236.687 307.995L238.81 310.934Z" fill="#E88E80"/>
<path d="M136.579 339.488C141.217 335.352 145.705 331.114 150.042 326.773C154.385 322.423 158.574 317.942 162.534 313.276C163.028 312.689 163.53 312.113 164.015 311.521L165.463 309.741C165.954 309.155 166.414 308.546 166.891 307.948L167.6 307.048L168.295 306.133C170.167 303.717 171.921 301.213 173.636 298.679L174.905 296.768L176.124 294.82C176.328 294.495 176.54 294.176 176.733 293.845L177.315 292.856C177.701 292.195 178.115 291.542 178.482 290.87C180.026 288.209 181.383 285.449 182.767 282.662C182.367 284.157 181.984 285.675 181.457 287.141C181.336 287.51 181.212 287.881 181.082 288.242C180.952 288.603 180.826 288.981 180.677 289.344L179.819 291.523C179.681 291.889 179.516 292.242 179.356 292.597L178.873 293.666C178.556 294.379 178.228 295.09 177.869 295.784L176.805 297.878L175.666 299.927C174.118 302.648 172.43 305.287 170.611 307.835C170.385 308.155 170.164 308.477 169.933 308.791L169.23 309.73C168.755 310.353 168.298 310.987 167.812 311.598L166.348 313.43C165.854 314.039 165.347 314.634 164.845 315.231C160.796 319.985 156.389 324.422 151.663 328.505C149.303 330.544 146.876 332.499 144.367 334.342C143.104 335.254 141.843 336.166 140.545 337.022C139.246 337.879 137.936 338.725 136.579 339.488Z" fill="#E88E80"/>
<path d="M212.9 292.928C212.489 293.068 212.073 293.203 211.665 293.333L211.047 293.531C210.843 293.6 210.641 293.682 210.44 293.757L209.227 294.198C208.827 294.357 208.435 294.531 208.041 294.696L207.451 294.947L206.872 295.222C206.488 295.41 206.1 295.578 205.725 295.773L204.621 296.385C204.249 296.586 203.902 296.828 203.543 297.046C202.131 297.937 200.809 298.963 199.597 300.112C198.415 301.258 197.363 302.531 196.459 303.907C194.677 306.672 193.459 309.761 192.874 312.997C192.564 314.625 192.366 316.273 192.281 317.928C192.186 319.597 192.186 321.27 192.281 322.938C192.364 324.613 192.524 326.291 192.747 327.965C192.97 329.64 193.249 331.309 193.574 332.976C193.9 334.642 194.278 336.301 194.677 337.956C195.077 339.612 195.541 341.262 196.018 342.898C196.975 346.184 198.058 349.443 199.225 352.679C200.391 355.916 201.646 359.13 202.975 362.32C201.08 359.405 199.369 356.375 197.851 353.247C196.318 350.114 194.949 346.903 193.751 343.628C192.542 340.337 191.542 336.973 190.756 333.557C190.364 331.844 190.034 330.111 189.777 328.362C189.521 326.613 189.347 324.85 189.25 323.076C189.044 319.494 189.323 315.9 190.078 312.391C190.836 308.822 192.351 305.457 194.52 302.522C195.615 301.073 196.88 299.76 198.287 298.61C199.689 297.49 201.21 296.527 202.824 295.74C204.415 294.965 206.077 294.344 207.787 293.886C209.464 293.435 211.173 293.115 212.9 292.928Z" fill="#E88E80"/>
<path d="M181.004 309.791C180.094 312.274 178.928 314.656 177.524 316.898C176.144 319.155 174.598 321.306 172.897 323.332C172.069 324.36 171.151 325.321 170.252 326.291C169.78 326.756 169.312 327.224 168.835 327.668C168.595 327.897 168.363 328.133 168.115 328.354L167.368 329.007C165.391 330.767 163.237 332.318 160.939 333.634C162.732 331.681 164.58 329.866 166.306 327.924C167.199 326.988 168.029 325.996 168.904 325.04L170.164 323.566C170.597 323.084 170.991 322.583 171.416 322.085C173.07 320.103 174.691 318.083 176.277 316.025C177.869 313.989 179.427 311.918 181.004 309.791Z" fill="#E88E80"/>
<path d="M125.595 305.728C125.752 306.214 125.87 306.711 125.948 307.216C126.033 307.721 126.091 308.23 126.119 308.742C126.176 309.771 126.138 310.804 126.006 311.827C125.738 313.9 125.091 315.906 124.097 317.746C123.095 319.59 121.742 321.221 120.115 322.547C118.515 323.848 116.668 324.811 114.686 325.379C116.248 324.178 117.717 322.861 119.081 321.44C120.368 320.042 121.479 318.493 122.39 316.826C123.296 315.146 124.007 313.369 124.511 311.529C124.787 310.601 124.985 309.653 125.165 308.687C125.344 307.72 125.496 306.739 125.595 305.728Z" fill="#E88E80"/>
<path d="M143.014 279.689C143.025 280.285 142.989 280.881 142.907 281.472C142.829 282.064 142.719 282.652 142.576 283.232C142.293 284.401 141.899 285.54 141.398 286.634C140.391 288.856 138.971 290.866 137.212 292.559C136.986 292.765 136.771 292.98 136.537 293.178L135.836 293.765C135.596 293.955 135.345 294.129 135.1 294.316C134.857 294.501 134.605 294.672 134.344 294.831C133.324 295.492 132.243 296.053 131.115 296.506C128.89 297.402 126.516 297.875 124.116 297.9C126.3 297.15 128.421 296.229 130.459 295.145C131.444 294.603 132.394 293.999 133.302 293.335C134.208 292.682 135.065 291.964 135.867 291.187C136.673 290.411 137.427 289.583 138.125 288.708C138.821 287.827 139.466 286.908 140.055 285.953C141.256 283.982 142.245 281.891 143.009 279.714L143.014 279.689Z" fill="#E88E80"/>
<path d="M175.597 267.743C175.299 268.375 174.953 268.983 174.56 269.561C174.172 270.144 173.752 270.705 173.302 271.241C172.4 272.327 171.394 273.322 170.299 274.214C168.09 276.025 165.554 277.398 162.829 278.257C162.15 278.486 161.45 278.643 160.761 278.808C160.057 278.932 159.357 279.084 158.648 279.147C157.939 279.21 157.228 279.268 156.519 279.301C156.164 279.301 155.808 279.301 155.455 279.301C155.102 279.301 154.746 279.301 154.393 279.254C151.591 279.06 148.844 278.376 146.277 277.235C148.973 277.628 151.697 277.797 154.421 277.739C154.754 277.739 155.088 277.712 155.422 277.684C155.755 277.657 156.086 277.646 156.417 277.613C157.079 277.522 157.741 277.472 158.392 277.337C159.701 277.132 160.992 276.825 162.252 276.417C164.786 275.617 167.194 274.465 169.406 272.993C170.532 272.257 171.611 271.45 172.635 270.578C173.683 269.699 174.673 268.752 175.597 267.743Z" fill="#E88E80"/>
<path d="M207.992 262.364C207.629 262.847 207.224 263.299 206.784 263.713C206.348 264.132 205.887 264.525 205.405 264.889C204.44 265.627 203.404 266.265 202.311 266.796C200.101 267.879 197.698 268.517 195.241 268.671C194.626 268.718 194.008 268.707 193.396 268.704C192.783 268.702 192.166 268.638 191.559 268.545C190.952 268.451 190.348 268.344 189.75 268.222C189.452 268.151 189.16 268.071 188.865 267.991C188.57 267.911 188.277 267.829 187.991 267.716C185.699 266.955 183.564 265.786 181.689 264.264C183.869 265.088 186.107 265.749 188.385 266.239C188.661 266.305 188.937 266.352 189.212 266.393C189.488 266.435 189.764 266.493 190.04 266.534C190.591 266.586 191.162 266.683 191.727 266.705C192.847 266.797 193.973 266.805 195.094 266.727C197.352 266.585 199.579 266.133 201.713 265.383C202.799 265.01 203.862 264.571 204.895 264.069C205.962 263.565 206.996 262.996 207.992 262.364Z" fill="#E88E80"/>
<path d="M191.473 209.231C191.273 209.645 191.035 210.04 190.761 210.41C190.492 210.785 190.2 211.143 189.887 211.482C189.256 212.167 188.552 212.782 187.789 213.316C186.241 214.408 184.485 215.169 182.629 215.55C182.166 215.655 181.697 215.71 181.228 215.773C180.759 215.837 180.285 215.85 179.811 215.839C179.336 215.828 178.87 215.812 178.402 215.776C177.933 215.74 177.469 215.669 177.023 215.567C175.207 215.21 173.479 214.498 171.94 213.47C173.681 213.772 175.438 213.969 177.202 214.06C177.417 214.076 177.632 214.076 177.845 214.06H178.484C178.909 214.032 179.331 214.043 179.753 213.994C180.587 213.935 181.417 213.818 182.235 213.644C183.891 213.299 185.496 212.743 187.011 211.991C187.789 211.612 188.545 211.192 189.278 210.732C190.035 210.27 190.768 209.769 191.473 209.231Z" fill="#E88E80"/>
<path d="M147.336 227.439C147.337 227.955 147.291 228.471 147.199 228.979C147.114 229.491 146.996 229.997 146.846 230.494C146.544 231.496 146.135 232.463 145.627 233.378C144.595 235.237 143.186 236.86 141.49 238.143C140.647 238.785 139.739 239.339 138.782 239.796C138.545 239.917 138.305 240.022 138.06 240.121C137.814 240.22 137.574 240.327 137.326 240.416C136.827 240.584 136.336 240.765 135.826 240.884C133.821 241.421 131.734 241.58 129.671 241.352C131.597 240.836 133.489 240.2 135.335 239.449C135.79 239.275 136.22 239.047 136.662 238.851C136.877 238.746 137.086 238.625 137.301 238.52C137.516 238.416 137.729 238.3 137.933 238.176L138.556 237.818L139.157 237.43C139.364 237.308 139.552 237.154 139.747 237.028C139.943 236.901 140.139 236.752 140.324 236.606C141.849 235.448 143.205 234.084 144.355 232.554C144.945 231.776 145.486 230.963 145.977 230.119C146.485 229.254 146.939 228.359 147.336 227.439Z" fill="#E88E80"/>
<path d="M108.244 257.419C108.385 257.881 108.486 258.355 108.544 258.835C108.609 259.315 108.645 259.799 108.652 260.284C108.671 261.261 108.588 262.238 108.407 263.198C108.224 264.169 107.947 265.121 107.579 266.038C107.205 266.96 106.743 267.843 106.2 268.677C105.925 269.096 105.63 269.503 105.329 269.886C105.028 270.269 104.692 270.649 104.336 270.988C102.267 273.086 99.6209 274.524 96.7334 275.12C98.2765 274.079 99.7487 272.937 101.14 271.701C101.314 271.555 101.468 271.387 101.628 271.23C101.788 271.073 101.959 270.925 102.108 270.757C102.411 270.423 102.726 270.107 103.007 269.759C103.589 269.088 104.121 268.375 104.601 267.627C105.089 266.883 105.528 266.109 105.916 265.308C106.306 264.502 106.649 263.674 106.945 262.829C107.247 261.966 107.504 261.088 107.714 260.199C107.932 259.287 108.111 258.37 108.244 257.419Z" fill="#E88E80"/>
<path d="M86.3616 293.211C86.6282 293.511 86.8647 293.835 87.0675 294.181C87.2752 294.524 87.4594 294.88 87.619 295.247C87.9478 295.987 88.193 296.761 88.3498 297.555C88.6703 299.171 88.644 300.837 88.2726 302.442C88.1844 302.844 88.0575 303.235 87.9362 303.629C87.8148 304.023 87.6604 304.4 87.4701 304.769C87.2799 305.139 87.1006 305.499 86.8993 305.855C86.698 306.21 86.4691 306.549 86.2181 306.866C85.2659 308.161 84.0521 309.242 82.6553 310.039C83.4826 308.684 84.2795 307.4 84.9248 306.075C85.0103 305.913 85.0875 305.745 85.1592 305.577L85.3854 305.078C85.5122 304.736 85.6611 304.411 85.7797 304.067C86.0296 303.395 86.2341 302.706 86.3919 302.007C86.7164 300.601 86.8683 299.16 86.8441 297.718C86.8249 296.204 86.6634 294.695 86.3616 293.211Z" fill="#E88E80"/>
<path d="M53.587 293.622C54.0667 294.056 54.476 294.561 54.8003 295.121C55.133 295.678 55.403 296.27 55.6056 296.886C56.0198 298.141 56.1645 299.469 56.0302 300.784C55.8988 302.104 55.4809 303.379 54.8058 304.522C54.1514 305.638 53.2401 306.582 52.1475 307.276C52.6218 306.081 53.0823 304.987 53.4243 303.883C53.7619 302.806 53.9919 301.699 54.1109 300.577C54.2241 299.451 54.2296 298.317 54.1274 297.189C54.0156 295.991 53.8352 294.8 53.587 293.622Z" fill="#E88E80"/>
<path d="M67.3443 246.531C67.7076 247.063 67.9867 247.648 68.1716 248.266C68.3687 248.884 68.4972 249.523 68.5549 250.169C68.6705 251.486 68.5079 252.812 68.0778 254.061C67.6492 255.317 66.9518 256.463 66.0344 257.422C65.1416 258.363 64.0376 259.079 62.8135 259.51C63.5498 258.455 64.2447 257.494 64.8293 256.499C65.4057 255.527 65.8833 254.5 66.255 253.433C66.6224 252.359 66.8856 251.252 67.041 250.128C67.2113 248.936 67.3126 247.734 67.3443 246.531Z" fill="#E88E80"/>
<path d="M109.926 199.48C110.458 201.133 110.384 202.945 109.962 204.656C109.512 206.388 108.679 207.998 107.524 209.366C105.207 212.044 101.95 213.731 98.4238 214.082C99.8799 213.168 101.281 212.303 102.56 211.327C103.2 210.853 103.814 210.346 104.402 209.81C104.678 209.534 104.981 209.275 105.23 208.983C105.478 208.691 105.762 208.41 106.018 208.118C107.027 206.922 107.862 205.589 108.5 204.16C109.177 202.669 109.657 201.096 109.926 199.48Z" fill="#E88E80"/>
<path d="M178.459 176.012C178.01 177.686 176.965 179.171 175.682 180.38C174.365 181.594 172.792 182.496 171.08 183.022C170.226 183.277 169.35 183.449 168.463 183.534C165.849 183.76 163.225 183.253 160.885 182.069C162.603 182.088 164.249 182.119 165.849 182C166.642 181.948 167.433 181.856 168.217 181.725C168.603 181.645 168.995 181.587 169.373 181.485C169.751 181.383 170.128 181.289 170.503 181.182C172 180.721 173.425 180.053 174.736 179.199C176.109 178.301 177.361 177.23 178.459 176.012Z" fill="#E88E80"/>
</g>
<defs>
<linearGradient id="paint0_linear_33284_289459" x1="286.165" y1="193.029" x2="434.222" y2="135.319" gradientUnits="userSpaceOnUse">
<stop stop-color="#142130"/>
<stop offset="1" stop-color="#20364F"/>
</linearGradient>
<linearGradient id="paint1_linear_33284_289459" x1="273.046" y1="206.658" x2="433.552" y2="206.658" gradientUnits="userSpaceOnUse">
<stop stop-color="#19181C"/>
<stop offset="0.11" stop-color="#151417"/>
<stop offset="0.46" stop-color="#0D0C0F"/>
<stop offset="1" stop-color="#0A0A0C"/>
</linearGradient>
<linearGradient id="paint2_linear_33284_289459" x1="431.55" y1="164.321" x2="279.202" y2="237.685" gradientUnits="userSpaceOnUse">
<stop stop-color="#906CF9"/>
<stop offset="0.03" stop-color="#A435D4"/>
<stop offset="0.09" stop-color="#A754D0"/>
<stop offset="0.15" stop-color="#A970CC"/>
<stop offset="0.23" stop-color="#AA86C9"/>
<stop offset="0.32" stop-color="#AB97C7"/>
<stop offset="0.42" stop-color="#ACA2C5"/>
<stop offset="0.58" stop-color="#ADA9C4"/>
<stop offset="1" stop-color="#ADABC4"/>
</linearGradient>
<linearGradient id="paint3_linear_33284_289459" x1="420.145" y1="148.113" x2="249.768" y2="251.744" gradientUnits="userSpaceOnUse">
<stop stop-color="#A323D7"/>
<stop offset="0.02" stop-color="#9622C6"/>
<stop offset="0.08" stop-color="#751F99"/>
<stop offset="0.15" stop-color="#591D72"/>
<stop offset="0.21" stop-color="#421B53"/>
<stop offset="0.28" stop-color="#301A3B"/>
<stop offset="0.36" stop-color="#23192A"/>
<stop offset="0.43" stop-color="#1B181F"/>
<stop offset="0.53" stop-color="#19181C"/>
<stop offset="1" stop-color="#0A0A0C"/>
</linearGradient>
<linearGradient id="paint4_linear_33284_289459" x1="286.76" y1="198.508" x2="322.519" y2="245.429" gradientUnits="userSpaceOnUse">
<stop stop-color="#534066"/>
<stop offset="1" stop-color="#0B0B0E"/>
</linearGradient>
<linearGradient id="paint5_linear_33284_289459" x1="277.149" y1="542.146" x2="365.726" y2="280.811" gradientUnits="userSpaceOnUse">
<stop stop-color="#FF9E0F"/>
<stop offset="1" stop-color="#FF7C0F"/>
</linearGradient>
<clipPath id="clip0_33284_289459">
<rect width="709" height="565" fill="white"/>
</clipPath>
</defs>
</svg>
