<svg width="652" height="258" viewBox="0 0 652 258" fill="none" xmlns="http://www.w3.org/2000/svg">
<mask id="mask0_33166_284921" style="mask-type:alpha" maskUnits="userSpaceOnUse" x="0" y="0" width="652" height="258">
<rect width="652" height="258" fill="#D9D9D9"/>
</mask>
<g mask="url(#mask0_33166_284921)">
<path d="M813.678 163.021C782.336 150.306 758.346 123.283 735.674 93.3505C713.858 64.525 692.242 34.1638 663.762 16.5568C605.045 -19.7488 535.856 -1.7867 478.124 28.8176C413.605 63.0351 352.924 114.686 283.235 129.514C249.053 136.783 212.531 133.047 182.873 107.948C158.304 87.1484 145.066 54.3436 139.625 17.4968C136.537 -3.4402 135.528 -24.6828 134.745 -45.9637L127.293 -45.9983C127.513 -39.9687 127.733 -33.9391 128.043 -27.9485C129.772 6.89129 133.273 43.0987 147.151 73.6407C162.926 108.329 191.014 130.446 220.791 138.563C257.126 148.483 294.882 139.359 329.663 124.409C363.177 110.006 394.936 89.624 426.708 69.7942C487.356 31.9337 554.569 -6.44797 623.351 9.94697C639.445 13.7845 655.061 20.772 669.28 31.3583C683.333 41.806 695.674 55.4964 707.305 70.0898C730.071 98.6439 750.641 131.049 777.857 152.669C806.004 175.042 839.96 184.991 872.717 180.572C872.762 180.573 872.807 180.553 872.868 180.553L872.903 170.565C853.083 173.35 832.875 170.793 813.678 163.021Z" fill="url(#paint0_linear_33166_284921)" fill-opacity="0.2"/>
<path d="M740.235 54.6403C668.343 19.101 588.926 51.9887 534.961 85.8414C507.187 103.266 480.123 123.946 453.95 143.959C420.064 169.867 385.031 196.655 348.201 216.521C312.26 235.918 221.082 274.405 151.057 213.204C110.776 177.988 82.9134 113.239 68.2442 20.7529C66.8596 12.0582 65.6261 3.24607 64.4226 -5.56594L62.8871 -5.57306C64.1052 3.37694 65.3684 12.3271 66.7675 21.1598C81.5102 114.178 109.582 179.342 150.208 214.835C220.848 276.571 312.6 237.85 348.767 218.336C385.687 198.412 420.781 171.604 454.712 145.657C480.87 125.663 507.903 105.003 535.617 87.6175C589.326 53.9212 668.321 21.1696 739.716 56.4898C765.143 69.0588 788.313 89.7539 810.733 109.756C820.082 118.094 829.536 126.51 839.218 134.416L839.226 132.111C829.83 124.404 820.661 116.225 811.582 108.125C789.102 88.0436 765.857 67.3087 740.235 54.6403Z" fill="url(#paint1_linear_33166_284921)" fill-opacity="0.2"/>
</g>
<defs>
<linearGradient id="paint0_linear_33166_284921" x1="815.245" y1="154.648" x2="156.738" y2="72.4097" gradientUnits="userSpaceOnUse">
<stop offset="0.0467524" stop-color="#F4F8FD"/>
<stop offset="0.473931" stop-color="#3EE8B5"/>
<stop offset="1" stop-color="#EFF1FD"/>
</linearGradient>
<linearGradient id="paint1_linear_33166_284921" x1="804.681" y1="131.409" x2="157.362" y2="129.961" gradientUnits="userSpaceOnUse">
<stop stop-color="#263959"/>
<stop offset="1" stop-color="#F4F8FD"/>
</linearGradient>
</defs>
</svg>
