<svg width="598" height="181" viewBox="0 0 598 181" fill="none" xmlns="http://www.w3.org/2000/svg">
<mask id="mask0_33166_284932" style="mask-type:alpha" maskUnits="userSpaceOnUse" x="0" y="0" width="598" height="181">
<rect width="598" height="181" fill="#D9D9D9"/>
</mask>
<g mask="url(#mask0_33166_284932)">
<rect x="284.194" y="-9" width="617.928" height="888.265" rx="245.322" transform="rotate(55.1769 284.194 -9)" fill="url(#paint0_linear_33166_284932)"/>
<path d="M-183.029 74.9102C-151.687 84.4175 -127.696 104.624 -105.025 127.006C-83.2081 148.56 -61.5923 171.263 -33.1125 184.429C25.6044 211.576 94.7931 198.145 152.525 175.261C217.044 149.674 277.725 111.052 347.415 99.9652C381.597 94.5298 418.118 97.3228 447.776 116.09C472.346 131.644 485.583 156.174 491.024 183.726C494.112 199.381 495.121 215.266 495.905 231.178L503.356 231.204C503.137 226.696 502.917 222.187 502.607 217.707C500.877 191.656 497.376 164.582 483.498 141.744C467.723 115.806 439.636 99.2683 409.858 93.1988C373.524 85.7807 335.768 92.6032 300.987 103.782C267.472 114.552 235.713 129.793 203.941 144.62C143.293 172.931 76.0803 201.63 7.29804 189.371C-8.79578 186.502 -24.4119 181.277 -38.6305 173.361C-52.6839 165.549 -65.025 155.312 -76.6554 144.399C-99.4216 123.048 -119.992 98.817 -147.208 82.6505C-175.355 65.921 -209.311 58.4818 -242.068 61.786C-242.113 61.7858 -242.158 61.8004 -242.218 61.8002L-242.253 69.269C-222.433 67.1869 -202.225 69.0983 -183.029 74.9102Z" fill="url(#paint1_linear_33166_284932)" fill-opacity="0.2"/>
<path d="M-109.585 155.952C-37.6936 182.526 41.7236 157.935 95.6886 132.621C123.463 119.592 150.527 104.129 176.7 89.1639C210.586 69.7915 245.619 49.7601 282.449 34.9057C318.389 20.4017 409.568 -8.37721 479.593 37.386C519.873 63.7184 547.736 112.135 562.406 181.291C563.79 187.793 565.024 194.382 566.227 200.971L567.763 200.976C566.545 194.284 565.281 187.592 563.882 180.987C549.14 111.432 521.067 62.706 480.442 36.1663C409.801 -9.99687 318.05 18.9569 281.883 33.5484C244.962 48.4467 209.869 68.4926 175.938 87.8944C149.78 102.845 122.747 118.293 95.0325 131.293C41.3239 156.49 -37.6713 180.98 -109.067 154.569C-134.493 145.171 -157.663 129.696 -180.083 114.739C-189.432 108.505 -198.887 102.211 -208.568 96.2996L-208.577 98.0232C-199.18 103.786 -190.011 109.902 -180.932 115.959C-158.452 130.975 -135.207 146.479 -109.585 155.952Z" fill="url(#paint2_linear_33166_284932)" fill-opacity="0.2"/>
</g>
<defs>
<linearGradient id="paint0_linear_33166_284932" x1="409.08" y1="792.309" x2="960.752" y2="274.162" gradientUnits="userSpaceOnUse">
<stop stop-color="#FF9E0F"/>
<stop offset="1" stop-color="#FF7C0F"/>
</linearGradient>
<linearGradient id="paint1_linear_33166_284932" x1="-184.595" y1="81.171" x2="466.033" y2="189.836" gradientUnits="userSpaceOnUse">
<stop offset="0.0467524" stop-color="#F4F8FD"/>
<stop offset="0.473931" stop-color="#3EE8B5"/>
<stop offset="1" stop-color="#EFF1FD"/>
</linearGradient>
<linearGradient id="paint2_linear_33166_284932" x1="-174.032" y1="98.5478" x2="473.285" y2="100.484" gradientUnits="userSpaceOnUse">
<stop stop-color="#263959"/>
<stop offset="1" stop-color="#F4F8FD"/>
</linearGradient>
</defs>
</svg>
