<svg width="100" height="100" viewBox="0 0 100 100" fill="none" xmlns="http://www.w3.org/2000/svg">
<circle cx="49.9272" cy="49.9272" r="49.9272" fill="url(#paint0_linear_33166_284758)"/>
<path d="M31.564 49.3414C31.564 51.91 33.9942 53.9997 36.9814 53.9997C39.9686 53.9997 42.3989 51.91 42.3989 49.3414C42.3989 49.2065 42.3648 49.0734 42.2991 48.9509L38.6652 42.1807C40.3678 42.0964 42.0526 41.7122 43.5772 41.0566L43.6981 41.0047C45.0191 40.4367 46.4281 40.0516 47.8885 39.858V55.5525H52.2225V39.858C53.683 40.0516 55.092 40.4368 56.4128 41.0046L56.5337 41.0565C58.0585 41.7121 59.7433 42.0963 61.4459 42.1807L57.8119 48.9509C57.7462 49.0734 57.7122 49.2065 57.7122 49.3414C57.7122 51.91 60.1424 53.9997 63.1296 53.9997C66.1168 53.9997 68.5471 51.91 68.5471 49.3414C68.5471 49.2065 68.513 49.0734 68.4473 48.9509L64.6521 41.8801C65.9617 41.5357 67.1616 40.9187 68.1575 40.0624C68.5806 39.6986 68.5806 39.1087 68.1575 38.7448C67.7344 38.3811 67.0484 38.3811 66.6252 38.7448C65.4325 39.7705 63.8466 40.3353 62.1598 40.3353C60.5516 40.3353 58.9412 40.0084 57.5029 39.39L57.3821 39.338C55.8063 38.6606 54.1221 38.2083 52.376 37.9934C52.3251 37.9871 52.2738 37.984 52.2225 37.984V35.8633C52.2225 34.8342 51.2523 34 50.0555 34C48.8587 34 47.8885 34.8342 47.8885 35.8633V37.984C47.8372 37.984 47.7859 37.9872 47.735 37.9934C45.989 38.2082 44.3047 38.6606 42.7291 39.338L42.6082 39.39C41.1698 40.0084 39.5595 40.3353 37.9512 40.3353C36.2644 40.3353 34.6786 39.7705 33.4858 38.7449C33.0627 38.3811 32.3767 38.3811 31.9535 38.7449C31.5304 39.1087 31.5304 39.6986 31.9535 40.0625C32.9494 40.9188 34.1493 41.5357 35.459 41.8802L31.6637 48.9509C31.598 49.0734 31.564 49.2065 31.564 49.3414H31.564ZM60.4891 48.4097L63.1296 43.4902L65.7701 48.4097H60.4891ZM36.9814 43.4902L39.6219 48.4097H34.3409L36.9814 43.4902Z" fill="white"/>
<path d="M67.4636 63.6006H61.071C61.071 62.5715 60.1008 61.7373 58.904 61.7373H41.207C40.0102 61.7373 39.04 62.5715 39.04 63.6006H32.6475C32.0491 63.6006 31.564 64.0178 31.564 64.5323C31.564 65.0468 32.0491 65.464 32.6475 65.464H67.4636C68.0619 65.464 68.5471 65.0468 68.5471 64.5323C68.5471 64.0178 68.0619 63.6006 67.4636 63.6006Z" fill="white"/>
<path d="M54.5701 57.1143H45.541C44.3442 57.1143 43.374 57.9485 43.374 58.9776V59.9092H56.7371V58.9776C56.7371 57.9485 55.7669 57.1143 54.5701 57.1143Z" fill="white"/>
<defs>
<linearGradient id="paint0_linear_33166_284758" x1="20.1811" y1="90.0791" x2="79.6207" y2="9.82777" gradientUnits="userSpaceOnUse">
<stop stop-color="#FF9E0F"/>
<stop offset="1" stop-color="#FF7C0F"/>
</linearGradient>
</defs>
</svg>
