<svg width="74" height="74" viewBox="0 0 74 74" fill="none" xmlns="http://www.w3.org/2000/svg">
<circle cx="36.9833" cy="36.9831" r="36.9831" fill="url(#paint0_linear_33166_284768)"/>
<g clip-path="url(#clip0_33166_284768)">
<path d="M27.5026 40.8558L28.9597 41.3582C31.7825 42.3315 31.8731 46.3407 29.0353 47.4029C29.0353 48.1651 28.4658 48.6472 27.8423 48.6472C27.225 48.6472 26.6493 48.1723 26.6493 47.4029C25.4305 46.9466 24.5602 45.7703 24.5602 44.3942C24.5602 43.7353 25.0943 43.2012 25.7533 43.2012C26.4122 43.2012 26.9463 43.7353 26.9463 44.3942C26.9463 44.8493 27.3166 45.2197 27.7717 45.2197H27.9127C28.8442 45.2197 29.0558 43.9151 28.1818 43.6138L26.7248 43.1114C23.9021 42.1382 23.8114 38.1289 26.6493 37.0667C26.6493 36.3045 27.2188 35.8224 27.8423 35.8224C28.4595 35.8224 29.0353 36.2973 29.0353 37.0667C30.2541 37.523 31.1243 38.6993 31.1243 40.0754C31.1243 40.7343 30.5902 41.2684 29.9313 41.2684C29.2724 41.2684 28.7383 40.7343 28.7383 40.0754C28.7383 39.6203 28.3679 39.2499 27.9128 39.2499H27.7718C26.8404 39.2498 26.6288 40.5544 27.5026 40.8558ZM37.6846 42.2348C37.6846 47.6618 33.2693 52.0771 27.8423 52.0771C22.4152 52.0771 18 47.6619 18 42.2348C18 36.8077 22.4152 32.3925 27.8423 32.3925C33.2693 32.3925 37.6846 36.8078 37.6846 42.2348ZM35.2985 42.2348C35.2985 38.1233 31.9537 34.7785 27.8423 34.7785C23.7308 34.7785 20.386 38.1233 20.386 42.2348C20.386 46.3463 23.7308 49.6911 27.8423 49.6911C31.9537 49.6911 35.2985 46.3463 35.2985 42.2348ZM53.7901 49.6911H52.9699V30.0065C52.9699 29.3476 52.4358 28.8135 51.7769 28.8135C51.118 28.8135 50.5839 29.3476 50.5839 30.0065V49.6911H44.5443V34.7785C44.5443 34.1196 44.0102 33.5855 43.3513 33.5855C42.6924 33.5855 42.1583 34.1196 42.1583 34.7785V49.6911H37.088C36.4291 49.6911 35.895 50.2252 35.895 50.8841C35.895 51.543 36.4291 52.0771 37.088 52.0771H53.7901C54.449 52.0771 54.9831 51.543 54.9831 50.8841C54.9831 50.2252 54.449 49.6911 53.7901 49.6911ZM36.3658 33.7581L40.6298 29.4941L42.5078 31.3721C42.9737 31.8379 43.729 31.8379 44.1949 31.3721L50.5839 24.983V25.5328C50.5839 26.1917 51.118 26.7258 51.7769 26.7258C52.4358 26.7258 52.9699 26.1917 52.9699 25.5328C52.9699 21.7468 52.9756 22.0681 52.9567 21.9345C52.8989 21.5275 52.6315 21.1655 52.233 21.0006C51.938 20.8785 52.0294 20.9099 48.347 20.9099C47.6881 20.9099 47.154 21.444 47.154 22.1029C47.154 22.7618 47.6881 23.2959 48.347 23.2959H48.8968L43.3513 28.8413L41.4733 26.9633C41.0074 26.4974 40.252 26.4974 39.7862 26.9633L34.6786 32.0709C34.2127 32.5367 34.2127 33.2921 34.6786 33.758C35.1446 34.224 35.8999 34.2239 36.3658 33.7581Z" fill="white" fill-opacity="0.86"/>
</g>
<defs>
<linearGradient id="paint0_linear_33166_284768" x1="14.9492" y1="66.7253" x2="58.9785" y2="7.27983" gradientUnits="userSpaceOnUse">
<stop stop-color="#FF9E0F"/>
<stop offset="1" stop-color="#FF7C0F"/>
</linearGradient>
<clipPath id="clip0_33166_284768">
<rect width="36.9831" height="36.9831" fill="white" transform="translate(18 18)"/>
</clipPath>
</defs>
</svg>
