<svg width="166" height="118" viewBox="0 0 166 118" fill="none" xmlns="http://www.w3.org/2000/svg">
<ellipse rx="55.0518" ry="53.8249" transform="matrix(0.97863 0.20563 -0.533322 0.845912 83.225 60.6712)" fill="url(#paint0_linear_33270_285987)"/>
<circle r="54.1198" transform="matrix(0.97863 0.20563 -0.533322 0.845912 82.8363 56.9617)" fill="white"/>
<g clip-path="url(#clip0_33270_285987)">
<path d="M125.432 55.1986C123.641 58.0392 120.869 60.5642 117.632 62.3044C114.394 64.0446 110.912 64.8816 107.831 64.6598C109.778 64.7399 111.949 64.1759 113.956 63.0682C115.964 61.9604 117.679 60.3808 118.795 58.6104C120.045 56.6271 120.449 54.558 119.917 52.8579C119.385 51.1578 117.961 49.9658 115.959 49.5439L102.725 46.7631L108.075 38.2774L120.982 40.9895C124.122 41.6493 126.355 43.5169 127.189 46.1816C128.024 48.8462 127.392 52.0897 125.432 55.1986ZM100.07 41.3403L100.093 50.9349L110.771 33.9989L100.07 41.3403Z" fill="#FF9900"/>
<path d="M67.5146 70.3384L67.4445 60.9543L84.0964 34.4185C84.5792 33.657 85.3468 32.9917 86.2311 32.5684C87.1153 32.1451 88.0439 31.9984 88.8133 32.1605L97.43 33.971C98.0333 34.0978 98.5282 34.3778 98.866 34.7836C99.2038 35.1893 99.3729 35.7069 99.3568 36.2852L98.9137 51.9452C98.8964 52.5313 98.6876 53.1593 98.3087 53.7647L81.8787 79.8247L78.3592 79.0852C77.8716 78.9828 77.525 78.6928 77.3954 78.279C77.2659 77.8653 77.3641 77.3617 77.6684 76.879L92.4817 53.3834C92.6562 53.1072 92.7486 52.82 92.7482 52.5548L92.705 38.7736L89.2252 38.0424C88.5659 37.9039 87.7402 38.2536 87.381 38.8235L67.5146 70.3384Z" fill="#34306A"/>
<path opacity="0.2" d="M67.4445 60.9543L67.4701 65.6584L86.0384 36.2023C86.0384 36.2023 86.3888 35.6465 87.2534 35.2544C87.9581 34.9347 88.3412 35.004 88.9636 35.1348C91.1253 35.589 94.9339 36.466 95.9029 36.4524C98.1584 36.4207 96.7676 33.8318 96.7676 33.8318L88.8133 32.1605C88.0439 31.9984 87.1153 32.1451 86.2311 32.5684C85.3468 32.9917 84.5792 33.657 84.0964 34.4185L67.4445 60.9543Z" fill="white"/>
<path d="M90.8867 32.5818L97.4179 33.9541C98.0212 34.0809 98.516 34.3609 98.8538 34.7667C99.1916 35.1724 99.3608 35.69 99.3446 36.2683L98.9016 51.9283C98.8842 52.5144 98.6754 53.1424 98.2966 53.7478L81.8665 79.8079L78.347 79.0683C77.8595 78.9659 77.5128 78.6759 77.3833 78.2622C77.2537 77.8484 77.3519 77.3448 77.6562 76.8621L92.4695 53.3665C92.644 53.0903 92.7364 52.8032 92.736 52.5379C92.736 52.5379 92.7911 42.1258 92.6922 38.7623C92.6443 37.1318 92.6032 35.9181 92.443 34.4017C92.4149 34.1363 92.3635 33.8906 92.1837 33.5696C92.0554 33.3407 91.8115 33.1106 91.6056 32.9704C91.1738 32.6763 90.8867 32.5818 90.8867 32.5818Z" fill="#FF8C01"/>
<path d="M90.8867 32.5818L94.94 33.4335C95.5432 33.5602 96.0381 33.8403 96.3759 34.246C96.7137 34.6518 96.8829 35.1693 96.8667 35.7477L96.4237 51.4077C96.4063 51.9937 96.1975 52.6217 95.8187 53.2271L79.3886 79.2872L78.3471 79.0683C77.8595 78.9659 77.5129 78.6759 77.3833 78.2622C77.2538 77.8484 77.3519 77.3448 77.6563 76.8621L92.4696 53.3665C92.6441 53.0903 92.7364 52.8032 92.7361 52.5379C92.7361 52.5379 92.7911 42.1258 92.6922 38.7623C92.6443 37.1318 92.6032 35.9181 92.443 34.4017C92.415 34.1363 92.3636 33.8906 92.1837 33.5697C92.0554 33.3407 91.8115 33.1106 91.6056 32.9704C91.1738 32.6763 90.8867 32.5818 90.8867 32.5818Z" fill="#FFA31A"/>
<path fill-rule="evenodd" clip-rule="evenodd" d="M118.967 52.323C118.835 51.3204 118.276 50.5081 117.379 50.0142C118.867 50.7191 119.82 51.9603 120.078 53.5279C120.336 55.0956 119.882 56.8934 118.794 58.6173C117.543 60.6007 115.547 62.3356 113.246 63.4404C110.945 64.5451 108.527 64.9293 106.524 64.5083L93.2848 61.7265L96.5343 56.5724L110.066 59.4156C111.38 59.6917 112.966 59.4397 114.475 58.715C115.984 57.9904 117.292 56.8524 118.113 55.5515C118.799 54.4615 119.1 53.3256 118.967 52.323ZM72.7527 51.5783L91.1811 55.4505L87.9347 60.5995L69.5063 56.7273L72.7527 51.5783Z" fill="#34306A"/>
<path d="M49.1056 63.3852C48.209 62.8914 47.6503 62.0791 47.5176 61.0765C47.3848 60.0739 47.6856 58.938 48.3724 57.848C49.1926 56.5471 50.5012 55.4091 52.0102 54.6845C53.5193 53.9598 55.1053 53.7078 56.4193 53.9839L69.9508 56.8271L73.2003 51.673L59.9611 48.8912C57.9577 48.4702 55.5396 48.8543 53.2387 49.9591C50.9378 51.0639 48.9424 52.7988 47.6915 54.7822C46.6031 56.5061 46.1494 58.3039 46.407 59.8716C46.6647 61.4392 47.618 62.6804 49.1056 63.3852Z" fill="#5D5988"/>
<path opacity="0.2" d="M89.5471 58.042L71.6416 54.2797L70.0197 56.8523L87.9252 60.6146L89.5471 58.042Z" fill="white"/>
<path opacity="0.2" d="M119.231 52.1411C118.824 51.1791 118.26 50.505 117.363 50.0111C118.851 50.7159 119.804 51.9571 120.062 53.5248C120.319 55.0924 119.866 56.8903 118.777 58.6142C117.526 60.5976 115.531 62.3325 113.23 63.4373C110.929 64.542 108.511 64.9261 106.508 64.5052L93.2684 61.7234L94.8912 59.1495L108.423 61.9928C112.107 62.6361 115.952 60.8257 118.162 57.3206C120.111 54.2289 119.489 53.0716 119.231 52.1411Z" fill="white"/>
<path d="M47.2535 61.2585C47.6608 62.2204 48.2247 62.8946 49.1212 63.3884C47.6336 62.6836 46.6803 61.4424 46.4227 59.8748C46.165 58.3071 46.6187 56.5093 47.7072 54.7854C48.958 52.8019 50.9534 51.067 53.2543 49.9623C55.5553 48.8575 57.9733 48.4734 59.9767 48.8943L73.2159 51.6762L71.5932 54.25L58.0617 51.4068C54.3772 50.7635 50.5322 52.5739 48.3224 56.079C46.3732 59.1706 46.9953 60.3279 47.2535 61.2585Z" fill="#34306A"/>
<path d="M125.431 55.1986C123.64 58.0392 120.868 60.5642 117.631 62.3044C114.394 64.0446 110.911 64.8816 107.83 64.6598C109.777 64.7399 111.948 64.1759 113.955 63.0682C115.963 61.9604 117.678 60.3808 118.794 58.6104C120.044 56.6271 120.448 54.558 119.916 52.8579C119.384 51.1578 117.96 49.9658 115.958 49.5439L102.724 46.7631L108.074 38.2774L120.981 40.9895C124.121 41.6493 126.354 43.5169 127.188 46.1816C128.023 48.8462 127.391 52.0897 125.431 55.1986ZM100.069 41.3403L100.092 50.9349L110.77 33.9989L100.069 41.3403Z" fill="#FFA31A"/>
<path d="M41.1186 58.2033C42.9097 55.3627 45.6815 52.8376 48.9189 51.0974C52.1563 49.3572 55.639 48.5203 58.7198 48.7421C56.7727 48.662 54.6021 49.226 52.5944 50.3337C50.5867 51.4414 48.8721 53.021 47.7556 54.7915C46.5056 56.7747 46.1022 58.8438 46.6341 60.5439C47.1659 62.2441 48.5896 63.4361 50.592 63.858L63.8261 66.6387L58.4761 75.1244L45.5688 72.4124C42.4288 71.7526 40.196 69.885 39.3615 67.2203C38.5269 64.5556 39.159 61.3121 41.1186 58.2033ZM66.4804 72.0615L66.4577 62.4669L55.7801 79.403L66.4804 72.0615Z" fill="#FFA31A"/>
<path d="M118.635 45.2413L105.401 42.4605L100.041 41.3342L110.741 33.9927L108.042 38.2707L120.95 40.9828C124.089 41.6428 126.322 43.5103 127.156 46.1746C127.991 48.8389 127.359 52.082 125.401 55.1906C123.611 58.0329 120.839 60.56 117.6 62.3017C129.038 51.2666 121.66 45.8769 118.635 45.2413Z" fill="#FF8C01"/>
<path d="M47.9148 68.1606L61.1489 70.9414L66.5092 72.0677L55.8088 79.4091L58.5074 75.1311L45.6001 72.4191C42.4607 71.759 40.2282 69.8915 39.3935 67.2272C38.5589 64.5629 39.1903 61.3199 41.1491 58.2112C42.9392 55.3689 45.7113 52.8419 48.9499 51.1001C37.5123 62.1353 44.8897 67.525 47.9148 68.1606Z" fill="#FF8C01"/>
<path opacity="0.2" d="M49.17 63.4178C48.2735 62.924 47.7148 62.1117 47.582 61.1091C47.4493 60.1065 47.75 58.9706 48.4369 57.8806C49.257 56.5797 50.5656 55.4417 52.0747 54.717C53.5838 53.9924 55.1697 53.7404 56.4837 54.0165L70.0152 56.8597L73.2648 51.7056L60.0256 48.9238C58.0222 48.5028 55.6041 48.8869 53.3031 49.9917C51.0022 51.0964 49.0069 52.8313 47.756 54.8148C46.6676 56.5387 46.2138 58.3365 46.4715 59.9042C46.7292 61.4718 47.6824 62.713 49.17 63.4178Z" fill="#5D5988"/>
<path d="M47.318 61.2912C47.7253 62.2531 48.2892 62.9273 49.1857 63.4211C47.6981 62.7163 46.7448 61.4751 46.4872 59.9075C46.2295 58.3398 46.6832 56.542 47.7717 54.8181C49.0225 52.8347 51.0179 51.0998 53.3188 49.995C55.6197 48.8903 58.0378 48.5061 60.0412 48.9271L75.3038 52.134L73.6811 54.7079L58.1262 51.4395C54.4417 50.7962 50.5967 52.6066 48.3869 56.1117C46.4377 59.2034 47.0598 60.3606 47.318 61.2912Z" fill="#34306A"/>
</g>
<defs>
<linearGradient id="paint0_linear_33270_285987" x1="85.3139" y1="7.36329" x2="21.862" y2="113.04" gradientUnits="userSpaceOnUse">
<stop stop-color="#F7F4FD"/>
<stop offset="1" stop-color="#906CF9"/>
</linearGradient>
<clipPath id="clip0_33270_285987">
<rect width="75.585" height="61.8423" fill="white" transform="matrix(0.97863 0.20563 -0.533322 0.845912 62.4033 23.0133)"/>
</clipPath>
</defs>
</svg>
