<svg width="521" height="516" viewBox="0 0 521 516" fill="none" xmlns="http://www.w3.org/2000/svg">
<circle cx="253.275" cy="238.595" r="117.916" stroke="white" stroke-width="8.79198" stroke-dasharray="3.1 3.1"/>
<path d="M252.882 36.8965C213.069 36.8941 174.15 48.7179 141.046 70.8726C107.943 93.0272 82.1404 124.518 66.9032 161.362C51.666 198.206 47.678 238.749 55.4435 277.864C63.209 316.978 82.3793 352.908 110.53 381.108C138.681 409.309 174.548 428.514 213.595 436.295C252.642 444.077 293.116 440.084 329.898 424.823C366.68 409.562 398.118 383.718 420.237 350.558C442.356 317.399 454.162 278.414 454.162 238.534C454.162 185.058 432.956 133.773 395.209 95.959C357.462 58.1451 306.266 36.8998 252.882 36.8965ZM252.882 417.404C217.564 417.411 183.036 406.927 153.667 387.277C124.297 367.626 101.405 339.693 87.8838 307.01C74.3631 274.326 70.8216 238.36 77.7074 203.66C84.5932 168.961 101.597 137.086 126.568 112.066C151.539 87.0473 183.356 70.008 217.995 63.1032C252.634 56.1985 288.54 59.7386 321.17 73.2758C353.801 86.8129 381.691 109.739 401.313 139.155C420.936 168.571 431.409 203.155 431.409 238.534C431.413 285.968 412.606 331.46 379.126 365.004C345.646 398.549 300.235 417.397 252.882 417.404Z" fill="#DEDBF4"/>
<path d="M249.032 465.25C248.521 465.241 248.034 465.028 247.678 464.66C247.322 464.292 247.125 463.798 247.132 463.285C247.142 462.773 247.353 462.285 247.721 461.929C248.088 461.572 248.582 461.375 249.093 461.382C249.347 461.385 249.598 461.439 249.831 461.539C250.064 461.64 250.275 461.786 250.452 461.968C250.628 462.151 250.767 462.367 250.86 462.603C250.953 462.84 250.998 463.093 250.994 463.347C250.987 463.854 250.781 464.338 250.421 464.694C250.061 465.051 249.575 465.25 249.069 465.25H249.032ZM262.627 463.15C262.601 462.638 262.778 462.135 263.12 461.753C263.463 461.371 263.942 461.14 264.454 461.112C264.707 461.099 264.96 461.135 265.198 461.22C265.437 461.305 265.656 461.436 265.844 461.606C266.032 461.776 266.185 461.982 266.293 462.211C266.402 462.44 266.464 462.688 266.477 462.942C266.493 463.201 266.457 463.462 266.371 463.708C266.285 463.953 266.151 464.179 265.976 464.372C265.801 464.564 265.589 464.719 265.353 464.828C265.116 464.937 264.861 464.997 264.601 465.005C264.095 465.018 263.603 464.831 263.234 464.484C262.865 464.136 262.647 463.657 262.627 463.15ZM233.439 464.464C233.186 464.444 232.94 464.374 232.715 464.258C232.489 464.142 232.289 463.982 232.126 463.788C231.963 463.594 231.84 463.369 231.765 463.127C231.689 462.884 231.662 462.629 231.686 462.377C231.706 462.123 231.776 461.876 231.891 461.65C232.007 461.424 232.167 461.222 232.36 461.058C232.554 460.894 232.778 460.769 233.02 460.692C233.262 460.615 233.517 460.587 233.77 460.608C234.023 460.63 234.27 460.702 234.496 460.819C234.722 460.936 234.923 461.097 235.087 461.292C235.251 461.487 235.375 461.712 235.452 461.955C235.529 462.198 235.557 462.454 235.535 462.708C235.492 463.193 235.269 463.643 234.91 463.97C234.552 464.298 234.083 464.478 233.598 464.477H233.439V464.464ZM278.061 461.947C278.031 461.695 278.05 461.44 278.117 461.196C278.185 460.952 278.3 460.723 278.456 460.523C278.612 460.324 278.806 460.157 279.026 460.033C279.247 459.908 279.49 459.828 279.741 459.798C279.992 459.767 280.247 459.786 280.491 459.854C280.734 459.922 280.963 460.037 281.162 460.193C281.361 460.35 281.528 460.544 281.652 460.765C281.776 460.985 281.856 461.229 281.886 461.48C281.917 461.733 281.898 461.99 281.829 462.236C281.761 462.482 281.645 462.712 281.488 462.912C281.331 463.113 281.135 463.281 280.914 463.406C280.692 463.531 280.447 463.611 280.194 463.642H279.974C279.509 463.631 279.063 463.454 278.717 463.144C278.371 462.833 278.147 462.408 278.086 461.947H278.061ZM217.931 462.61C217.68 462.571 217.44 462.483 217.223 462.351C217.007 462.219 216.819 462.045 216.669 461.839C216.52 461.634 216.413 461.401 216.354 461.154C216.295 460.907 216.285 460.65 216.325 460.4C216.364 460.149 216.452 459.908 216.584 459.691C216.716 459.474 216.89 459.285 217.095 459.136C217.3 458.986 217.532 458.879 217.779 458.82C218.026 458.761 218.281 458.751 218.532 458.791C219.037 458.873 219.489 459.151 219.789 459.565C220.09 459.979 220.215 460.495 220.138 461.001C220.065 461.455 219.834 461.868 219.487 462.167C219.139 462.466 218.696 462.632 218.238 462.635L217.931 462.61ZM293.385 459.687C293.335 459.438 293.336 459.181 293.386 458.932C293.437 458.683 293.536 458.446 293.679 458.236C293.821 458.026 294.004 457.846 294.217 457.707C294.43 457.568 294.668 457.473 294.917 457.428C295.166 457.378 295.423 457.379 295.671 457.429C295.92 457.479 296.156 457.579 296.366 457.722C296.576 457.865 296.756 458.048 296.894 458.261C297.033 458.474 297.128 458.713 297.173 458.963C297.267 459.466 297.158 459.985 296.871 460.409C296.584 460.832 296.142 461.124 295.641 461.222H295.273C294.829 461.226 294.399 461.074 294.054 460.794C293.71 460.514 293.473 460.123 293.385 459.687ZM202.595 459.687C202.095 459.573 201.66 459.265 201.386 458.829C201.113 458.394 201.023 457.868 201.136 457.366C201.25 456.868 201.557 456.436 201.989 456.164C202.421 455.892 202.944 455.804 203.441 455.917C203.689 455.971 203.924 456.074 204.132 456.219C204.341 456.365 204.518 456.551 204.654 456.765C204.789 456.98 204.881 457.22 204.923 457.471C204.966 457.722 204.958 457.978 204.9 458.226C204.805 458.654 204.568 459.037 204.227 459.311C203.886 459.586 203.462 459.736 203.024 459.736C202.88 459.739 202.735 459.723 202.595 459.687ZM308.513 456.372C308.446 456.127 308.429 455.871 308.463 455.619C308.496 455.367 308.579 455.124 308.706 454.905C308.834 454.686 309.004 454.494 309.207 454.341C309.409 454.188 309.64 454.077 309.886 454.014C310.13 453.948 310.386 453.93 310.637 453.964C310.889 453.997 311.131 454.08 311.35 454.208C311.569 454.336 311.76 454.507 311.913 454.709C312.066 454.912 312.177 455.143 312.239 455.389C312.304 455.635 312.32 455.89 312.286 456.141C312.252 456.392 312.169 456.635 312.041 456.854C311.914 457.073 311.744 457.264 311.543 457.418C311.341 457.571 311.111 457.683 310.866 457.747C310.707 457.796 310.542 457.82 310.376 457.821C309.954 457.821 309.544 457.683 309.208 457.428C308.872 457.173 308.627 456.815 308.513 456.409V456.372ZM187.492 455.696C187.243 455.625 187.011 455.504 186.809 455.341C186.608 455.177 186.442 454.975 186.32 454.746C186.199 454.516 186.125 454.265 186.103 454.006C186.081 453.747 186.112 453.487 186.193 453.24C186.273 452.998 186.4 452.775 186.567 452.582C186.734 452.389 186.937 452.231 187.164 452.117C187.392 452.003 187.64 451.935 187.894 451.917C188.148 451.899 188.403 451.932 188.644 452.012C188.892 452.085 189.123 452.207 189.323 452.371C189.523 452.535 189.688 452.738 189.808 452.967C189.929 453.196 190.001 453.447 190.023 453.705C190.044 453.963 190.013 454.223 189.932 454.468C189.811 454.866 189.566 455.214 189.232 455.462C188.899 455.71 188.495 455.843 188.08 455.844C187.877 455.83 187.678 455.78 187.492 455.696ZM323.371 452.012C323.29 451.771 323.258 451.515 323.276 451.261C323.293 451.006 323.361 450.758 323.475 450.53C323.589 450.302 323.747 450.098 323.939 449.931C324.132 449.764 324.355 449.637 324.596 449.556C324.838 449.476 325.093 449.443 325.347 449.461C325.601 449.479 325.849 449.547 326.077 449.661C326.304 449.775 326.507 449.933 326.674 450.126C326.841 450.319 326.968 450.542 327.048 450.784C327.132 451.026 327.167 451.282 327.151 451.538C327.134 451.793 327.067 452.043 326.953 452.272C326.839 452.501 326.68 452.704 326.486 452.871C326.291 453.037 326.066 453.163 325.822 453.24C325.622 453.313 325.41 453.35 325.197 453.351C324.79 453.352 324.393 453.222 324.065 452.981C323.736 452.741 323.493 452.401 323.371 452.012ZM172.659 450.662C172.189 450.48 171.809 450.121 171.601 449.662C171.392 449.203 171.371 448.68 171.543 448.206C171.725 447.735 172.083 447.355 172.541 447.146C173 446.937 173.522 446.916 173.995 447.088C174.465 447.27 174.845 447.629 175.053 448.088C175.262 448.547 175.282 449.07 175.11 449.544C174.971 449.908 174.723 450.221 174.401 450.44C174.079 450.66 173.698 450.776 173.308 450.772C173.087 450.771 172.868 450.734 172.659 450.662ZM337.873 446.585C337.774 446.351 337.723 446.1 337.721 445.846C337.719 445.592 337.768 445.341 337.863 445.106C337.959 444.871 338.1 444.657 338.278 444.476C338.457 444.296 338.669 444.153 338.903 444.055C339.374 443.859 339.904 443.857 340.377 444.05C340.85 444.243 341.228 444.616 341.428 445.087C341.628 445.56 341.632 446.094 341.439 446.571C341.245 447.048 340.871 447.428 340.398 447.628C340.16 447.724 339.907 447.774 339.65 447.776C339.27 447.776 338.898 447.662 338.581 447.45C338.265 447.238 338.018 446.937 337.873 446.585ZM158.254 444.62C158.024 444.514 157.816 444.364 157.644 444.177C157.471 443.991 157.337 443.772 157.249 443.533C157.162 443.295 157.122 443.041 157.132 442.787C157.143 442.533 157.203 442.284 157.31 442.053C157.524 441.587 157.914 441.224 158.394 441.044C158.874 440.865 159.406 440.883 159.873 441.096C160.336 441.312 160.696 441.703 160.873 442.184C161.05 442.665 161.029 443.196 160.817 443.662C160.662 443.998 160.415 444.283 160.105 444.483C159.794 444.683 159.433 444.79 159.063 444.792C158.785 444.789 158.51 444.731 158.254 444.62ZM351.946 440.26C351.832 440.034 351.764 439.787 351.746 439.534C351.727 439.281 351.759 439.027 351.839 438.787C351.918 438.546 352.045 438.323 352.21 438.132C352.376 437.94 352.578 437.783 352.804 437.669C353.03 437.555 353.277 437.487 353.529 437.469C353.782 437.45 354.035 437.482 354.276 437.562C354.516 437.641 354.738 437.768 354.93 437.934C355.121 438.1 355.278 438.302 355.391 438.529C355.622 438.985 355.662 439.514 355.504 440C355.345 440.486 355 440.889 354.545 441.12C354.276 441.26 353.978 441.332 353.675 441.329C353.32 441.327 352.972 441.226 352.671 441.037C352.37 440.848 352.128 440.579 351.971 440.26H351.946ZM144.255 437.571C144.031 437.452 143.834 437.289 143.674 437.092C143.514 436.895 143.394 436.668 143.322 436.425C143.251 436.182 143.228 435.927 143.255 435.674C143.283 435.422 143.36 435.178 143.482 434.956C143.603 434.731 143.767 434.533 143.964 434.373C144.162 434.212 144.389 434.093 144.633 434.021C144.877 433.949 145.133 433.926 145.385 433.954C145.638 433.981 145.883 434.059 146.106 434.182C146.547 434.424 146.877 434.828 147.028 435.308C147.179 435.789 147.138 436.309 146.915 436.761C146.746 437.066 146.5 437.32 146.2 437.497C145.9 437.674 145.559 437.767 145.211 437.768C144.889 437.778 144.569 437.711 144.279 437.571H144.255ZM365.578 432.929C365.448 432.711 365.361 432.469 365.325 432.217C365.288 431.966 365.301 431.709 365.364 431.462C365.427 431.216 365.537 430.984 365.69 430.781C365.842 430.577 366.034 430.406 366.252 430.277C366.693 430.016 367.219 429.941 367.716 430.067C368.212 430.194 368.638 430.512 368.9 430.952C369.158 431.395 369.231 431.921 369.105 432.417C368.979 432.913 368.663 433.339 368.226 433.605C367.926 433.783 367.582 433.877 367.233 433.875C366.903 433.872 366.579 433.783 366.294 433.617C366.008 433.451 365.77 433.215 365.603 432.929H365.578ZM130.819 429.589C130.389 429.31 130.087 428.872 129.977 428.371C129.867 427.871 129.958 427.346 130.23 426.912C130.509 426.481 130.947 426.179 131.448 426.071C131.948 425.962 132.472 426.058 132.903 426.335C133.116 426.471 133.301 426.648 133.446 426.856C133.591 427.063 133.694 427.298 133.749 427.545C133.803 427.793 133.809 428.049 133.765 428.298C133.72 428.548 133.628 428.786 133.491 429C133.316 429.274 133.075 429.5 132.79 429.657C132.506 429.813 132.186 429.896 131.861 429.896C131.5 429.892 131.147 429.786 130.843 429.589H130.819ZM378.671 424.677C378.382 424.255 378.271 423.735 378.363 423.231C378.455 422.728 378.742 422.281 379.161 421.988C379.369 421.841 379.604 421.738 379.852 421.683C380.1 421.628 380.356 421.624 380.606 421.669C380.856 421.715 381.095 421.81 381.307 421.949C381.52 422.088 381.703 422.268 381.846 422.479C381.991 422.688 382.093 422.923 382.146 423.171C382.2 423.419 382.204 423.676 382.159 423.926C382.113 424.176 382.019 424.414 381.881 424.627C381.743 424.841 381.565 425.025 381.355 425.168C381.036 425.393 380.655 425.513 380.264 425.512C379.954 425.506 379.65 425.426 379.378 425.279C379.105 425.131 378.871 424.921 378.695 424.665L378.671 424.677ZM117.984 420.686C117.781 420.535 117.609 420.345 117.48 420.127C117.35 419.909 117.264 419.668 117.228 419.417C117.191 419.166 117.205 418.91 117.267 418.665C117.33 418.419 117.44 418.188 117.591 417.985C117.742 417.781 117.932 417.61 118.15 417.48C118.367 417.35 118.608 417.264 118.858 417.228C119.109 417.191 119.364 417.204 119.61 417.267C119.855 417.329 120.086 417.44 120.288 417.592C120.492 417.742 120.665 417.931 120.796 418.149C120.926 418.366 121.013 418.607 121.051 418.858C121.088 419.109 121.076 419.365 121.015 419.612C120.953 419.858 120.844 420.089 120.693 420.293C120.511 420.535 120.276 420.731 120.006 420.868C119.736 421.004 119.438 421.076 119.136 421.079C118.72 421.077 118.315 420.939 117.984 420.686ZM391.199 415.516C391.041 415.318 390.924 415.091 390.854 414.847C390.783 414.603 390.762 414.348 390.79 414.096C390.819 413.844 390.897 413.6 391.019 413.378C391.142 413.156 391.308 412.96 391.506 412.802C391.704 412.644 391.931 412.526 392.174 412.456C392.418 412.386 392.672 412.364 392.924 412.393C393.176 412.421 393.419 412.499 393.641 412.622C393.863 412.745 394.058 412.911 394.215 413.109C394.535 413.512 394.683 414.025 394.625 414.536C394.568 415.047 394.31 415.515 393.909 415.836C393.561 416.113 393.127 416.261 392.683 416.253C392.396 416.249 392.115 416.18 391.858 416.053C391.601 415.925 391.376 415.742 391.199 415.516ZM105.774 410.973C105.385 410.64 105.144 410.166 105.102 409.655C105.061 409.145 105.223 408.638 105.553 408.247C105.888 407.856 106.363 407.614 106.875 407.573C107.386 407.532 107.894 407.694 108.287 408.026C108.48 408.19 108.638 408.392 108.753 408.618C108.868 408.845 108.938 409.092 108.957 409.345C108.976 409.599 108.945 409.853 108.866 410.095C108.787 410.336 108.661 410.559 108.495 410.752C108.315 410.967 108.09 411.141 107.836 411.26C107.582 411.379 107.305 411.44 107.024 411.439C106.565 411.438 106.122 411.273 105.774 410.973ZM403.042 405.57C402.696 405.19 402.515 404.688 402.538 404.175C402.561 403.662 402.786 403.178 403.164 402.831C403.351 402.66 403.569 402.527 403.807 402.441C404.045 402.354 404.298 402.316 404.55 402.327C404.803 402.339 405.051 402.4 405.28 402.507C405.509 402.615 405.715 402.767 405.886 402.954C406.057 403.14 406.191 403.358 406.278 403.596C406.365 403.834 406.405 404.087 406.395 404.34C406.384 404.593 406.324 404.842 406.218 405.072C406.112 405.302 405.961 405.508 405.775 405.68C405.418 406.01 404.95 406.194 404.464 406.196C404.193 406.191 403.927 406.13 403.682 406.016C403.437 405.902 403.219 405.737 403.042 405.533V405.57ZM94.2012 400.363C93.8397 399.999 93.6367 399.507 93.6367 398.994C93.6367 398.48 93.8397 397.988 94.2012 397.624C94.5643 397.262 95.0558 397.059 95.5681 397.059C96.0805 397.059 96.572 397.262 96.935 397.624C97.2966 397.988 97.4996 398.48 97.4996 398.994C97.4996 399.507 97.2966 399.999 96.935 400.363C96.7555 400.545 96.5417 400.69 96.3061 400.789C96.0704 400.888 95.8175 400.939 95.562 400.94C95.0504 400.934 94.5616 400.727 94.2012 400.363ZM414.161 394.751C413.789 394.397 413.573 393.91 413.559 393.397C413.545 392.884 413.735 392.386 414.087 392.012C414.44 391.64 414.926 391.424 415.439 391.41C415.951 391.396 416.448 391.586 416.821 391.939C417.191 392.294 417.405 392.782 417.416 393.295C417.428 393.809 417.236 394.306 416.882 394.677C416.703 394.869 416.486 395.021 416.246 395.124C416.005 395.228 415.746 395.28 415.484 395.279C414.991 395.283 414.516 395.093 414.161 394.751ZM83.4746 389.028C83.1334 388.644 82.9585 388.14 82.9884 387.626C83.0183 387.113 83.2505 386.632 83.634 386.29C83.823 386.121 84.0434 385.991 84.2826 385.908C84.5217 385.824 84.775 385.789 85.0278 385.804C85.2807 385.819 85.5281 385.883 85.7559 385.994C85.9837 386.105 86.1875 386.26 86.3555 386.45C86.6967 386.834 86.8716 387.338 86.8418 387.852C86.8119 388.365 86.5796 388.846 86.1961 389.188C85.8393 389.5 85.3828 389.675 84.9089 389.679C84.6416 389.676 84.378 389.616 84.1352 389.504C83.8923 389.392 83.6757 389.23 83.4992 389.028H83.4746ZM424.532 383.232C424.335 383.071 424.172 382.872 424.053 382.647C423.934 382.423 423.86 382.176 423.836 381.923C423.812 381.669 423.838 381.414 423.914 381.171C423.989 380.927 424.111 380.702 424.274 380.506C424.435 380.309 424.634 380.146 424.858 380.027C425.083 379.907 425.328 379.833 425.581 379.809C425.834 379.785 426.09 379.812 426.332 379.887C426.575 379.962 426.801 380.085 426.996 380.248C427.389 380.574 427.637 381.043 427.685 381.552C427.734 382.061 427.578 382.568 427.253 382.962C427.072 383.185 426.844 383.364 426.586 383.488C426.327 383.611 426.044 383.675 425.758 383.674C425.319 383.668 424.895 383.512 424.556 383.232H424.532ZM73.5081 376.97C73.1959 376.563 73.0567 376.05 73.121 375.542C73.1853 375.033 73.4479 374.571 73.8513 374.256C74.0514 374.099 74.2804 373.984 74.5252 373.917C74.7699 373.849 75.0256 373.831 75.2774 373.863C75.5292 373.895 75.7722 373.976 75.9924 374.103C76.2127 374.229 76.4057 374.398 76.5606 374.599C76.7167 374.8 76.8318 375.029 76.8991 375.275C76.9664 375.52 76.9846 375.776 76.9527 376.028C76.9208 376.28 76.8394 376.524 76.7132 376.744C76.587 376.965 76.4185 377.158 76.2173 377.313C75.8665 377.584 75.4342 377.727 74.9914 377.719C74.708 377.71 74.4301 377.638 74.1778 377.509C73.9255 377.379 73.7051 377.195 73.5326 376.97H73.5081ZM434.094 371.014C433.887 370.866 433.711 370.679 433.577 370.463C433.442 370.247 433.352 370.006 433.311 369.755C433.27 369.504 433.279 369.247 433.338 368.999C433.396 368.752 433.503 368.518 433.652 368.312C433.952 367.9 434.402 367.622 434.904 367.539C435.407 367.457 435.921 367.575 436.337 367.87C436.754 368.169 437.036 368.621 437.121 369.127C437.206 369.633 437.087 370.153 436.791 370.572C436.613 370.822 436.377 371.027 436.104 371.168C435.831 371.309 435.529 371.382 435.221 371.382C434.825 371.375 434.44 371.247 434.118 371.014H434.094ZM64.4242 364.309C64.2837 364.098 64.1862 363.861 64.1373 363.612C64.0884 363.363 64.089 363.107 64.1391 362.858C64.1892 362.609 64.2878 362.373 64.4293 362.163C64.5708 361.952 64.7524 361.772 64.9636 361.632C65.1736 361.491 65.4094 361.392 65.6574 361.342C65.9055 361.292 66.1609 361.292 66.4091 361.341C66.6573 361.39 66.8934 361.487 67.104 361.628C67.3145 361.769 67.4953 361.949 67.636 362.16C67.9204 362.588 68.0233 363.112 67.9221 363.616C67.821 364.121 67.5241 364.564 67.0966 364.849C66.7816 365.061 66.4097 365.173 66.0301 365.168C65.712 365.171 65.3983 365.094 65.1177 364.944C64.8371 364.794 64.5986 364.575 64.4242 364.309ZM442.822 358.169C442.389 357.9 442.079 357.47 441.959 356.974C441.84 356.477 441.921 355.954 442.185 355.516C442.315 355.299 442.488 355.11 442.692 354.96C442.897 354.81 443.129 354.702 443.375 354.642C443.622 354.583 443.877 354.573 444.127 354.614C444.378 354.654 444.617 354.744 444.833 354.878C445.267 355.149 445.577 355.582 445.694 356.081C445.811 356.58 445.726 357.106 445.458 357.543C445.286 357.824 445.044 358.057 444.756 358.218C444.469 358.379 444.145 358.464 443.815 358.464C443.463 358.459 443.12 358.357 442.822 358.169ZM56.1984 350.973C55.946 350.526 55.8804 349.998 56.0159 349.503C56.1515 349.008 56.4771 348.587 56.9217 348.333C57.141 348.206 57.3833 348.124 57.6344 348.092C57.8855 348.06 58.1405 348.078 58.3845 348.146C58.6286 348.213 58.8568 348.328 59.056 348.485C59.2553 348.641 59.4215 348.836 59.5451 349.057C59.6739 349.277 59.7577 349.52 59.7917 349.772C59.8256 350.024 59.809 350.281 59.7428 350.527C59.6766 350.773 59.5621 351.003 59.4061 351.204C59.2501 351.405 59.0556 351.573 58.8341 351.697C58.543 351.865 58.2135 351.954 57.8779 351.955C57.5361 351.956 57.2003 351.865 56.9052 351.692C56.61 351.52 56.3661 351.271 56.1984 350.973ZM450.606 344.759C450.381 344.641 450.181 344.48 450.018 344.285C449.856 344.089 449.733 343.863 449.658 343.62C449.583 343.377 449.556 343.121 449.58 342.868C449.604 342.614 449.678 342.368 449.797 342.144C449.914 341.918 450.073 341.718 450.267 341.555C450.462 341.392 450.686 341.27 450.928 341.194C451.169 341.119 451.424 341.092 451.676 341.116C451.928 341.14 452.173 341.214 452.396 341.333C452.851 341.571 453.193 341.98 453.347 342.471C453.501 342.961 453.455 343.493 453.218 343.949C453.05 344.259 452.803 344.519 452.501 344.7C452.199 344.882 451.854 344.978 451.501 344.98C451.194 344.978 450.891 344.902 450.619 344.759H450.606ZM48.9289 337.146C48.8166 336.918 48.7506 336.67 48.7349 336.416C48.7192 336.163 48.754 335.908 48.8372 335.668C48.9205 335.428 49.0506 335.208 49.22 335.018C49.3894 334.829 49.5946 334.676 49.8238 334.567C50.0515 334.456 50.2988 334.391 50.5516 334.376C50.8043 334.361 51.0575 334.397 51.2966 334.48C51.5358 334.563 51.7562 334.693 51.9452 334.862C52.1342 335.03 52.2881 335.235 52.3981 335.463C52.5087 335.691 52.5734 335.939 52.5882 336.192C52.6031 336.445 52.568 336.699 52.4849 336.939C52.4017 337.178 52.2722 337.399 52.1038 337.588C51.9353 337.778 51.7313 337.932 51.5032 338.042C51.2445 338.172 50.959 338.239 50.6696 338.238C50.3081 338.237 49.9543 338.134 49.6486 337.941C49.3429 337.748 49.0977 337.472 48.9411 337.146H48.9289ZM457.459 330.834C456.99 330.626 456.622 330.241 456.435 329.762C456.249 329.283 456.26 328.75 456.466 328.279C456.673 327.809 457.058 327.44 457.536 327.254C458.014 327.067 458.546 327.079 459.016 327.285C459.486 327.492 459.854 327.877 460.04 328.356C460.226 328.835 460.215 329.368 460.009 329.839C459.858 330.182 459.61 330.473 459.297 330.678C458.984 330.883 458.618 330.992 458.244 330.993C457.978 330.993 457.715 330.939 457.471 330.834H457.459ZM42.6277 322.852C42.5303 322.617 42.4806 322.364 42.4816 322.11C42.4826 321.855 42.5342 321.603 42.6335 321.369C42.7328 321.134 42.8778 320.922 43.0599 320.745C43.242 320.567 43.4577 320.427 43.6943 320.334C44.1706 320.145 44.7027 320.152 45.1737 320.354C45.6448 320.557 46.0165 320.938 46.2074 321.415C46.3934 321.892 46.3845 322.424 46.1827 322.895C45.9808 323.366 45.6022 323.739 45.1286 323.932C44.9012 324.019 44.6606 324.064 44.4175 324.067C44.0341 324.065 43.66 323.948 43.3433 323.732C43.0265 323.515 42.7817 323.209 42.64 322.852H42.6277ZM463.344 316.417C463.101 316.338 462.877 316.211 462.683 316.045C462.49 315.878 462.332 315.674 462.218 315.446C462.104 315.217 462.036 314.968 462.019 314.714C462.002 314.459 462.035 314.203 462.118 313.961C462.292 313.483 462.647 313.094 463.105 312.876C463.564 312.657 464.09 312.628 464.569 312.794C465.048 312.967 465.439 313.322 465.658 313.782C465.876 314.242 465.903 314.77 465.734 315.25C465.6 315.628 465.352 315.955 465.025 316.186C464.698 316.416 464.308 316.54 463.907 316.54C463.714 316.53 463.524 316.488 463.344 316.417ZM37.3319 308.091C37.2495 307.849 37.2159 307.594 37.2331 307.339C37.2502 307.084 37.3178 306.835 37.4319 306.606C37.546 306.378 37.7042 306.174 37.8975 306.008C38.0908 305.841 38.3152 305.714 38.5577 305.635C38.7991 305.553 39.0545 305.519 39.309 305.536C39.5634 305.553 39.812 305.621 40.0401 305.735C40.2682 305.85 40.4714 306.008 40.6378 306.202C40.8043 306.395 40.9306 306.62 41.0095 306.863C41.0919 307.105 41.1255 307.361 41.1083 307.616C41.0912 307.871 41.0236 308.12 40.9095 308.348C40.7954 308.577 40.6372 308.78 40.4439 308.947C40.2506 309.114 40.0262 309.24 39.7836 309.319C39.5894 309.382 39.3869 309.415 39.183 309.417C38.7791 309.421 38.384 309.299 38.0524 309.068C37.7208 308.837 37.469 308.509 37.3319 308.128V308.091ZM468.198 301.681C467.948 301.611 467.714 301.491 467.511 301.328C467.308 301.166 467.139 300.964 467.016 300.734C466.892 300.505 466.816 300.254 466.792 299.994C466.767 299.735 466.795 299.473 466.874 299.225C467.014 298.733 467.343 298.316 467.788 298.065C468.234 297.815 468.76 297.75 469.252 297.887C469.514 297.958 469.757 298.083 469.967 298.254C470.177 298.426 470.348 298.639 470.471 298.881C470.593 299.123 470.664 299.388 470.678 299.658C470.692 299.929 470.649 300.2 470.552 300.453C470.435 300.858 470.191 301.215 469.855 301.47C469.519 301.724 469.11 301.863 468.688 301.865C468.518 301.825 468.353 301.763 468.198 301.681ZM33.0044 293.085C32.8821 292.587 32.9617 292.06 33.2259 291.621C33.4901 291.181 33.9174 290.864 34.4142 290.74C34.9116 290.617 35.4372 290.697 35.876 290.961C36.3148 291.226 36.6311 291.654 36.7557 292.152C36.878 292.65 36.7984 293.177 36.5342 293.616C36.27 294.056 35.8427 294.372 35.3459 294.497C35.1935 294.536 35.0372 294.556 34.8801 294.559C34.4588 294.544 34.0536 294.393 33.7262 294.127C33.3988 293.861 33.1669 293.495 33.0657 293.085H33.0044ZM471.962 286.699C471.461 286.59 471.024 286.288 470.744 285.858C470.464 285.429 470.364 284.906 470.466 284.403C470.572 283.9 470.873 283.46 471.303 283.179C471.733 282.898 472.256 282.799 472.758 282.905C473.261 283.011 473.7 283.313 473.98 283.743C474.261 284.174 474.359 284.698 474.254 285.201C474.162 285.635 473.924 286.023 473.581 286.302C473.237 286.582 472.808 286.735 472.366 286.736L471.962 286.699ZM29.7926 277.772C29.7486 277.522 29.7543 277.266 29.8094 277.018C29.8645 276.77 29.9679 276.536 30.1137 276.328C30.2595 276.12 30.4448 275.943 30.659 275.808C30.8731 275.672 31.112 275.58 31.3617 275.537C31.6113 275.493 31.8671 275.499 32.1145 275.554C32.3619 275.609 32.596 275.713 32.8033 275.859C33.0106 276.005 33.187 276.19 33.3225 276.405C33.458 276.619 33.5499 276.859 33.5929 277.109C33.6369 277.359 33.6312 277.615 33.5761 277.863C33.521 278.111 33.4176 278.345 33.2718 278.553C33.126 278.76 32.9407 278.937 32.7265 279.073C32.5123 279.209 32.2735 279.301 32.0237 279.344H31.6927C31.2531 279.332 30.8308 279.169 30.4962 278.883C30.1617 278.597 29.9349 278.205 29.8539 277.772H29.7926ZM474.793 271.435C474.542 271.401 474.3 271.317 474.081 271.188C473.862 271.059 473.671 270.888 473.518 270.685C473.365 270.482 473.254 270.25 473.191 270.004C473.128 269.758 473.114 269.501 473.151 269.25C473.221 268.743 473.489 268.285 473.896 267.977C474.302 267.668 474.815 267.534 475.321 267.604C475.827 267.674 476.285 267.942 476.595 268.349C476.905 268.757 477.042 269.27 476.976 269.778C476.913 270.242 476.685 270.668 476.334 270.978C475.982 271.287 475.531 271.458 475.063 271.46L474.793 271.435ZM27.7085 262.275C27.657 261.765 27.8085 261.256 28.1299 260.858C28.4514 260.46 28.9168 260.206 29.4248 260.15C29.6778 260.123 29.9336 260.146 30.1776 260.219C30.4215 260.291 30.6486 260.412 30.8458 260.573C31.0431 260.734 31.2065 260.932 31.3266 261.157C31.4467 261.382 31.5211 261.628 31.5456 261.882C31.5972 262.391 31.4457 262.9 31.1242 263.298C30.8028 263.696 30.3374 263.95 29.8294 264.006H29.621C29.1449 264.006 28.6858 263.828 28.3326 263.508C27.9794 263.189 27.7571 262.749 27.7085 262.275ZM476.51 256.012C476.257 255.996 476.01 255.931 475.783 255.819C475.556 255.707 475.354 255.551 475.187 255.361C475.021 255.17 474.894 254.948 474.814 254.708C474.733 254.468 474.702 254.214 474.72 253.961C474.755 253.448 474.991 252.97 475.377 252.632C475.763 252.293 476.267 252.122 476.779 252.156C477.289 252.194 477.763 252.432 478.098 252.818C478.434 253.205 478.603 253.708 478.569 254.219C478.535 254.708 478.318 255.165 477.961 255.5C477.604 255.835 477.134 256.022 476.645 256.024H476.51V256.012ZM26.6052 246.679C26.5887 246.166 26.7754 245.668 27.1246 245.293C27.4737 244.918 27.957 244.697 28.4686 244.677C28.9782 244.664 29.4725 244.853 29.8443 245.202C30.2161 245.551 30.4354 246.034 30.4546 246.544C30.4711 247.057 30.2844 247.555 29.9352 247.93C29.5861 248.305 29.1028 248.526 28.5912 248.546H28.5176C28.025 248.533 27.5554 248.334 27.2047 247.987C26.8539 247.64 26.6483 247.172 26.6298 246.679H26.6052ZM475.21 238.587C475.204 238.501 475.204 238.415 475.21 238.329C475.204 238.247 475.204 238.165 475.21 238.083C475.209 237.829 475.257 237.577 475.353 237.341C475.449 237.106 475.591 236.892 475.77 236.712C475.948 236.532 476.161 236.388 476.395 236.291C476.63 236.193 476.881 236.143 477.135 236.143C477.394 236.133 477.652 236.175 477.894 236.268C478.136 236.36 478.357 236.501 478.544 236.681C478.73 236.861 478.879 237.077 478.98 237.316C479.081 237.554 479.133 237.811 479.133 238.071C479.139 238.157 479.139 238.243 479.133 238.329C479.139 238.415 479.139 238.501 479.133 238.587C479.135 238.841 479.086 239.093 478.99 239.328C478.894 239.563 478.753 239.777 478.574 239.958C478.395 240.138 478.182 240.281 477.948 240.379C477.714 240.477 477.462 240.527 477.208 240.527C476.951 240.532 476.695 240.485 476.456 240.39C476.217 240.294 475.999 240.152 475.815 239.972C475.631 239.791 475.485 239.575 475.386 239.338C475.286 239.1 475.235 238.844 475.235 238.587H475.21ZM28.4563 233.024C27.9447 233.008 27.4603 232.789 27.1088 232.417C26.7574 232.044 26.5675 231.547 26.5807 231.034C26.5999 230.521 26.8205 230.035 27.1946 229.684C27.5686 229.332 28.0661 229.142 28.5789 229.156C29.0906 229.175 29.5738 229.396 29.923 229.771C30.2721 230.146 30.4589 230.645 30.4423 231.157C30.4295 231.659 30.2207 232.135 29.8608 232.484C29.5008 232.833 29.0186 233.027 28.5176 233.024H28.4563ZM474.683 222.709C474.649 222.196 474.818 221.692 475.153 221.303C475.488 220.915 475.962 220.674 476.473 220.633C476.985 220.6 477.489 220.771 477.875 221.109C478.262 221.448 478.498 221.926 478.532 222.438C478.566 222.949 478.397 223.453 478.062 223.839C477.726 224.226 477.252 224.464 476.743 224.501H476.608C476.12 224.503 475.65 224.318 475.292 223.985C474.935 223.652 474.717 223.196 474.683 222.709ZM29.3758 217.539C28.8679 217.486 28.4014 217.234 28.0777 216.839C27.754 216.443 27.5993 215.936 27.6473 215.427C27.6999 214.915 27.9527 214.446 28.3503 214.122C28.7478 213.797 29.2577 213.644 29.7681 213.695C30.0213 213.72 30.2672 213.794 30.4915 213.914C30.7158 214.035 30.914 214.198 31.0748 214.396C31.2355 214.594 31.3556 214.821 31.428 215.065C31.5004 215.31 31.5237 215.566 31.4966 215.819C31.4479 216.296 31.2238 216.737 30.868 217.057C30.5122 217.378 30.0501 217.553 29.5719 217.551H29.3758V217.539ZM473.077 207.408C473.007 206.901 473.141 206.388 473.449 205.98C473.757 205.573 474.214 205.304 474.72 205.234C475.227 205.164 475.741 205.298 476.15 205.606C476.559 205.914 476.829 206.372 476.902 206.88C476.972 207.387 476.838 207.902 476.531 208.312C476.223 208.722 475.766 208.992 475.259 209.065H474.99C474.525 209.067 474.075 208.9 473.723 208.595C473.372 208.291 473.142 207.869 473.077 207.408ZM31.3372 202.213C30.8333 202.12 30.3861 201.833 30.0925 201.412C29.7988 200.992 29.6823 200.472 29.7681 199.966C29.8579 199.462 30.1427 199.014 30.5606 198.72C30.9785 198.426 31.4955 198.309 31.9992 198.394C32.5021 198.484 32.9492 198.769 33.2431 199.188C33.537 199.607 33.6539 200.125 33.5683 200.629C33.4881 201.073 33.2553 201.474 32.9104 201.763C32.5656 202.053 32.1304 202.212 31.6805 202.213H31.3372ZM470.429 192.266C470.375 192.018 470.371 191.761 470.416 191.511C470.462 191.261 470.556 191.023 470.694 190.809C470.832 190.596 471.01 190.412 471.22 190.268C471.429 190.124 471.664 190.023 471.913 189.97C472.415 189.865 472.938 189.963 473.368 190.244C473.798 190.525 474.099 190.965 474.205 191.468C474.31 191.971 474.212 192.496 473.931 192.926C473.651 193.357 473.212 193.658 472.709 193.765H472.317C471.879 193.767 471.454 193.62 471.11 193.348C470.767 193.076 470.527 192.694 470.429 192.266ZM34.3652 186.949C34.1181 186.889 33.8852 186.78 33.68 186.63C33.4748 186.479 33.3012 186.289 33.1692 186.072C33.0371 185.854 32.9492 185.612 32.9104 185.36C32.8716 185.108 32.8827 184.851 32.9431 184.604C33.068 184.108 33.3819 183.681 33.8174 183.415C34.2529 183.149 34.7752 183.064 35.2723 183.179C35.5195 183.24 35.7523 183.348 35.9575 183.499C36.1627 183.65 36.3363 183.839 36.4684 184.057C36.6004 184.275 36.6883 184.517 36.7271 184.768C36.7659 185.02 36.7548 185.277 36.6944 185.525C36.5905 185.945 36.3495 186.318 36.0097 186.585C35.6698 186.852 35.2507 186.997 34.8188 186.998C34.6661 187 34.5139 186.984 34.3652 186.949ZM466.727 177.346C466.659 177.099 466.64 176.84 466.672 176.585C466.704 176.33 466.786 176.084 466.914 175.862C467.042 175.639 467.212 175.444 467.416 175.288C467.62 175.131 467.852 175.017 468.1 174.952C468.344 174.883 468.599 174.862 468.851 174.892C469.102 174.922 469.346 175.002 469.567 175.126C469.788 175.25 469.982 175.417 470.138 175.617C470.295 175.817 470.41 176.046 470.478 176.29C470.547 176.534 470.568 176.789 470.539 177.04C470.51 177.292 470.432 177.535 470.309 177.756C470.186 177.977 470.021 178.172 469.823 178.329C469.625 178.487 469.397 178.603 469.154 178.673C468.983 178.721 468.805 178.746 468.627 178.746C468.201 178.755 467.783 178.623 467.44 178.369C467.096 178.116 466.846 177.757 466.727 177.346ZM38.4229 171.98C38.1813 171.9 37.9579 171.772 37.7655 171.605C37.5731 171.438 37.4155 171.235 37.3016 171.007C37.1878 170.778 37.12 170.53 37.102 170.276C37.084 170.021 37.1163 169.766 37.197 169.524C37.2759 169.281 37.4023 169.056 37.5687 168.863C37.7351 168.669 37.9383 168.51 38.1664 168.396C38.3946 168.282 38.6431 168.214 38.8976 168.197C39.1521 168.18 39.4074 168.214 39.6488 168.296C39.8913 168.375 40.1158 168.502 40.309 168.668C40.5023 168.835 40.6606 169.039 40.7747 169.267C40.8887 169.496 40.9563 169.745 40.9735 169.999C40.9907 170.254 40.9571 170.51 40.8747 170.752C40.7514 171.143 40.5063 171.484 40.1753 171.725C39.8444 171.966 39.445 172.094 39.0358 172.091C38.8269 172.087 38.62 172.05 38.4229 171.98ZM461.971 162.709C461.888 162.467 461.855 162.211 461.872 161.956C461.889 161.701 461.957 161.452 462.071 161.224C462.185 160.995 462.343 160.792 462.536 160.625C462.729 160.458 462.954 160.332 463.196 160.253C463.433 160.167 463.684 160.128 463.936 160.14C464.187 160.152 464.434 160.213 464.662 160.32C464.889 160.427 465.094 160.578 465.263 160.765C465.432 160.951 465.563 161.17 465.648 161.407C465.818 161.886 465.792 162.413 465.576 162.872C465.361 163.332 464.972 163.688 464.496 163.863C464.283 163.935 464.059 163.973 463.834 163.973C463.43 163.987 463.032 163.872 462.697 163.645C462.362 163.417 462.108 163.09 461.971 162.709ZM43.4859 157.305C43.0122 157.112 42.6336 156.739 42.4317 156.268C42.2299 155.797 42.2211 155.266 42.4071 154.788C42.6005 154.314 42.9725 153.934 43.4427 153.732C43.9128 153.53 44.4435 153.521 44.9202 153.707C45.3959 153.899 45.7767 154.271 45.9789 154.743C46.1811 155.215 46.1883 155.748 45.9989 156.225C45.8599 156.587 45.6143 156.898 45.2947 157.118C44.9751 157.337 44.5965 157.454 44.2091 157.453C43.9731 157.447 43.7403 157.397 43.5226 157.305H43.4859ZM456.258 148.464C456.152 148.232 456.094 147.981 456.086 147.727C456.078 147.472 456.121 147.218 456.212 146.98C456.304 146.742 456.442 146.525 456.618 146.341C456.794 146.158 457.005 146.011 457.239 145.91C457.708 145.703 458.241 145.692 458.719 145.879C459.197 146.065 459.582 146.434 459.788 146.904C459.89 147.136 459.945 147.386 459.95 147.64C459.955 147.893 459.911 148.145 459.818 148.382C459.726 148.618 459.588 148.833 459.413 149.016C459.237 149.199 459.027 149.345 458.795 149.446C458.555 149.563 458.29 149.621 458.023 149.618C457.655 149.612 457.296 149.499 456.99 149.295C456.684 149.09 456.442 148.802 456.295 148.464H456.258ZM49.6031 143.036C49.3736 142.926 49.168 142.771 48.9982 142.581C48.8283 142.391 48.6975 142.17 48.6133 141.929C48.529 141.688 48.4929 141.433 48.5071 141.179C48.5213 140.924 48.5855 140.675 48.6959 140.445C48.8091 140.217 48.9665 140.013 49.1588 139.846C49.3511 139.679 49.5745 139.552 49.8162 139.472C50.058 139.392 50.3131 139.361 50.5669 139.38C50.8207 139.4 51.0681 139.47 51.2948 139.585C51.5239 139.695 51.7292 139.848 51.8989 140.037C52.0686 140.226 52.1994 140.446 52.2837 140.686C52.368 140.926 52.4042 141.18 52.3902 141.433C52.3762 141.687 52.3122 141.935 52.202 142.164C52.0457 142.493 51.7989 142.771 51.4905 142.965C51.1822 143.158 50.8251 143.26 50.4612 143.257C50.1748 143.243 49.8948 143.168 49.6399 143.036H49.6031ZM449.601 134.673C449.362 134.22 449.312 133.691 449.461 133.201C449.611 132.711 449.947 132.3 450.398 132.058C450.622 131.938 450.867 131.863 451.119 131.838C451.372 131.813 451.627 131.839 451.869 131.913C452.112 131.987 452.338 132.109 452.533 132.27C452.729 132.432 452.891 132.631 453.009 132.856C453.247 133.311 453.296 133.841 453.144 134.331C452.992 134.821 452.653 135.231 452.2 135.472C451.921 135.621 451.609 135.697 451.293 135.693C450.945 135.693 450.604 135.598 450.306 135.419C450.008 135.239 449.764 134.981 449.601 134.673ZM56.7133 129.258C56.2687 129.003 55.9431 128.582 55.8075 128.087C55.672 127.593 55.7376 127.064 55.99 126.618C56.2444 126.172 56.6646 125.846 57.1585 125.71C57.6525 125.575 58.18 125.64 58.6257 125.893C58.847 126.018 59.0414 126.186 59.1977 126.387C59.3541 126.587 59.4692 126.817 59.5364 127.062C59.6036 127.308 59.6217 127.564 59.5895 127.817C59.5574 128.069 59.4756 128.313 59.349 128.533C59.1813 128.832 58.9374 129.08 58.6422 129.253C58.3471 129.425 58.0113 129.516 57.6695 129.516C57.3307 129.502 57.0012 129.401 56.7133 129.221V129.258ZM441.964 121.35C441.695 120.913 441.61 120.387 441.727 119.888C441.845 119.389 442.154 118.956 442.589 118.685C443.025 118.416 443.55 118.331 444.048 118.448C444.547 118.565 444.979 118.876 445.249 119.311C445.518 119.748 445.603 120.273 445.486 120.773C445.369 121.272 445.059 121.705 444.624 121.976C444.318 122.165 443.966 122.262 443.607 122.258C443.275 122.255 442.95 122.166 442.662 122.001C442.374 121.835 442.134 121.598 441.964 121.313V121.35ZM64.7797 115.934C64.3557 115.649 64.0612 115.208 63.9602 114.707C63.8592 114.206 63.9598 113.685 64.2403 113.257C64.5249 112.829 64.9676 112.532 65.471 112.43C65.9744 112.329 66.4974 112.432 66.925 112.717C67.349 113.002 67.6435 113.443 67.7445 113.944C67.8455 114.446 67.7449 114.967 67.4644 115.394C67.2864 115.66 67.0455 115.877 66.7632 116.027C66.4808 116.177 66.1658 116.255 65.8462 116.254C65.4669 116.256 65.0954 116.145 64.7797 115.934ZM433.481 108.566C433.187 108.15 433.068 107.634 433.151 107.131C433.233 106.628 433.51 106.177 433.922 105.877C434.337 105.577 434.854 105.454 435.359 105.535C435.864 105.615 436.317 105.893 436.619 106.307C436.768 106.513 436.875 106.746 436.934 106.994C436.992 107.242 437.001 107.498 436.96 107.75C436.919 108.001 436.829 108.241 436.694 108.457C436.56 108.673 436.385 108.861 436.178 109.008C435.849 109.246 435.455 109.375 435.05 109.377C434.731 109.381 434.416 109.305 434.134 109.158C433.852 109.01 433.61 108.794 433.432 108.529L433.481 108.566ZM73.6429 103.237C73.2376 102.923 72.9727 102.462 72.906 101.953C72.8394 101.445 72.9765 100.93 73.2874 100.523C73.6003 100.117 74.061 99.8514 74.5687 99.7847C75.0764 99.718 75.5898 99.8553 75.9967 100.167C76.402 100.48 76.6669 100.942 76.7336 101.45C76.8002 101.959 76.6631 102.473 76.3522 102.881C76.1714 103.116 75.9394 103.307 75.6738 103.439C75.4083 103.571 75.1162 103.64 74.8198 103.642C74.3932 103.643 73.9787 103.5 73.6429 103.237ZM424.041 96.3722C423.716 95.9761 423.56 95.4668 423.608 94.9559C423.656 94.445 423.905 93.974 424.299 93.6461C424.694 93.3198 425.203 93.1637 425.713 93.212C426.223 93.2604 426.693 93.5092 427.02 93.904C427.346 94.3001 427.502 94.8094 427.453 95.3203C427.405 95.8312 427.157 96.3022 426.763 96.6301C426.417 96.9149 425.984 97.0711 425.537 97.0722C425.251 97.0748 424.969 97.0133 424.71 96.8922C424.451 96.7711 424.223 96.5934 424.041 96.3722ZM83.4011 91.1778C83.2093 91.0113 83.0525 90.8082 82.9399 90.5804C82.8272 90.3525 82.761 90.1045 82.745 89.8507C82.729 89.597 82.7636 89.3426 82.8468 89.1024C82.93 88.8622 83.0601 88.641 83.2295 88.4517C83.3975 88.2618 83.6012 88.1071 83.8291 87.9963C84.0569 87.8855 84.3043 87.8208 84.5571 87.806C84.8099 87.7911 85.0632 87.8264 85.3024 87.9098C85.5416 87.9932 85.762 88.1231 85.951 88.292C86.3326 88.632 86.5647 89.1092 86.5968 89.6197C86.629 90.1303 86.4585 90.6329 86.1226 91.0182C85.9415 91.2234 85.7188 91.3875 85.4693 91.4998C85.2199 91.612 84.9494 91.6697 84.676 91.669C84.2045 91.6716 83.7493 91.4963 83.4011 91.1778ZM413.842 84.8905C413.488 84.5188 413.296 84.0218 413.308 83.5086C413.319 82.9953 413.533 82.5075 413.903 82.152C414.266 81.7898 414.758 81.5865 415.27 81.5865C415.782 81.5865 416.274 81.7898 416.637 82.152C416.998 82.5157 417.201 83.008 417.201 83.5212C417.201 84.0345 416.998 84.5268 416.637 84.8905C416.275 85.2305 415.797 85.4193 415.301 85.4185C415.034 85.4367 414.767 85.3991 414.516 85.3082C414.265 85.2173 414.035 85.075 413.842 84.8905ZM93.9561 79.8311C93.5945 79.4675 93.3915 78.9751 93.3915 78.4619C93.3915 77.9487 93.5945 77.4563 93.9561 77.0927C94.3191 76.7305 94.8106 76.5271 95.3229 76.5271C95.8353 76.5271 96.3268 76.7305 96.6898 77.0927C97.0514 77.4563 97.2544 77.9487 97.2544 78.4619C97.2544 78.9751 97.0514 79.4675 96.6898 79.8311C96.5124 80.0076 96.3019 80.1472 96.0705 80.242C95.8391 80.3369 95.5913 80.385 95.3413 80.3837C95.0854 80.3879 94.8313 80.3411 94.5935 80.2463C94.3557 80.1514 94.1391 80.0103 93.9561 79.8311ZM402.882 74.1209C402.507 73.7721 402.284 73.2893 402.261 72.7769C402.238 72.2645 402.417 71.7636 402.76 71.3825C403.108 71.0064 403.59 70.7827 404.101 70.7598C404.613 70.7368 405.113 70.9164 405.493 71.2597C405.872 71.6068 406.097 72.0901 406.12 72.6035C406.143 73.1169 405.962 73.6185 405.616 73.9981C405.434 74.1967 405.212 74.355 404.965 74.4628C404.718 74.5706 404.451 74.6257 404.182 74.6244C403.697 74.6293 403.228 74.4494 402.87 74.1209H402.882ZM105.271 69.209C105.105 69.0166 104.979 68.7932 104.9 68.5519C104.821 68.3105 104.79 68.0558 104.809 67.8025C104.829 67.5491 104.898 67.3021 105.013 67.0756C105.128 66.8492 105.287 66.6477 105.479 66.4828C105.672 66.3168 105.894 66.1905 106.135 66.1112C106.376 66.0318 106.631 66.0009 106.884 66.0203C107.136 66.0397 107.383 66.109 107.609 66.2242C107.835 66.3394 108.036 66.4982 108.201 66.6916C108.367 66.8839 108.493 67.1073 108.572 67.3486C108.651 67.59 108.682 67.8447 108.663 68.098C108.643 68.3514 108.574 68.5984 108.459 68.8249C108.344 69.0513 108.186 69.2528 107.993 69.4177C107.651 69.7122 107.217 69.8773 106.767 69.8843C106.479 69.8968 106.192 69.8448 105.927 69.7322C105.662 69.6196 105.425 69.4493 105.234 69.2335L105.271 69.209ZM391.199 64.1128C390.798 63.7919 390.54 63.3245 390.483 62.8133C390.425 62.302 390.573 61.7889 390.893 61.3866C391.213 60.9845 391.68 60.7262 392.19 60.6687C392.701 60.6111 393.213 60.7589 393.614 61.0796C394.016 61.4005 394.274 61.8679 394.331 62.3791C394.389 62.8903 394.241 63.4035 393.921 63.8058C393.739 64.034 393.508 64.2178 393.244 64.3433C392.981 64.4688 392.692 64.5328 392.401 64.5303C391.964 64.5403 391.536 64.4018 391.187 64.1373L391.199 64.1128ZM117.273 59.4095C116.97 58.9983 116.841 58.4838 116.914 57.9779C116.988 57.4721 117.257 57.0157 117.665 56.7079C118.076 56.4005 118.593 56.2692 119.101 56.3429C119.609 56.4165 120.067 56.6892 120.374 57.1009C120.526 57.304 120.636 57.535 120.698 57.7808C120.761 58.0266 120.774 58.2823 120.738 58.5332C120.701 58.7842 120.616 59.0255 120.486 59.2433C120.356 59.4611 120.185 59.6511 119.982 59.8025C119.651 60.0565 119.246 60.1946 118.83 60.1954C118.527 60.2002 118.227 60.1339 117.955 60.0016C117.682 59.8694 117.444 59.675 117.26 59.4341L117.273 59.4095ZM378.855 54.9765C378.433 54.6856 378.144 54.2396 378.05 53.7357C377.955 53.2318 378.064 52.711 378.352 52.2872C378.496 52.0747 378.68 51.8929 378.895 51.7524C379.109 51.6119 379.35 51.5154 379.602 51.4686C379.854 51.4218 380.112 51.4255 380.363 51.4796C380.614 51.5337 380.851 51.637 381.061 51.7837C381.483 52.0745 381.772 52.5206 381.866 53.0245C381.961 53.5284 381.852 54.0491 381.564 54.473C381.388 54.7339 381.15 54.9476 380.872 55.0953C380.595 55.243 380.285 55.3203 379.97 55.3203C379.571 55.3266 379.181 55.2062 378.855 54.9765ZM129.912 50.4943C129.635 50.0625 129.54 49.5383 129.648 49.0366C129.756 48.5348 130.058 48.0964 130.488 47.8172C130.919 47.5398 131.442 47.4447 131.943 47.5529C132.444 47.6611 132.882 47.9637 133.16 48.3944C133.437 48.8262 133.532 49.3504 133.424 49.8521C133.316 50.3539 133.014 50.7923 132.584 51.0714C132.273 51.2712 131.912 51.3777 131.542 51.3784C131.218 51.3805 130.899 51.3005 130.614 51.146C130.329 50.9914 130.087 50.7672 129.912 50.4943ZM365.909 46.6875C365.468 46.4264 365.147 46.0006 365.019 45.5034C364.89 45.0062 364.963 44.4781 365.223 44.035C365.352 43.8158 365.522 43.6242 365.726 43.4715C365.929 43.3187 366.16 43.2077 366.406 43.1449C366.652 43.0822 366.909 43.0688 367.16 43.1056C367.411 43.1425 367.653 43.2288 367.871 43.3596C368.089 43.4877 368.28 43.6576 368.432 43.8597C368.585 44.0617 368.696 44.292 368.76 44.5372C368.824 44.7824 368.839 45.0378 368.804 45.2887C368.769 45.5397 368.685 45.7813 368.557 45.9998C368.386 46.291 368.143 46.5325 367.85 46.7005C367.558 46.8685 367.227 46.9571 366.89 46.9576C366.545 46.9579 366.206 46.8646 365.909 46.6875ZM143.139 42.4509C143.016 42.2286 142.938 41.984 142.909 41.7313C142.881 41.4786 142.902 41.2227 142.973 40.9785C143.044 40.7342 143.162 40.5064 143.321 40.3081C143.48 40.1097 143.676 39.9449 143.899 39.823C144.121 39.6995 144.365 39.6213 144.618 39.5928C144.87 39.5642 145.125 39.586 145.369 39.6567C145.613 39.7275 145.84 39.8459 146.038 40.0051C146.236 40.1643 146.401 40.3612 146.523 40.5843C146.768 41.0341 146.826 41.5629 146.684 42.0553C146.541 42.5477 146.21 42.9637 145.762 43.2122C145.476 43.3666 145.156 43.4469 144.831 43.4456C144.485 43.4483 144.146 43.3572 143.848 43.1821C143.55 43.0069 143.305 42.7543 143.139 42.4509ZM352.424 39.3072C352.198 39.1938 351.996 39.0367 351.83 38.845C351.665 38.6533 351.538 38.4307 351.459 38.19C351.379 37.9493 351.347 37.6953 351.366 37.4424C351.384 37.1894 351.452 36.9427 351.566 36.7162C351.678 36.4883 351.834 36.2849 352.025 36.1176C352.216 35.9504 352.438 35.8226 352.679 35.7415C352.919 35.6605 353.173 35.6279 353.426 35.6455C353.679 35.6631 353.926 35.7307 354.153 35.8443C354.611 36.0758 354.959 36.48 355.12 36.9681C355.28 37.4562 355.241 37.9883 355.011 38.4476C354.851 38.7694 354.604 39.04 354.299 39.2288C353.993 39.4176 353.641 39.5171 353.282 39.516C352.984 39.5183 352.689 39.4465 352.424 39.3072ZM156.881 35.3285C156.772 35.0974 156.71 34.8469 156.699 34.5916C156.687 34.3363 156.727 34.0812 156.815 33.8412C156.902 33.6013 157.037 33.3812 157.211 33.1938C157.384 33.0064 157.593 32.8555 157.825 32.7497C158.29 32.5365 158.821 32.5162 159.301 32.6933C159.781 32.8705 160.172 33.2307 160.387 33.6953C160.6 34.1612 160.621 34.6926 160.444 35.1735C160.267 35.6543 159.907 36.0456 159.444 36.2618C159.191 36.3821 158.914 36.445 158.634 36.446C158.266 36.4458 157.906 36.3406 157.596 36.1427C157.285 35.9448 157.037 35.6623 156.881 35.3285ZM338.461 32.8725C338.227 32.7757 338.013 32.6333 337.833 32.4535C337.654 32.2738 337.511 32.0601 337.415 31.825C337.318 31.5898 337.268 31.3378 337.269 31.0834C337.27 30.8291 337.321 30.5774 337.419 30.3428C337.617 29.8699 337.994 29.4946 338.467 29.299C338.94 29.1034 339.471 29.1034 339.945 29.2991C340.418 29.4997 340.793 29.8793 340.988 30.3553C341.183 30.8313 341.182 31.3653 340.987 31.841C340.845 32.2013 340.598 32.5107 340.28 32.7295C339.961 32.9484 339.584 33.0666 339.197 33.069C338.942 33.0571 338.692 32.9944 338.461 32.8848V32.8725ZM171.077 29.1885C170.906 28.7143 170.926 28.1916 171.135 27.7325C171.343 27.2733 171.723 26.9143 172.193 26.7325C172.666 26.5637 173.187 26.5859 173.644 26.7944C174.102 27.003 174.461 27.3815 174.645 27.85C174.816 28.3242 174.796 28.8469 174.587 29.3061C174.379 29.7652 173.999 30.1242 173.529 30.306C173.31 30.3909 173.078 30.4366 172.843 30.4411C172.457 30.4319 172.084 30.3078 171.769 30.0847C171.455 29.8615 171.214 29.5495 171.077 29.1885ZM324.069 27.4571C323.826 27.3794 323.6 27.2537 323.406 27.0873C323.212 26.9209 323.053 26.7173 322.939 26.4883C322.824 26.2594 322.757 26.0098 322.741 25.7543C322.724 25.4989 322.759 25.2428 322.843 25.0011C322.922 24.7581 323.049 24.5333 323.215 24.3397C323.382 24.1461 323.585 23.9875 323.813 23.8733C324.041 23.759 324.29 23.6913 324.544 23.6741C324.798 23.6569 325.054 23.6905 325.295 23.7731C325.538 23.8521 325.762 23.9787 325.955 24.1454C326.149 24.3121 326.307 24.5156 326.421 24.7442C326.535 24.9727 326.603 25.2216 326.62 25.4766C326.637 25.7315 326.604 25.9873 326.521 26.2291C326.392 26.6175 326.143 26.955 325.811 27.1932C325.478 27.4315 325.079 27.5582 324.67 27.5553C324.466 27.5503 324.264 27.5173 324.069 27.4571ZM185.69 24.0432C185.609 23.7975 185.578 23.5378 185.599 23.2798C185.62 23.0218 185.693 22.7707 185.813 22.5415C185.933 22.3123 186.098 22.1097 186.298 21.9458C186.498 21.7818 186.729 21.6599 186.977 21.5872C187.218 21.503 187.474 21.468 187.729 21.4844C187.984 21.5008 188.233 21.5683 188.462 21.6827C188.69 21.7972 188.894 21.9564 189.06 22.1509C189.226 22.3454 189.351 22.5713 189.429 22.8152C189.512 23.0609 189.544 23.3209 189.524 23.5795C189.504 23.8381 189.431 24.0898 189.311 24.3194C189.19 24.5491 189.025 24.7519 188.824 24.9155C188.623 25.0791 188.391 25.2001 188.142 25.2712C187.964 25.3296 187.777 25.3587 187.59 25.3572C187.175 25.3715 186.765 25.2514 186.423 25.0148C186.081 24.7782 185.824 24.4375 185.69 24.0432ZM309.371 23.0363C309.125 22.9735 308.894 22.8624 308.692 22.7094C308.489 22.5565 308.319 22.3647 308.192 22.1453C308.064 21.9259 307.981 21.6832 307.948 21.4314C307.914 21.1796 307.931 20.9237 307.998 20.6785C308.055 20.4277 308.162 20.1909 308.312 19.9822C308.463 19.7734 308.653 19.5969 308.872 19.463C309.092 19.3291 309.335 19.2406 309.59 19.2026C309.844 19.1646 310.103 19.1779 310.352 19.2418C310.607 19.305 310.847 19.4201 311.057 19.5801C311.266 19.74 311.441 19.9413 311.57 20.1715C311.698 20.4018 311.779 20.656 311.805 20.9185C311.832 21.1811 311.804 21.4463 311.725 21.6977C311.618 22.1121 311.378 22.4794 311.04 22.7417C310.703 23.0041 310.288 23.1466 309.861 23.1468C309.694 23.1285 309.53 23.0914 309.371 23.0363ZM200.621 19.9294C200.564 19.681 200.555 19.4235 200.598 19.172C200.64 18.9204 200.731 18.6797 200.867 18.4638C201.003 18.2479 201.18 18.0612 201.388 17.9143C201.596 17.7675 201.832 17.6636 202.08 17.6085C202.581 17.4981 203.104 17.5896 203.538 17.8631C203.972 18.1366 204.28 18.5701 204.397 19.0698C204.453 19.3174 204.46 19.5736 204.417 19.8238C204.374 20.074 204.282 20.3132 204.147 20.5277C204.011 20.7422 203.834 20.9278 203.627 21.0738C203.42 21.2198 203.186 21.3233 202.938 21.3785C202.796 21.3973 202.652 21.3973 202.509 21.3785C202.079 21.3816 201.659 21.2408 201.317 20.9784C200.975 20.716 200.73 20.3469 200.621 19.9294ZM294.39 19.6593C293.888 19.5582 293.446 19.2633 293.159 18.8381C292.872 18.413 292.764 17.8919 292.858 17.3875C292.956 16.8854 293.248 16.4425 293.67 16.155C294.093 15.8675 294.612 15.7588 295.114 15.8525C295.617 15.9479 296.062 16.2392 296.352 16.6627C296.641 17.0862 296.751 17.6073 296.658 18.112C296.573 18.5542 296.337 18.9529 295.99 19.2397C295.643 19.5264 295.208 19.6835 294.758 19.6838L294.39 19.6593ZM215.798 16.8594C215.758 16.6086 215.768 16.3523 215.827 16.1052C215.886 15.8582 215.993 15.6252 216.142 15.4198C216.292 15.2144 216.48 15.0406 216.696 14.9083C216.913 14.776 217.153 14.6879 217.404 14.649C217.654 14.6088 217.91 14.6186 218.157 14.6778C218.404 14.737 218.636 14.8444 218.841 14.9939C219.046 15.1434 219.22 15.332 219.352 15.5489C219.484 15.7658 219.572 16.0067 219.611 16.2577C219.692 16.764 219.57 17.2819 219.272 17.6984C218.973 18.1149 218.522 18.3961 218.017 18.4804C217.915 18.4925 217.812 18.4925 217.71 18.4804C217.251 18.4833 216.806 18.3215 216.455 18.0243C216.104 17.727 215.871 17.3138 215.798 16.8594ZM279.226 17.3261C278.973 17.2957 278.729 17.2156 278.507 17.0905C278.285 16.9653 278.09 16.7976 277.933 16.5969C277.776 16.3961 277.659 16.1663 277.591 15.9206C277.523 15.6749 277.503 15.418 277.534 15.1648C277.565 14.9131 277.644 14.6699 277.769 14.4491C277.893 14.2283 278.059 14.0342 278.259 13.8779C278.458 13.7217 278.686 13.6063 278.93 13.5385C279.174 13.4706 279.428 13.4516 279.68 13.4824C280.188 13.544 280.651 13.8046 280.968 14.2073C281.285 14.61 281.43 15.122 281.371 15.6314C281.315 16.1004 281.089 16.5325 280.737 16.8468C280.385 17.161 279.93 17.3358 279.459 17.3384H279.226V17.3261ZM231.146 14.8701C231.124 14.6161 231.153 14.3602 231.23 14.1172C231.307 13.8742 231.431 13.6487 231.594 13.4537C231.758 13.2586 231.959 13.0979 232.185 12.9806C232.411 12.8634 232.658 12.7919 232.912 12.7702C233.164 12.7466 233.418 12.7735 233.66 12.8493C233.902 12.9251 234.126 13.0482 234.32 13.2116C234.514 13.375 234.674 13.5754 234.79 13.801C234.906 14.0267 234.976 14.2732 234.996 14.5263C235.019 14.7796 234.992 15.0352 234.917 15.2781C234.841 15.5211 234.719 15.7467 234.556 15.9419C234.393 16.1371 234.193 16.2981 233.967 16.4155C233.742 16.533 233.496 16.6045 233.243 16.6261H233.071C232.588 16.625 232.122 16.4429 231.766 16.1158C231.41 15.7886 231.189 15.3399 231.146 14.8578V14.8701ZM263.927 16.0981C263.415 16.0726 262.934 15.8451 262.59 15.4654C262.245 15.0856 262.065 14.5846 262.088 14.0719C262.113 13.5593 262.34 13.0777 262.72 12.7325C263.099 12.3872 263.599 12.2065 264.111 12.2299C264.621 12.2585 265.1 12.4869 265.444 12.866C265.788 13.245 265.97 13.7442 265.95 14.2561C265.927 14.7524 265.715 15.2209 265.356 15.5641C264.998 15.9073 264.521 16.0986 264.025 16.0981H263.927ZM246.605 13.9614C246.6 13.7072 246.645 13.4545 246.738 13.2179C246.831 12.9813 246.97 12.7655 247.147 12.5829C247.323 12.4003 247.534 12.2545 247.767 12.1538C248.001 12.0532 248.251 11.9998 248.505 11.9966C248.759 11.9917 249.011 12.0371 249.247 12.1303C249.483 12.2235 249.699 12.3625 249.881 12.5394C250.063 12.7164 250.209 12.9276 250.309 13.1611C250.41 13.3946 250.463 13.6457 250.466 13.9C250.473 14.1536 250.429 14.406 250.337 14.6425C250.246 14.879 250.108 15.0949 249.933 15.2777C249.757 15.4605 249.547 15.6065 249.314 15.7073C249.082 15.8081 248.832 15.8616 248.579 15.8648C248.319 15.8697 248.061 15.8224 247.82 15.7256C247.579 15.6287 247.36 15.4844 247.176 15.3011C246.992 15.1178 246.847 14.8993 246.749 14.6587C246.65 14.418 246.602 14.16 246.605 13.9V13.9614Z" fill="#DEDBF4"/>
<path d="M164.955 117.035C154.302 142.399 174.723 162.192 186.265 168.919L171.322 184.772C164.812 173.612 145.329 153.856 119.475 164.117L164.955 117.035Z" fill="white"/>
<circle cx="85.5838" cy="85.5838" r="85.5838" fill="white"/>
<circle cx="85.5842" cy="85.5838" r="76.919" stroke="url(#paint0_linear_33298_285090)" stroke-width="3.01988"/>
<rect x="30.7471" y="70.2139" width="28.948" height="28.948" rx="2.12999" fill="url(#paint1_linear_33298_285090)"/>
<rect x="44.5332" y="74.3494" width="11.0278" height="11.0278" fill="white"/>
<path fill-rule="evenodd" clip-rule="evenodd" d="M52.803 77.1062H34.8828V95.0264H52.803V88.134H41.7759V77.1062L52.803 77.1062Z" fill="white"/>
<path d="M65.2422 97.7434V71.2477H75.0936C76.8956 71.2477 78.4841 71.5796 79.8593 72.2435C81.2582 72.8836 82.3488 73.832 83.1312 75.0886C83.9137 76.3216 84.3049 77.8271 84.3049 79.6054C84.3049 81.431 83.8662 82.984 82.989 84.2643C82.1354 85.5447 80.9736 86.4931 79.5036 87.1095L85.5852 97.7434H80.1082L75.2259 89.0338C75.2259 89.0338 74.9106 88.5235 74.314 88.2154C73.8253 87.9631 73.2513 87.9631 73.2513 87.9631H70.079V97.7434H65.2422ZM70.079 83.6953H71.9036H75.1647C76.042 83.6953 76.8007 83.5293 77.4409 83.1974C78.0811 82.8418 78.579 82.3557 78.9346 81.7392C79.2903 81.1228 79.4681 80.4115 79.4681 79.6054C79.4681 78.7755 79.2903 78.0642 78.9346 77.4715C78.579 76.855 78.0811 76.3808 77.4409 76.0489C76.8007 75.6932 76.042 75.5154 75.1647 75.5154H70.079V82.3099V83.6953Z" fill="#34306A"/>
<path d="M93.9377 71.2477H86.2734V74.7152H93.9377V71.2477Z" fill="#34306A"/>
<path d="M100.577 85.9957V82.6854H90.8728V82.6417C90.8734 82.1541 90.8728 74.1288 90.8728 74.1288C90.8728 74.1288 90.131 73.2687 89.7859 72.9239C89.4408 72.579 89.031 72.3056 88.5799 72.1193C88.1289 71.9329 87.6455 71.8373 87.1574 71.8379H86.2832V97.7435H90.8947V85.9957H100.577Z" fill="#34306A"/>
<path d="M88.2463 93.4412H97.6515C98.8087 93.4412 99.9185 93.8914 100.737 94.6928C101.555 95.4942 102.015 96.5811 102.015 97.7144H88.2299L88.2463 93.4412Z" fill="#34306A"/>
<path d="M87.9709 75.521H97.3761C98.5333 75.521 99.6431 75.0708 100.461 74.2694C101.28 73.468 101.739 72.3811 101.739 71.2477H87.9545L87.9709 75.521Z" fill="#34306A"/>
<path d="M109.268 97.7434V75.5154H102.404V71.2477H120.571V75.5154H113.814C113.814 75.5154 113.814 90.7242 113.814 94.2338C113.814 97.7434 109.268 97.7434 109.268 97.7434Z" fill="#000929"/>
<path d="M121.407 87.5041L115.662 97.7144H120.855L126.513 87.1191L132.928 97.7144H138.338L131 85.5838H124.558C123.927 85.5843 123.306 85.761 122.755 86.0971C122.203 86.4332 121.739 86.9175 121.407 87.5041Z" fill="#FF8800"/>
<path d="M132.103 81.4721L137.924 71.2477H132.724L127.133 81.629L120.855 71.2477H115.455L122.785 83.3782H128.95C129.581 83.3809 130.202 83.2071 130.753 82.8735C131.305 82.5399 131.77 82.0574 132.103 81.4721Z" fill="#FF8800"/>
<circle cx="176.561" cy="435.046" r="80.6794" fill="white"/>
<g clip-path="url(#clip0_33298_285090)">
<path d="M136.815 410.042C136.815 410.042 130.642 413.394 133.306 419.291C135.97 425.188 142.825 423.897 142.825 423.897L145.358 416.098C145.358 416.098 137.854 416.616 136.815 410.042Z" fill="white"/>
<path d="M148.468 454.84C160.276 454.84 169.848 445.345 169.848 433.632C169.848 421.919 160.276 412.424 148.468 412.424C136.66 412.424 127.088 421.919 127.088 433.632C127.088 445.345 136.66 454.84 148.468 454.84Z" fill="white"/>
<path d="M158.06 441.522C153.113 442.741 150.204 445.093 150.175 445.113L149.542 445.633L148.803 445.272C142.673 442.262 136.627 441.877 130.832 444.13C129.888 444.498 128.971 444.929 128.087 445.42C129.399 448.411 131.309 451.107 133.702 453.345C136.095 455.583 138.921 457.316 142.009 458.439C136.864 450.291 130.318 446.521 130.318 446.521C137.922 448.4 143.689 455.929 146.072 459.526C146.549 459.609 147.03 459.681 147.517 459.738C148.034 459.798 148.549 459.841 149.063 459.868C144.212 450.724 136.915 446.524 136.915 446.524C145.101 448.544 150.982 457.672 152.276 459.829C152.936 459.78 153.59 459.702 154.237 459.596C149.839 451.179 143.121 447.315 143.121 447.315C150.159 449.052 155.32 456.575 156.842 459.03C164.842 456.822 171.33 450.615 173.675 442.47C168.332 440.602 163.098 440.282 158.06 441.522ZM150.881 449.111C152.917 446.93 155.452 444.921 158.416 443.948C158.416 443.948 155.341 446.036 152.203 450.217C151.773 449.845 151.332 449.476 150.881 449.111ZM155.336 453.167C154.802 452.624 154.241 452.076 153.655 451.529C156.161 448.114 159.872 444.232 164.546 442.705C164.547 442.705 159.418 446.188 155.336 453.167ZM159.161 457.421C158.558 456.692 157.879 455.898 157.131 455.069C159.582 451.016 164.447 444.4 171.129 442.218C171.129 442.218 163.676 447.278 159.161 457.421Z" fill="#88C24A"/>
<path d="M146.409 425.889C146.38 425.809 146.325 425.74 146.253 425.693C146.181 425.646 146.096 425.622 146.01 425.626C143.043 425.746 140.414 424.709 138.693 423.789C136.88 422.829 135.43 421.31 134.565 419.46C134.346 418.991 134.172 418.502 134.043 418.001C134.043 418.001 132.606 413.975 136.901 410.001C136.901 410.001 129.784 411.96 131.413 420.256C133.557 426.161 146.409 425.889 146.409 425.889Z" fill="#F59744"/>
<path d="M148.405 440.168C148.401 440.117 148.395 440.065 148.39 440.013C148.384 439.96 148.379 439.906 148.371 439.852C148.363 439.798 148.356 439.742 148.347 439.686C148.339 439.63 148.328 439.573 148.317 439.515C148.313 439.487 148.307 439.458 148.302 439.429C148.297 439.399 148.289 439.37 148.283 439.341C148.27 439.282 148.257 439.223 148.243 439.162C148.23 439.102 148.212 439.042 148.196 438.982C148.188 438.951 148.181 438.92 148.172 438.89C148.163 438.859 148.153 438.829 148.143 438.799C148.124 438.737 148.105 438.675 148.085 438.613C148.065 438.551 148.04 438.49 148.018 438.427L147.984 438.334L147.945 438.242C147.919 438.18 147.893 438.118 147.869 438.055C147.755 437.805 147.626 437.562 147.481 437.328C147.444 437.269 147.405 437.209 147.37 437.152L147.25 436.981L147.19 436.896C147.17 436.867 147.147 436.841 147.126 436.814L146.998 436.651C146.957 436.596 146.91 436.545 146.865 436.494L146.728 436.344C146.696 436.307 146.662 436.273 146.627 436.239C145.628 436.831 144.515 437.246 143.374 437.108C142.393 436.989 141.509 436.47 140.745 435.852C139.355 434.73 138.198 433.21 136.497 432.654C137.86 432.304 139.235 431.952 140.645 431.88C142.134 431.805 143.636 432.074 144.903 432.881C145.464 433.241 145.963 433.69 146.377 434.21C146.652 434.584 146.908 434.972 147.143 435.373C145.959 434.577 144.104 433.679 141.712 433.645C141.712 433.645 144.916 434.284 146.926 436.039L146.981 436.087L147.141 436.232C147.195 436.281 147.25 436.329 147.3 436.382L147.455 436.539C147.481 436.566 147.508 436.591 147.531 436.619L147.606 436.703L147.757 436.871C147.806 436.928 147.85 436.989 147.897 437.047C148.081 437.283 148.25 437.53 148.402 437.788L148.407 437.796C148.376 436.489 148.297 435.097 148.154 433.709C148.016 432.344 147.804 430.988 147.519 429.647C147.368 428.944 147.196 428.272 147.01 427.647L146.776 426.905C146.695 426.659 146.611 426.422 146.526 426.196L146.412 425.892C146.412 425.892 133.559 426.164 131.417 420.258C131.443 420.393 131.471 420.529 131.503 420.667C128.98 423.755 127.266 427.414 126.514 431.318C125.762 435.222 125.995 439.251 127.192 443.044C128.071 442.573 128.978 442.156 129.907 441.794C132.705 440.696 135.691 440.152 138.699 440.19C141.899 440.234 145.137 440.946 148.347 442.306C148.359 442.049 148.372 441.776 148.381 441.488C148.381 441.488 148.381 441.481 148.381 441.467V441.457V441.394C148.394 441.028 148.404 440.641 148.411 440.235L148.405 440.168Z" fill="#F8AD4B"/>
<path d="M168.277 419.609C164.694 415.712 159.92 413.091 154.689 412.147C149.458 411.203 144.059 411.989 139.322 414.385C139.322 414.385 154.184 409.225 168.277 419.609Z" fill="#F8AD4B"/>
<path d="M168.201 419.609C154.109 409.225 139.247 414.385 139.247 414.385C140.12 414.956 141.265 415.56 142.762 416.181C149.863 419.137 148.727 423.919 148.343 425.045C147.306 422.837 144.824 419.188 139.537 418.386C139.537 418.386 143.06 419.273 145.635 423.056C145.635 423.056 145.685 423.131 145.78 423.265C145.827 423.333 145.885 423.415 145.95 423.519C146.015 423.623 146.093 423.735 146.171 423.869L146.298 424.079C146.342 424.154 146.385 424.228 146.431 424.312C146.526 424.474 146.619 424.653 146.721 424.844C146.918 425.229 147.128 425.671 147.335 426.162C147.363 426.229 147.392 426.296 147.419 426.364C147.846 427.423 148.2 428.509 148.481 429.614C148.678 430.367 148.853 431.158 149.005 431.965L149.087 431.785L149.132 431.686L149.183 431.588C149.217 431.522 149.25 431.456 149.285 431.39C149.429 431.128 149.59 430.875 149.767 430.634C149.812 430.574 149.854 430.512 149.902 430.455L150.044 430.282L150.115 430.196C150.139 430.167 150.165 430.141 150.191 430.114L150.341 429.951C150.39 429.897 150.443 429.847 150.496 429.796L150.652 429.647C150.702 429.596 150.759 429.552 150.812 429.506L150.972 429.37C151.023 429.323 151.081 429.285 151.134 429.243L151.295 429.121C151.322 429.102 151.348 429.081 151.375 429.063L151.456 429.009L151.616 428.902C151.67 428.868 151.719 428.827 151.773 428.801L151.929 428.709L152.08 428.621L152.155 428.578L152.231 428.54C153.152 428.073 154.083 427.606 155.046 427.232C155.942 426.886 156.859 426.597 157.792 426.366C158.141 426.278 158.579 426.109 158.944 426.114C155.364 426.062 152.545 427.327 150.737 428.469C151.106 427.88 151.506 427.309 151.934 426.76C152.579 425.999 153.345 425.348 154.202 424.833C156.136 423.677 158.397 423.336 160.624 423.515C162.729 423.684 164.773 424.269 166.801 424.852C164.228 425.612 162.426 427.84 160.298 429.462C159.125 430.354 157.775 431.094 156.304 431.23C154.482 431.399 152.725 430.631 151.185 429.606C151.139 429.653 151.094 429.702 151.048 429.751C151.002 429.799 150.953 429.847 150.911 429.9C150.869 429.953 150.823 430.004 150.78 430.057C150.736 430.111 150.691 430.161 150.651 430.218L150.527 430.384C150.507 430.412 150.485 430.439 150.466 430.468L150.409 430.555L150.295 430.729C150.257 430.788 150.224 430.849 150.189 430.909C150.051 431.147 149.928 431.394 149.822 431.647L149.747 431.836C149.735 431.867 149.723 431.899 149.712 431.929L149.68 432.024C149.66 432.087 149.638 432.149 149.618 432.212L149.566 432.399C149.557 432.429 149.549 432.46 149.54 432.491C149.532 432.521 149.526 432.553 149.519 432.583C149.504 432.645 149.491 432.705 149.476 432.765C149.462 432.825 149.454 432.886 149.442 432.945C149.437 432.974 149.432 433.004 149.426 433.033C149.42 433.062 149.417 433.091 149.413 433.121L149.388 433.291C149.382 433.348 149.376 433.403 149.37 433.458C149.364 433.513 149.359 433.566 149.356 433.62C149.352 433.673 149.348 433.724 149.345 433.775C149.345 433.864 149.338 433.949 149.338 434.031C149.518 435.337 149.644 436.644 149.723 437.878C149.81 439.21 149.845 440.457 149.852 441.526C149.852 441.768 149.852 441.999 149.852 442.221C151.29 441.316 153.809 439.981 157.231 439.12C160.464 438.314 163.815 438.086 167.129 438.446C169.526 438.707 171.887 439.234 174.165 440.017C174.245 439.568 174.316 439.108 174.369 438.645C174.78 435.219 174.442 431.745 173.377 428.46C172.313 425.175 170.548 422.156 168.201 419.609Z" fill="#F8AD4B"/>
<path fill-rule="evenodd" clip-rule="evenodd" d="M156.614 459.167C156.026 455.885 159.952 455.189 162.392 452.621C172.407 442.079 164.102 439.827 154.708 440.168C149.441 440.356 156.341 438.038 160.565 434.844C158.676 434.503 153.449 434.975 151.098 434.395C151.825 435.293 151.126 435.541 146.95 435.541C143.167 435.541 126.424 436.297 134.815 443.934C139.309 448.024 136.762 451.003 132.915 452.749C135.934 455.812 139.721 458.021 143.887 459.149C148.053 460.277 152.447 460.282 156.616 459.165" fill="#B4CFEC"/>
<path fill-rule="evenodd" clip-rule="evenodd" d="M152.601 459.889C152.738 455.692 155.883 453.013 157.026 451.552C163.238 443.608 156.177 442.067 150.352 442.32C147.641 442.438 146.301 440.323 148.945 438.368C149.224 438.163 151.264 437.188 153.043 436.464C154.077 436.043 154.819 435.641 153.895 435.661C153.342 435.631 153.419 435.487 153.978 435.425C155.317 435.275 158.899 435.18 159.461 435.251C159.269 435.143 161.271 434.752 160.565 434.844C159.409 435.06 158.435 434.948 156.906 434.918C156.514 434.912 153.659 434.803 152.52 434.966C152.102 435.025 151.98 435.275 152.252 435.384C152.638 435.538 152.473 435.608 152.159 435.819C150.143 437.189 145.994 437.585 142.806 438.392C138.715 439.426 135.71 441.209 139.25 445.125C141.507 447.621 140.898 451.515 136.062 455.441C140.195 458.411 145.17 460.007 150.273 459.999C151.06 459.999 151.838 459.96 152.605 459.888" fill="#69ACDE"/>
<path fill-rule="evenodd" clip-rule="evenodd" d="M134.814 443.936C126.423 436.298 145.029 436.056 148.811 436.012C154.361 435.947 150.517 433.562 148.16 432.477C142.026 429.653 134.351 426.866 127.878 426.628C126.039 430.992 125.537 435.795 126.432 440.441C127.328 445.086 129.582 449.367 132.913 452.75C136.76 451.005 139.308 448.025 134.814 443.936Z" fill="#197C75"/>
<path fill-rule="evenodd" clip-rule="evenodd" d="M174.193 431.866C170.109 431.373 163.038 432.315 156.136 435.24C154.621 435.883 152.806 436.918 151.807 437.425C147.644 439.533 148.47 441.379 152.816 441.223C162.21 440.887 170.164 441.609 160.145 452.152C157.705 454.72 155.954 455.87 156.613 459.167C166.94 456.399 174.539 447.047 174.539 435.926C174.539 434.565 174.423 433.207 174.193 431.866Z" fill="#06B2A6"/>
<path d="M185.459 425.97V430.118H193.849V434.239H185.459V440.703H180.085V421.849H194.992V425.97H185.459Z" fill="#197C75"/>
<path d="M211.444 436.475V440.703H196.645V437.364L203.76 430.765C204.448 430.117 204.909 429.565 205.144 429.109C205.372 428.681 205.493 428.205 205.497 427.722C205.497 427.112 205.289 426.636 204.873 426.294C204.457 425.952 203.85 425.781 203.054 425.782C202.377 425.775 201.709 425.938 201.112 426.254C200.517 426.574 200.017 427.043 199.659 427.614L195.668 425.405C196.41 424.185 197.451 423.224 198.791 422.523C200.131 421.822 201.715 421.473 203.542 421.476C204.99 421.476 206.271 421.709 207.385 422.176C208.498 422.643 209.367 423.312 209.991 424.183C210.616 425.055 210.928 426.065 210.928 427.213C210.933 428.216 210.705 429.206 210.263 430.108C209.819 431.016 208.964 432.044 207.698 433.192L204.114 436.478L211.444 436.475Z" fill="#197C75"/>
<path d="M217.988 426.078H212.15V421.849H229.175V426.078H223.368V440.703H217.991L217.988 426.078Z" fill="#197C75"/>
<path d="M180.891 445.832V446.98H182.724V447.573H180.889V449.016H180.183V445.245H182.958V445.832H180.891Z" fill="#197C75"/>
<path d="M186.219 448.143H184.318L183.941 449.016H183.213L184.924 445.245H185.619L187.335 449.016H186.596L186.219 448.143ZM185.985 447.594L185.268 445.948L184.556 447.594H185.985Z" fill="#197C75"/>
<path d="M190.58 449.016L189.803 447.914C189.755 447.918 189.705 447.92 189.656 447.92H188.799V449.018H188.093V445.247H189.656C189.951 445.241 190.245 445.296 190.517 445.409C190.747 445.505 190.943 445.666 191.08 445.873C191.214 446.087 191.281 446.336 191.275 446.589C191.282 446.848 191.209 447.104 191.066 447.321C190.918 447.533 190.707 447.693 190.463 447.779L191.337 449.018L190.58 449.016ZM190.325 446.032C190.165 445.903 189.932 445.838 189.624 445.838H188.799V447.341H189.624C189.932 447.341 190.165 447.276 190.325 447.144C190.405 447.075 190.468 446.99 190.51 446.893C190.551 446.796 190.57 446.691 190.564 446.586C190.57 446.482 190.552 446.377 190.51 446.281C190.469 446.185 190.405 446.1 190.325 446.032Z" fill="#197C75"/>
<path d="M195.825 449.016L195.82 446.517L194.571 448.587H194.256L193.007 446.551V449.02H192.334V445.249H192.915L194.423 447.749L195.905 445.249H196.487L196.492 449.02L195.825 449.016Z" fill="#197C75"/>
<path d="M200.333 445.838H199.073V445.245H202.298V445.838H201.039V449.016H200.333V445.838Z" fill="#197C75"/>
<path d="M203.776 448.82C203.472 448.659 203.218 448.419 203.043 448.125C202.868 447.822 202.776 447.479 202.776 447.131C202.776 446.782 202.868 446.439 203.043 446.137C203.218 445.842 203.471 445.602 203.776 445.442C204.1 445.277 204.459 445.191 204.824 445.191C205.188 445.191 205.547 445.277 205.872 445.442C206.176 445.601 206.429 445.841 206.605 446.134C206.779 446.437 206.871 446.781 206.871 447.13C206.871 447.48 206.779 447.823 206.605 448.127C206.429 448.42 206.176 448.66 205.872 448.82C205.547 448.984 205.188 449.07 204.824 449.07C204.459 449.07 204.1 448.984 203.776 448.82ZM205.511 448.286C205.711 448.175 205.876 448.011 205.988 447.812C206.102 447.603 206.162 447.369 206.162 447.131C206.162 446.893 206.102 446.659 205.988 446.45C205.877 446.25 205.711 446.086 205.511 445.975C205.3 445.864 205.065 445.805 204.826 445.805C204.587 445.805 204.352 445.864 204.142 445.975C203.941 446.086 203.775 446.25 203.664 446.45C203.55 446.659 203.49 446.893 203.49 447.131C203.49 447.369 203.55 447.603 203.664 447.812C203.776 448.011 203.941 448.175 204.142 448.286C204.352 448.398 204.587 448.456 204.826 448.456C205.065 448.456 205.3 448.398 205.511 448.286Z" fill="#197C75"/>
<path d="M210.433 445.838H209.173V445.245H212.399V445.838H211.139V449.016H210.433V445.838Z" fill="#197C75"/>
<path d="M215.478 448.143H213.578L213.201 449.016H212.473L214.183 445.245H214.879L216.595 449.016H215.856L215.478 448.143ZM215.245 447.594L214.528 445.948L213.816 447.594H215.245Z" fill="#197C75"/>
<path d="M220.545 447.397C220.673 447.571 220.738 447.782 220.73 447.996C220.737 448.144 220.706 448.29 220.64 448.423C220.574 448.555 220.475 448.669 220.353 448.753C220.102 448.931 219.732 449.02 219.245 449.02H217.353V445.249H219.133C219.582 445.249 219.928 445.336 220.17 445.511C220.287 445.59 220.382 445.698 220.445 445.824C220.509 445.949 220.54 446.089 220.535 446.23C220.538 446.403 220.493 446.575 220.404 446.725C220.319 446.867 220.195 446.983 220.046 447.059C220.244 447.118 220.418 447.236 220.545 447.397ZM218.056 445.795V446.834H219.055C219.302 446.834 219.491 446.791 219.623 446.702C219.687 446.661 219.739 446.604 219.774 446.536C219.808 446.468 219.825 446.393 219.821 446.317C219.825 446.24 219.809 446.164 219.774 446.096C219.74 446.027 219.687 445.969 219.623 445.927C219.491 445.839 219.302 445.795 219.055 445.795H218.056ZM220.017 447.923C220.017 447.56 219.744 447.379 219.197 447.379H218.057V448.467H219.197C219.745 448.467 220.018 448.285 220.019 447.923H220.017Z" fill="#197C75"/>
<path d="M221.757 445.245H222.463V448.423H224.45V449.016H221.757V445.245Z" fill="#197C75"/>
<path d="M228.13 448.429V449.016H225.279V445.245H228.055V445.832H225.986V446.813H227.821V447.389H225.986V448.429H228.13Z" fill="#197C75"/>
</g>
<path d="M398.869 245.6C384.864 221.922 356.797 226.507 344.514 231.76L340.702 210.309C353.542 211.741 381.02 207.886 388.204 181.014L398.869 245.6Z" fill="white"/>
<circle cx="452.733" cy="203.351" r="68.2672" fill="white"/>
<circle cx="452.733" cy="203.351" r="62.9144" stroke="url(#paint2_linear_33298_285090)" stroke-width="2.43073"/>
<circle cx="253.103" cy="238.519" r="103.435" fill="white"/>
<path d="M290.887 211.076C290.887 214.431 289.824 217.672 287.894 220.196C285.965 222.721 283.301 224.357 280.397 224.8C282.198 224.457 283.835 223.393 285.015 221.798C286.195 220.203 286.843 218.18 286.843 216.089C286.843 213.746 286.031 211.5 284.585 209.844C283.139 208.187 281.178 207.256 279.133 207.255H265.622V197.232H278.8C282.005 197.232 285.08 198.691 287.347 201.287C289.613 203.883 290.887 207.404 290.887 211.076ZM260.147 202.181L265.621 212.182V192.179L260.147 202.181Z" fill="#FF9900"/>
<path d="M247.281 239.558L241.884 229.786L241.813 198.462C241.816 197.562 242.13 196.7 242.686 196.065C243.243 195.43 243.997 195.073 244.782 195.074H253.579C254.195 195.074 254.8 195.257 255.336 195.606C255.871 195.956 256.317 196.458 256.632 197.065L265.133 213.494C265.45 214.109 265.619 214.81 265.621 215.524V246.304H262.028C261.531 246.304 261.053 246.077 260.701 245.674C260.349 245.271 260.152 244.724 260.152 244.154V216.404C260.152 216.077 260.072 215.758 259.921 215.481L252.049 201.118H248.497C247.824 201.118 247.278 201.663 247.278 202.336L247.281 239.558Z" fill="url(#paint3_linear_33298_285090)"/>
<path opacity="0.2" d="M241.884 229.786L244.581 234.687L244.578 199.897C244.578 199.897 244.578 199.241 245.135 198.642C245.588 198.154 245.973 198.143 246.608 198.143C248.815 198.143 252.747 198.223 253.613 197.996C255.628 197.469 252.903 195.074 252.903 195.074H244.782C243.997 195.073 243.243 195.43 242.686 196.065C242.13 196.7 241.816 197.562 241.813 198.462L241.884 229.786Z" fill="white"/>
<path d="M246.891 195.058L253.558 195.058C254.174 195.059 254.78 195.242 255.315 195.591C255.85 195.94 256.296 196.443 256.611 197.05L265.112 213.479C265.429 214.094 265.598 214.795 265.601 215.509V246.289H262.007C261.51 246.289 261.032 246.062 260.68 245.659C260.328 245.256 260.131 244.709 260.131 244.139V216.389C260.131 216.062 260.051 215.743 259.9 215.466C259.9 215.466 254.032 204.595 252.031 201.109C251.061 199.419 250.334 198.162 249.328 196.615C249.152 196.345 248.966 196.1 248.621 195.805C248.376 195.594 248.025 195.407 247.76 195.306C247.203 195.094 246.891 195.058 246.891 195.058Z" fill="#FF8C01"/>
<path d="M246.891 195.058L251.029 195.058C251.645 195.059 252.25 195.242 252.785 195.591C253.32 195.94 253.767 196.443 254.081 197.05L262.582 213.479C262.9 214.094 263.068 214.795 263.071 215.509V246.289H262.007C261.51 246.289 261.032 246.062 260.68 245.659C260.329 245.256 260.131 244.709 260.131 244.139V216.389C260.131 216.062 260.051 215.743 259.9 215.466C259.9 215.466 254.032 204.595 252.031 201.109C251.061 199.419 250.334 198.162 249.328 196.615C249.152 196.345 248.966 196.1 248.621 195.805C248.376 195.594 248.025 195.407 247.76 195.306C247.203 195.094 246.891 195.058 246.891 195.058Z" fill="#FFA31A"/>
<path fill-rule="evenodd" clip-rule="evenodd" d="M283.425 209.494C282.736 208.477 281.77 207.752 280.682 207.434C282.423 207.843 283.988 208.928 285.111 210.507C286.235 212.085 286.847 214.06 286.846 216.096C286.846 218.439 286.033 220.686 284.587 222.342C283.14 223.998 281.179 224.929 279.133 224.929H265.617V218.841H279.432C280.773 218.841 282.06 218.231 283.008 217.145C283.957 216.058 284.49 214.584 284.49 213.048C284.489 211.761 284.115 210.51 283.425 209.494ZM241.34 218.844H260.154V224.926H241.34V218.844Z" fill="url(#paint4_linear_33298_285090)"/>
<path d="M226.732 236.34C225.643 236.022 224.677 235.297 223.988 234.281C223.298 233.264 222.924 232.013 222.923 230.726C222.923 229.19 223.456 227.716 224.405 226.63C225.353 225.543 226.64 224.933 227.981 224.933L241.796 224.933L241.796 218.845L228.28 218.845C226.234 218.845 224.273 219.776 222.827 221.432C221.38 223.089 220.567 225.335 220.567 227.678C220.566 229.714 221.178 231.689 222.302 233.267C223.425 234.846 224.99 235.931 226.732 236.34Z" fill="url(#paint5_linear_33298_285090)"/>
<path opacity="0.2" d="M260.153 221.905H241.873V224.944H260.153V221.905Z" fill="white"/>
<path opacity="0.2" d="M283.558 209.246C282.644 208.332 281.753 207.753 280.664 207.434C282.406 207.843 283.97 208.929 285.094 210.507C286.217 212.086 286.83 214.06 286.828 216.096C286.828 218.439 286.015 220.686 284.569 222.342C283.123 223.999 281.161 224.929 279.116 224.929H265.6V221.889H279.414C283.101 221.753 285.539 219.022 285.539 214.882C285.539 211.231 284.32 210.16 283.558 209.246Z" fill="white"/>
<path d="M223.855 234.528C224.769 235.442 225.66 236.022 226.749 236.34C225.007 235.931 223.443 234.845 222.319 233.267C221.196 231.689 220.583 229.714 220.585 227.678C220.585 225.335 221.398 223.088 222.844 221.432C224.291 219.775 226.252 218.845 228.297 218.845L241.813 218.845L241.813 221.885L227.999 221.885C224.312 222.021 221.875 224.752 221.875 228.892C221.875 232.544 223.093 233.614 223.855 234.528Z" fill="url(#paint6_linear_33298_285090)"/>
<path d="M290.887 211.076C290.887 214.431 289.824 217.672 287.894 220.196C285.965 222.721 283.301 224.357 280.397 224.8C282.198 224.457 283.835 223.393 285.015 221.798C286.195 220.203 286.843 218.18 286.843 216.089C286.843 213.746 286.031 211.5 284.585 209.843C283.139 208.187 281.178 207.256 279.133 207.254H265.622V197.232H278.8C282.005 197.232 285.08 198.691 287.347 201.287C289.613 203.883 290.887 207.404 290.887 211.076ZM260.147 202.181L265.621 212.182V192.179L260.147 202.181Z" fill="#FFA31A"/>
<path d="M216.587 232.686C216.587 229.331 217.651 226.09 219.58 223.566C221.51 221.041 224.174 219.405 227.077 218.962C225.276 219.305 223.64 220.369 222.46 221.964C221.279 223.559 220.631 225.582 220.631 227.673C220.632 230.016 221.444 232.262 222.89 233.919C224.335 235.575 226.296 236.506 228.341 236.507L241.852 236.507L241.852 246.53L228.675 246.53C225.469 246.53 222.395 245.071 220.128 242.475C217.861 239.879 216.588 236.358 216.587 232.686ZM247.327 241.581L241.853 231.58L241.853 251.583L247.327 241.581Z" fill="#FFA31A"/>
<path d="M279.099 202.181L265.589 202.181L260.116 202.181L265.59 192.179L265.589 197.232L278.766 197.232C281.971 197.233 285.045 198.691 287.312 201.287C289.579 203.883 290.852 207.403 290.854 211.075C290.855 214.431 289.792 217.674 287.863 220.2C291.902 206.185 282.188 202.181 279.099 202.181Z" fill="#FF8C01"/>
<path d="M228.373 241.581L241.884 241.581L247.356 241.581L241.883 251.583L241.884 246.53L228.707 246.53C225.502 246.53 222.428 245.071 220.161 242.475C217.894 239.88 216.62 236.359 216.619 232.688C216.617 229.331 217.68 226.088 219.61 223.562C215.571 237.577 225.285 241.581 228.373 241.581Z" fill="#FF8C01"/>
<path opacity="0.2" d="M226.809 236.36C225.72 236.042 224.754 235.317 224.065 234.3C223.375 233.284 223.001 232.033 223.001 230.746C223.001 229.209 223.533 227.736 224.482 226.649C225.431 225.563 226.717 224.953 228.059 224.953L241.873 224.953L241.873 218.865L228.357 218.865C226.312 218.865 224.35 219.796 222.904 221.452C221.457 223.108 220.645 225.355 220.644 227.698C220.643 229.734 221.256 231.709 222.379 233.287C223.502 234.866 225.067 235.951 226.809 236.36Z" fill="white"/>
<path d="M223.93 234.548C224.844 235.462 225.735 236.042 226.824 236.36C225.082 235.951 223.518 234.866 222.394 233.287C221.271 231.709 220.658 229.734 220.66 227.698C220.66 225.355 221.473 223.108 222.919 221.452C224.365 219.796 226.327 218.865 228.372 218.865L243.954 218.865L243.954 221.905L228.074 221.905C224.387 222.041 221.949 224.772 221.949 228.912C221.949 232.564 223.168 233.634 223.93 234.548Z" fill="url(#paint7_linear_33298_285090)"/>
<path d="M198.807 278.353C198.807 278.531 198.839 278.652 198.904 278.717C198.985 278.765 199.138 278.813 199.364 278.862L200.236 279.056V279.54H196.555V279.056L197.451 278.862C197.693 278.813 197.846 278.757 197.911 278.692C197.992 278.628 198.032 278.507 198.032 278.329V263.797C198.032 263.62 197.992 263.499 197.911 263.434C197.846 263.369 197.693 263.313 197.451 263.264L196.555 263.071V262.586H202.755L207.744 273.364L212.201 262.586H218.595V263.071L217.699 263.264C217.456 263.313 217.295 263.369 217.214 263.434C217.15 263.499 217.117 263.62 217.117 263.797V278.329C217.117 278.507 217.15 278.628 217.214 278.692C217.295 278.757 217.456 278.813 217.699 278.862L218.595 279.056V279.54H210.747V279.056L211.619 278.862C211.845 278.813 211.991 278.765 212.055 278.717C212.136 278.652 212.176 278.531 212.176 278.353V264.645L206.025 279.54H205.298L198.807 265.275V278.353ZM223.404 273.34C223.42 275.132 223.703 276.496 224.252 277.433C224.817 278.369 225.867 278.838 227.401 278.838C228.159 278.838 228.829 278.725 229.411 278.499C230.008 278.273 230.622 277.95 231.251 277.53L231.566 277.99C230.065 279.217 228.079 279.831 225.608 279.831C223.38 279.831 221.62 279.298 220.328 278.232C219.053 277.15 218.415 275.576 218.415 273.509C218.415 271.556 219.069 270.062 220.377 269.029C221.685 267.995 223.517 267.479 225.875 267.479C227.215 267.479 228.345 267.689 229.265 268.108C230.186 268.528 230.864 269.093 231.3 269.804C231.752 270.498 231.978 271.273 231.978 272.129C231.978 272.565 231.938 272.968 231.857 273.34H223.404ZM225.729 268.06C224.841 268.06 224.236 268.431 223.913 269.174C223.59 269.917 223.42 271.095 223.404 272.71H227.473V270.894C227.473 269.909 227.352 269.19 227.11 268.738C226.884 268.286 226.424 268.06 225.729 268.06ZM231.66 268.399V267.769C232.161 267.769 232.532 267.729 232.774 267.648C233.016 267.567 233.259 267.422 233.501 267.212L237.812 263.337H238.03V267.769H241.154V268.399H238.03V276.537C238.03 277.312 238.119 277.861 238.296 278.184C238.49 278.491 238.813 278.644 239.265 278.644C239.62 278.644 239.935 278.571 240.21 278.426C240.484 278.281 240.783 278.03 241.106 277.675L241.493 278.135C240.476 279.266 238.974 279.831 236.988 279.831C235.648 279.831 234.688 279.548 234.106 278.983C233.525 278.418 233.234 277.538 233.234 276.343V268.399H231.66ZM250.042 279.54C249.59 279.54 249.267 279.451 249.073 279.274C248.895 279.08 248.807 278.765 248.807 278.329V278.208C247.725 279.258 246.183 279.782 244.181 279.782C243.131 279.782 242.308 279.548 241.71 279.08C241.129 278.595 240.838 277.853 240.838 276.852C240.838 275.851 241.129 275.067 241.71 274.502C242.308 273.937 243.171 273.534 244.302 273.291C245.432 273.049 246.934 272.904 248.807 272.855V271.087C248.807 270.183 248.629 269.537 248.274 269.15C247.919 268.746 247.297 268.544 246.409 268.544C245.666 268.544 244.972 268.649 244.326 268.859C243.696 269.053 243.05 269.352 242.388 269.755L242.073 269.295C242.849 268.746 243.777 268.31 244.859 267.987C245.957 267.648 247.184 267.479 248.54 267.479C250.365 267.479 251.664 267.842 252.44 268.569C253.215 269.279 253.602 270.312 253.602 271.669V278.378C253.602 278.555 253.634 278.676 253.699 278.741C253.78 278.805 253.941 278.862 254.183 278.91L255.031 279.104V279.54H250.042ZM246.893 278.256C247.588 278.256 248.225 277.982 248.807 277.433V273.509C247.902 273.574 247.216 273.719 246.748 273.945C246.28 274.155 245.957 274.462 245.779 274.866C245.618 275.269 245.537 275.818 245.537 276.513C245.537 277.126 245.642 277.57 245.852 277.845C246.078 278.119 246.425 278.256 246.893 278.256Z" fill="#4A4A4A"/>
<path d="M255.012 278.862C255.254 278.813 255.408 278.757 255.472 278.692C255.553 278.628 255.593 278.507 255.593 278.329V263.797C255.593 263.62 255.553 263.499 255.472 263.434C255.408 263.369 255.254 263.313 255.012 263.264L254.116 263.071V262.586H261.527C264.918 262.586 267.502 263.224 269.278 264.5C271.054 265.775 271.942 267.963 271.942 271.063C271.942 274.163 271.054 276.351 269.278 277.627C267.502 278.902 264.918 279.54 261.527 279.54H254.116V279.056L255.012 278.862ZM260.534 278.813H261.527C262.867 278.813 263.901 278.579 264.627 278.111C265.354 277.627 265.863 276.836 266.153 275.738C266.444 274.64 266.589 273.081 266.589 271.063C266.589 269.045 266.444 267.487 266.153 266.389C265.863 265.291 265.354 264.508 264.627 264.039C263.901 263.555 262.867 263.313 261.527 263.313H260.534V278.813ZM281.461 279.056L282.502 278.959C282.728 278.927 282.841 278.838 282.841 278.692C282.841 278.612 282.817 278.515 282.769 278.402L281.17 274.866H275.551L274.098 278.402C274.05 278.515 274.025 278.612 274.025 278.692C274.025 278.838 274.138 278.927 274.364 278.959L275.406 279.056V279.54H271.724V279.056L272.621 278.959C272.814 278.943 272.952 278.894 273.032 278.813C273.113 278.733 273.202 278.587 273.299 278.378L280.008 262.32H280.783L287.879 278.378C287.976 278.587 288.065 278.733 288.145 278.813C288.226 278.894 288.363 278.943 288.557 278.959L289.453 279.056V279.54H281.461V279.056ZM280.855 274.139L278.24 268.351L275.842 274.139H280.855ZM304.621 267.697C304.621 269.004 304.306 270.03 303.676 270.773C303.063 271.499 302.102 272.024 300.794 272.347C299.486 272.654 297.734 272.807 295.538 272.807H294.909V278.305C294.909 278.482 294.941 278.604 295.006 278.668C295.086 278.733 295.248 278.789 295.49 278.838L296.531 279.056V279.54H288.49V279.056L289.387 278.862C289.629 278.813 289.782 278.757 289.847 278.692C289.928 278.628 289.968 278.507 289.968 278.329V263.797C289.968 263.62 289.928 263.499 289.847 263.434C289.782 263.369 289.629 263.313 289.387 263.264L288.49 263.071V262.586H295.538C297.734 262.586 299.486 262.748 300.794 263.071C302.102 263.377 303.063 263.902 303.676 264.645C304.306 265.372 304.621 266.389 304.621 267.697ZM294.909 272.08H295.756C296.709 272.08 297.452 271.935 297.985 271.644C298.534 271.354 298.929 270.894 299.171 270.264C299.414 269.634 299.535 268.778 299.535 267.697C299.535 266.615 299.414 265.759 299.171 265.129C298.929 264.5 298.534 264.039 297.985 263.749C297.452 263.458 296.709 263.313 295.756 263.313H294.909V272.08Z" fill="#FF8C01"/>
<path d="M171.375 354.602C198.883 354.271 208.905 327.657 210.478 314.391L230.972 321.783C223.327 332.199 212.966 357.939 232.676 377.567L171.375 354.602Z" fill="white"/>
<circle cx="253.103" cy="238.519" r="94.5692" stroke="url(#paint8_linear_33298_285090)" stroke-width="17.7317"/>
<circle cx="177.596" cy="435.046" r="72.8999" stroke="url(#paint9_linear_33298_285090)" stroke-width="3.14676"/>
<g clip-path="url(#clip1_33298_285090)">
<path d="M422 215.085H427.589V215.226L426.534 217.009V223.648C426.528 224.186 426.59 224.723 426.719 225.246C426.824 225.677 427.009 226.084 427.264 226.446C427.495 226.767 427.8 227.028 428.153 227.205C428.504 227.382 428.908 227.47 429.366 227.47C429.928 227.47 430.407 227.365 430.803 227.156C431.192 226.953 431.525 226.656 431.773 226.292C432.038 225.896 432.224 225.452 432.323 224.986C432.441 224.448 432.499 223.899 432.495 223.348V217.177L431.291 215.226V215.085H434.235V215.226L433.022 217.177V222.888C433.022 223.766 432.945 224.523 432.789 225.162C432.634 225.8 432.372 226.33 432.005 226.751C431.638 227.171 431.15 227.483 430.542 227.686C429.933 227.889 429.177 227.993 428.274 227.999C427.557 228.013 426.842 227.911 426.157 227.698C425.553 227.512 424.992 227.208 424.507 226.802C424.045 226.409 423.679 225.913 423.439 225.355C423.187 224.781 423.061 224.129 423.061 223.4V217.009L422 215.226V215.085Z" fill="#1A2E7A"/>
<path d="M442.501 215.502C442.337 215.473 442.185 215.451 442.044 215.436C441.919 215.422 441.792 215.415 441.666 215.414C441.104 215.414 440.615 215.56 440.199 215.851C439.783 216.142 439.436 216.554 439.157 217.087C438.879 217.619 438.672 218.262 438.538 219.015C438.397 219.845 438.33 220.686 438.337 221.528C438.337 222.463 438.413 223.299 438.565 224.035C438.717 224.771 438.938 225.395 439.228 225.906C439.519 226.418 439.872 226.808 440.288 227.076C440.71 227.346 441.202 227.485 441.703 227.478C441.803 227.478 441.918 227.472 442.05 227.46C442.181 227.448 442.323 227.428 442.476 227.398L442.538 227.363C442.857 227.267 443.161 227.127 443.442 226.948C443.713 226.774 443.964 226.572 444.192 226.345C444.415 226.126 444.619 225.888 444.801 225.634C444.971 225.394 445.127 225.143 445.267 224.884C445.39 224.654 445.501 224.418 445.601 224.178C445.691 223.954 445.763 223.76 445.816 223.595H446.009L445.745 227.353C445.091 227.537 444.428 227.686 443.759 227.799C443.111 227.907 442.456 227.971 441.799 227.988C441.772 227.994 441.744 227.997 441.716 227.997H441.544C440.542 227.997 439.618 227.841 438.771 227.529C437.963 227.24 437.219 226.793 436.583 226.214C435.969 225.647 435.48 224.957 435.146 224.19C434.801 223.404 434.628 222.538 434.628 221.59C434.628 220.625 434.789 219.733 435.111 218.915C435.419 218.12 435.887 217.397 436.487 216.793C437.102 216.182 437.837 215.705 438.644 215.393C439.488 215.058 440.431 214.891 441.474 214.891H441.588C442.279 214.897 442.969 214.956 443.651 215.068C444.357 215.185 445.057 215.338 445.747 215.527L446.011 219.296H445.817C445.715 218.977 445.593 218.664 445.451 218.36C445.271 217.968 445.053 217.594 444.801 217.244C444.525 216.86 444.201 216.513 443.838 216.211C443.457 215.893 443.015 215.657 442.539 215.518L442.501 215.502Z" fill="#1A2E7A"/>
<path d="M448.417 217.009L447.362 215.225V215.085H457.361V218.687H457.265L454.812 215.606H451.888V220.991H453.62L455.35 219.49H455.525V223.235H455.35L453.619 221.514H451.888V227.269H455.271L458.163 224.189H458.242L457.82 227.79H447.362V227.649L448.417 225.857V217.009Z" fill="#1A2E7A"/>
<path d="M458.979 227.646L460.034 225.863V217.009L458.979 215.225V215.085H465.219C466.098 215.085 466.867 215.163 467.526 215.319C468.185 215.475 468.735 215.698 469.176 215.986C469.615 216.274 469.945 216.618 470.164 217.019C470.386 217.424 470.499 217.88 470.494 218.343C470.494 218.925 470.374 219.423 470.134 219.834C469.896 220.244 469.571 220.596 469.184 220.867C468.769 221.154 468.313 221.375 467.83 221.52C467.32 221.679 466.797 221.794 466.267 221.864C466.55 221.968 466.841 222.05 467.137 222.107C467.447 222.169 467.804 222.226 468.208 222.279L470.555 226.136L472.083 227.655V227.787H467.355L464.639 221.98H464.198L464.048 221.512L464.479 221.503C464.906 221.48 465.271 221.387 465.573 221.225C465.867 221.071 466.119 220.847 466.309 220.574C466.504 220.285 466.643 219.961 466.718 219.62C466.806 219.224 466.849 218.82 466.845 218.415C466.85 218.019 466.804 217.625 466.709 217.241C466.629 216.914 466.474 216.611 466.256 216.356C466.027 216.103 465.739 215.912 465.417 215.8C465.068 215.67 464.639 215.606 464.129 215.606H463.505V225.863L464.56 227.646V227.787H458.979V227.646Z" fill="#1A2E7A"/>
<path d="M475.642 227.646L476.697 225.863V215.598H475.379L472.971 218.581H472.874V215.085H484V218.581H483.912L481.504 215.598H480.168V225.863L481.223 227.646V227.788H475.642V227.646Z" fill="#1A2E7A"/>
<path d="M430.066 178.511V206.925C430.066 207.591 430.33 208.23 430.799 208.701C431.267 209.172 431.903 209.436 432.566 209.436H460.39V204.455C459.458 203.372 458.856 202.043 458.654 200.626C458.453 199.209 458.661 197.764 459.254 196.462C459.847 195.161 460.799 194.058 461.998 193.284C463.197 192.511 464.592 192.1 466.017 192.1C467.442 192.1 468.837 192.511 470.036 193.284C471.235 194.058 472.187 195.161 472.78 196.462C473.373 197.764 473.581 199.209 473.379 200.626C473.178 202.043 472.575 203.372 471.644 204.455V209.436H473.103C473.766 209.436 474.401 209.172 474.87 208.701C475.339 208.23 475.602 207.591 475.602 206.925V187.66H466.994C466.198 187.659 465.436 187.341 464.874 186.776C464.311 186.211 463.995 185.446 463.994 184.647V176H432.566C431.903 176 431.267 176.265 430.799 176.735C430.33 177.206 430.066 177.845 430.066 178.511ZM435.616 183.88H460.583V186.642H435.617L435.616 183.88ZM435.616 193.76H456.784V195.266H435.617L435.616 193.76ZM435.616 198.48H448.101V199.987H435.617L435.616 198.48Z" fill="#102566"/>
<path d="M465.493 176.236V184.647C465.493 185.046 465.651 185.429 465.932 185.712C466.214 185.995 466.595 186.153 466.993 186.153H475.601L465.493 176V176.236Z" fill="#102566"/>
<path d="M470.144 209.436V205.784C468.922 206.603 467.486 207.041 466.017 207.041C464.548 207.041 463.111 206.603 461.89 205.784V212.9L466.017 211.249L470.144 212.9V209.435V209.436Z" fill="#F8AD4B"/>
<path d="M470.894 202.968C471.763 201.709 472.117 200.163 471.882 198.65C471.647 197.137 470.842 195.772 469.633 194.839C468.424 193.906 466.904 193.475 465.388 193.637C463.872 193.798 462.476 194.539 461.488 195.707C460.501 196.874 459.999 198.378 460.086 199.907C460.172 201.436 460.841 202.873 461.954 203.92C463.066 204.968 464.537 205.545 466.062 205.533C467.587 205.52 469.048 204.919 470.144 203.854C470.422 203.584 470.673 203.287 470.894 202.968Z" fill="#F8AD4B"/>
</g>
<defs>
<linearGradient id="paint0_linear_33298_285090" x1="38.8571" y1="148.657" x2="132.229" y2="22.593" gradientUnits="userSpaceOnUse">
<stop stop-color="#FF9E0F"/>
<stop offset="1" stop-color="#FF7C0F"/>
</linearGradient>
<linearGradient id="paint1_linear_33298_285090" x1="36.5976" y1="96.328" x2="53.8293" y2="73.063" gradientUnits="userSpaceOnUse">
<stop stop-color="#FF9E0F"/>
<stop offset="1" stop-color="#FF7C0F"/>
</linearGradient>
<linearGradient id="paint2_linear_33298_285090" x1="414.525" y1="254.925" x2="490.874" y2="151.845" gradientUnits="userSpaceOnUse">
<stop stop-color="#FF9E0F"/>
<stop offset="1" stop-color="#FF7C0F"/>
</linearGradient>
<linearGradient id="paint3_linear_33298_285090" x1="251.084" y1="195.165" x2="228.811" y2="207.055" gradientUnits="userSpaceOnUse">
<stop offset="0.0220136" stop-color="#3C3B3B"/>
<stop offset="0.370212" stop-color="#5E5D5D"/>
<stop offset="0.976214" stop-color="#5E5D5D"/>
</linearGradient>
<linearGradient id="paint4_linear_33298_285090" x1="288.527" y1="210.481" x2="242.637" y2="220.871" gradientUnits="userSpaceOnUse">
<stop offset="0.0748513" stop-color="#3C3B3B"/>
<stop offset="0.370212" stop-color="#5E5D5D"/>
<stop offset="1" stop-color="#5E5D5D"/>
</linearGradient>
<linearGradient id="paint5_linear_33298_285090" x1="219.783" y1="233.293" x2="242.04" y2="230.942" gradientUnits="userSpaceOnUse">
<stop offset="0.0748513" stop-color="#3C3B3B"/>
<stop offset="0.370212" stop-color="#5E5D5D"/>
<stop offset="1" stop-color="#5E5D5D"/>
</linearGradient>
<linearGradient id="paint6_linear_33298_285090" x1="219.801" y1="233.293" x2="242.057" y2="230.942" gradientUnits="userSpaceOnUse">
<stop offset="0.0748513" stop-color="#3C3B3B"/>
<stop offset="0.370212" stop-color="#5E5D5D"/>
<stop offset="1" stop-color="#5E5D5D"/>
</linearGradient>
<linearGradient id="paint7_linear_33298_285090" x1="219.799" y1="233.313" x2="244.167" y2="230.489" gradientUnits="userSpaceOnUse">
<stop offset="0.0748513" stop-color="#3C3B3B"/>
<stop offset="0.370212" stop-color="#5E5D5D"/>
<stop offset="1" stop-color="#5E5D5D"/>
</linearGradient>
<linearGradient id="paint8_linear_33298_285090" x1="191.478" y1="321.703" x2="314.62" y2="155.444" gradientUnits="userSpaceOnUse">
<stop stop-color="#FF9E0F"/>
<stop offset="1" stop-color="#FF7C0F"/>
</linearGradient>
<linearGradient id="paint9_linear_33298_285090" x1="133.226" y1="494.938" x2="221.888" y2="375.232" gradientUnits="userSpaceOnUse">
<stop stop-color="#FF9E0F"/>
<stop offset="1" stop-color="#FF7C0F"/>
</linearGradient>
<clipPath id="clip0_33298_285090">
<rect width="103.175" height="50" fill="white" transform="translate(126 410)"/>
</clipPath>
<clipPath id="clip1_33298_285090">
<rect width="62" height="52" fill="white" transform="translate(422 176)"/>
</clipPath>
</defs>
</svg>
