<svg width="375" height="588" viewBox="0 0 375 588" fill="none" xmlns="http://www.w3.org/2000/svg">
<g clip-path="url(#clip0_4_281)">
<rect width="375" height="634" fill="url(#paint0_linear_4_281)"/>
<path d="M302.771 352.38C305.184 334.537 315.006 319.224 326.315 304.332C337.208 289.999 348.832 275.626 353.816 258.833C364.095 224.212 348.19 189.233 327.715 161.543C304.826 130.598 274.318 103.359 259.803 67.8147C252.685 50.3803 250.386 30.6508 258.696 12.5159C265.584 -2.50845 279.257 -12.6718 295.654 -19.0868C304.971 -22.73 314.658 -25.3 324.388 -27.7538L323.583 -31.7094C320.826 -31.0154 318.069 -30.3213 315.34 -29.583C299.46 -25.3288 283.145 -20.0039 270.586 -9.71764C256.324 1.97202 249.216 18.9885 248.752 35.5603C248.178 55.7829 256.545 74.9354 267.271 91.9519C277.606 108.349 290.505 123.242 303.151 138.195C327.294 166.738 352.401 198.712 352.414 236.766C352.417 245.67 350.914 254.622 347.597 263.178C344.325 271.633 339.37 279.49 333.92 287.056C323.257 301.867 310.575 315.881 303.6 332.388C296.381 349.46 295.532 368.424 301.178 385.376C301.183 385.4 301.197 385.422 301.203 385.454L305.814 384.516C302.347 374.269 301.3 363.306 302.771 352.38Z" fill="url(#paint1_linear_4_281)" fill-opacity="0.2"/>
<path d="M344.673 303.043C353.147 261.507 329.231 222.533 307.672 197.151C296.576 184.088 284.057 171.714 271.943 159.748C256.261 144.256 240.046 128.24 226.826 110.607C213.921 93.4013 186.126 48.725 206.643 5.72076C218.449 -19.0174 245.246 -39.998 286.29 -56.637C290.148 -58.2041 294.077 -59.7025 298.009 -61.1848L297.843 -61.9999C293.849 -60.4966 289.86 -58.9693 285.94 -57.3812C244.658 -40.6523 217.693 -19.521 205.797 5.42683C185.101 48.8087 213.067 93.7664 226.051 111.081C239.308 128.756 255.538 144.802 271.244 160.315C283.347 172.274 295.854 184.634 306.925 197.669C328.383 222.93 352.191 261.693 343.763 302.945C340.766 317.636 333.772 331.908 327.015 345.715C324.199 351.473 321.358 357.294 318.778 363.186L319.842 362.97C322.362 357.247 325.125 351.601 327.861 346.009C334.648 332.162 341.652 317.847 344.673 303.043Z" fill="url(#paint2_linear_4_281)" fill-opacity="0.2"/>
<rect x="-346" y="560.159" width="677.417" height="952.315" rx="330" transform="rotate(-38.8746 -346 560.159)" fill="url(#paint3_linear_4_281)"/>
</g>
<defs>
<linearGradient id="paint0_linear_4_281" x1="31.0001" y1="450.96" x2="-22.2596" y2="141.927" gradientUnits="userSpaceOnUse">
<stop offset="0.195295" stop-color="#41399E" stop-opacity="0.9"/>
<stop offset="0.591956" stop-color="#41399E" stop-opacity="0.931936"/>
<stop offset="0.99737" stop-color="#363278"/>
</linearGradient>
<linearGradient id="paint1_linear_4_281" x1="306.806" y1="352.408" x2="284.549" y2="-5.51751" gradientUnits="userSpaceOnUse">
<stop offset="0.0467524" stop-color="#F4F8FD"/>
<stop offset="0.473931" stop-color="#3EE8B5"/>
<stop offset="1" stop-color="#EFF1FD"/>
</linearGradient>
<linearGradient id="paint2_linear_4_281" x1="316.361" y1="344.579" x2="245.948" y2="1.0481" gradientUnits="userSpaceOnUse">
<stop stop-color="#263959"/>
<stop offset="1" stop-color="#F4F8FD"/>
</linearGradient>
<linearGradient id="paint3_linear_4_281" x1="-209.09" y1="1419.25" x2="383.041" y2="850.565" gradientUnits="userSpaceOnUse">
<stop stop-color="#EA8B00"/>
<stop offset="1" stop-color="#EE6C00"/>
</linearGradient>
<clipPath id="clip0_4_281">
<rect width="375" height="588" fill="white"/>
</clipPath>
</defs>
</svg>
