<svg width="76" height="76" viewBox="0 0 76 76" fill="none" xmlns="http://www.w3.org/2000/svg">
<path d="M46.0392 68.1294C62.7404 63.7826 72.7426 46.7695 68.3799 30.1295C64.0171 13.4894 46.9413 3.52382 30.2402 7.87062C13.539 12.2174 3.53674 29.2306 7.89952 45.8706C12.2623 62.5107 29.338 72.4763 46.0392 68.1294Z" fill="white"/>
<path d="M38.0287 64.997C52.9309 64.997 65.0115 52.9606 65.0115 38.113C65.0115 23.2654 52.9309 11.229 38.0287 11.229C23.1265 11.229 11.0459 23.2654 11.0459 38.113C11.0459 52.9606 23.1265 64.997 38.0287 64.997Z" fill="url(#paint0_linear_33371_285314)"/>
<path d="M46.14 33.0191C46.14 33.5924 45.831 34.1126 45.3408 34.378L43.4866 35.3761L41.9095 36.2148L38.638 37.9773C38.2864 38.1684 37.9028 38.2639 37.5085 38.2639C37.1142 38.2639 36.7306 38.1684 36.3789 37.9773L29.6762 34.378C29.186 34.1126 28.877 33.5924 28.877 33.0191C28.877 32.4457 29.186 31.9255 29.6762 31.6601L31.7754 30.5346L33.4485 29.6322L36.3789 28.0608C37.0822 27.6786 37.9347 27.6786 38.638 28.0608L45.3408 31.6601C45.831 31.9255 46.14 32.4457 46.14 33.0191Z" fill="white"/>
<path d="M35.2697 39.2303L29.0358 36.1301C28.5563 35.8859 28.0022 35.9177 27.544 36.1938C27.0857 36.4698 26.8193 36.9582 26.8193 37.4891V43.3604C26.8193 44.3796 27.3841 45.2927 28.3005 45.7492L34.5344 48.8495C34.7475 48.9556 34.982 49.0087 35.2164 49.0087C35.4935 49.0087 35.7705 48.9344 36.0156 48.7751C36.4738 48.4991 36.7403 48.0107 36.7403 47.4798V41.6086C36.7509 40.5999 36.1861 39.6868 35.2697 39.2303Z" fill="white"/>
<path d="M48.1952 37.4892V43.3605C48.1952 44.3691 47.6305 45.2822 46.714 45.7387L40.4802 48.8495C40.267 48.9557 40.0326 49.0088 39.7982 49.0088C39.5211 49.0088 39.244 48.9345 38.9883 48.7752C38.5407 48.4992 38.2637 48.0108 38.2637 47.4799V41.6192C38.2637 40.6 38.8285 39.6869 39.7449 39.2304L42.036 38.0943L43.6344 37.2981L45.9788 36.1302C46.4583 35.886 47.0124 35.9072 47.4706 36.1939C47.9182 36.4699 48.1952 36.9583 48.1952 37.4892Z" fill="white"/>
<path d="M43.4866 35.3762L41.9094 36.215L31.7754 30.5348L33.4484 29.6323L43.2308 35.132C43.3374 35.1957 43.4226 35.2807 43.4866 35.3762Z" fill="white"/>
<path d="M43.6355 37.2977V39.7078C43.6355 40.1431 43.2732 40.5041 42.8363 40.5041C42.3994 40.5041 42.0371 40.1431 42.0371 39.7078V38.094L43.6355 37.2977Z" fill="white"/>
<g opacity="0.2" filter="url(#filter0_f_33371_285314)">
<path d="M41.5 70C57.7924 70 71 56.7924 71 40.5C71 24.2076 57.7924 11 41.5 11C25.2076 11 12 24.2076 12 40.5C12 56.7924 25.2076 70 41.5 70Z" fill="#9EA3AE"/>
</g>
<defs>
<filter id="filter0_f_33371_285314" x="8" y="7" width="67" height="67" filterUnits="userSpaceOnUse" color-interpolation-filters="sRGB">
<feFlood flood-opacity="0" result="BackgroundImageFix"/>
<feBlend mode="normal" in="SourceGraphic" in2="BackgroundImageFix" result="shape"/>
<feGaussianBlur stdDeviation="2" result="effect1_foregroundBlur_33371_285314"/>
</filter>
<linearGradient id="paint0_linear_33371_285314" x1="38.0287" y1="11.229" x2="38.0287" y2="64.997" gradientUnits="userSpaceOnUse">
<stop stop-color="#FCA33E"/>
<stop offset="1" stop-color="#FF8800"/>
</linearGradient>
</defs>
</svg>
