<svg width="552" height="500" viewBox="0 0 552 500" fill="none" xmlns="http://www.w3.org/2000/svg">
<g opacity="0.2" filter="url(#filter0_f_33458_288979)">
<path d="M134.638 52.978C143.995 52.978 151.581 45.3748 151.581 35.9958C151.581 26.6168 143.995 19.0135 134.638 19.0135C125.281 19.0135 117.695 26.6168 117.695 35.9958C117.695 45.3748 125.281 52.978 134.638 52.978Z" fill="#9EA3AE"/>
</g>
<g opacity="0.2" filter="url(#filter1_f_33458_288979)">
<path d="M530.482 169.217C539.839 169.217 547.424 161.614 547.424 152.235C547.424 142.856 539.839 135.253 530.482 135.253C521.125 135.253 513.539 142.856 513.539 152.235C513.539 161.614 521.125 169.217 530.482 169.217Z" fill="#9EA3AE"/>
</g>
<g opacity="0.2" filter="url(#filter2_f_33458_288979)">
<path d="M377.896 423.227C385.36 423.227 391.41 417.162 391.41 409.681C391.41 402.2 385.36 396.135 377.896 396.135C370.432 396.135 364.382 402.2 364.382 409.681C364.382 417.162 370.432 423.227 377.896 423.227Z" fill="#9EA3AE"/>
</g>
<g opacity="0.2" filter="url(#filter3_f_33458_288979)">
<path d="M53.0547 341.952C60.242 341.952 66.0684 336.112 66.0684 328.908C66.0684 321.704 60.242 315.864 53.0547 315.864C45.8674 315.864 40.041 321.704 40.041 328.908C40.041 336.112 45.8674 341.952 53.0547 341.952Z" fill="#9EA3AE"/>
</g>
<g opacity="0.2" filter="url(#filter4_f_33458_288979)">
<path d="M223.234 265.694C228.763 265.694 233.245 261.202 233.245 255.66C233.245 250.118 228.763 245.626 223.234 245.626C217.706 245.626 213.224 250.118 213.224 255.66C213.224 261.202 217.706 265.694 223.234 265.694Z" fill="#9EA3AE"/>
</g>
<path d="M222.362 143.273C222.362 144.888 221.884 146.467 220.989 147.811C220.093 149.154 218.82 150.201 217.331 150.819C215.842 151.437 214.204 151.599 212.623 151.284C211.042 150.969 209.59 150.191 208.45 149.048C207.311 147.906 206.535 146.451 206.22 144.866C205.906 143.282 206.067 141.639 206.684 140.147C207.301 138.654 208.345 137.378 209.685 136.481C211.025 135.583 212.601 135.104 214.213 135.104C216.373 135.108 218.444 135.97 219.971 137.501C221.499 139.032 222.358 141.107 222.362 143.273Z" stroke="white" stroke-width="0.783296" stroke-linecap="round" stroke-linejoin="round"/>
<path d="M532.576 235.97C537.998 226.523 534.753 214.46 525.328 209.026C515.904 203.591 503.868 206.844 498.447 216.291C493.025 225.737 496.27 237.801 505.695 243.235C515.119 248.67 527.155 245.417 532.576 235.97Z" stroke="white" stroke-width="1.90229" stroke-linecap="round" stroke-linejoin="round"/>
<path d="M84.4307 347.657C87.9915 347.657 90.8781 344.763 90.8781 341.194C90.8781 337.625 87.9915 334.732 84.4307 334.732C80.87 334.732 77.9834 337.625 77.9834 341.194C77.9834 344.763 80.87 347.657 84.4307 347.657Z" stroke="white" stroke-width="0.62328" stroke-linecap="round" stroke-linejoin="round"/>
<path d="M370.84 390.763C382.997 390.763 392.852 380.885 392.852 368.7C392.852 356.515 382.997 346.637 370.84 346.637C358.684 346.637 348.829 356.515 348.829 368.7C348.829 380.885 358.684 390.763 370.84 390.763Z" stroke="white" stroke-width="2.12609" stroke-linecap="round" stroke-linejoin="round"/>
<path d="M97.8531 355.868C107.781 345.917 107.781 329.784 97.8531 319.833C87.9257 309.883 71.8303 309.883 61.9029 319.833C51.9755 329.784 51.9755 345.917 61.9029 355.868C71.8303 365.818 87.9257 365.818 97.8531 355.868Z" stroke="white" stroke-width="2.45534" stroke-linecap="round" stroke-linejoin="round"/>
<g filter="url(#filter5_d_33458_288979)">
<path d="M50.7386 338.304C58.069 338.304 64.0115 332.348 64.0115 325C64.0115 317.653 58.069 311.696 50.7386 311.696C43.4083 311.696 37.4658 317.653 37.4658 325C37.4658 332.348 43.4083 338.304 50.7386 338.304Z" fill="white"/>
</g>
<path d="M528.058 165.363C537.415 165.363 545 157.76 545 148.381C545 139.002 537.415 131.399 528.058 131.399C518.701 131.399 511.115 139.002 511.115 148.381C511.115 157.76 518.701 165.363 528.058 165.363Z" fill="white"/>
<path d="M130.061 48.9645C139.418 48.9645 147.003 41.3613 147.003 31.9822C147.003 22.6032 139.418 15 130.061 15C120.704 15 113.118 22.6032 113.118 31.9822C113.118 41.3613 120.704 48.9645 130.061 48.9645Z" fill="white"/>
<g filter="url(#filter6_d_33458_288979)">
<path d="M389.552 407.995C390.722 400.749 385.81 393.925 378.58 392.752C371.351 391.58 364.542 396.504 363.373 403.75C362.203 410.996 367.115 417.821 374.345 418.993C381.574 420.166 388.383 415.242 389.552 407.995Z" fill="white"/>
</g>
<path d="M211.56 252.25V252.249C211.56 251.113 211.783 249.988 212.217 248.938C212.651 247.889 213.288 246.936 214.09 246.133C214.892 245.331 215.844 244.694 216.891 244.261C217.938 243.828 219.06 243.605 220.193 243.607L220.194 243.14V243.607C221.902 243.607 223.572 244.115 224.992 245.067C226.412 246.018 227.519 247.371 228.172 248.953C228.826 250.536 228.996 252.277 228.662 253.957C228.327 255.636 227.504 257.179 226.295 258.388C225.086 259.598 223.546 260.422 221.87 260.754C220.195 261.086 218.458 260.913 216.881 260.256C215.304 259.599 213.956 258.488 213.009 257.062C212.061 255.637 211.557 253.962 211.56 252.25ZM211.093 252.249H211.093H211.093Z" fill="white" stroke="#F4F4F6" stroke-width="0.933933"/>
<mask id="path-16-inside-1_33458_288979" fill="white">
<path fill-rule="evenodd" clip-rule="evenodd" d="M30.7865 225.918C30.8039 225.955 30.8214 225.991 30.8389 226.028C37.8509 240.688 48.7047 253.159 62.2475 262.117C67.5679 265.636 73.2252 268.561 79.1182 270.859C96.2278 277.601 115.059 279.001 133.084 274.771C140.141 273.194 147.512 273.762 154.241 276.404C160.97 279.045 166.75 283.637 170.831 289.587L171.799 290.965C175.907 296.955 178.115 304.037 178.135 311.292C178.155 318.547 175.987 325.641 171.912 331.654C162.914 345.192 157.764 360.905 157.009 377.125C156.255 393.344 159.923 409.465 167.626 423.774C175.328 438.083 186.777 450.047 200.755 458.394C214.734 466.741 230.72 471.16 247.017 471.182C263.314 471.203 279.312 466.827 293.313 458.517C307.314 450.207 318.794 438.274 326.535 423.985C334.276 409.697 337.988 393.586 337.277 377.364C336.565 361.143 331.458 345.416 322.496 331.854C318.389 325.776 316.205 318.611 316.228 311.284C316.25 303.957 318.478 296.804 322.622 290.752L323.439 289.587C327.542 283.712 333.286 279.166 339.958 276.513C345.767 274.202 352.057 273.415 358.232 274.203C362.604 275.256 367.023 276.013 371.464 276.474L371.669 276.5H371.719C372.415 276.57 373.113 276.633 373.81 276.689L374.773 276.775L376.973 276.913C377.765 277.013 378.557 277.013 379.361 277.013H379.361H381.875H384.389L386.752 276.926L388.977 276.775L390.096 276.675L391.598 276.522C391.672 276.515 391.746 276.507 391.82 276.5C391.928 276.512 392.037 276.512 392.145 276.5L394.269 276.237H394.558C395.337 276.137 396.104 276.011 396.871 275.886C398.244 275.655 399.609 275.388 400.957 275.093C401.51 274.976 402.06 274.856 402.609 274.73L402.766 274.696H402.829C403.453 274.547 404.075 274.392 404.694 274.23C422.303 269.803 437.684 260.685 449.744 246.655C453.088 242.764 456.077 238.62 458.692 234.272C463.568 226.398 467.194 217.813 469.435 208.822C469.825 207.232 470.177 205.616 470.491 203.988C470.592 203.449 470.692 202.898 470.78 202.36C470.881 201.809 470.969 201.258 471.044 200.707C471.22 199.617 471.371 198.515 471.484 197.401C471.514 197.132 471.541 196.864 471.568 196.597C471.598 196.303 471.627 196.011 471.66 195.722C471.723 195.171 471.761 194.708 471.811 194.044C471.823 193.884 471.837 193.722 471.851 193.561C471.893 193.053 471.937 192.541 471.937 192.028C472.062 190.45 472.062 188.848 472.062 187.245V187.244C472.062 186.555 472.05 185.854 472 185.19V183.8C471.949 182.585 471.887 181.458 471.786 180.206C471.736 179.479 471.673 178.79 471.597 178.039C471.544 177.503 471.477 176.961 471.411 176.426C471.385 176.211 471.359 175.997 471.333 175.785C471.245 175.046 471.145 174.307 471.019 173.568C470.942 173.054 470.856 172.55 470.769 172.039L470.73 171.815C470.667 171.439 470.592 171.051 470.516 170.675C470.502 170.553 470.481 170.432 470.454 170.312C470.34 169.736 470.227 169.16 470.102 168.596C470.09 168.485 470.065 168.376 470.026 168.271C469.901 167.661 469.762 167.047 469.611 166.43C465.708 150.421 457.492 135.779 445.849 124.082C434.207 112.385 419.579 104.077 403.545 100.054L401.823 99.6412C401.68 99.6069 401.568 99.5857 401.443 99.562C401.295 99.5338 401.128 99.5021 400.868 99.4408C400.545 99.3647 400.309 99.3171 399.984 99.2518C399.828 99.2204 399.651 99.1849 399.435 99.1402C398.769 99.0025 398.09 98.8772 397.424 98.7645C396.003 98.5141 394.583 98.3012 393.15 98.1258C391.038 97.8503 388.902 97.6625 386.74 97.5497C385.118 97.4245 383.484 97.4245 381.837 97.4245C369.985 97.4113 358.247 99.7275 347.294 104.24C336.342 108.753 326.39 115.374 318.009 123.725C309.629 132.075 302.983 141.99 298.454 152.902C298.395 153.044 298.336 153.186 298.278 153.327C295.198 160.066 279.195 175.588 272.216 177.199C264.397 179.003 238.296 179.224 231.084 179.03L229.401 179.003C222.139 178.807 215.112 176.432 209.23 172.184C204.794 168.981 201.164 164.825 198.587 160.045C194.133 145.954 186.239 133.079 175.495 122.635C173.312 120.512 171.032 118.51 168.663 116.631C168.569 116.555 168.474 116.479 168.38 116.403C155.7 106.261 140.501 99.7558 124.397 97.5787C108.293 95.4016 91.885 97.6339 76.9165 104.039C62.5585 110.182 50.0389 119.944 40.5735 132.357C33.6006 141.434 28.3733 151.818 25.2574 162.996C19.6288 183.186 21.2423 204.701 29.8199 223.834C30.1335 224.533 30.4558 225.228 30.7865 225.918ZM197.794 216.548C195.332 223.638 191.974 230.442 187.762 236.787C183.686 242.803 181.519 249.9 181.541 257.158C181.563 264.415 183.775 271.499 187.888 277.489L188.843 278.867C193.04 284.868 198.949 289.477 205.804 292.096C212.659 294.715 220.145 295.224 227.294 293.557C240.39 290.617 253.98 290.617 267.077 293.557C274.222 295.228 281.706 294.726 288.563 292.117C295.419 289.507 301.333 284.909 305.54 278.917L306.344 277.752C310.336 271.936 312.555 265.095 312.736 258.052C312.867 252.938 311.919 247.875 309.978 243.184C304.529 236.109 300.125 228.207 296.959 219.709C294.487 212.876 287.311 205.821 281.425 201.574C276.969 198.359 254.429 199.186 240.592 199.694C236.155 199.857 232.612 199.987 230.848 199.94L229.172 199.904C221.85 199.773 214.649 201.845 208.501 205.852C204.211 208.649 200.571 212.299 197.794 216.548Z"/>
</mask>
<path fill-rule="evenodd" clip-rule="evenodd" d="M30.7865 225.918C30.8039 225.955 30.8214 225.991 30.8389 226.028C37.8509 240.688 48.7047 253.159 62.2475 262.117C67.5679 265.636 73.2252 268.561 79.1182 270.859C96.2278 277.601 115.059 279.001 133.084 274.771C140.141 273.194 147.512 273.762 154.241 276.404C160.97 279.045 166.75 283.637 170.831 289.587L171.799 290.965C175.907 296.955 178.115 304.037 178.135 311.292C178.155 318.547 175.987 325.641 171.912 331.654C162.914 345.192 157.764 360.905 157.009 377.125C156.255 393.344 159.923 409.465 167.626 423.774C175.328 438.083 186.777 450.047 200.755 458.394C214.734 466.741 230.72 471.16 247.017 471.182C263.314 471.203 279.312 466.827 293.313 458.517C307.314 450.207 318.794 438.274 326.535 423.985C334.276 409.697 337.988 393.586 337.277 377.364C336.565 361.143 331.458 345.416 322.496 331.854C318.389 325.776 316.205 318.611 316.228 311.284C316.25 303.957 318.478 296.804 322.622 290.752L323.439 289.587C327.542 283.712 333.286 279.166 339.958 276.513C345.767 274.202 352.057 273.415 358.232 274.203C362.604 275.256 367.023 276.013 371.464 276.474L371.669 276.5H371.719C372.415 276.57 373.113 276.633 373.81 276.689L374.773 276.775L376.973 276.913C377.765 277.013 378.557 277.013 379.361 277.013H379.361H381.875H384.389L386.752 276.926L388.977 276.775L390.096 276.675L391.598 276.522C391.672 276.515 391.746 276.507 391.82 276.5C391.928 276.512 392.037 276.512 392.145 276.5L394.269 276.237H394.558C395.337 276.137 396.104 276.011 396.871 275.886C398.244 275.655 399.609 275.388 400.957 275.093C401.51 274.976 402.06 274.856 402.609 274.73L402.766 274.696H402.829C403.453 274.547 404.075 274.392 404.694 274.23C422.303 269.803 437.684 260.685 449.744 246.655C453.088 242.764 456.077 238.62 458.692 234.272C463.568 226.398 467.194 217.813 469.435 208.822C469.825 207.232 470.177 205.616 470.491 203.988C470.592 203.449 470.692 202.898 470.78 202.36C470.881 201.809 470.969 201.258 471.044 200.707C471.22 199.617 471.371 198.515 471.484 197.401C471.514 197.132 471.541 196.864 471.568 196.597C471.598 196.303 471.627 196.011 471.66 195.722C471.723 195.171 471.761 194.708 471.811 194.044C471.823 193.884 471.837 193.722 471.851 193.561C471.893 193.053 471.937 192.541 471.937 192.028C472.062 190.45 472.062 188.848 472.062 187.245V187.244C472.062 186.555 472.05 185.854 472 185.19V183.8C471.949 182.585 471.887 181.458 471.786 180.206C471.736 179.479 471.673 178.79 471.597 178.039C471.544 177.503 471.477 176.961 471.411 176.426C471.385 176.211 471.359 175.997 471.333 175.785C471.245 175.046 471.145 174.307 471.019 173.568C470.942 173.054 470.856 172.55 470.769 172.039L470.73 171.815C470.667 171.439 470.592 171.051 470.516 170.675C470.502 170.553 470.481 170.432 470.454 170.312C470.34 169.736 470.227 169.16 470.102 168.596C470.09 168.485 470.065 168.376 470.026 168.271C469.901 167.661 469.762 167.047 469.611 166.43C465.708 150.421 457.492 135.779 445.849 124.082C434.207 112.385 419.579 104.077 403.545 100.054L401.823 99.6412C401.68 99.6069 401.568 99.5857 401.443 99.562C401.295 99.5338 401.128 99.5021 400.868 99.4408C400.545 99.3647 400.309 99.3171 399.984 99.2518C399.828 99.2204 399.651 99.1849 399.435 99.1402C398.769 99.0025 398.09 98.8772 397.424 98.7645C396.003 98.5141 394.583 98.3012 393.15 98.1258C391.038 97.8503 388.902 97.6625 386.74 97.5497C385.118 97.4245 383.484 97.4245 381.837 97.4245C369.985 97.4113 358.247 99.7275 347.294 104.24C336.342 108.753 326.39 115.374 318.009 123.725C309.629 132.075 302.983 141.99 298.454 152.902C298.395 153.044 298.336 153.186 298.278 153.327C295.198 160.066 279.195 175.588 272.216 177.199C264.397 179.003 238.296 179.224 231.084 179.03L229.401 179.003C222.139 178.807 215.112 176.432 209.23 172.184C204.794 168.981 201.164 164.825 198.587 160.045C194.133 145.954 186.239 133.079 175.495 122.635C173.312 120.512 171.032 118.51 168.663 116.631C168.569 116.555 168.474 116.479 168.38 116.403C155.7 106.261 140.501 99.7558 124.397 97.5787C108.293 95.4016 91.885 97.6339 76.9165 104.039C62.5585 110.182 50.0389 119.944 40.5735 132.357C33.6006 141.434 28.3733 151.818 25.2574 162.996C19.6288 183.186 21.2423 204.701 29.8199 223.834C30.1335 224.533 30.4558 225.228 30.7865 225.918ZM197.794 216.548C195.332 223.638 191.974 230.442 187.762 236.787C183.686 242.803 181.519 249.9 181.541 257.158C181.563 264.415 183.775 271.499 187.888 277.489L188.843 278.867C193.04 284.868 198.949 289.477 205.804 292.096C212.659 294.715 220.145 295.224 227.294 293.557C240.39 290.617 253.98 290.617 267.077 293.557C274.222 295.228 281.706 294.726 288.563 292.117C295.419 289.507 301.333 284.909 305.54 278.917L306.344 277.752C310.336 271.936 312.555 265.095 312.736 258.052C312.867 252.938 311.919 247.875 309.978 243.184C304.529 236.109 300.125 228.207 296.959 219.709C294.487 212.876 287.311 205.821 281.425 201.574C276.969 198.359 254.429 199.186 240.592 199.694C236.155 199.857 232.612 199.987 230.848 199.94L229.172 199.904C221.85 199.773 214.649 201.845 208.501 205.852C204.211 208.649 200.571 212.299 197.794 216.548Z" fill="white"/>
<path d="M30.7863 225.918L31.9211 225.377L31.9198 225.375L30.7863 225.918ZM30.8389 226.028L31.9729 225.486L31.9729 225.486L30.8389 226.028ZM62.2475 262.117L62.941 261.068L62.2475 262.117ZM79.1182 270.859L79.579 269.69L79.5749 269.688L79.1182 270.859ZM133.084 274.771L132.81 273.545L132.797 273.548L133.084 274.771ZM154.241 276.404L153.782 277.574L154.241 276.404ZM170.831 289.587L169.794 290.298L169.802 290.31L170.831 289.587ZM171.799 290.965L172.835 290.254L172.831 290.248L172.827 290.242L171.799 290.965ZM171.912 331.654L170.871 330.949L170.865 330.958L171.912 331.654ZM157.009 377.125L158.265 377.183L157.009 377.125ZM167.626 423.774L168.733 423.178L167.626 423.774ZM200.755 458.394L201.4 457.315H201.4L200.755 458.394ZM247.017 471.182L247.019 469.925L247.017 471.182ZM293.313 458.517L292.672 457.436L293.313 458.517ZM337.277 377.364L338.532 377.309L337.277 377.364ZM322.496 331.854L323.545 331.161L323.538 331.15L322.496 331.854ZM316.228 311.284L314.971 311.28L316.228 311.284ZM322.622 290.752L321.593 290.03L321.589 290.036L321.585 290.041L322.622 290.752ZM323.439 289.587L324.468 290.309L324.469 290.307L323.439 289.587ZM339.958 276.513L339.493 275.345L339.958 276.513ZM358.231 274.203L358.526 272.981L358.459 272.965L358.391 272.956L358.231 274.203ZM371.464 276.474L371.622 275.227L371.608 275.225L371.593 275.223L371.464 276.474ZM371.669 276.5L371.51 277.747L371.589 277.757H371.669V276.5ZM371.719 276.5L371.845 275.249L371.782 275.243H371.719V276.5ZM373.812 276.689L373.924 275.437L373.912 275.436L373.812 276.689ZM374.773 276.775L374.661 278.027L374.678 278.029L374.695 278.03L374.773 276.775ZM376.973 276.913L377.131 275.666L377.091 275.661L377.052 275.659L376.973 276.913ZM384.389 277.013V278.27H384.412L384.436 278.269L384.389 277.013ZM386.752 276.926L386.799 278.182L386.818 278.181L386.837 278.18L386.752 276.926ZM388.977 276.775L389.062 278.029L389.076 278.028L389.089 278.027L388.977 276.775ZM390.096 276.675L390.208 277.927L390.215 277.926L390.223 277.926L390.096 276.675ZM391.597 276.522L391.473 275.271L391.47 275.272L391.597 276.522ZM391.82 276.5L391.96 275.251L391.826 275.236L391.693 275.249L391.82 276.5ZM392.145 276.5L392.286 277.749L392.299 277.747L392.145 276.5ZM394.269 276.237V274.98H394.191L394.114 274.989L394.269 276.237ZM394.558 276.237V277.494H394.638L394.718 277.483L394.558 276.237ZM396.87 275.886L396.683 274.643L396.675 274.644L396.667 274.646L396.87 275.886ZM396.871 275.886L397.057 277.129L397.069 277.127L397.08 277.126L396.871 275.886ZM400.957 275.093L400.698 273.863L400.689 273.865L400.957 275.093ZM402.61 274.73L402.344 273.501L402.337 273.503L402.33 273.505L402.61 274.73ZM402.766 274.696V273.439H402.632L402.501 273.468L402.766 274.696ZM402.829 274.696V275.953H402.977L403.121 275.919L402.829 274.696ZM404.693 274.231L404.386 273.011L404.375 273.014L404.693 274.231ZM449.744 246.655L448.79 245.836V245.836L449.744 246.655ZM458.692 234.272L457.623 233.61L457.619 233.617L457.615 233.624L458.692 234.272ZM469.435 208.822L470.655 209.126L470.656 209.121L469.435 208.822ZM470.491 203.988L471.725 204.226L471.727 204.219L470.491 203.988ZM470.78 202.36L469.544 202.134L469.542 202.146L469.54 202.157L470.78 202.36ZM471.044 200.707L469.803 200.506L469.801 200.521L469.799 200.536L471.044 200.707ZM471.484 197.401L470.235 197.261L470.234 197.274L471.484 197.401ZM471.568 196.597L472.819 196.723V196.723L471.568 196.597ZM471.66 195.722L470.411 195.58L471.66 195.722ZM471.811 194.044L470.558 193.949L470.558 193.949L471.811 194.044ZM471.851 193.561L470.598 193.455V193.455L471.851 193.561ZM471.937 192.028L470.684 191.928L470.68 191.978V192.028H471.937ZM472 185.19H470.743V185.238L470.746 185.285L472 185.19ZM472 183.8H473.257V183.774L473.256 183.748L472 183.8ZM471.786 180.206L470.532 180.292L470.533 180.306L471.786 180.206ZM471.597 178.039L472.848 177.914V177.914L471.597 178.039ZM471.411 176.426L470.164 176.579L470.164 176.579L471.411 176.426ZM471.333 175.785L470.085 175.933L471.333 175.785ZM471.019 173.568L469.776 173.754L469.778 173.766L469.78 173.779L471.019 173.568ZM470.769 172.039L469.53 172.251L469.53 172.252L470.769 172.039ZM470.73 171.815L469.49 172.022L469.491 172.027L470.73 171.815ZM470.516 170.675L469.269 170.826L469.274 170.875L469.284 170.923L470.516 170.675ZM470.454 170.312L469.22 170.554L469.224 170.571L469.227 170.588L470.454 170.312ZM470.102 168.596L468.852 168.729L468.859 168.8L468.875 168.87L470.102 168.596ZM470.026 168.271L468.795 168.524L468.814 168.615L468.845 168.701L470.026 168.271ZM469.611 166.43L468.39 166.727L468.39 166.728L469.611 166.43ZM445.849 124.082L446.74 123.195L445.849 124.082ZM403.545 100.054L403.851 98.8352L403.839 98.8322L403.545 100.054ZM401.823 99.6412L402.117 98.4189L402.116 98.4187L401.823 99.6412ZM401.443 99.562L401.209 100.797L401.209 100.797L401.443 99.562ZM400.868 99.4408L401.157 98.2174V98.2174L400.868 99.4408ZM399.984 99.2518L400.231 98.0195L400.231 98.0195L399.984 99.2518ZM399.435 99.1402L399.69 97.9093V97.9093L399.435 99.1402ZM397.424 98.7645L397.206 100.002L397.214 100.004L397.424 98.7645ZM393.15 98.1258L392.988 99.3723L392.998 99.3735L393.15 98.1258ZM386.74 97.5497L386.643 98.803L386.659 98.8042L386.674 98.805L386.74 97.5497ZM381.837 97.4245L381.836 98.6815H381.837V97.4245ZM347.294 104.24L346.815 103.078L347.294 104.24ZM298.454 152.902L297.293 152.42L297.293 152.42L298.454 152.902ZM298.278 153.327L299.422 153.85L299.432 153.827L299.442 153.803L298.278 153.327ZM272.216 177.199L272.499 178.424L272.216 177.199ZM231.084 179.03L231.118 177.773L231.104 177.773L231.084 179.03ZM229.401 179.003L229.367 180.26L229.374 180.26L229.381 180.26L229.401 179.003ZM209.23 172.184L209.966 171.165L209.23 172.184ZM198.587 160.045L197.389 160.423L197.424 160.537L197.481 160.641L198.587 160.045ZM175.495 122.635L174.619 123.536L175.495 122.635ZM168.663 116.631L167.874 117.61L167.882 117.616L168.663 116.631ZM168.38 116.403L169.165 115.422L169.165 115.422L168.38 116.403ZM124.397 97.5787L124.228 98.8244L124.397 97.5787ZM76.9165 104.039L76.4221 102.883V102.883L76.9165 104.039ZM40.5735 132.357L41.5704 133.123L41.5731 133.119L40.5735 132.357ZM25.2574 162.996L26.4682 163.333L25.2574 162.996ZM29.8199 223.834L28.6729 224.348H28.6729L29.8199 223.834ZM197.794 216.548L196.742 215.86L196.657 215.99L196.606 216.136L197.794 216.548ZM187.762 236.787L188.803 237.492L188.809 237.483L187.762 236.787ZM181.541 257.158L180.284 257.161L181.541 257.158ZM187.888 277.489L186.852 278.201L186.855 278.205L187.888 277.489ZM188.843 278.867L187.81 279.583L187.813 279.587L188.843 278.867ZM205.804 292.096L205.355 293.27L205.804 292.096ZM227.294 293.557L227.018 292.33L227.008 292.333L227.294 293.557ZM267.077 293.557L267.363 292.333L267.352 292.33L267.077 293.557ZM288.563 292.117L288.115 290.942L288.563 292.117ZM305.54 278.917L306.569 279.639L306.574 279.631L305.54 278.917ZM306.344 277.752L307.378 278.466L307.381 278.463L306.344 277.752ZM312.736 258.052L311.479 258.02L312.736 258.052ZM309.978 243.184L311.139 242.704L311.076 242.55L310.974 242.417L309.978 243.184ZM296.959 219.709L295.777 220.136L295.781 220.148L296.959 219.709ZM281.425 201.574L282.161 200.555L281.425 201.574ZM240.592 199.694L240.638 200.95L240.592 199.694ZM230.848 199.94L230.882 198.684L230.876 198.684L230.848 199.94ZM229.172 199.904L229.2 198.647L229.195 198.647L229.172 199.904ZM208.501 205.852L209.188 206.905L208.501 205.852ZM29.6516 226.459C29.6694 226.496 29.6872 226.533 29.705 226.57L31.9729 225.486C31.9556 225.449 31.9383 225.413 31.921 225.377L29.6516 226.459ZM29.705 226.57C36.8151 241.436 47.8211 254.082 61.5541 263.165L62.941 261.068C49.5882 252.236 38.8866 239.94 31.9729 225.486L29.705 226.57ZM61.5541 263.165C66.9491 266.733 72.6858 269.7 78.6614 272.03L79.5749 269.688C73.7646 267.422 68.1866 264.538 62.941 261.068L61.5541 263.165ZM132.797 273.548C115.022 277.719 96.4513 276.338 79.579 269.69L78.6574 272.029C96.0043 278.863 115.097 280.283 133.371 275.995L132.797 273.548ZM154.7 275.234C147.737 272.501 140.112 271.912 132.81 273.545L133.358 275.998C140.171 274.475 147.286 275.024 153.782 277.574L154.7 275.234ZM171.867 288.876C167.644 282.719 161.663 277.967 154.7 275.234L153.782 277.574C160.278 280.123 165.855 284.556 169.794 290.298L171.867 288.876ZM172.827 290.242L171.859 288.864L169.802 290.31L170.77 291.687L172.827 290.242ZM179.392 311.288C179.371 303.78 177.086 296.452 172.835 290.254L170.762 291.675C174.728 297.458 176.858 304.293 176.878 311.295L179.392 311.288ZM172.952 332.359C177.169 326.137 179.413 318.796 179.392 311.288L176.878 311.295C176.897 318.298 174.805 325.145 170.871 330.949L172.952 332.359ZM158.265 377.183C159.009 361.191 164.086 345.698 172.959 332.35L170.865 330.958C161.741 344.685 156.519 360.619 155.754 377.066L158.265 377.183ZM168.733 423.178C161.138 409.069 157.521 393.175 158.265 377.183L155.754 377.066C154.989 393.514 158.709 409.86 166.519 424.37L168.733 423.178ZM201.4 457.315C187.616 449.084 176.327 437.287 168.733 423.178L166.519 424.37C174.329 438.879 185.938 451.01 200.111 459.473L201.4 457.315ZM247.019 469.925C230.948 469.903 215.183 465.546 201.4 457.315L200.111 459.473C214.284 467.936 230.492 472.417 247.015 472.439L247.019 469.925ZM292.672 457.436C278.866 465.63 263.089 469.946 247.019 469.925L247.015 472.439C263.538 472.461 279.759 468.023 293.955 459.598L292.672 457.436ZM325.43 423.387C317.798 437.475 306.478 449.242 292.672 457.436L293.955 459.598C308.15 451.172 319.791 439.073 327.64 424.584L325.43 423.387ZM336.021 377.42C336.722 393.413 333.062 409.298 325.43 423.387L327.64 424.584C335.489 410.096 339.253 393.759 338.532 377.309L336.021 377.42ZM321.448 332.547C330.284 345.919 335.32 361.426 336.021 377.42L338.532 377.309C337.811 360.86 332.632 344.913 323.545 331.161L321.448 332.547ZM314.971 311.28C314.948 318.859 317.206 326.271 321.455 332.558L323.538 331.15C319.571 325.281 317.463 318.362 317.485 311.288L314.971 311.28ZM321.585 290.041C317.298 296.302 314.994 303.7 314.971 311.28L317.485 311.288C317.506 304.213 319.657 297.307 323.659 291.462L321.585 290.041ZM322.41 288.865L321.593 290.03L323.651 291.473L324.468 290.309L322.41 288.865ZM339.493 275.345C332.593 278.089 326.653 282.79 322.408 288.867L324.469 290.307C328.432 284.634 333.978 280.243 340.422 277.681L339.493 275.345ZM358.391 272.956C352.006 272.141 345.501 272.955 339.493 275.345L340.422 277.681C346.033 275.449 352.109 274.688 358.072 275.45L358.391 272.956ZM357.937 275.425C362.364 276.491 366.837 277.258 371.334 277.724L371.593 275.223C367.208 274.769 362.844 274.021 358.526 272.981L357.937 275.425ZM371.827 275.253L371.622 275.227L371.305 277.721L371.51 277.747L371.827 275.253ZM371.719 275.243H371.669V277.757H371.719V275.243ZM371.592 277.75C372.298 277.822 373.005 277.886 373.712 277.942L373.912 275.436C373.223 275.381 372.534 275.319 371.845 275.249L371.592 277.75ZM374.886 275.523L373.924 275.437L373.7 277.941L374.661 278.027L374.886 275.523ZM377.052 275.659L374.852 275.521L374.695 278.03L376.895 278.168L377.052 275.659ZM379.361 275.756C378.543 275.756 377.831 275.755 377.131 275.666L376.815 278.16C377.699 278.272 378.57 278.27 379.361 278.27V275.756ZM379.361 275.756H379.361V278.27H379.361V275.756ZM381.875 275.756H379.361V278.27H381.875V275.756ZM384.389 275.756H381.875V278.27H384.389V275.756ZM386.706 275.669L384.343 275.757L384.436 278.269L386.799 278.182L386.706 275.669ZM388.892 275.521L386.668 275.671L386.837 278.18L389.062 278.029L388.892 275.521ZM389.984 275.423L388.865 275.523L389.089 278.027L390.208 277.927L389.984 275.423ZM391.47 275.272L389.968 275.425L390.223 277.926L391.724 277.773L391.47 275.272ZM391.721 277.773C391.796 277.766 391.871 277.758 391.946 277.751L391.693 275.249C391.62 275.257 391.547 275.264 391.473 275.271L391.721 277.773ZM392.003 275.251C391.989 275.252 391.974 275.252 391.96 275.251L391.679 277.749C391.881 277.772 392.085 277.772 392.286 277.749L392.003 275.251ZM394.114 274.989L391.99 275.252L392.299 277.747L394.423 277.484L394.114 274.989ZM394.558 274.98H394.269V277.494H394.558V274.98ZM396.667 274.646C395.898 274.771 395.152 274.893 394.398 274.99L394.718 277.483C395.522 277.38 396.309 277.251 397.073 277.127L396.667 274.646ZM396.684 274.643L396.683 274.643L397.056 277.129L397.057 277.129L396.684 274.643ZM400.689 273.865C399.359 274.156 398.014 274.419 396.662 274.647L397.08 277.126C398.475 276.89 399.859 276.619 401.226 276.321L400.689 273.865ZM401.216 276.323C401.776 276.205 402.334 276.082 402.889 275.956L402.33 273.505C401.788 273.628 401.244 273.748 400.698 273.863L401.216 276.323ZM402.501 273.468L402.344 273.501L402.875 275.959L403.031 275.925L402.501 273.468ZM402.829 273.439H402.766V275.953H402.829V273.439ZM404.375 273.014C403.765 273.174 403.152 273.327 402.537 273.474L403.121 275.919C403.753 275.768 404.383 275.611 405.011 275.447L404.375 273.014ZM404.999 275.45C422.847 270.962 438.459 261.712 450.697 247.475L448.79 245.836C436.909 259.659 421.758 268.644 404.387 273.012L404.999 275.45ZM450.697 247.475C454.087 243.53 457.118 239.328 459.769 234.919L457.615 233.624C455.036 237.912 452.088 241.999 448.79 245.836L450.697 247.475ZM468.216 208.518C466.006 217.383 462.431 225.846 457.623 233.61L459.76 234.933C464.705 226.949 468.382 218.244 470.655 209.126L468.216 208.518ZM469.257 203.75C468.947 205.358 468.599 206.954 468.215 208.523L470.656 209.121C471.051 207.51 471.407 205.874 471.725 204.226L469.257 203.75ZM469.54 202.157C469.454 202.681 469.356 203.221 469.256 203.757L471.727 204.219C471.828 203.678 471.931 203.116 472.021 202.563L469.54 202.157ZM469.799 200.536C469.726 201.069 469.641 201.601 469.544 202.134L472.017 202.586C472.121 202.016 472.212 201.447 472.29 200.877L469.799 200.536ZM470.234 197.274C470.124 198.36 469.976 199.437 469.803 200.506L472.285 200.907C472.464 199.798 472.619 198.671 472.735 197.527L470.234 197.274ZM470.318 196.471C470.291 196.739 470.264 197.001 470.235 197.261L472.734 197.54C472.764 197.264 472.792 196.989 472.819 196.723L470.318 196.471ZM470.411 195.58C470.377 195.878 470.347 196.179 470.318 196.471L472.819 196.723C472.849 196.428 472.877 196.144 472.909 195.865L470.411 195.58ZM470.558 193.949C470.508 194.61 470.471 195.054 470.411 195.58L472.909 195.865C472.975 195.289 473.014 194.805 473.064 194.139L470.558 193.949ZM470.598 193.455C470.585 193.616 470.57 193.782 470.558 193.949L473.064 194.139C473.076 193.985 473.089 193.829 473.103 193.666L470.598 193.455ZM470.68 192.028C470.68 192.479 470.642 192.939 470.598 193.455L473.103 193.666C473.145 193.168 473.194 192.603 473.194 192.028H470.68ZM470.806 187.245C470.806 188.857 470.805 190.409 470.684 191.928L473.19 192.128C473.32 190.492 473.319 188.839 473.319 187.245H470.806ZM470.806 187.244V187.245H473.319V187.244H470.806ZM470.746 185.285C470.793 185.902 470.806 186.567 470.806 187.244H473.319C473.319 186.543 473.307 185.805 473.253 185.095L470.746 185.285ZM470.743 183.8V185.19H473.257V183.8H470.743ZM470.533 180.306C470.632 181.539 470.694 182.649 470.744 183.852L473.256 183.748C473.205 182.521 473.141 181.377 473.039 180.105L470.533 180.306ZM470.347 178.165C470.421 178.909 470.483 179.584 470.532 180.292L473.04 180.119C472.988 179.375 472.924 178.672 472.848 177.914L470.347 178.165ZM470.164 176.579C470.23 177.116 470.295 177.645 470.347 178.165L472.848 177.914C472.793 177.361 472.724 176.805 472.659 176.273L470.164 176.579ZM470.085 175.933C470.111 176.148 470.137 176.364 470.164 176.579L472.659 176.273C472.633 176.057 472.607 175.845 472.582 175.636L470.085 175.933ZM469.78 173.779C469.901 174.491 469.999 175.208 470.085 175.933L472.582 175.636C472.492 174.884 472.389 174.123 472.258 173.357L469.78 173.779ZM469.53 172.252C469.618 172.765 469.702 173.256 469.776 173.754L472.262 173.382C472.183 172.853 472.095 172.336 472.007 171.827L469.53 172.252ZM469.491 172.027L469.53 172.251L472.007 171.827L471.969 171.603L469.491 172.027ZM469.284 170.923C469.359 171.295 469.431 171.667 469.49 172.022L471.97 171.607C471.904 171.211 471.825 170.807 471.749 170.428L469.284 170.923ZM469.227 170.588C469.245 170.667 469.259 170.747 469.269 170.826L471.764 170.524C471.744 170.359 471.716 170.196 471.68 170.036L469.227 170.588ZM468.875 168.87C468.996 169.415 469.106 169.975 469.22 170.554L471.687 170.07C471.574 169.496 471.458 168.905 471.328 168.323L468.875 168.87ZM468.845 168.701C468.849 168.71 468.851 168.719 468.852 168.729L471.352 168.464C471.329 168.251 471.28 168.041 471.207 167.84L468.845 168.701ZM468.39 166.728C468.538 167.331 468.673 167.93 468.795 168.524L471.257 168.017C471.128 167.392 470.987 166.764 470.833 166.132L468.39 166.728ZM444.958 124.969C456.44 136.503 464.541 150.942 468.39 166.727L470.833 166.132C466.875 149.901 458.544 135.054 446.74 123.195L444.958 124.969ZM403.239 101.274C419.052 105.24 433.477 113.434 444.958 124.969L446.74 123.195C434.936 111.336 420.106 102.913 403.851 98.8353L403.239 101.274ZM401.53 100.863L403.252 101.277L403.839 98.8322L402.117 98.4189L401.53 100.863ZM401.209 100.797C401.334 100.821 401.419 100.837 401.531 100.864L402.116 98.4187C401.94 98.3768 401.802 98.3508 401.678 98.3271L401.209 100.797ZM400.579 100.664C400.866 100.732 401.054 100.768 401.209 100.797L401.678 98.3271C401.535 98.3 401.389 98.2724 401.157 98.2174L400.579 100.664ZM399.736 100.484C400.061 100.549 400.279 100.593 400.579 100.664L401.157 98.2174C400.811 98.136 400.556 98.0847 400.231 98.0195L399.736 100.484ZM399.18 100.371C399.4 100.417 399.58 100.453 399.736 100.484L400.231 98.0195C400.075 97.9881 399.902 97.9532 399.69 97.9093L399.18 100.371ZM397.214 100.004C397.868 100.115 398.532 100.237 399.18 100.371L399.69 97.9093C399.006 97.7679 398.312 97.6399 397.634 97.5252L397.214 100.004ZM392.998 99.3735C394.408 99.5461 395.806 99.7557 397.206 100.002L397.642 97.5267C396.201 97.2724 394.758 97.0562 393.303 96.8782L392.998 99.3735ZM386.674 98.805C388.807 98.9162 390.911 99.1013 392.988 99.3722L393.313 96.8794C391.166 96.5993 388.997 96.4087 386.805 96.2945L386.674 98.805ZM381.837 98.6815C383.492 98.6815 385.078 98.6821 386.643 98.803L386.836 96.2965C385.158 96.1669 383.476 96.1675 381.837 96.1675V98.6815ZM347.773 105.403C358.573 100.952 370.149 98.6685 381.836 98.6815L381.839 96.1675C369.822 96.1542 357.92 98.5025 346.815 103.078L347.773 105.403ZM318.896 124.615C327.16 116.382 336.973 109.853 347.773 105.403L346.815 103.078C335.71 107.654 325.62 114.367 317.122 122.834L318.896 124.615ZM299.614 153.384C304.081 142.625 310.633 132.848 318.896 124.615L317.122 122.834C308.624 131.301 301.886 141.355 297.293 152.42L299.614 153.384ZM299.442 153.803C299.499 153.664 299.557 153.524 299.615 153.384L297.293 152.42C297.233 152.564 297.174 152.708 297.115 152.851L299.442 153.803ZM297.135 152.805C296.438 154.33 294.951 156.458 292.926 158.864C290.92 161.249 288.448 163.836 285.85 166.269C283.251 168.703 280.545 170.965 278.074 172.71C275.566 174.482 273.426 175.63 271.934 175.974L272.499 178.424C274.497 177.963 276.974 176.566 279.525 174.764C282.113 172.935 284.909 170.594 287.568 168.104C290.229 165.612 292.771 162.954 294.85 160.483C296.91 158.033 298.578 155.694 299.422 153.85L297.135 152.805ZM271.934 175.974C268.169 176.843 259.823 177.35 251.384 177.607C242.996 177.863 234.693 177.87 231.118 177.773L231.05 180.286C234.687 180.384 243.04 180.377 251.461 180.12C259.83 179.865 268.444 179.359 272.499 178.424L271.934 175.974ZM231.104 177.773L229.42 177.747L229.381 180.26L231.064 180.287L231.104 177.773ZM229.434 177.747C222.426 177.558 215.643 175.264 209.966 171.165L208.494 173.203C214.581 177.599 221.853 180.057 229.367 180.26L229.434 177.747ZM209.966 171.165C205.685 168.074 202.18 164.062 199.694 159.448L197.481 160.641C200.147 165.587 203.904 169.888 208.494 173.203L209.966 171.165ZM174.619 123.536C185.213 133.835 192.997 146.53 197.389 160.423L199.786 159.666C195.269 145.378 187.264 132.324 176.372 121.734L174.619 123.536ZM167.882 117.616C170.218 119.469 172.467 121.443 174.619 123.536L176.372 121.734C174.158 119.582 171.846 117.551 169.444 115.647L167.882 117.616ZM169.453 115.653C169.357 115.576 169.261 115.499 169.165 115.422L167.594 117.385C167.688 117.46 167.781 117.535 167.874 117.61L169.453 115.653ZM169.165 115.422C156.307 105.137 140.894 98.5407 124.565 96.3331L124.228 98.8244C140.107 100.971 155.092 107.385 167.594 117.385L169.165 115.422ZM124.565 96.3331C108.235 94.1255 91.5989 96.3891 76.4221 102.883L77.411 105.194C92.1711 98.8787 108.35 96.6777 124.228 98.8244L124.565 96.3331ZM76.4221 102.883C61.8642 109.112 49.1707 119.01 39.574 131.595L41.5731 133.119C50.907 120.879 63.2528 111.252 77.411 105.194L76.4221 102.883ZM26.4682 163.333C29.5405 152.312 34.6946 142.073 41.5704 133.123L39.5767 131.591C32.5065 140.795 27.2061 151.324 24.0466 162.658L26.4682 163.333ZM30.9669 223.32C22.5092 204.454 20.9184 183.241 26.4682 163.333L24.0466 162.658C18.3392 183.132 19.9753 204.947 28.6729 224.348L30.9669 223.32ZM31.9198 225.375C31.5938 224.694 31.2761 224.009 30.9669 223.32L28.6729 224.348C28.9909 225.057 29.3176 225.762 29.6529 226.461L31.9198 225.375ZM196.606 216.136C194.179 223.127 190.868 229.836 186.715 236.092L188.809 237.483C193.08 231.049 196.485 224.15 198.981 216.96L196.606 216.136ZM186.721 236.082C182.504 242.307 180.261 249.651 180.284 257.161L182.798 257.154C182.776 250.149 184.868 243.299 188.803 237.492L186.721 236.082ZM180.284 257.161C180.307 264.672 182.596 272.002 186.852 278.201L188.924 276.778C184.954 270.995 182.82 264.158 182.798 257.154L180.284 257.161ZM186.855 278.205L187.81 279.583L189.876 278.15L188.921 276.773L186.855 278.205ZM187.813 279.587C192.155 285.795 198.266 290.561 205.355 293.27L206.252 290.921C199.632 288.392 193.926 283.941 189.873 278.146L187.813 279.587ZM205.355 293.27C212.445 295.978 220.186 296.505 227.579 294.781L227.008 292.333C220.104 293.943 212.873 293.451 206.252 290.921L205.355 293.27ZM227.569 294.783C240.484 291.884 253.886 291.884 266.801 294.783L267.352 292.33C254.074 289.35 240.296 289.35 227.018 292.33L227.569 294.783ZM266.79 294.781C274.18 296.509 281.919 295.99 289.01 293.291L288.115 290.942C281.493 293.463 274.264 293.947 267.363 292.333L266.79 294.781ZM289.01 293.291C296.1 290.593 302.217 285.837 306.568 279.639L304.511 278.195C300.449 283.981 294.738 288.421 288.115 290.942L289.01 293.291ZM306.574 279.631L307.378 278.466L305.31 277.038L304.505 278.202L306.574 279.631ZM307.381 278.463C311.509 272.447 313.805 265.371 313.992 258.084L311.479 258.02C311.305 264.82 309.162 271.425 305.308 277.041L307.381 278.463ZM313.992 258.084C314.128 252.793 313.147 247.556 311.139 242.704L308.816 243.665C310.691 248.194 311.606 253.082 311.479 258.02L313.992 258.084ZM295.781 220.148C298.991 228.765 303.457 236.777 308.982 243.951L310.974 242.417C305.601 235.441 301.259 227.65 298.137 219.27L295.781 220.148ZM280.69 202.594C283.568 204.671 286.765 207.438 289.539 210.514C292.322 213.601 294.618 216.933 295.777 220.136L298.141 219.281C296.828 215.652 294.3 212.04 291.406 208.83C288.501 205.609 285.168 202.725 282.161 200.555L280.69 202.594ZM240.638 200.95C247.564 200.696 256.623 200.364 264.505 200.495C268.448 200.56 272.065 200.741 274.956 201.1C276.402 201.279 277.641 201.5 278.636 201.764C279.653 202.034 280.318 202.325 280.69 202.594L282.161 200.555C281.418 200.019 280.404 199.633 279.281 199.335C278.137 199.031 276.776 198.792 275.266 198.605C272.245 198.23 268.526 198.047 264.547 197.981C256.586 197.849 247.458 198.184 240.546 198.438L240.638 200.95ZM230.815 201.197C232.63 201.245 236.227 201.112 240.638 200.95L240.546 198.438C236.082 198.602 232.594 198.729 230.882 198.684L230.815 201.197ZM229.145 201.16L230.821 201.197L230.876 198.684L229.2 198.647L229.145 201.16ZM209.188 206.905C215.125 203.035 222.079 201.034 229.15 201.16L229.195 198.647C221.62 198.511 214.173 200.655 207.815 204.799L209.188 206.905ZM198.846 217.236C201.528 213.132 205.044 209.607 209.188 206.905L207.815 204.799C203.378 207.692 199.614 211.466 196.742 215.86L198.846 217.236Z" fill="#F4F4F6" mask="url(#path-16-inside-1_33458_288979)"/>
<path d="M247.403 491.782C308.77 491.782 358.519 442.216 358.519 381.074C358.519 319.931 308.77 270.365 247.403 270.365C186.035 270.365 136.287 319.931 136.287 381.074C136.287 442.216 186.035 491.782 247.403 491.782Z" stroke="#FF8800" stroke-width="1.15641" stroke-miterlimit="10"/>
<g filter="url(#filter7_f_33458_288979)">
<path d="M111.623 265.343C155.046 265.343 190.246 230.271 190.246 187.008C190.246 143.744 155.046 108.672 111.623 108.672C68.2008 108.672 33 143.744 33 187.008C33 230.271 68.2008 265.343 111.623 265.343Z" fill="#CCCCCC"/>
<path d="M189.618 187.008C189.618 229.922 154.701 264.714 111.623 264.714C68.5457 264.714 33.6285 229.922 33.6285 187.008C33.6285 144.094 68.5457 109.301 111.623 109.301C154.701 109.301 189.618 144.094 189.618 187.008Z" stroke="#F4F4F6" stroke-width="1.25697"/>
</g>
<g filter="url(#filter8_f_33458_288979)">
<path d="M246.623 459.438C290.046 459.438 325.246 424.366 325.246 381.102C325.246 337.839 290.046 302.767 246.623 302.767C203.201 302.767 168 337.839 168 381.102C168 424.366 203.201 459.438 246.623 459.438Z" fill="#CCCCCC"/>
<path d="M324.618 381.102C324.618 424.017 289.701 458.809 246.623 458.809C203.546 458.809 168.628 424.017 168.628 381.102C168.628 338.188 203.546 303.396 246.623 303.396C289.701 303.396 324.618 338.188 324.618 381.102Z" stroke="#F4F4F6" stroke-width="1.25697"/>
</g>
<path d="M223.231 186.482C223.231 125.339 173.483 75.7735 112.116 75.7735C50.7482 75.7735 0.999992 125.339 0.999995 186.482C0.999998 247.625 50.7482 297.191 112.116 297.191C173.483 297.191 223.231 247.625 223.231 186.482Z" stroke="#34306A" stroke-width="1.15641" stroke-miterlimit="10"/>
<path d="M381.455 298.08C442.822 298.08 492.57 248.514 492.57 187.371C492.57 126.228 442.822 76.6625 381.455 76.6625C320.087 76.6625 270.339 126.228 270.339 187.371C270.339 248.514 320.087 298.08 381.455 298.08Z" stroke="url(#paint0_linear_33458_288979)" stroke-width="1.15641" stroke-miterlimit="10"/>
<path d="M246.883 485.896C226.054 485.896 205.693 479.742 188.375 468.213C171.057 456.683 157.559 440.296 149.589 421.123C141.619 401.95 139.534 380.853 143.599 360.499C147.663 340.146 157.694 321.45 172.423 306.777C187.152 292.104 205.917 282.112 226.346 278.065C246.775 274.018 267.949 276.098 287.191 284.041C306.434 291.984 322.88 305.434 334.45 322.69C346.02 339.947 352.194 360.234 352.191 380.986C352.155 408.801 341.048 435.466 321.306 455.133C301.564 474.8 274.8 485.863 246.883 485.896ZM246.883 283.014C227.428 283.014 208.411 288.762 192.236 299.531C176.06 310.3 163.454 325.607 156.01 343.515C148.566 361.423 146.62 381.128 150.417 400.138C154.214 419.149 163.584 436.61 177.342 450.314C191.101 464.019 208.628 473.35 227.71 477.128C246.791 480.907 266.568 478.962 284.54 471.541C302.512 464.12 317.872 451.556 328.676 435.437C339.481 419.318 345.245 400.369 345.24 380.986C345.214 355.003 334.843 330.093 316.403 311.721C297.963 293.348 272.961 283.015 246.883 282.989V283.014Z" fill="#FF8800"/>
<path d="M112.236 291.93C91.4083 291.93 71.048 285.777 53.73 274.248C36.4121 262.719 22.9145 246.332 14.9439 227.16C6.97336 207.988 4.8879 186.891 8.95126 166.538C13.0146 146.185 23.0443 127.49 37.7719 112.816C52.4996 98.1421 71.2638 88.1492 91.6917 84.1007C112.12 80.0522 133.294 82.1301 152.536 90.0714C171.779 98.0128 188.226 111.461 199.797 128.715C211.369 145.97 217.545 166.256 217.545 187.008C217.515 214.826 206.41 241.496 186.668 261.166C166.925 280.837 140.157 291.901 112.236 291.93V291.93ZM112.236 89.0478C92.7856 89.0478 73.7716 94.7945 57.5988 105.561C41.4261 116.328 28.8209 131.631 21.3774 149.535C13.9339 167.44 11.9864 187.141 15.781 206.148C19.5757 225.156 28.9422 242.615 42.6959 256.318C56.4497 270.022 73.9731 279.354 93.0502 283.135C112.127 286.915 131.901 284.975 149.871 277.559C167.842 270.143 183.201 257.584 194.007 241.47C204.814 225.356 210.581 206.412 210.581 187.033C210.558 161.05 200.19 136.138 181.753 117.764C163.315 99.389 138.314 89.0526 112.236 89.0227V89.0478Z" fill="url(#paint1_linear_33458_288979)"/>
<path d="M381.53 291.93C360.703 291.928 340.344 285.772 323.028 274.242C305.711 262.711 292.216 246.323 284.247 227.151C276.278 207.979 274.195 186.883 278.259 166.53C282.324 146.178 292.355 127.484 307.083 112.811C321.811 98.1389 340.575 88.1472 361.003 84.0998C381.43 80.0523 402.604 82.1309 421.846 90.0726C441.088 98.0143 457.534 111.463 469.105 128.717C480.676 145.971 486.852 166.256 486.852 187.008C486.818 214.827 475.711 241.497 455.966 261.167C436.222 280.837 409.452 291.901 381.53 291.93ZM381.53 89.0478C362.08 89.0502 343.067 94.7991 326.896 105.567C310.725 116.335 298.122 131.639 290.68 149.544C283.239 167.449 281.293 187.15 285.089 206.156C288.885 225.163 298.253 242.621 312.007 256.323C325.761 270.025 343.285 279.356 362.361 283.136C381.438 286.915 401.211 284.974 419.181 277.558C437.15 270.141 452.509 257.582 463.315 241.469C474.12 225.355 479.888 206.412 479.888 187.033C479.865 161.048 469.495 136.134 451.055 117.759C432.615 99.3842 407.61 89.0493 381.53 89.0227V89.0478Z" fill="url(#paint2_linear_33458_288979)"/>
<path d="M247.625 158.066C247.625 159.507 247.196 160.917 246.392 162.115C245.588 163.314 244.446 164.248 243.109 164.8C241.772 165.351 240.302 165.496 238.883 165.214C237.463 164.933 236.16 164.239 235.137 163.22C234.114 162.2 233.417 160.902 233.135 159.488C232.852 158.074 232.997 156.608 233.551 155.276C234.105 153.945 235.042 152.806 236.245 152.005C237.448 151.204 238.863 150.777 240.31 150.777C242.249 150.78 244.108 151.549 245.479 152.915C246.85 154.282 247.622 156.134 247.625 158.066Z" stroke="white" stroke-width="0.703901" stroke-linecap="round" stroke-linejoin="round"/>
<path d="M118.931 338.514C122.128 338.514 124.719 335.932 124.719 332.747C124.719 329.562 122.128 326.981 118.931 326.981C115.735 326.981 113.144 329.562 113.144 332.747C113.144 335.932 115.735 338.514 118.931 338.514Z" stroke="white" stroke-width="0.560104" stroke-linecap="round" stroke-linejoin="round"/>
<path d="M190.618 187.257C190.618 230.171 155.701 264.963 112.623 264.963C69.5457 264.963 34.6285 230.171 34.6285 187.257C34.6285 144.343 69.5457 109.55 112.623 109.55C155.701 109.55 190.618 144.343 190.618 187.257Z" fill="white" stroke="#F4F4F6" stroke-width="1.25697"/>
<path d="M182.367 206.559C193.204 167.966 170.588 127.927 131.854 117.13C93.1189 106.333 52.9332 128.866 42.0964 167.459C31.2596 206.052 53.8753 246.09 92.6101 256.887C131.345 267.685 171.531 245.152 182.367 206.559Z" stroke="#34306A" stroke-width="1.15641" stroke-miterlimit="10"/>
<path d="M324.618 381.257C324.618 424.171 289.701 458.963 246.623 458.963C203.546 458.963 168.628 424.171 168.628 381.257C168.628 338.343 203.546 303.55 246.623 303.55C289.701 303.55 324.618 338.343 324.618 381.257Z" fill="white" stroke="#F4F4F6" stroke-width="1.25697"/>
<path d="M246.883 453.535C232.479 453.535 218.397 449.279 206.421 441.305C194.444 433.331 185.109 421.998 179.597 408.738C174.085 395.479 172.644 380.888 175.455 366.812C178.266 352.736 185.204 339.807 195.39 329.66C205.577 319.512 218.555 312.602 232.683 309.804C246.811 307.006 261.455 308.444 274.762 313.938C288.07 319.432 299.443 328.735 307.444 340.669C315.445 352.603 319.714 366.634 319.712 380.986C319.689 400.222 312.008 418.664 298.354 432.265C284.701 445.866 266.19 453.515 246.883 453.535V453.535Z" stroke="#FF8800" stroke-width="1.15641" stroke-miterlimit="10"/>
<g filter="url(#filter9_f_33458_288979)">
<path d="M381.528 265.343C424.951 265.343 460.152 230.271 460.152 187.008C460.152 143.744 424.951 108.672 381.528 108.672C338.106 108.672 302.905 143.744 302.905 187.008C302.905 230.271 338.106 265.343 381.528 265.343Z" fill="#CCCCCC"/>
<path d="M459.523 187.008C459.523 229.922 424.606 264.714 381.528 264.714C338.451 264.714 303.534 229.922 303.534 187.008C303.534 144.094 338.451 109.301 381.528 109.301C424.606 109.301 459.523 144.094 459.523 187.008Z" stroke="#F4F4F6" stroke-width="1.25697"/>
</g>
<path d="M459.618 187.335C459.618 230.249 424.701 265.042 381.623 265.042C338.546 265.042 303.628 230.249 303.628 187.335C303.628 144.421 338.546 109.628 381.623 109.628C424.701 109.628 459.618 144.421 459.618 187.335Z" fill="white" stroke="#F4F4F6" stroke-width="1.25697"/>
<path d="M454.165 192.113C456.992 152.137 426.758 117.447 386.635 114.631C346.512 111.814 311.695 141.938 308.868 181.914C306.042 221.889 336.276 256.579 376.398 259.396C416.521 262.212 451.339 232.088 454.165 192.113Z" stroke="url(#paint3_linear_33458_288979)" stroke-width="1.15641" stroke-miterlimit="10"/>
<path d="M197.982 372.921H205.804L206.781 369.123H201.742V367.619H204.701V363.82H201.742V362.326H206.283L205.707 358.517H197.982V372.921ZM207.665 372.921H211.425V366.798L216.864 372.921H218.661V358.517H214.901V364.865L209.345 358.517H207.665V372.921ZM219.438 362.16H222.377V372.921H226.137V362.16H229.076L228.695 358.517H219.818L219.438 362.16ZM229.96 372.921H237.783L238.759 369.123H233.72V367.619H236.679V363.82H233.72V362.326H238.261L237.685 358.517H229.96V372.921ZM239.76 372.921H243.52V366.984H243.559L246.098 372.921H250.336L247.583 366.681C248.885 365.815 249.536 364.637 249.536 363.146C249.536 361.649 249.099 360.503 248.227 359.708C247.355 358.914 246.18 358.517 244.702 358.517H239.76V372.921ZM243.52 361.72C244.256 361.72 244.816 361.86 245.2 362.14C245.584 362.42 245.776 362.873 245.776 363.498C245.776 364.129 245.584 364.585 245.2 364.865C244.816 365.145 244.256 365.285 243.52 365.285V361.72ZM251.045 372.921H254.804V369.123C255.761 369.123 256.618 369.025 257.373 368.83C258.128 368.634 258.776 368.328 259.316 367.912C259.856 367.488 260.273 366.942 260.566 366.271C260.859 365.6 261.006 364.796 261.006 363.859C261.006 362.166 260.582 360.854 259.736 359.923C258.89 358.986 257.646 358.517 256.006 358.517H251.045V372.921ZM254.804 361.925H255.527C256.126 361.925 256.562 362.091 256.836 362.423C257.109 362.755 257.246 363.182 257.246 363.703C257.246 364.223 257.109 364.65 256.836 364.982C256.562 365.314 256.126 365.48 255.527 365.48H254.804V361.925ZM262.329 372.921H266.089V366.984H266.128L268.667 372.921H272.905L270.151 366.681C271.453 365.815 272.104 364.637 272.104 363.146C272.104 361.649 271.668 360.503 270.796 359.708C269.923 358.914 268.748 358.517 267.27 358.517H262.329V372.921ZM266.089 361.72C266.824 361.72 267.384 361.86 267.768 362.14C268.153 362.42 268.345 362.873 268.345 363.498C268.345 364.129 268.153 364.585 267.768 364.865C267.384 365.145 266.824 365.285 266.089 365.285V361.72ZM273.418 372.921H277.178V358.517H273.418V372.921ZM285.64 358.439C285.269 358.361 284.823 358.296 284.302 358.244C283.781 358.192 283.316 358.166 282.906 358.166C281.89 358.166 281.07 358.354 280.445 358.732C279.82 359.11 279.361 359.565 279.068 360.099C278.775 360.633 278.583 361.128 278.491 361.583C278.407 362.033 278.365 362.414 278.365 362.726C278.365 363.227 278.42 363.683 278.531 364.093C278.648 364.497 278.797 364.848 278.98 365.148C279.169 365.447 279.364 365.705 279.566 365.919C279.768 366.134 280.028 366.388 280.347 366.681C280.731 367.039 281.008 367.335 281.177 367.57C281.353 367.804 281.441 368.074 281.441 368.38C281.441 368.725 281.333 368.996 281.118 369.191C280.91 369.386 280.633 369.484 280.288 369.484C280.074 369.484 279.829 369.461 279.556 369.416C279.283 369.363 278.931 369.279 278.501 369.162L278.609 373.146C278.713 373.146 278.905 373.166 279.185 373.205C279.68 373.257 280.087 373.283 280.406 373.283C281.193 373.283 281.906 373.214 282.544 373.078C283.182 372.947 283.758 372.71 284.273 372.365C284.787 372.013 285.191 371.515 285.484 370.871C285.777 370.226 285.923 369.403 285.923 368.4C285.923 367.866 285.858 367.397 285.728 366.994C285.604 366.583 285.441 366.235 285.24 365.949C285.044 365.662 284.839 365.418 284.624 365.216C284.409 365.008 284.136 364.777 283.804 364.523C283.394 364.204 283.091 363.931 282.896 363.703C282.7 363.475 282.603 363.201 282.603 362.882C282.603 362.479 282.73 362.186 282.984 362.003C283.238 361.815 283.579 361.72 284.009 361.72C284.217 361.72 284.494 361.769 284.839 361.867C285.191 361.958 285.458 362.082 285.64 362.238V358.439ZM287.295 372.921H295.118L296.094 369.123H291.055V367.619H294.014V363.82H291.055V362.326H295.596L295.02 358.517H287.295V372.921ZM194.681 389.72H195.58C195.756 389.72 195.912 389.727 196.049 389.74C196.192 389.753 196.338 389.802 196.488 389.886C196.644 389.964 196.774 390.088 196.879 390.257C196.989 390.42 197.045 390.641 197.045 390.921C197.045 391.201 196.993 391.429 196.888 391.605C196.791 391.774 196.664 391.898 196.508 391.976C196.358 392.048 196.208 392.093 196.058 392.113C195.915 392.132 195.756 392.142 195.58 392.142H194.681V389.72ZM190.922 400.921H196.341C197.181 400.921 197.897 400.788 198.49 400.521C199.082 400.254 199.551 399.912 199.896 399.496C200.248 399.072 200.498 398.636 200.648 398.187C200.804 397.731 200.883 397.302 200.883 396.898C200.883 396.41 200.814 395.973 200.677 395.589C200.547 395.199 200.378 394.876 200.17 394.623C199.961 394.369 199.769 394.18 199.593 394.056C199.424 393.926 199.239 393.802 199.037 393.685C198.985 393.659 198.952 393.636 198.939 393.617C198.965 393.604 198.985 393.591 198.998 393.578C199.226 393.46 199.424 393.343 199.593 393.226C199.769 393.102 199.955 392.923 200.15 392.689C200.345 392.455 200.502 392.158 200.619 391.8C200.743 391.442 200.804 391.016 200.804 390.521C200.804 389.375 200.45 388.421 199.74 387.66C199.037 386.898 198.005 386.517 196.644 386.517H190.922V400.921ZM194.681 395.14H195.521C195.918 395.14 196.27 395.231 196.576 395.414C196.888 395.589 197.045 395.912 197.045 396.38C197.045 396.712 196.94 397.018 196.732 397.298C196.524 397.578 196.159 397.718 195.638 397.718H194.681V395.14ZM202.206 400.921H210.028L211.005 397.123H205.966V386.517H202.206V400.921ZM226.088 393.724C226.088 392.695 225.893 391.722 225.502 390.804C225.118 389.88 224.581 389.069 223.891 388.373C223.207 387.669 222.413 387.126 221.508 386.742C220.609 386.358 219.669 386.166 218.686 386.166C217.696 386.166 216.752 386.358 215.854 386.742C214.955 387.126 214.161 387.669 213.471 388.373C212.787 389.069 212.25 389.88 211.859 390.804C211.475 391.722 211.283 392.695 211.283 393.724C211.283 394.746 211.475 395.72 211.859 396.644C212.25 397.562 212.787 398.373 213.471 399.076C214.161 399.772 214.955 400.316 215.854 400.707C216.752 401.091 217.696 401.283 218.686 401.283C219.669 401.283 220.609 401.091 221.508 400.707C222.413 400.316 223.207 399.772 223.891 399.076C224.581 398.373 225.118 397.562 225.502 396.644C225.893 395.72 226.088 394.746 226.088 393.724ZM222.24 393.724C222.24 394.199 222.149 394.662 221.967 395.111C221.791 395.56 221.537 395.957 221.205 396.302C220.873 396.647 220.489 396.917 220.053 397.113C219.617 397.308 219.161 397.406 218.686 397.406C218.204 397.406 217.745 397.311 217.309 397.123C216.879 396.934 216.501 396.67 216.176 396.332C215.85 395.993 215.593 395.596 215.404 395.14C215.216 394.684 215.121 394.212 215.121 393.724C215.121 393.216 215.216 392.741 215.404 392.298C215.593 391.849 215.85 391.455 216.176 391.117C216.501 390.772 216.879 390.508 217.309 390.326C217.745 390.137 218.204 390.042 218.686 390.042C219.161 390.042 219.617 390.14 220.053 390.335C220.489 390.524 220.873 390.794 221.205 391.146C221.537 391.491 221.791 391.888 221.967 392.337C222.149 392.78 222.24 393.242 222.24 393.724ZM236.161 396.703C235.921 396.891 235.621 397.028 235.263 397.113C234.911 397.197 234.557 397.24 234.199 397.24C233.756 397.24 233.326 397.168 232.909 397.025C232.499 396.875 232.135 396.651 231.816 396.351C231.497 396.052 231.243 395.671 231.054 395.208C230.872 394.74 230.781 394.19 230.781 393.558C230.781 392.588 231.1 391.787 231.738 391.156C232.376 390.518 233.183 390.199 234.159 390.199C234.452 390.199 234.788 390.248 235.165 390.345C235.549 390.436 235.826 390.554 235.995 390.697L235.741 386.322C235.566 386.27 235.309 386.231 234.97 386.205C234.638 386.179 234.28 386.166 233.896 386.166C232.88 386.166 231.936 386.354 231.064 386.732C230.191 387.11 229.43 387.643 228.779 388.333C228.134 389.017 227.639 389.815 227.294 390.726C226.949 391.631 226.777 392.582 226.777 393.578C226.777 394.645 226.936 395.648 227.255 396.585C227.574 397.516 228.043 398.337 228.661 399.046C229.286 399.75 230.038 400.3 230.917 400.697C231.796 401.087 232.776 401.283 233.857 401.283C234.521 401.283 235.175 401.201 235.82 401.039L236.161 396.703ZM237.543 400.921H241.303V393.343H241.342L244.467 400.921H248.666L245.483 393.246L248.52 386.517H244.301L241.342 392.884H241.303V386.517H237.543V400.921ZM258.359 396.703C258.118 396.891 257.819 397.028 257.461 397.113C257.109 397.197 256.754 397.24 256.396 397.24C255.953 397.24 255.524 397.168 255.107 397.025C254.697 396.875 254.332 396.651 254.013 396.351C253.694 396.052 253.44 395.671 253.252 395.208C253.069 394.74 252.978 394.19 252.978 393.558C252.978 392.588 253.297 391.787 253.935 391.156C254.573 390.518 255.381 390.199 256.357 390.199C256.65 390.199 256.985 390.248 257.363 390.345C257.747 390.436 258.024 390.554 258.193 390.697L257.939 386.322C257.763 386.27 257.506 386.231 257.168 386.205C256.836 386.179 256.478 386.166 256.093 386.166C255.078 386.166 254.134 386.354 253.261 386.732C252.389 387.11 251.627 387.643 250.976 388.333C250.332 389.017 249.837 389.815 249.492 390.726C249.147 391.631 248.974 392.582 248.974 393.578C248.974 394.645 249.134 395.648 249.453 396.585C249.772 397.516 250.241 398.337 250.859 399.046C251.484 399.75 252.236 400.3 253.115 400.697C253.994 401.087 254.974 401.283 256.054 401.283C256.718 401.283 257.373 401.201 258.017 401.039L258.359 396.703ZM259.624 400.921H263.384V395.443H266.509V400.921H270.268V386.517H266.509V391.566H263.384V386.517H259.624V400.921ZM271.025 400.921H275.088L275.606 399.32H280.566L281.084 400.921H285.147L280.303 386.517H276.065L271.025 400.921ZM279.443 395.765H276.768L278.066 391.761H278.106L279.443 395.765ZM285.825 400.921H289.585V386.517H285.825V400.921ZM291.27 400.921H295.03V394.798L300.469 400.921H302.266V386.517H298.506V392.865L292.95 386.517H291.27V400.921Z" fill="#FF8800"/>
<path d="M75.1707 182.72H76.0691C76.2449 182.72 76.4012 182.727 76.5379 182.74C76.6811 182.753 76.8276 182.802 76.9773 182.886C77.1336 182.964 77.2638 183.088 77.368 183.257C77.4786 183.42 77.534 183.641 77.534 183.921C77.534 184.201 77.4819 184.429 77.3777 184.605C77.2801 184.774 77.1531 184.898 76.9969 184.976C76.8471 185.048 76.6974 185.093 76.5477 185.113C76.4044 185.132 76.2449 185.142 76.0691 185.142H75.1707V182.72ZM71.4109 193.921H76.8309C77.6707 193.921 78.3868 193.788 78.9793 193.521C79.5717 193.254 80.0405 192.912 80.3855 192.496C80.7371 192.072 80.9878 191.636 81.1375 191.187C81.2938 190.731 81.3719 190.302 81.3719 189.898C81.3719 189.41 81.3035 188.973 81.1668 188.589C81.0366 188.199 80.8673 187.876 80.659 187.623C80.4507 187.369 80.2586 187.18 80.0828 187.056C79.9135 186.926 79.728 186.802 79.5262 186.685C79.4741 186.659 79.4415 186.636 79.4285 186.617C79.4546 186.604 79.4741 186.591 79.4871 186.578C79.715 186.46 79.9135 186.343 80.0828 186.226C80.2586 186.102 80.4441 185.923 80.6395 185.689C80.8348 185.455 80.991 185.158 81.1082 184.8C81.2319 184.442 81.2938 184.016 81.2938 183.521C81.2938 182.375 80.9389 181.421 80.2293 180.66C79.5262 179.898 78.4943 179.517 77.1336 179.517H71.4109V193.921ZM75.1707 188.14H76.0105C76.4077 188.14 76.7592 188.231 77.0652 188.414C77.3777 188.589 77.534 188.912 77.534 189.38C77.534 189.712 77.4298 190.018 77.2215 190.298C77.0132 190.578 76.6486 190.718 76.1277 190.718H75.1707V188.14ZM82.5 193.921H86.2598V179.517H82.5V193.921ZM99.7414 180.445C99.5396 180.295 99.2596 180.145 98.9016 179.996C98.55 179.839 98.1496 179.699 97.7004 179.576C97.2577 179.445 96.8182 179.345 96.382 179.273C95.9523 179.201 95.565 179.166 95.2199 179.166C94.0611 179.166 92.9934 179.351 92.0168 179.722C91.0467 180.093 90.2102 180.627 89.507 181.324C88.8104 182.014 88.2733 182.821 87.8957 183.746C87.5246 184.664 87.3391 185.656 87.3391 186.724C87.3391 187.922 87.5311 188.996 87.9152 189.947C88.3059 190.891 88.856 191.688 89.5656 192.339C90.2818 192.984 91.1184 193.469 92.0754 193.794C93.0389 194.12 94.0871 194.283 95.2199 194.283C95.9426 194.283 96.7661 194.211 97.6906 194.068C98.6151 193.931 99.3638 193.742 99.9367 193.501V186.519H96.177V190.103C95.9947 190.194 95.7798 190.269 95.5324 190.328C95.285 190.38 95.0604 190.406 94.8586 190.406C94.3508 190.406 93.8723 190.311 93.423 190.123C92.9803 189.934 92.5897 189.67 92.2512 189.332C91.9126 188.993 91.649 188.602 91.4602 188.16C91.2714 187.71 91.177 187.232 91.177 186.724C91.177 186.216 91.2714 185.741 91.4602 185.298C91.649 184.849 91.9126 184.455 92.2512 184.117C92.5897 183.772 92.9803 183.508 93.423 183.326C93.8723 183.137 94.3508 183.042 94.8586 183.042C95.4836 183.042 96.0565 183.127 96.5773 183.296C97.0982 183.459 97.606 183.72 98.1008 184.078L99.7414 180.445ZM105.748 193.921H108.726C109.807 193.921 110.793 193.739 111.685 193.375C112.577 193.003 113.345 192.486 113.99 191.822C114.641 191.158 115.139 190.383 115.484 189.498C115.836 188.606 116.011 187.655 116.011 186.646C116.011 185.774 115.868 184.914 115.582 184.068C115.295 183.222 114.862 182.457 114.283 181.773C113.71 181.083 112.99 180.536 112.125 180.132C111.259 179.722 110.272 179.517 109.166 179.517H105.748V193.921ZM109.507 183.326C110.028 183.378 110.464 183.511 110.816 183.726C111.168 183.934 111.441 184.198 111.636 184.517C111.832 184.83 111.968 185.158 112.046 185.503C112.125 185.848 112.164 186.213 112.164 186.597C112.164 186.936 112.134 187.268 112.076 187.593C112.017 187.919 111.897 188.238 111.714 188.55C111.539 188.863 111.265 189.143 110.894 189.39C110.53 189.638 110.067 189.8 109.507 189.878V183.326ZM116.29 193.921H120.352L120.87 192.32H125.831L126.348 193.921H130.411L125.567 179.517H121.329L116.29 193.921ZM124.708 188.765H122.032L123.331 184.761H123.37L124.708 188.765ZM130.172 183.16H133.111V193.921H136.871V183.16H139.811L139.43 179.517H130.553L130.172 183.16ZM139.581 193.921H143.644L144.161 192.32H149.122L149.64 193.921H153.702L148.859 179.517H144.62L139.581 193.921ZM147.999 188.765H145.323L146.622 184.761H146.661L147.999 188.765Z" fill="#34306A"/>
<path d="M334.773 179H338.836L339.353 177.398H344.314L344.832 179H348.894L344.05 164.596H339.812L334.773 179ZM343.191 173.844H340.515L341.814 169.84H341.853L343.191 173.844ZM349.768 179H353.528V173.062H353.567L356.106 179H360.345L357.591 172.76C358.893 171.894 359.544 170.715 359.544 169.225C359.544 167.727 359.108 166.581 358.235 165.787C357.363 164.993 356.188 164.596 354.71 164.596H349.768V179ZM353.528 167.799C354.264 167.799 354.824 167.939 355.208 168.219C355.592 168.499 355.784 168.951 355.784 169.576C355.784 170.208 355.592 170.663 355.208 170.943C354.824 171.223 354.264 171.363 353.528 171.363V167.799ZM359.939 168.238H362.879V179H366.639V168.238H369.578L369.197 164.596H360.32L359.939 168.238ZM370.267 179H374.027V164.596H370.267V179ZM375.829 179H379.588V173.697H382.547V169.898H379.588V168.404H384.129L383.553 164.596H375.829V179ZM384.32 179H388.08V164.596H384.32V179ZM398.671 174.781C398.43 174.97 398.13 175.107 397.772 175.191C397.421 175.276 397.066 175.318 396.708 175.318C396.265 175.318 395.835 175.247 395.419 175.104C395.009 174.954 394.644 174.729 394.325 174.43C394.006 174.13 393.752 173.749 393.563 173.287C393.381 172.818 393.29 172.268 393.29 171.637C393.29 170.667 393.609 169.866 394.247 169.234C394.885 168.596 395.692 168.277 396.669 168.277C396.962 168.277 397.297 168.326 397.675 168.424C398.059 168.515 398.335 168.632 398.505 168.775L398.251 164.4C398.075 164.348 397.818 164.309 397.479 164.283C397.147 164.257 396.789 164.244 396.405 164.244C395.389 164.244 394.445 164.433 393.573 164.811C392.701 165.188 391.939 165.722 391.288 166.412C390.643 167.096 390.149 167.893 389.804 168.805C389.458 169.71 389.286 170.66 389.286 171.656C389.286 172.724 389.445 173.727 389.764 174.664C390.083 175.595 390.552 176.415 391.171 177.125C391.796 177.828 392.548 178.378 393.427 178.775C394.305 179.166 395.285 179.361 396.366 179.361C397.03 179.361 397.684 179.28 398.329 179.117L398.671 174.781ZM399.857 179H403.617V164.596H399.857V179ZM404.306 179H408.368L408.886 177.398H413.847L414.364 179H418.427L413.583 164.596H409.345L404.306 179ZM412.724 173.844H410.048L411.347 169.84H411.386L412.724 173.844ZM419.301 179H427.123L428.1 175.201H423.061V164.596H419.301V179ZM322.932 210H326.692V195.596H322.932V210ZM328.377 210H332.136V203.877L337.576 210H339.373V195.596H335.613V201.943L330.056 195.596H328.377V210ZM340.149 199.238H343.089V210H346.848V199.238H349.788L349.407 195.596H340.53L340.149 199.238ZM350.672 210H358.494L359.471 206.201H354.432V204.697H357.391V200.898H354.432V199.404H358.973L358.396 195.596H350.672V210ZM360.472 210H368.294L369.271 206.201H364.232V195.596H360.472V210ZM370.272 210H378.094L379.071 206.201H374.032V195.596H370.272V210ZM379.877 210H383.636V195.596H379.877V210ZM397.118 196.523C396.916 196.374 396.636 196.224 396.278 196.074C395.927 195.918 395.526 195.778 395.077 195.654C394.634 195.524 394.195 195.423 393.759 195.352C393.329 195.28 392.942 195.244 392.596 195.244C391.438 195.244 390.37 195.43 389.393 195.801C388.423 196.172 387.587 196.706 386.884 197.402C386.187 198.092 385.65 198.9 385.272 199.824C384.901 200.742 384.716 201.735 384.716 202.803C384.716 204.001 384.908 205.075 385.292 206.025C385.682 206.969 386.233 207.767 386.942 208.418C387.658 209.062 388.495 209.548 389.452 209.873C390.415 210.199 391.464 210.361 392.596 210.361C393.319 210.361 394.143 210.29 395.067 210.146C395.992 210.01 396.74 209.821 397.313 209.58V202.598H393.554V206.182C393.371 206.273 393.156 206.348 392.909 206.406C392.662 206.458 392.437 206.484 392.235 206.484C391.727 206.484 391.249 206.39 390.8 206.201C390.357 206.012 389.966 205.749 389.628 205.41C389.289 205.072 389.026 204.681 388.837 204.238C388.648 203.789 388.554 203.311 388.554 202.803C388.554 202.295 388.648 201.82 388.837 201.377C389.026 200.928 389.289 200.534 389.628 200.195C389.966 199.85 390.357 199.587 390.8 199.404C391.249 199.215 391.727 199.121 392.235 199.121C392.86 199.121 393.433 199.206 393.954 199.375C394.475 199.538 394.983 199.798 395.477 200.156L397.118 196.523ZM399.32 210H407.143L408.119 206.201H403.08V204.697H406.039V200.898H403.08V199.404H407.621L407.045 195.596H399.32V210ZM409.003 210H412.763V203.877L418.202 210H419.999V195.596H416.239V201.943L410.683 195.596H409.003V210ZM430.678 205.781C430.437 205.97 430.138 206.107 429.78 206.191C429.428 206.276 429.073 206.318 428.715 206.318C428.273 206.318 427.843 206.247 427.426 206.104C427.016 205.954 426.651 205.729 426.332 205.43C426.013 205.13 425.76 204.749 425.571 204.287C425.388 203.818 425.297 203.268 425.297 202.637C425.297 201.667 425.616 200.866 426.254 200.234C426.892 199.596 427.7 199.277 428.676 199.277C428.969 199.277 429.304 199.326 429.682 199.424C430.066 199.515 430.343 199.632 430.512 199.775L430.258 195.4C430.082 195.348 429.825 195.309 429.487 195.283C429.155 195.257 428.797 195.244 428.412 195.244C427.397 195.244 426.453 195.433 425.58 195.811C424.708 196.188 423.946 196.722 423.295 197.412C422.651 198.096 422.156 198.893 421.811 199.805C421.466 200.71 421.293 201.66 421.293 202.656C421.293 203.724 421.453 204.727 421.772 205.664C422.091 206.595 422.56 207.415 423.178 208.125C423.803 208.828 424.555 209.378 425.434 209.775C426.313 210.166 427.293 210.361 428.373 210.361C429.037 210.361 429.692 210.28 430.336 210.117L430.678 205.781ZM432.06 210H439.882L440.859 206.201H435.82V204.697H438.779V200.898H435.82V199.404H440.361L439.785 195.596H432.06V210Z" fill="url(#paint4_linear_33458_288979)"/>
<defs>
<filter id="filter0_f_33458_288979" x="113.695" y="15.0135" width="41.8848" height="41.9645" filterUnits="userSpaceOnUse" color-interpolation-filters="sRGB">
<feFlood flood-opacity="0" result="BackgroundImageFix"/>
<feBlend mode="normal" in="SourceGraphic" in2="BackgroundImageFix" result="shape"/>
<feGaussianBlur stdDeviation="2" result="effect1_foregroundBlur_33458_288979"/>
</filter>
<filter id="filter1_f_33458_288979" x="509.539" y="131.253" width="41.8848" height="41.9645" filterUnits="userSpaceOnUse" color-interpolation-filters="sRGB">
<feFlood flood-opacity="0" result="BackgroundImageFix"/>
<feBlend mode="normal" in="SourceGraphic" in2="BackgroundImageFix" result="shape"/>
<feGaussianBlur stdDeviation="2" result="effect1_foregroundBlur_33458_288979"/>
</filter>
<filter id="filter2_f_33458_288979" x="360.382" y="392.135" width="35.0283" height="35.0917" filterUnits="userSpaceOnUse" color-interpolation-filters="sRGB">
<feFlood flood-opacity="0" result="BackgroundImageFix"/>
<feBlend mode="normal" in="SourceGraphic" in2="BackgroundImageFix" result="shape"/>
<feGaussianBlur stdDeviation="2" result="effect1_foregroundBlur_33458_288979"/>
</filter>
<filter id="filter3_f_33458_288979" x="36.041" y="311.864" width="34.0273" height="34.0883" filterUnits="userSpaceOnUse" color-interpolation-filters="sRGB">
<feFlood flood-opacity="0" result="BackgroundImageFix"/>
<feBlend mode="normal" in="SourceGraphic" in2="BackgroundImageFix" result="shape"/>
<feGaussianBlur stdDeviation="2" result="effect1_foregroundBlur_33458_288979"/>
</filter>
<filter id="filter4_f_33458_288979" x="209.224" y="241.626" width="28.0215" height="28.0679" filterUnits="userSpaceOnUse" color-interpolation-filters="sRGB">
<feFlood flood-opacity="0" result="BackgroundImageFix"/>
<feBlend mode="normal" in="SourceGraphic" in2="BackgroundImageFix" result="shape"/>
<feGaussianBlur stdDeviation="2" result="effect1_foregroundBlur_33458_288979"/>
</filter>
<filter id="filter5_d_33458_288979" x="28.6382" y="304.13" width="46.7234" height="46.7853" filterUnits="userSpaceOnUse" color-interpolation-filters="sRGB">
<feFlood flood-opacity="0" result="BackgroundImageFix"/>
<feColorMatrix in="SourceAlpha" type="matrix" values="0 0 0 0 0 0 0 0 0 0 0 0 0 0 0 0 0 0 127 0" result="hardAlpha"/>
<feOffset dx="1.26109" dy="2.52219"/>
<feGaussianBlur stdDeviation="5.04437"/>
<feComposite in2="hardAlpha" operator="out"/>
<feColorMatrix type="matrix" values="0 0 0 0 0 0 0 0 0 0 0 0 0 0 0 0 0 0 0.05 0"/>
<feBlend mode="normal" in2="BackgroundImageFix" result="effect1_dropShadow_33458_288979"/>
<feBlend mode="normal" in="SourceGraphic" in2="effect1_dropShadow_33458_288979" result="shape"/>
</filter>
<filter id="filter6_d_33458_288979" x="350.125" y="381.373" width="56.4103" height="56.4719" filterUnits="userSpaceOnUse" color-interpolation-filters="sRGB">
<feFlood flood-opacity="0" result="BackgroundImageFix"/>
<feColorMatrix in="SourceAlpha" type="matrix" values="0 0 0 0 0 0 0 0 0 0 0 0 0 0 0 0 0 0 127 0" result="hardAlpha"/>
<feOffset dx="1.86787" dy="3.73573"/>
<feGaussianBlur stdDeviation="7.47147"/>
<feComposite in2="hardAlpha" operator="out"/>
<feColorMatrix type="matrix" values="0 0 0 0 0 0 0 0 0 0 0 0 0 0 0 0 0 0 0.05 0"/>
<feBlend mode="normal" in2="BackgroundImageFix" result="effect1_dropShadow_33458_288979"/>
<feBlend mode="normal" in="SourceGraphic" in2="effect1_dropShadow_33458_288979" result="shape"/>
</filter>
<filter id="filter7_f_33458_288979" x="19" y="94.6725" width="185.246" height="184.671" filterUnits="userSpaceOnUse" color-interpolation-filters="sRGB">
<feFlood flood-opacity="0" result="BackgroundImageFix"/>
<feBlend mode="normal" in="SourceGraphic" in2="BackgroundImageFix" result="shape"/>
<feGaussianBlur stdDeviation="7" result="effect1_foregroundBlur_33458_288979"/>
</filter>
<filter id="filter8_f_33458_288979" x="154" y="288.767" width="185.246" height="184.67" filterUnits="userSpaceOnUse" color-interpolation-filters="sRGB">
<feFlood flood-opacity="0" result="BackgroundImageFix"/>
<feBlend mode="normal" in="SourceGraphic" in2="BackgroundImageFix" result="shape"/>
<feGaussianBlur stdDeviation="7" result="effect1_foregroundBlur_33458_288979"/>
</filter>
<filter id="filter9_f_33458_288979" x="288.905" y="94.6725" width="185.246" height="184.671" filterUnits="userSpaceOnUse" color-interpolation-filters="sRGB">
<feFlood flood-opacity="0" result="BackgroundImageFix"/>
<feBlend mode="normal" in="SourceGraphic" in2="BackgroundImageFix" result="shape"/>
<feGaussianBlur stdDeviation="7" result="effect1_foregroundBlur_33458_288979"/>
</filter>
<linearGradient id="paint0_linear_33458_288979" x1="381.455" y1="76.6625" x2="381.455" y2="298.08" gradientUnits="userSpaceOnUse">
<stop stop-color="#FFCE08"/>
<stop offset="1" stop-color="#FFB602"/>
</linearGradient>
<linearGradient id="paint1_linear_33458_288979" x1="112.236" y1="82.0846" x2="112.236" y2="291.93" gradientUnits="userSpaceOnUse">
<stop stop-color="#954FB3"/>
<stop offset="1" stop-color="#4E3968"/>
</linearGradient>
<linearGradient id="paint2_linear_33458_288979" x1="381.543" y1="82.0846" x2="381.543" y2="291.93" gradientUnits="userSpaceOnUse">
<stop stop-color="#FFCE08"/>
<stop offset="1" stop-color="#FFB602"/>
</linearGradient>
<linearGradient id="paint3_linear_33458_288979" x1="308.868" y1="181.914" x2="454.16" y2="192.187" gradientUnits="userSpaceOnUse">
<stop stop-color="#FFCE08"/>
<stop offset="1" stop-color="#FFB602"/>
</linearGradient>
<linearGradient id="paint4_linear_33458_288979" x1="381.5" y1="156" x2="381.5" y2="218" gradientUnits="userSpaceOnUse">
<stop stop-color="#FFCE08"/>
<stop offset="1" stop-color="#FFB602"/>
</linearGradient>
</defs>
</svg>
