<svg width="93" height="95" viewBox="0 0 93 95" fill="none" xmlns="http://www.w3.org/2000/svg">
<g filter="url(#filter0_d_33371_285368)">
<path d="M54.0853 80.2616C73.2627 75.2097 84.6986 55.625 79.6281 36.5179C74.5577 17.4108 54.901 6.01683 35.7236 11.0687C16.5463 16.1206 5.11041 35.7053 10.1809 54.8124C15.2513 73.9195 34.908 85.3135 54.0853 80.2616Z" fill="white"/>
<path d="M44.6647 76.7931C61.7897 76.7931 75.6722 62.9614 75.6722 45.8992C75.6722 28.8369 61.7897 15.0052 44.6647 15.0052C27.5397 15.0052 13.6572 28.8369 13.6572 45.8992C13.6572 62.9614 27.5397 76.7931 44.6647 76.7931Z" fill="url(#paint0_linear_33371_285368)"/>
<path d="M54.9466 52.2477C54.2976 52.8478 53.5506 53.3009 52.7424 53.607C51.9342 53.9132 51.0648 53.3254 51.0648 52.4559V50.8395C51.0648 48.4516 49.13 46.5168 46.7421 46.5168H43.1418C40.7539 46.5168 38.8191 48.4516 38.8191 50.8395V52.7743C38.8191 53.4478 38.2681 53.9989 37.5945 53.9989H37.0435C34.0433 53.5458 32.6963 51.1089 32.6963 48.9292C32.6963 46.8719 33.8964 44.5942 36.5047 43.9574C35.7822 41.1042 36.3945 38.4224 38.2558 36.4753C40.3743 34.2589 43.7541 33.3772 46.6686 34.2834C49.3504 35.1038 51.2362 37.3081 51.9097 40.3695C54.2486 40.896 56.1222 42.6594 56.8692 45.1085C57.6774 47.7658 56.9427 50.4966 54.9466 52.2477Z" fill="white"/>
<path d="M46.8629 48.1821H43.0147C41.3432 48.1821 40.3467 49.1786 40.3467 50.8501V54.6938C40.3467 56.3699 41.3432 57.3664 43.0147 57.3664H46.8583C48.5298 57.3664 49.5263 56.3699 49.5263 54.6983V50.8501C49.5309 49.1786 48.5344 48.1821 46.8629 48.1821ZM43.3178 52.3059C43.451 52.1727 43.6714 52.1727 43.8045 52.3059L44.5944 53.0957V50.2532C44.5944 50.0649 44.7505 49.9088 44.9388 49.9088C45.1271 49.9088 45.2832 50.0649 45.2832 50.2532V53.0957L46.0731 52.3059C46.2062 52.1727 46.4266 52.1727 46.5598 52.3059C46.693 52.439 46.693 52.6594 46.5598 52.7926L45.1822 54.1703C45.15 54.2024 45.1133 54.2254 45.072 54.2437C45.0306 54.2621 44.9847 54.2713 44.9388 54.2713C44.8929 54.2713 44.8515 54.2621 44.8056 54.2437C44.7643 54.2254 44.7276 54.2024 44.6954 54.1703L43.3178 52.7926C43.1846 52.6594 43.1846 52.4436 43.3178 52.3059ZM47.8043 55.1713C46.8813 55.479 45.9123 55.6351 44.9388 55.6351C43.9653 55.6351 42.9963 55.479 42.0733 55.1713C41.8942 55.1116 41.7978 54.9142 41.8575 54.7351C41.9172 54.556 42.1101 54.455 42.2937 54.5193C44.002 55.0887 45.8802 55.0887 47.5885 54.5193C47.7675 54.4596 47.965 54.556 48.0247 54.7351C48.0798 54.9188 47.9834 55.1116 47.8043 55.1713Z" fill="white"/>
</g>
<defs>
<filter id="filter0_d_33371_285368" x="-7.45392" y="-5.84175" width="108.289" height="108.289" filterUnits="userSpaceOnUse" color-interpolation-filters="sRGB">
<feFlood flood-opacity="0" result="BackgroundImageFix"/>
<feColorMatrix in="SourceAlpha" type="matrix" values="0 0 0 0 0 0 0 0 0 0 0 0 0 0 0 0 0 0 127 0" result="hardAlpha"/>
<feOffset dx="1.69078" dy="3.38157"/>
<feGaussianBlur stdDeviation="5.07235"/>
<feComposite in2="hardAlpha" operator="out"/>
<feColorMatrix type="matrix" values="0 0 0 0 0 0 0 0 0 0 0 0 0 0 0 0 0 0 0.15 0"/>
<feBlend mode="normal" in2="BackgroundImageFix" result="effect1_dropShadow_33371_285368"/>
<feBlend mode="normal" in="SourceGraphic" in2="effect1_dropShadow_33371_285368" result="shape"/>
</filter>
<linearGradient id="paint0_linear_33371_285368" x1="44.6647" y1="15.0052" x2="44.6647" y2="76.7931" gradientUnits="userSpaceOnUse">
<stop stop-color="#954FB3"/>
<stop offset="1" stop-color="#4E3968"/>
</linearGradient>
</defs>
</svg>
