<svg width="104" height="104" viewBox="0 0 104 104" fill="none" xmlns="http://www.w3.org/2000/svg">
<g opacity="0.2" filter="url(#filter0_f_33371_285325)">
<path d="M56 98C78.6437 98 97 79.6437 97 57C97 34.3563 78.6437 16 56 16C33.3563 16 15 34.3563 15 57C15 79.6437 33.3563 98 56 98Z" fill="#9EA3AE"/>
</g>
<path d="M62.7938 93.6672C85.4783 87.6914 99.0057 64.5249 93.0079 41.9235C87.0102 19.322 63.7586 5.84424 41.074 11.82C18.3894 17.7958 4.86214 40.9623 10.8599 63.5637C16.8576 86.1652 40.1092 99.643 62.7938 93.6672Z" fill="white"/>
<path d="M51.9322 89.5187C72.189 89.5187 88.6104 73.1575 88.6104 52.9748C88.6104 32.7922 72.189 16.4309 51.9322 16.4309C31.6753 16.4309 15.2539 32.7922 15.2539 52.9748C15.2539 73.1575 31.6753 89.5187 51.9322 89.5187Z" fill="url(#paint0_linear_33371_285325)"/>
<g clip-path="url(#clip0_33371_285325)">
<path d="M52.1074 57.0284C54.909 57.0284 57.7105 57.0227 60.5121 57.0298C62.9527 57.0356 64.319 58.4332 64.3333 60.8694C64.3477 63.1346 63.4503 64.9373 61.6871 66.3363C59.6406 67.9595 57.2777 68.8041 54.7163 69.123C51.5077 69.5223 48.3466 69.3255 45.348 68.0241C44.3283 67.5817 43.3532 66.9798 42.4587 66.3148C40.3532 64.7477 39.5823 62.5686 39.8441 60.0046C40.0181 58.2982 41.521 57.0456 43.4151 57.0342C46.313 57.0155 49.2095 57.0284 52.1074 57.0284Z" fill="white"/>
<path d="M50.8539 40.9406C51.0582 39.0704 51.2998 38.6294 52.0735 38.6337C52.8358 38.638 53.0601 39.0517 53.2888 40.9391C54.5127 40.9391 55.7481 40.9291 56.9849 40.9434C57.7255 40.9506 58.4763 40.9276 59.204 41.0368C60.7903 41.2753 61.9768 42.5996 62.0056 44.2041C62.0487 46.6431 62.0545 49.0836 62.0027 51.5226C61.9653 53.252 60.5487 54.687 58.8186 54.7028C54.3171 54.7459 49.8141 54.7459 45.3127 54.7028C43.5868 54.6856 42.1702 53.2434 42.1343 51.5154C42.0825 49.0764 42.0811 46.6345 42.1328 44.1969C42.1731 42.3181 43.7019 40.9693 45.7225 40.9449C47.421 40.9248 49.1181 40.9406 50.8539 40.9406ZM48.596 49.3766C49.6574 49.3881 50.5073 48.5507 50.516 47.4848C50.526 46.4176 49.6948 45.5586 48.6377 45.5443C47.5893 45.5299 46.7249 46.3846 46.7163 47.4432C46.7077 48.5133 47.5361 49.3651 48.596 49.3766ZM57.4192 47.4877C57.4307 46.4219 56.5995 45.5586 55.5438 45.5428C54.494 45.527 53.6296 46.3788 53.6196 47.4389C53.6095 48.5104 54.4336 49.3608 55.4949 49.3752C56.5534 49.391 57.4077 48.5521 57.4192 47.4877Z" fill="white"/>
</g>
<defs>
<filter id="filter0_f_33371_285325" x="11" y="12" width="90" height="90" filterUnits="userSpaceOnUse" color-interpolation-filters="sRGB">
<feFlood flood-opacity="0" result="BackgroundImageFix"/>
<feBlend mode="normal" in="SourceGraphic" in2="BackgroundImageFix" result="shape"/>
<feGaussianBlur stdDeviation="2" result="effect1_foregroundBlur_33371_285325"/>
</filter>
<linearGradient id="paint0_linear_33371_285325" x1="51.9322" y1="16.4309" x2="51.9322" y2="89.5187" gradientUnits="userSpaceOnUse">
<stop stop-color="#FFCE08"/>
<stop offset="1" stop-color="#FFB602"/>
</linearGradient>
<clipPath id="clip0_33371_285325">
<rect width="24.5396" height="30.6745" fill="white" transform="translate(39.7949 38.6337)"/>
</clipPath>
</defs>
</svg>
