<svg width="24" height="24" viewBox="0 0 24 24" fill="none" xmlns="http://www.w3.org/2000/svg">
<circle cx="12" cy="12" r="11.5" fill="white" stroke="#E5E6EB"/>
<mask id="mask0_33387_286573" style="mask-type:alpha" maskUnits="userSpaceOnUse" x="4" y="4" width="16" height="16">
<rect x="4" y="4" width="16" height="16" fill="#D9D9D9"/>
</mask>
<g mask="url(#mask0_33387_286573)">
<path d="M11.9337 18.6663L14.967 10.6663H16.367L19.4003 18.6663H18.0003L17.3003 16.633H14.067L13.3337 18.6663H11.9337ZM14.467 15.4663H16.867L15.7003 12.1663H15.6337L14.467 15.4663ZM6.66699 16.6663L5.73366 15.733L9.10033 12.3663C8.6781 11.8997 8.30877 11.4163 7.99233 10.9163C7.67544 10.4163 7.40033 9.88856 7.16699 9.33301H8.56699C8.76699 9.73301 8.98099 10.0941 9.20899 10.4163C9.43655 10.7386 9.71144 11.0775 10.0337 11.433C10.5225 10.8997 10.9281 10.3526 11.2503 9.79167C11.5725 9.23034 11.8448 8.63301 12.067 7.99967H4.66699V6.66634H9.33366V5.33301H10.667V6.66634H15.3337V7.99967H13.4003C13.167 8.78856 12.8503 9.55523 12.4503 10.2997C12.0503 11.0441 11.5559 11.7441 10.967 12.3997L12.567 14.033L12.067 15.3997L10.0003 13.333L6.66699 16.6663Z" fill="#6C727F"/>
</g>
</svg>
