<svg width="167" height="42" viewBox="0 0 167 42" fill="none" xmlns="http://www.w3.org/2000/svg">
<g filter="url(#filter0_d_4_219)">
<g clip-path="url(#clip0_4_219)">
<path d="M44.1272 10.5539C44.1272 12.3463 43.5589 14.0777 42.5282 15.4262C41.4974 16.7748 40.0742 17.6489 38.5231 17.886C39.4852 17.7027 40.3593 17.1343 40.9899 16.2821C41.6205 15.4298 41.9667 14.349 41.9668 13.2319C41.9666 11.9805 41.5326 10.7804 40.7602 9.89544C39.9879 9.01044 38.9403 8.51296 37.8478 8.51232H30.6298V3.15799H37.6695C39.3821 3.15799 41.0245 3.93718 42.2356 5.32415C43.4466 6.71113 44.1271 8.5923 44.1272 10.5539ZM27.7048 5.80166L30.6291 11.1448V0.458496L27.7048 5.80166Z" fill="#FF9900"/>
<path d="M20.8309 25.77L17.9478 20.5497L17.9102 3.81518C17.9114 3.33441 18.0791 2.87384 18.3765 2.53448C18.6738 2.19512 19.0765 2.00467 19.4962 2.00488H24.1959C24.5249 2.0049 24.8483 2.10299 25.1342 2.28951C25.4201 2.47604 25.6587 2.74458 25.8265 3.06873L30.3681 11.8459C30.5377 12.1744 30.6278 12.5488 30.6292 12.9305V29.3739H28.7097C28.4438 29.3739 28.1887 29.2529 28.0007 29.0375C27.8127 28.8221 27.7071 28.5301 27.7071 28.2255V13.4002C27.7073 13.2259 27.6646 13.0551 27.5838 12.9073L23.3785 5.23391H21.4806C21.121 5.23391 20.8295 5.52541 20.8296 5.88498L20.8309 25.77Z" fill="white"/>
<path opacity="0.1" d="M17.9478 20.5497L19.3885 23.1677L19.3871 4.58173C19.3871 4.58173 19.3871 4.23106 19.6844 3.91132C19.9267 3.65073 20.1323 3.64448 20.4717 3.64448C21.6507 3.64448 23.7513 3.68726 24.2138 3.56622C25.2905 3.28447 23.8346 2.00488 23.8346 2.00488H19.4962C19.0765 2.00467 18.6738 2.19512 18.3765 2.53448C18.0791 2.87384 17.9114 3.33441 17.9102 3.81518L17.9478 20.5497Z" fill="black"/>
<path d="M20.6235 1.99658L24.1857 1.99658C24.5147 1.9966 24.8381 2.09469 25.124 2.28121C25.4099 2.46774 25.6485 2.73628 25.8163 3.06043L30.358 11.8376C30.5275 12.1661 30.6177 12.5405 30.619 12.9222V29.3656H28.6995C28.4336 29.3656 28.1786 29.2446 27.9905 29.0292C27.8025 28.8139 27.6969 28.5218 27.6969 28.2172V13.3919C27.6971 13.2176 27.6544 13.0468 27.5737 12.899C27.5737 12.899 24.4386 7.0913 23.3697 5.2288C22.8516 4.32598 22.4632 3.6545 21.9256 2.82837C21.8315 2.68378 21.7322 2.55294 21.5481 2.39515C21.4168 2.28263 21.2295 2.18296 21.0878 2.12894C20.7905 2.01565 20.6235 1.99658 20.6235 1.99658Z" fill="#FF8C01"/>
<path d="M20.6235 1.99658L22.8342 1.99658C23.1633 1.9966 23.4866 2.09469 23.7725 2.28121C24.0584 2.46774 24.297 2.73628 24.4648 3.06043L29.0065 11.8376C29.1761 12.1661 29.2662 12.5405 29.2676 12.9222V29.3656H28.6995C28.4336 29.3656 28.1786 29.2446 27.9906 29.0292C27.8025 28.8139 27.6969 28.5218 27.6969 28.2172V13.3919C27.6971 13.2176 27.6544 13.0468 27.5737 12.899C27.5737 12.899 24.4387 7.0913 23.3697 5.2288C22.8516 4.32598 22.4632 3.6545 21.9257 2.82837C21.8316 2.68378 21.7322 2.55294 21.5481 2.39515C21.4169 2.28263 21.2295 2.18296 21.0878 2.12894C20.7905 2.01565 20.6235 1.99658 20.6235 1.99658Z" fill="#FF9900"/>
<path fill-rule="evenodd" clip-rule="evenodd" d="M40.1408 9.70837C39.7725 9.16529 39.2568 8.77811 38.675 8.60791C39.6055 8.82645 40.4415 9.40641 41.0415 10.2497C41.6416 11.093 41.969 12.1478 41.9683 13.2357C41.9681 14.4873 41.5339 15.6875 40.7612 16.5724C39.9885 17.4573 38.9405 17.9545 37.8479 17.9545H30.6271V14.7023H38.0073C38.724 14.7023 39.4113 14.3762 39.918 13.7958C40.4248 13.2154 40.7094 12.4281 40.7094 11.6073C40.7093 10.9195 40.5092 10.2515 40.1408 9.70837ZM17.6572 14.7039H27.7083V17.9529H17.6572V14.7039Z" fill="white"/>
<path d="M9.85319 24.051C9.27145 23.8808 8.75573 23.4936 8.38736 22.9506C8.01899 22.4075 7.81894 21.7394 7.81875 21.0517C7.81875 20.2308 8.10344 19.4436 8.61019 18.8631C9.11694 18.2827 9.80424 17.9566 10.5209 17.9566L17.9011 17.9566L17.9011 14.7045L10.6803 14.7045C9.58766 14.7045 8.53973 15.2016 7.76702 16.0865C6.99432 16.9714 6.56012 18.1717 6.55994 19.4232C6.55919 20.5111 6.88656 21.566 7.48665 22.4092C8.08675 23.2525 8.92274 23.8325 9.85319 24.051V24.051Z" fill="url(#paint0_linear_4_219)"/>
<path opacity="0.1" d="M27.7082 16.3392H17.9424V17.9625H27.7082V16.3392Z" fill="black"/>
<path opacity="0.1" d="M40.2128 9.57611C39.7246 9.08784 39.2483 8.77824 38.6666 8.60803C39.597 8.82657 40.433 9.40653 41.0331 10.2498C41.6332 11.0931 41.9606 12.1479 41.9598 13.2358C41.9597 14.4874 41.5255 15.6876 40.7528 16.5726C39.9801 17.4575 38.9321 17.9546 37.8394 17.9546H30.6187V16.3305H37.9989C39.9687 16.2576 41.2708 14.7988 41.2708 12.5871C41.2708 10.6363 40.6197 10.0644 40.2128 9.57611Z" fill="black"/>
<path opacity="0.1" d="M8.31597 23.0827C8.80425 23.571 9.28048 23.8806 9.86222 24.0508C8.93177 23.8322 8.09578 23.2523 7.49569 22.409C6.89559 21.5657 6.56823 20.5109 6.56897 19.423C6.56916 18.1714 7.00335 16.9712 7.77605 16.0863C8.54876 15.2013 9.59669 14.7042 10.6894 14.7042L17.9102 14.7042L17.9102 16.3283L10.5299 16.3283C8.56011 16.4012 7.25805 17.86 7.25805 20.0717C7.25805 22.0225 7.90908 22.5944 8.31597 23.0827Z" fill="white"/>
<path d="M44.1282 10.5539C44.1281 12.3463 43.5599 14.0777 42.5291 15.4262C41.4984 16.7748 40.0752 17.6489 38.5241 17.886C39.4862 17.7027 40.3603 17.1343 40.9909 16.2821C41.6215 15.4298 41.9676 14.349 41.9678 13.2319C41.9676 11.9805 41.5336 10.7804 40.7612 9.89544C39.9888 9.01044 38.9413 8.51296 37.8488 8.51232H30.6307V3.15799H37.6705C39.3831 3.15799 41.0255 3.93718 42.2366 5.32415C43.4476 6.71113 44.128 8.5923 44.1282 10.5539ZM27.7058 5.80166L30.6301 11.1448V0.458496L27.7058 5.80166Z" fill="#FF9900"/>
<path d="M4.43404 22.0987C4.43412 20.3063 5.00235 18.5749 6.03311 17.2263C7.06387 15.8777 8.48705 15.0037 10.0381 14.7666C9.07605 14.9499 8.20194 15.5183 7.57136 16.3705C6.94078 17.2227 6.59463 18.3036 6.5945 19.4207C6.59468 20.6721 7.02866 21.8722 7.80105 22.7571C8.57343 23.6421 9.621 24.1396 10.7135 24.1403L17.9315 24.1403L17.9315 29.4946L10.8917 29.4946C9.17917 29.4946 7.53674 28.7154 6.3257 27.3284C5.11467 25.9415 4.43422 24.0603 4.43404 22.0987ZM20.8564 26.8509L17.9322 21.5078L17.9322 32.1941L20.8564 26.8509Z" fill="#FF9900"/>
<path d="M37.8309 5.8017L30.6129 5.8017L27.6893 5.8017L30.6136 0.458535L30.6129 3.15803L37.6526 3.15803C39.365 3.15824 41.0073 3.93738 42.2182 5.32414C43.4292 6.7109 44.1098 8.59175 44.1104 10.5531C44.1113 12.3463 43.5435 14.0789 42.5127 15.4285C44.6704 7.941 39.4808 5.8017 37.8309 5.8017Z" fill="#FF8C01"/>
<path d="M10.7314 26.8511L17.9494 26.8511L20.8729 26.8511L17.9487 32.1943L17.9494 29.4948L10.9096 29.4948C9.19722 29.4946 7.55499 28.7154 6.34402 27.3287C5.13304 25.9419 4.45246 24.0611 4.4519 22.0997C4.45098 20.3065 5.01875 18.574 6.0496 17.2244C3.89186 24.7118 9.08144 26.8511 10.7314 26.8511Z" fill="#FF8C01"/>
<path d="M9.89445 24.0615C9.31271 23.8913 8.79699 23.5041 8.42862 22.9611C8.06025 22.418 7.8602 21.7499 7.86001 21.0622C7.86001 20.2413 8.1447 19.4541 8.65145 18.8736C9.1582 18.2932 9.8455 17.9671 10.5622 17.9671L17.9424 17.9671L17.9424 14.715L10.7216 14.715C9.62892 14.715 8.58098 15.2121 7.80828 16.097C7.03557 16.9819 6.60138 18.1821 6.6012 19.4337C6.60045 20.5216 6.92782 21.5765 7.52791 22.4197C8.12801 23.263 8.964 23.843 9.89445 24.0615Z" fill="#E5E5E5"/>
<path d="M8.35692 23.0934C8.84519 23.5817 9.32143 23.8913 9.90317 24.0615C8.97272 23.843 8.13673 23.263 7.53664 22.4197C6.93654 21.5765 6.60918 20.5216 6.60992 19.4337C6.61011 18.1821 7.0443 16.9819 7.817 16.097C8.58971 15.2121 9.63764 14.715 10.7303 14.715L19.0547 14.715L19.0547 16.339L10.5709 16.339C8.60106 16.4119 7.299 17.8708 7.299 20.0824C7.299 22.0332 7.95003 22.6052 8.35692 23.0934Z" fill="white"/>
</g>
<path d="M52.4147 24.436C52.4147 24.6202 52.4482 24.7458 52.5151 24.8128C52.5989 24.863 52.7579 24.9132 52.9924 24.9635L53.8966 25.1644V25.6667H50.0788V25.1644L51.0081 24.9635C51.2593 24.9132 51.4184 24.8546 51.4853 24.7877C51.5691 24.7207 51.6109 24.5951 51.6109 24.4109V9.34067C51.6109 9.15647 51.5691 9.03089 51.4853 8.96391C51.4184 8.89693 51.2593 8.83832 51.0081 8.78809L50.0788 8.58716V8.08481H56.5088L61.6829 19.2619L66.3044 8.08481H72.9353V8.58716L72.006 8.78809C71.7548 8.83832 71.5874 8.89693 71.5036 8.96391C71.4367 9.03089 71.4032 9.15647 71.4032 9.34067V24.4109C71.4032 24.5951 71.4367 24.7207 71.5036 24.7877C71.5874 24.8546 71.7548 24.9132 72.006 24.9635L72.9353 25.1644V25.6667H64.7974V25.1644L65.7016 24.9635C65.936 24.9132 66.0867 24.863 66.1537 24.8128C66.2374 24.7458 66.2793 24.6202 66.2793 24.436V10.2198L59.8996 25.6667H59.146L52.4147 10.8728V24.436ZM77.9231 19.2368C77.9398 21.0954 78.2328 22.5104 78.8022 23.4816C79.3882 24.4528 80.4766 24.9384 82.0674 24.9384C82.8544 24.9384 83.5493 24.8211 84.1521 24.5867C84.7717 24.3523 85.408 24.0174 86.061 23.582L86.3875 24.0593C84.8303 25.3319 82.7707 25.9682 80.2087 25.9682C77.898 25.9682 76.0728 25.4156 74.7332 24.3104C73.4104 23.1885 72.749 21.5559 72.749 19.4126C72.749 17.3865 73.4271 15.8376 74.7834 14.7659C76.1398 13.6943 78.0403 13.1585 80.485 13.1585C81.8748 13.1585 83.0469 13.3761 84.0014 13.8115C84.9558 14.2469 85.6591 14.8329 86.1112 15.5697C86.5801 16.2897 86.8145 17.0935 86.8145 17.9809C86.8145 18.433 86.7726 18.8517 86.6889 19.2368H77.9231ZM80.3343 13.7613C79.4133 13.7613 78.7854 14.1464 78.4505 14.9167C78.1156 15.6869 77.9398 16.9093 77.9231 18.5837H82.1427V16.7C82.1427 15.6785 82.0172 14.9334 81.766 14.4645C81.5316 13.9957 81.0543 13.7613 80.3343 13.7613ZM86.4847 14.1129V13.4599C87.0038 13.4599 87.3889 13.418 87.6401 13.3343C87.8913 13.2506 88.1424 13.0999 88.3936 12.8822L92.8644 8.86344H93.0905V13.4599H96.3306V14.1129H93.0905V22.5522C93.0905 23.356 93.1826 23.9253 93.3668 24.2602C93.5677 24.5783 93.9026 24.7374 94.3715 24.7374C94.7398 24.7374 95.0664 24.6621 95.351 24.5114C95.6357 24.3607 95.9455 24.1011 96.2804 23.7327L96.6822 24.21C95.6273 25.3821 94.0701 25.9682 92.0105 25.9682C90.6207 25.9682 89.6243 25.6751 89.0215 25.0891C88.4187 24.503 88.1173 23.5904 88.1173 22.3513V14.1129H86.4847ZM105.547 25.6667C105.079 25.6667 104.744 25.5747 104.543 25.3905C104.359 25.1895 104.266 24.863 104.266 24.4109V24.2853C103.145 25.3737 101.545 25.9179 99.4691 25.9179C98.3807 25.9179 97.5267 25.6751 96.9072 25.1895C96.3044 24.6872 96.003 23.9169 96.003 22.8788C96.003 21.8406 96.3044 21.0285 96.9072 20.4424C97.5267 19.8563 98.4226 19.4377 99.5947 19.1865C100.767 18.9354 102.324 18.7847 104.266 18.7344V16.9009C104.266 15.9632 104.082 15.2934 103.714 14.8915C103.346 14.4729 102.701 14.2636 101.78 14.2636C101.01 14.2636 100.29 14.3724 99.6198 14.5901C98.9668 14.7911 98.297 15.1008 97.6105 15.5195L97.2839 15.0422C98.0877 14.4729 99.0505 14.0208 100.172 13.6859C101.311 13.3343 102.584 13.1585 103.99 13.1585C105.882 13.1585 107.23 13.5352 108.034 14.2887C108.838 15.0255 109.24 16.0972 109.24 17.5037V24.4611C109.24 24.6453 109.273 24.7709 109.34 24.8379C109.424 24.9049 109.591 24.9635 109.842 25.0137L110.722 25.2146V25.6667H105.547ZM102.282 24.3355C103.002 24.3355 103.664 24.0509 104.266 23.4816V19.4126C103.329 19.4796 102.617 19.6303 102.132 19.8647C101.646 20.0824 101.311 20.4005 101.127 20.8192C100.959 21.2378 100.876 21.8071 100.876 22.5271C100.876 23.1634 100.985 23.6239 101.202 23.9086C101.437 24.1932 101.797 24.3355 102.282 24.3355Z" fill="#F9FAFB"/>
<path d="M110.702 24.9635C110.953 24.9132 111.112 24.8546 111.179 24.7877C111.263 24.7207 111.305 24.5951 111.305 24.4109V9.34067C111.305 9.15647 111.263 9.03089 111.179 8.96391C111.112 8.89693 110.953 8.83832 110.702 8.78809L109.773 8.58716V8.08481H117.458C120.975 8.08481 123.654 8.74623 125.496 10.0691C127.338 11.3919 128.259 13.6608 128.259 16.8758C128.259 20.0908 127.338 22.3597 125.496 23.6825C123.654 25.0053 120.975 25.6667 117.458 25.6667H109.773V25.1644L110.702 24.9635ZM116.429 24.9132H117.458C118.848 24.9132 119.92 24.6704 120.673 24.1848C121.427 23.6825 121.954 22.862 122.256 21.7234C122.557 20.5847 122.708 18.9689 122.708 16.8758C122.708 14.7827 122.557 13.1668 122.256 12.0282C121.954 10.8896 121.427 10.0774 120.673 9.59184C119.92 9.0895 118.848 8.83833 117.458 8.83833H116.429V24.9132ZM138.13 25.1644L139.211 25.0639C139.445 25.0304 139.562 24.9384 139.562 24.7877C139.562 24.7039 139.537 24.6035 139.487 24.4862L137.829 20.8192H132.002L130.495 24.4862C130.445 24.6035 130.42 24.7039 130.42 24.7877C130.42 24.9384 130.537 25.0304 130.771 25.0639L131.851 25.1644V25.6667H128.033V25.1644L128.963 25.0639C129.164 25.0472 129.306 24.997 129.39 24.9132C129.473 24.8295 129.566 24.6788 129.666 24.4611L136.623 7.80853H137.427L144.786 24.4611C144.887 24.6788 144.979 24.8295 145.063 24.9132C145.146 24.997 145.289 25.0472 145.49 25.0639L146.419 25.1644V25.6667H138.13V25.1644ZM137.503 20.0656L134.79 14.0627L132.303 20.0656H137.503ZM162.149 13.3845C162.149 14.7408 161.822 15.8041 161.169 16.5744C160.533 17.3279 159.536 17.8721 158.18 18.207C156.824 18.5251 155.007 18.6842 152.73 18.6842H152.077V24.3858C152.077 24.57 152.11 24.6956 152.177 24.7625C152.261 24.8295 152.428 24.8881 152.679 24.9384L153.759 25.1644V25.6667H145.421V25.1644L146.35 24.9635C146.601 24.9132 146.76 24.8546 146.827 24.7877C146.911 24.7207 146.953 24.5951 146.953 24.4109V9.34067C146.953 9.15647 146.911 9.03089 146.827 8.96391C146.76 8.89693 146.601 8.83832 146.35 8.78809L145.421 8.58716V8.08481H152.73C155.007 8.08481 156.824 8.25226 158.18 8.58716C159.536 8.9053 160.533 9.44951 161.169 10.2198C161.822 10.9733 162.149 12.0282 162.149 13.3845ZM152.077 17.9307H152.956C153.944 17.9307 154.714 17.78 155.266 17.4786C155.836 17.1772 156.246 16.7 156.497 16.0469C156.748 15.3939 156.874 14.5064 156.874 13.3845C156.874 12.2626 156.748 11.3751 156.497 10.7221C156.246 10.0691 155.836 9.59184 155.266 9.29043C154.714 8.98903 153.944 8.83833 152.956 8.83833H152.077V17.9307Z" fill="#FF8C01"/>
</g>
<defs>
<filter id="filter0_d_4_219" x="0" y="0" width="167.7" height="48" filterUnits="userSpaceOnUse" color-interpolation-filters="sRGB">
<feFlood flood-opacity="0" result="BackgroundImageFix"/>
<feColorMatrix in="SourceAlpha" type="matrix" values="0 0 0 0 0 0 0 0 0 0 0 0 0 0 0 0 0 0 127 0" result="hardAlpha"/>
<feOffset dy="4"/>
<feGaussianBlur stdDeviation="2"/>
<feComposite in2="hardAlpha" operator="out"/>
<feColorMatrix type="matrix" values="0 0 0 0 0 0 0 0 0 0 0 0 0 0 0 0 0 0 0.25 0"/>
<feBlend mode="normal" in2="BackgroundImageFix" result="effect1_dropShadow_4_219"/>
<feBlend mode="normal" in="SourceGraphic" in2="effect1_dropShadow_4_219" result="shape"/>
</filter>
<linearGradient id="paint0_linear_4_219" x1="6.14108" y1="22.4231" x2="18.0315" y2="21.1672" gradientUnits="userSpaceOnUse">
<stop offset="0.0748513" stop-color="#3C3B3B"/>
<stop offset="0.370212" stop-color="#5E5D5D"/>
<stop offset="1" stop-color="#5E5D5D"/>
</linearGradient>
<clipPath id="clip0_4_219">
<rect width="40.3438" height="33.0086" fill="white" transform="translate(4)"/>
</clipPath>
</defs>
</svg>
