<svg width="194" height="41" viewBox="0 0 194 41" fill="none" xmlns="http://www.w3.org/2000/svg">
<g clip-path="url(#clip0_33270_286061)">
<path d="M48.6544 12.7966C48.6543 14.9698 47.9653 17.0691 46.7155 18.7043C45.4657 20.3395 43.7401 21.3993 41.8594 21.6868C43.0259 21.4645 44.0858 20.7754 44.8504 19.742C45.6149 18.7087 46.0346 17.3981 46.0348 16.0436C46.0346 14.5263 45.5084 13.0713 44.5719 11.9982C43.6353 10.9251 42.3652 10.3219 41.0405 10.3212H32.2887V3.82905H40.8244C42.9009 3.82905 44.8923 4.77381 46.3607 6.45552C47.8291 8.13723 48.6541 10.4181 48.6544 12.7966ZM28.7422 7.0345L32.2878 13.5131V0.555908L28.7422 7.0345Z" fill="#FF9900"/>
<path d="M20.4076 31.2461L16.9118 24.9165L16.8662 4.62589C16.8678 4.04296 17.0711 3.48452 17.4316 3.07305C17.7921 2.66158 18.2804 2.43065 18.7893 2.43091H24.4877C24.8866 2.43092 25.2787 2.54986 25.6253 2.77602C25.972 3.00219 26.2613 3.3278 26.4648 3.72083L31.9715 14.3631C32.1771 14.7615 32.2864 15.2154 32.2881 15.6782V35.6158H29.9606C29.6382 35.6158 29.329 35.4691 29.101 35.208C28.873 34.9468 28.745 34.5927 28.745 34.2234V16.2477C28.7452 16.0364 28.6934 15.8293 28.5955 15.6501L23.4966 6.3461H21.1954C20.7594 6.3461 20.406 6.69955 20.406 7.13553L20.4076 31.2461Z" fill="#34306A"/>
<path opacity="0.1" d="M16.9118 24.9165L18.6587 28.0908L18.657 5.55533C18.657 5.55533 18.657 5.13014 19.0175 4.74247C19.3113 4.4265 19.5605 4.41892 19.9721 4.41892C21.4017 4.41892 23.9486 4.4708 24.5094 4.32403C25.8148 3.98241 24.0496 2.43091 24.0496 2.43091H18.7893C18.2804 2.43065 17.7921 2.66158 17.4316 3.07305C17.0711 3.48452 16.8678 4.04296 16.8662 4.62589L16.9118 24.9165Z" fill="white"/>
<path d="M20.1562 2.4209L24.4754 2.4209C24.8743 2.42091 25.2664 2.53985 25.6131 2.76601C25.9597 2.99218 26.249 3.31779 26.4525 3.71082L31.9592 14.3531C32.1649 14.7515 32.2741 15.2054 32.2758 15.6682V35.6058H29.9483C29.6259 35.6058 29.3167 35.4591 29.0888 35.198C28.8608 34.9368 28.7327 34.5827 28.7327 34.2134V16.2377C28.7329 16.0264 28.6812 15.8193 28.5833 15.6401C28.5833 15.6401 24.7821 8.59824 23.486 6.33996C22.8577 5.24529 22.3869 4.43112 21.735 3.42944C21.621 3.25413 21.5005 3.09548 21.2773 2.90416C21.1181 2.76773 20.891 2.64688 20.7191 2.58138C20.3587 2.44402 20.1562 2.4209 20.1562 2.4209Z" fill="#FF8C01"/>
<path d="M20.1563 2.4209L22.8367 2.4209C23.2357 2.42091 23.6277 2.53985 23.9744 2.76601C24.321 2.99218 24.6103 3.31779 24.8138 3.71082L30.3206 14.3531C30.5262 14.7515 30.6355 15.2054 30.6371 15.6682V35.6058H29.9484C29.626 35.6058 29.3167 35.4591 29.0888 35.198C28.8608 34.9368 28.7327 34.5827 28.7327 34.2134V16.2377C28.733 16.0264 28.6812 15.8193 28.5833 15.6401C28.5833 15.6401 24.7821 8.59824 23.486 6.33996C22.8578 5.24529 22.3869 4.43112 21.7351 3.42944C21.621 3.25413 21.5005 3.09548 21.2773 2.90416C21.1181 2.76773 20.891 2.64688 20.7191 2.58138C20.3587 2.44402 20.1563 2.4209 20.1563 2.4209Z" fill="#FF9900"/>
<path fill-rule="evenodd" clip-rule="evenodd" d="M43.821 11.7713C43.3743 11.1128 42.749 10.6434 42.0436 10.437C43.1718 10.702 44.1854 11.4052 44.9131 12.4277C45.6407 13.4502 46.0376 14.7291 46.0367 16.0482C46.0365 17.5658 45.51 19.021 44.5731 20.094C43.6362 21.1669 42.3656 21.7697 41.0407 21.7697H32.2855V17.8265H41.234C42.103 17.8265 42.9363 17.4311 43.5508 16.7273C44.1652 16.0235 44.5104 15.069 44.5104 14.0737C44.5102 13.2399 44.2676 12.4298 43.821 11.7713ZM16.5596 17.8284H28.7465V21.7678H16.5596V17.8284Z" fill="#34306A"/>
<path d="M7.09735 29.1619C6.39199 28.9555 5.76668 28.486 5.32003 27.8276C4.87338 27.1691 4.63082 26.359 4.6306 25.5252C4.6306 24.5299 4.97578 23.5753 5.59022 22.8716C6.20465 22.1678 7.038 21.7724 7.90694 21.7724L16.8555 21.7724L16.8555 17.8292L8.10026 17.8292C6.77539 17.8292 5.50477 18.4319 4.56787 19.5049C3.63097 20.5778 3.10451 22.0331 3.10428 23.5506C3.10338 24.8697 3.50031 26.1487 4.22792 27.1712C4.95554 28.1937 5.96918 28.8969 7.09735 29.1619Z" fill="url(#paint0_linear_33270_286061)"/>
<path opacity="0.1" d="M28.7464 19.8113H16.9053V21.7795H28.7464V19.8113Z" fill="white"/>
<path opacity="0.1" d="M43.9083 11.6111C43.3163 11.019 42.7389 10.6436 42.0335 10.4373C43.1617 10.7022 44.1753 11.4054 44.9029 12.4279C45.6306 13.4504 46.0275 14.7294 46.0266 16.0485C46.0264 17.566 45.4999 19.0213 44.563 20.0942C43.6261 21.1672 42.3555 21.7699 41.0306 21.7699H32.2754V19.8008H41.2239C43.6123 19.7124 45.1911 17.9435 45.1911 15.2619C45.1911 12.8966 44.4017 12.2031 43.9083 11.6111Z" fill="white"/>
<path opacity="0.1" d="M5.23327 27.9878C5.82529 28.5799 6.40273 28.9552 7.10809 29.1616C5.97992 28.8966 4.96629 28.1934 4.23867 27.171C3.51105 26.1485 3.11412 24.8695 3.11503 23.5504C3.11525 22.0329 3.64171 20.5776 4.57861 19.5046C5.51552 18.4317 6.78613 17.8289 8.111 17.8289L16.8662 17.8289L16.8662 19.7981L7.91768 19.7981C5.52928 19.8865 3.95054 21.6553 3.95054 24.337C3.95054 26.7023 4.73991 27.3958 5.23327 27.9878Z" fill="white"/>
<path d="M48.6553 12.7966C48.6552 14.9698 47.9663 17.0691 46.7165 18.7043C45.4667 20.3395 43.7411 21.3993 41.8604 21.6868C43.0269 21.4645 44.0868 20.7754 44.8513 19.742C45.6159 18.7087 46.0356 17.3981 46.0358 16.0436C46.0356 14.5263 45.5094 13.0713 44.5728 11.9982C43.6363 10.9251 42.3661 10.3219 41.0415 10.3212H32.2897V3.82905H40.8254C42.9019 3.82905 44.8933 4.77381 46.3617 6.45552C47.8301 8.13723 48.6551 10.4181 48.6553 12.7966ZM28.7432 7.0345L32.2888 13.5131V0.555908L28.7432 7.0345Z" fill="#FF9900"/>
<path d="M0.52631 26.7947C0.526411 24.6215 1.21539 22.5222 2.46519 20.887C3.71498 19.2518 5.44059 18.192 7.32128 17.9046C6.15474 18.1268 5.09489 18.816 4.33031 19.8493C3.56573 20.8826 3.14602 22.1932 3.14587 23.5477C3.14609 25.065 3.67229 26.5201 4.6088 27.5931C5.54532 28.6662 6.8155 29.2694 8.14016 29.2701L16.892 29.2701L16.892 35.7623L8.35627 35.7623C6.27978 35.7623 4.28833 34.8175 2.81995 33.1358C1.35157 31.4541 0.526534 29.1732 0.52631 26.7947ZM20.4385 32.5568L16.8928 26.0782L16.8928 39.0354L20.4385 32.5568Z" fill="#FF9900"/>
<path d="M41.0199 7.03458L32.2681 7.03458L28.7233 7.03458L32.269 0.55599L32.2681 3.82913L40.8038 3.82913C42.8801 3.82938 44.8713 4.77409 46.3396 6.45554C47.8079 8.13699 48.6331 10.4175 48.6338 12.7957C48.6349 14.9699 47.9465 17.0706 46.6966 18.707C49.3128 9.62847 43.0205 7.03458 41.0199 7.03458Z" fill="#FF8C01"/>
<path d="M8.1617 32.557L16.9135 32.557L20.4583 32.557L16.9127 39.0356L16.9135 35.7624L8.37781 35.7624C6.30154 35.7622 4.31035 34.8175 2.84204 33.136C1.37373 31.4546 0.548524 29.174 0.547852 26.7959C0.546725 24.6216 1.23515 22.5209 2.48506 20.8845C-0.131199 29.9631 6.16117 32.557 8.1617 32.557Z" fill="#FF8C01"/>
<path d="M7.14715 29.1746C6.44179 28.9682 5.81648 28.4987 5.36984 27.8403C4.92319 27.1818 4.68063 26.3717 4.6804 25.5378C4.6804 24.5426 5.02559 23.588 5.64002 22.8843C6.25445 22.1805 7.0878 21.7851 7.95674 21.7851L16.9053 21.7851L16.9053 17.8419L8.15007 17.8419C6.8252 17.8419 5.55458 18.4446 4.61767 19.5176C3.68077 20.5905 3.15431 22.0458 3.15409 23.5633C3.15318 24.8824 3.55011 26.1614 4.27773 27.1839C5.00535 28.2064 6.01898 28.9096 7.14715 29.1746Z" fill="#484579"/>
<path d="M5.28287 28.0008C5.87489 28.5928 6.45233 28.9682 7.15769 29.1746C6.02952 28.9096 5.01589 28.2064 4.28827 27.1839C3.56065 26.1614 3.16372 24.8824 3.16463 23.5633C3.16485 22.0458 3.69131 20.5905 4.62821 19.5176C5.56512 18.4446 6.83574 17.8419 8.16061 17.8419L18.2539 17.8419L18.2539 19.811L7.96728 19.811C5.57888 19.8994 4.00014 21.6683 4.00014 24.3499C4.00014 26.7152 4.78951 27.4087 5.28287 28.0008Z" fill="#34306A"/>
</g>
<path d="M59.0657 29.1745C59.0657 29.3978 59.1063 29.5501 59.1875 29.6313C59.289 29.6922 59.4819 29.7531 59.7661 29.814L60.8625 30.0577V30.6667H56.2334V30.0577L57.3602 29.814C57.6648 29.7531 57.8577 29.6821 57.9389 29.6008C58.0404 29.5196 58.0911 29.3674 58.0911 29.144V10.8714C58.0911 10.648 58.0404 10.4958 57.9389 10.4146C57.8577 10.3333 57.6648 10.2623 57.3602 10.2014L56.2334 9.95774V9.34865H64.0298L70.3034 22.9009L75.907 9.34865H83.9469V9.95774L82.8201 10.2014C82.5156 10.2623 82.3126 10.3333 82.211 10.4146C82.1298 10.4958 82.0892 10.648 82.0892 10.8714V29.144C82.0892 29.3674 82.1298 29.5196 82.211 29.6008C82.3126 29.6821 82.5156 29.7531 82.8201 29.814L83.9469 30.0577V30.6667H74.0797V30.0577L75.1761 29.814C75.4603 29.7531 75.643 29.6922 75.7242 29.6313C75.8258 29.5501 75.8765 29.3978 75.8765 29.1745V11.9373L68.1411 30.6667H67.2275L59.0657 12.7291V29.1745ZM89.9946 22.8704C90.0149 25.124 90.3702 26.8396 91.0605 28.0172C91.7711 29.1948 93.0908 29.7836 95.0196 29.7836C95.9738 29.7836 96.8164 29.6414 97.5473 29.3572C98.2985 29.073 99.07 28.6669 99.8618 28.139L100.258 28.7177C98.3696 30.2607 95.8723 31.0322 92.766 31.0322C89.9642 31.0322 87.7511 30.3622 86.1269 29.0222C84.523 27.6619 83.721 25.6824 83.721 23.0836C83.721 20.6269 84.5433 18.7489 86.1878 17.4495C87.8323 16.1501 90.1367 15.5004 93.101 15.5004C94.7861 15.5004 96.2073 15.7644 97.3646 16.2923C98.5218 16.8201 99.3746 17.5307 99.9227 18.4241C100.491 19.2971 100.775 20.2716 100.775 21.3477C100.775 21.8959 100.725 22.4034 100.623 22.8704H89.9946ZM92.9182 16.2314C91.8016 16.2314 91.0402 16.6983 90.6341 17.6323C90.2281 18.5662 90.0149 20.0483 89.9946 22.0786H95.1109V19.7945C95.1109 18.556 94.9587 17.6526 94.6541 17.0841C94.3699 16.5156 93.7913 16.2314 92.9182 16.2314ZM100.376 16.6577V15.8659C101.005 15.8659 101.472 15.8151 101.777 15.7136C102.081 15.6121 102.386 15.4294 102.69 15.1654L108.111 10.2927H108.385V15.8659H112.314V16.6577H108.385V26.8904C108.385 27.8649 108.497 28.5552 108.72 28.9613C108.964 29.3471 109.37 29.5399 109.938 29.5399C110.385 29.5399 110.781 29.4486 111.126 29.2658C111.471 29.0831 111.847 28.7684 112.253 28.3218L112.74 28.9004C111.461 30.3216 109.573 31.0322 107.076 31.0322C105.39 31.0322 104.182 30.6769 103.451 29.9663C102.721 29.2557 102.355 28.1492 102.355 26.6468V16.6577H100.376ZM123.489 30.6667C122.921 30.6667 122.515 30.5551 122.271 30.3317C122.048 30.0881 121.936 29.6922 121.936 29.144V28.9918C120.576 30.3114 118.637 30.9713 116.119 30.9713C114.799 30.9713 113.764 30.6769 113.013 30.0881C112.282 29.479 111.916 28.5451 111.916 27.2863C111.916 26.0275 112.282 25.0428 113.013 24.3322C113.764 23.6216 114.85 23.1141 116.271 22.8095C117.693 22.505 119.581 22.3222 121.936 22.2613V20.0382C121.936 18.9012 121.713 18.0891 121.266 17.6018C120.819 17.0942 120.038 16.8404 118.921 16.8404C117.987 16.8404 117.114 16.9724 116.302 17.2363C115.51 17.48 114.698 17.8556 113.866 18.3632L113.47 17.7845C114.444 17.0942 115.612 16.546 116.972 16.14C118.353 15.7136 119.896 15.5004 121.601 15.5004C123.895 15.5004 125.53 15.9573 126.504 16.8709C127.479 17.7642 127.966 19.0636 127.966 20.7691V29.2049C127.966 29.4283 128.007 29.5805 128.088 29.6618C128.189 29.743 128.392 29.814 128.697 29.8749L129.763 30.1186V30.6667H123.489ZM119.53 29.0527C120.403 29.0527 121.205 28.7075 121.936 28.0172V23.0836C120.799 23.1648 119.936 23.3475 119.347 23.6318C118.759 23.8957 118.353 24.2815 118.129 24.789C117.926 25.2966 117.825 25.9869 117.825 26.8599C117.825 27.6315 117.957 28.1898 118.221 28.5349C118.505 28.8801 118.941 29.0527 119.53 29.0527Z" fill="#34306A"/>
<path d="M129.739 29.814C130.044 29.7531 130.236 29.6821 130.318 29.6008C130.419 29.5196 130.47 29.3674 130.47 29.144V10.8714C130.47 10.648 130.419 10.4958 130.318 10.4146C130.236 10.3333 130.044 10.2623 129.739 10.2014L128.612 9.95774V9.34865H137.931C142.195 9.34865 145.443 10.1506 147.677 11.7546C149.91 13.3585 151.027 16.1095 151.027 20.0077C151.027 23.9059 149.91 26.6569 147.677 28.2608C145.443 29.8648 142.195 30.6667 137.931 30.6667H128.612V30.0577L129.739 29.814ZM136.683 29.7531H137.931C139.616 29.7531 140.916 29.4587 141.829 28.8699C142.743 28.2608 143.383 27.266 143.748 25.8854C144.114 24.5048 144.296 22.5456 144.296 20.0077C144.296 17.4698 144.114 15.5106 143.748 14.13C143.383 12.7494 142.743 11.7647 141.829 11.1759C140.916 10.5668 139.616 10.2623 137.931 10.2623H136.683V29.7531ZM162.996 30.0577L164.306 29.9358C164.59 29.8952 164.732 29.7836 164.732 29.6008C164.732 29.4993 164.702 29.3775 164.641 29.2354L162.631 24.789H155.565L153.738 29.2354C153.677 29.3775 153.647 29.4993 153.647 29.6008C153.647 29.7836 153.789 29.8952 154.073 29.9358L155.382 30.0577V30.6667H150.753V30.0577L151.88 29.9358C152.124 29.9155 152.296 29.8546 152.398 29.7531C152.499 29.6516 152.611 29.4689 152.733 29.2049L161.169 9.01365H162.143L171.067 29.2049C171.188 29.4689 171.3 29.6516 171.402 29.7531C171.503 29.8546 171.676 29.9155 171.919 29.9358L173.046 30.0577V30.6667H162.996V30.0577ZM162.235 23.8754L158.946 16.5968L155.931 23.8754H162.235ZM192.118 15.7745C192.118 17.4191 191.722 18.7083 190.93 19.6422C190.159 20.5559 188.951 21.2157 187.306 21.6218C185.662 22.0075 183.459 22.2004 180.698 22.2004H179.906V29.1136C179.906 29.3369 179.946 29.4892 180.028 29.5704C180.129 29.6516 180.332 29.7227 180.637 29.7836L181.946 30.0577V30.6667H171.835V30.0577L172.962 29.814C173.267 29.7531 173.46 29.6821 173.541 29.6008C173.642 29.5196 173.693 29.3674 173.693 29.144V10.8714C173.693 10.648 173.642 10.4958 173.541 10.4146C173.46 10.3333 173.267 10.2623 172.962 10.2014L171.835 9.95774V9.34865H180.698C183.459 9.34865 185.662 9.55168 187.306 9.95774C188.951 10.3435 190.159 11.0033 190.93 11.9373C191.722 12.8509 192.118 14.13 192.118 15.7745ZM179.906 21.2868H180.972C182.17 21.2868 183.103 21.1041 183.773 20.7386C184.464 20.3732 184.961 19.7945 185.266 19.0027C185.57 18.2109 185.723 17.1348 185.723 15.7745C185.723 14.4142 185.57 13.3382 185.266 12.5464C184.961 11.7546 184.464 11.1759 183.773 10.8105C183.103 10.445 182.17 10.2623 180.972 10.2623H179.906V21.2868Z" fill="#FF8C01"/>
<defs>
<linearGradient id="paint0_linear_33270_286061" x1="2.59642" y1="27.188" x2="17.0135" y2="25.6652" gradientUnits="userSpaceOnUse">
<stop offset="0.0748513" stop-color="#3C3B3B"/>
<stop offset="0.370212" stop-color="#5E5D5D"/>
<stop offset="1" stop-color="#5E5D5D"/>
</linearGradient>
<clipPath id="clip0_33270_286061">
<rect width="48.9169" height="40.0229" fill="white"/>
</clipPath>
</defs>
</svg>
