<svg width="120" height="25" viewBox="0 0 120 25" fill="none" xmlns="http://www.w3.org/2000/svg">
<g clip-path="url(#clip0_33388_285405)">
<path d="M29.1934 7.6779C29.1933 8.98185 28.7799 10.2414 28.0301 11.2225C27.2802 12.2036 26.2448 12.8395 25.1164 13.012C25.8163 12.8786 26.4522 12.4652 26.911 11.8452C27.3697 11.2252 27.6216 10.4388 27.6217 9.62612C27.6215 8.71576 27.3058 7.8427 26.7439 7.19887C26.182 6.55504 25.4199 6.19312 24.6251 6.19266H19.374V2.29738H24.4954C25.7413 2.29738 26.9362 2.86424 27.8172 3.87326C28.6982 4.88229 29.1933 6.25084 29.1934 7.6779ZM17.2461 4.22065L19.3735 8.10781V0.333496L17.2461 4.22065Z" fill="#FF9900"/>
<path d="M12.245 18.7476L10.1475 14.9498L10.1201 2.77549C10.1211 2.42573 10.2431 2.09067 10.4594 1.84378C10.6757 1.5969 10.9686 1.45834 11.274 1.4585H14.693C14.9323 1.45851 15.1676 1.52987 15.3756 1.66557C15.5836 1.80126 15.7572 1.99663 15.8793 2.23245L19.1833 8.61782C19.3067 8.85684 19.3722 9.12919 19.3732 9.40686V21.3694H17.9768C17.7833 21.3694 17.5978 21.2814 17.461 21.1247C17.3242 20.9681 17.2474 20.7556 17.2474 20.534V9.74858C17.2475 9.62179 17.2164 9.49751 17.1577 9.39003L14.0983 3.80761H12.7176C12.456 3.80761 12.244 4.01968 12.244 4.28127L12.245 18.7476Z" fill="#34306A"/>
<path opacity="0.1" d="M10.1475 14.9498L11.1956 16.8544L11.1946 3.33315C11.1946 3.33315 11.1946 3.07804 11.4109 2.84543C11.5872 2.65585 11.7367 2.65131 11.9837 2.65131C12.8414 2.65131 14.3695 2.68243 14.706 2.59437C15.4893 2.3894 14.4301 1.4585 14.4301 1.4585H11.274C10.9686 1.45834 10.6757 1.5969 10.4594 1.84378C10.2431 2.09067 10.1211 2.42573 10.1201 2.77549L10.1475 14.9498Z" fill="white"/>
<path d="M12.0947 1.45239L14.6862 1.45239C14.9256 1.4524 15.1608 1.52376 15.3688 1.65946C15.5768 1.79516 15.7504 1.99053 15.8725 2.22634L19.1765 8.61172C19.2999 8.85074 19.3655 9.12309 19.3665 9.40076V21.3633H17.97C17.7765 21.3633 17.591 21.2753 17.4542 21.1186C17.3174 20.962 17.2406 20.7495 17.2406 20.5279V9.74248C17.2407 9.61569 17.2097 9.49141 17.1509 9.38393C17.1509 9.38393 14.8702 5.1588 14.0926 3.80383C13.7156 3.14703 13.4331 2.65853 13.042 2.05752C12.9736 1.95233 12.9013 1.85714 12.7674 1.74235C12.6719 1.66049 12.5356 1.58798 12.4324 1.54868C12.2162 1.46626 12.0947 1.45239 12.0947 1.45239Z" fill="#FF8C01"/>
<path d="M12.0947 1.45239L13.703 1.45239C13.9424 1.4524 14.1776 1.52376 14.3856 1.65946C14.5936 1.79516 14.7672 1.99053 14.8893 2.22634L18.1933 8.61172C18.3167 8.85074 18.3823 9.12309 18.3833 9.40076V21.3633H17.97C17.7765 21.3633 17.591 21.2753 17.4542 21.1186C17.3175 20.962 17.2406 20.7495 17.2406 20.5279V9.74248C17.2408 9.61569 17.2097 9.49141 17.151 9.38393C17.151 9.38393 14.8702 5.1588 14.0926 3.80383C13.7156 3.14703 13.4331 2.65853 13.042 2.05752C12.9736 1.95233 12.9013 1.85714 12.7674 1.74235C12.6719 1.66049 12.5356 1.58798 12.4325 1.54868C12.2162 1.46626 12.0947 1.45239 12.0947 1.45239Z" fill="#FF9900"/>
<path fill-rule="evenodd" clip-rule="evenodd" d="M26.2934 7.06279C26.0254 6.6677 25.6502 6.38603 25.227 6.26221C25.9039 6.4212 26.512 6.84312 26.9486 7.4566C27.3852 8.07009 27.6233 8.83748 27.6228 9.62894C27.6227 10.5395 27.3068 11.4126 26.7446 12.0564C26.1825 12.7002 25.4201 13.0618 24.6252 13.0618H19.3721V10.6959H24.7412C25.2626 10.6959 25.7626 10.4587 26.1312 10.0364C26.4999 9.61412 26.707 9.04141 26.707 8.44423C26.7069 7.94392 26.5613 7.45788 26.2934 7.06279ZM9.93652 10.6971H17.2487V13.0607H9.93652V10.6971Z" fill="#34306A"/>
<path d="M4.25939 17.4971C3.83617 17.3732 3.46098 17.0916 3.193 16.6965C2.92501 16.3014 2.77947 15.8154 2.77933 15.315C2.77933 14.7179 2.98645 14.1452 3.35511 13.7229C3.72377 13.3006 4.22378 13.0634 4.74514 13.0634L10.1143 13.0634L10.1143 10.6975L4.86113 10.6975C4.06621 10.6975 3.30384 11.0591 2.7417 11.7029C2.17956 12.3467 1.86368 13.2198 1.86355 14.1303C1.863 14.9218 2.10116 15.6892 2.53773 16.3027C2.9743 16.9162 3.58248 17.3381 4.25939 17.4971Z" fill="url(#paint0_linear_33388_285405)"/>
<path opacity="0.1" d="M17.2482 11.8867H10.1436V13.0676H17.2482V11.8867Z" fill="white"/>
<path opacity="0.1" d="M26.346 6.96648C25.9908 6.61127 25.6443 6.38603 25.2211 6.26221C25.898 6.4212 26.5062 6.84312 26.9427 7.4566C27.3793 8.07009 27.6175 8.83748 27.6169 9.62894C27.6168 10.5395 27.3009 11.4126 26.7388 12.0564C26.1766 12.7002 25.4143 13.0618 24.6193 13.0618H19.3662V11.8803H24.7353C26.1684 11.8273 27.1156 10.766 27.1156 9.15699C27.1156 7.73779 26.642 7.3217 26.346 6.96648Z" fill="white"/>
<path opacity="0.1" d="M3.14035 16.7925C3.49557 17.1478 3.84203 17.373 4.26525 17.4968C3.58834 17.3378 2.98016 16.9159 2.54359 16.3024C2.10702 15.6889 1.86886 14.9216 1.86941 14.1301C1.86954 13.2196 2.18542 12.3464 2.74756 11.7026C3.3097 11.0589 4.07207 10.6972 4.86699 10.6972L10.1201 10.6972L10.1201 11.8787L4.751 11.8787C3.31796 11.9318 2.37071 12.9931 2.37071 14.602C2.37071 16.0212 2.84434 16.4373 3.14035 16.7925Z" fill="white"/>
<path d="M29.1934 7.6779C29.1933 8.98185 28.7799 10.2414 28.0301 11.2225C27.2802 12.2036 26.2448 12.8395 25.1164 13.012C25.8163 12.8786 26.4522 12.4652 26.911 11.8452C27.3697 11.2252 27.6216 10.4388 27.6217 9.62612C27.6215 8.71576 27.3058 7.8427 26.7439 7.19887C26.182 6.55504 25.4199 6.19312 24.6251 6.19266H19.374V2.29738H24.4954C25.7413 2.29738 26.9362 2.86424 27.8172 3.87326C28.6982 4.88229 29.1933 6.25084 29.1934 7.6779ZM17.2461 4.22065L19.3735 8.10781V0.333496L17.2461 4.22065Z" fill="#FF9900"/>
<path d="M0.315396 16.0767C0.315456 14.7728 0.728842 13.5132 1.47872 12.5321C2.2286 11.551 3.26396 10.9151 4.39238 10.7426C3.69246 10.876 3.05654 11.2895 2.5978 11.9095C2.13905 12.5295 1.88722 13.3158 1.88713 14.1285C1.88726 15.0389 2.20298 15.9119 2.76489 16.5558C3.3268 17.1996 4.08891 17.5615 4.8837 17.562L10.1348 17.562L10.1348 21.4573L5.01337 21.4573C3.76748 21.4573 2.57261 20.8904 1.69158 19.8814C0.810553 18.8723 0.31553 17.5038 0.315396 16.0767ZM12.2627 19.534L10.1353 15.6468L10.1353 23.4211L12.2627 19.534Z" fill="#FF9900"/>
<path d="M24.6124 4.22065L19.3613 4.22065L17.2344 4.22065L19.3618 0.333496L19.3613 2.29738L24.4827 2.29738C25.7284 2.29753 26.9232 2.86436 27.8042 3.87323C28.6851 4.88209 29.1803 6.25041 29.1807 7.67731C29.1813 8.98187 28.7683 10.2423 28.0183 11.2241C29.5881 5.77699 25.8127 4.22065 24.6124 4.22065Z" fill="#FF8C01"/>
<path d="M4.89741 19.5342L10.1485 19.5342L12.2754 19.5342L10.148 23.4214L10.1485 21.4575L5.02708 21.4575C3.78132 21.4574 2.5866 20.8905 1.70561 19.8817C0.824631 18.8728 0.329505 17.5045 0.329102 16.0776C0.328426 14.773 0.741479 13.5126 1.49143 12.5308C-0.078329 17.9779 3.69709 19.5342 4.89741 19.5342Z" fill="#FF8C01"/>
<path d="M4.28868 17.5046C3.86547 17.3808 3.49028 17.0991 3.22229 16.7041C2.9543 16.309 2.80877 15.8229 2.80863 15.3226C2.80863 14.7254 3.01574 14.1527 3.3844 13.7305C3.75306 13.3082 4.25307 13.071 4.77444 13.071L10.1436 13.071L10.1436 10.705L4.89043 10.705C4.09551 10.705 3.33314 11.0667 2.77099 11.7105C2.20885 12.3542 1.89298 13.2274 1.89284 14.1379C1.8923 14.9294 2.13046 15.6968 2.56703 16.3102C3.0036 16.9237 3.61178 17.3456 4.28868 17.5046Z" fill="#484579"/>
<path d="M3.16952 16.8004C3.52474 17.1556 3.87121 17.3808 4.29442 17.5046C3.61752 17.3456 3.00934 16.9237 2.57277 16.3102C2.1362 15.6968 1.89804 14.9294 1.89858 14.1379C1.89872 13.2274 2.21459 12.3542 2.77673 11.7105C3.33888 11.0667 4.10125 10.705 4.89617 10.705L10.9521 10.705L10.9521 11.8865L4.78018 11.8865C3.34713 11.9396 2.39989 13.0009 2.39989 14.6099C2.39989 16.0291 2.87351 16.4451 3.16952 16.8004Z" fill="#34306A"/>
</g>
<path d="M39.0313 17.1046C39.0313 17.2386 39.0557 17.33 39.1044 17.3787C39.1653 17.4153 39.281 17.4518 39.4516 17.4884L40.1094 17.6345V18H37.3319V17.6345L38.008 17.4884C38.1908 17.4518 38.3065 17.4092 38.3552 17.3605C38.4161 17.3117 38.4466 17.2204 38.4466 17.0864V6.12277C38.4466 5.98878 38.4161 5.89741 38.3552 5.84868C38.3065 5.79996 38.1908 5.75732 38.008 5.72078L37.3319 5.5746V5.20914H42.0097L45.7739 13.3405L49.1361 5.20914H53.9601V5.5746L53.284 5.72078C53.1012 5.75732 52.9794 5.79996 52.9185 5.84868C52.8698 5.89741 52.8454 5.98878 52.8454 6.12277V17.0864C52.8454 17.2204 52.8698 17.3117 52.9185 17.3605C52.9794 17.4092 53.1012 17.4518 53.284 17.4884L53.9601 17.6345V18H48.0397V17.6345L48.6975 17.4884C48.8681 17.4518 48.9777 17.4153 49.0264 17.3787C49.0873 17.33 49.1178 17.2386 49.1178 17.1046V6.76232L44.4765 18H43.9284L39.0313 7.23741V17.1046ZM57.5887 13.3222C57.6008 14.6744 57.814 15.7037 58.2282 16.4103C58.6546 17.1168 59.4464 17.4701 60.6036 17.4701C61.1762 17.4701 61.6817 17.3848 62.1203 17.2143C62.571 17.0437 63.0339 16.8001 63.509 16.4834L63.7465 16.8306C62.6136 17.7564 61.1153 18.2193 59.2515 18.2193C57.5704 18.2193 56.2426 17.8173 55.268 17.0133C54.3057 16.1971 53.8245 15.0094 53.8245 13.4501C53.8245 11.9761 54.3178 10.8493 55.3046 10.0697C56.2913 9.29003 57.6739 8.90022 59.4525 8.90022C60.4635 8.90022 61.3163 9.05858 62.0106 9.37531C62.705 9.69203 63.2166 10.1184 63.5455 10.6544C63.8866 11.1782 64.0572 11.7629 64.0572 12.4086C64.0572 12.7375 64.0267 13.042 63.9658 13.3222H57.5887ZM59.3428 9.33876C58.6728 9.33876 58.216 9.61894 57.9724 10.1793C57.7287 10.7397 57.6008 11.6289 57.5887 12.8471H60.6585V11.4767C60.6585 10.7336 60.5671 10.1915 60.3844 9.8504C60.2138 9.50931 59.8666 9.33876 59.3428 9.33876ZM63.8172 9.59458V9.11949C64.1949 9.11949 64.4751 9.08904 64.6578 9.02813C64.8405 8.96722 65.0232 8.85758 65.206 8.69922L68.4585 5.77559H68.623V9.11949H70.9801V9.59458H68.623V15.7342C68.623 16.3189 68.69 16.7331 68.824 16.9767C68.9701 17.2082 69.2138 17.3239 69.5549 17.3239C69.8229 17.3239 70.0604 17.2691 70.2675 17.1595C70.4746 17.0498 70.6999 16.861 70.9436 16.593L71.2359 16.9402C70.4685 17.7929 69.3356 18.2193 67.8372 18.2193C66.8261 18.2193 66.1013 18.0061 65.6628 17.5797C65.2242 17.1534 65.005 16.4895 65.005 15.588V9.59458H63.8172ZM77.6854 18C77.3443 18 77.1007 17.933 76.9545 17.799C76.8205 17.6528 76.7535 17.4153 76.7535 17.0864V16.995C75.9373 17.7868 74.7739 18.1827 73.2634 18.1827C72.4716 18.1827 71.8503 18.0061 71.3996 17.6528C70.961 17.2874 70.7418 16.727 70.7418 15.9717C70.7418 15.2165 70.961 14.6256 71.3996 14.1993C71.8503 13.7729 72.502 13.4684 73.3548 13.2857C74.2075 13.1029 75.3404 12.9933 76.7535 12.9567V11.6228C76.7535 10.9407 76.6195 10.4534 76.3515 10.161C76.0835 9.85649 75.6145 9.70421 74.9445 9.70421C74.3841 9.70421 73.8603 9.7834 73.373 9.94176C72.8979 10.0879 72.4107 10.3133 71.9112 10.6178L71.6737 10.2707C72.2584 9.85649 72.9589 9.52758 73.775 9.28394C74.6034 9.02813 75.5292 8.90022 76.5525 8.90022C77.929 8.90022 78.9097 9.17431 79.4944 9.72249C80.0791 10.2585 80.3715 11.0381 80.3715 12.0614V17.1229C80.3715 17.2569 80.3958 17.3483 80.4446 17.397C80.5055 17.4457 80.6273 17.4884 80.81 17.5249L81.4495 17.6711V18H77.6854ZM75.3099 17.0315C75.8338 17.0315 76.3149 16.8245 76.7535 16.4103V13.4501C76.0713 13.4988 75.5536 13.6085 75.2003 13.779C74.847 13.9374 74.6034 14.1688 74.4694 14.4734C74.3476 14.7779 74.2867 15.1921 74.2867 15.7159C74.2867 16.1788 74.3659 16.5138 74.5242 16.7209C74.6948 16.928 74.9567 17.0315 75.3099 17.0315Z" fill="#34306A"/>
<path d="M81.4353 17.4884C81.618 17.4518 81.7338 17.4092 81.7825 17.3605C81.8434 17.3117 81.8739 17.2204 81.8739 17.0864V6.12277C81.8739 5.98878 81.8434 5.89741 81.7825 5.84868C81.7338 5.79996 81.618 5.75732 81.4353 5.72078L80.7592 5.5746V5.20914H86.3507C88.9088 5.20914 90.8579 5.69032 92.1979 6.65268C93.5379 7.61504 94.2079 9.26567 94.2079 11.6046C94.2079 13.9435 93.5379 15.5941 92.1979 16.5565C90.8579 17.5188 88.9088 18 86.3507 18H80.7592V17.6345L81.4353 17.4884ZM85.6015 17.4518H86.3507C87.3617 17.4518 88.1414 17.2752 88.6896 16.9219C89.2377 16.5565 89.6215 15.9596 89.8407 15.1312C90.06 14.3028 90.1696 13.1273 90.1696 11.6046C90.1696 10.0818 90.06 8.90631 89.8407 8.07795C89.6215 7.24959 89.2377 6.65877 88.6896 6.3055C88.1414 5.94005 87.3617 5.75732 86.3507 5.75732H85.6015V17.4518ZM101.39 17.6345L102.175 17.5615C102.346 17.5371 102.431 17.4701 102.431 17.3605C102.431 17.2995 102.413 17.2265 102.376 17.1412L101.17 14.4734H96.931L95.8346 17.1412C95.7981 17.2265 95.7798 17.2995 95.7798 17.3605C95.7798 17.4701 95.8651 17.5371 96.0356 17.5615L96.8214 17.6345V18H94.0439V17.6345L94.72 17.5615C94.8662 17.5493 94.9697 17.5127 95.0307 17.4518C95.0916 17.3909 95.1586 17.2813 95.2316 17.1229L100.293 5.00814H100.878L106.232 17.1229C106.305 17.2813 106.372 17.3909 106.433 17.4518C106.494 17.5127 106.597 17.5493 106.743 17.5615L107.42 17.6345V18H101.39V17.6345ZM100.933 13.9252L98.9593 9.55803L97.1503 13.9252H100.933ZM118.863 9.06467C118.863 10.0514 118.625 10.8249 118.15 11.3853C117.687 11.9335 116.962 12.3294 115.976 12.573C114.989 12.8045 113.667 12.9202 112.01 12.9202H111.535V17.0681C111.535 17.2021 111.56 17.2935 111.608 17.3422C111.669 17.3909 111.791 17.4335 111.974 17.4701L112.76 17.6345V18H106.693V17.6345L107.369 17.4884C107.552 17.4518 107.668 17.4092 107.716 17.3605C107.777 17.3117 107.808 17.2204 107.808 17.0864V6.12277C107.808 5.98878 107.777 5.89741 107.716 5.84868C107.668 5.79996 107.552 5.75732 107.369 5.72078L106.693 5.5746V5.20914H112.01C113.667 5.20914 114.989 5.33096 115.976 5.5746C116.962 5.80605 117.687 6.20196 118.15 6.76232C118.625 7.3105 118.863 8.07795 118.863 9.06467ZM111.535 12.372H112.175C112.894 12.372 113.454 12.2624 113.856 12.0431C114.27 11.8238 114.569 11.4767 114.751 11.0016C114.934 10.5265 115.025 9.88085 115.025 9.06467C115.025 8.24849 114.934 7.60286 114.751 7.12777C114.569 6.65268 114.27 6.3055 113.856 6.08623C113.454 5.86696 112.894 5.75732 112.175 5.75732H111.535V12.372Z" fill="#FF8C01"/>
<defs>
<linearGradient id="paint0_linear_33388_285405" x1="1.55883" y1="16.3127" x2="10.2091" y2="15.3991" gradientUnits="userSpaceOnUse">
<stop offset="0.0748513" stop-color="#3C3B3B"/>
<stop offset="0.370212" stop-color="#5E5D5D"/>
<stop offset="1" stop-color="#5E5D5D"/>
</linearGradient>
<clipPath id="clip0_33388_285405">
<rect width="29.3501" height="24.0138" fill="white"/>
</clipPath>
</defs>
</svg>
