<svg width="544" height="545" viewBox="0 0 544 545" fill="none" xmlns="http://www.w3.org/2000/svg">
<path opacity="0.6" d="M466.599 262.692C405.208 286.611 336.214 367.721 312.797 443.518C289.38 519.315 320.285 561.491 381.675 537.63C443.066 513.769 512.074 432.586 535.477 356.804C558.879 281.022 528.003 238.772 466.599 262.692Z" fill="#7B61FF"/>
<g style="mix-blend-mode:overlay" opacity="0.2">
<path d="M466.598 262.692C483.554 256.089 498.183 254.525 509.963 257.32L521.455 392.205C507.537 420.85 489.792 447.465 468.709 471.317L451.551 269.612C456.432 267.022 461.456 264.711 466.598 262.692ZM399.209 529.334L381.863 326.283C364.714 345.364 349.661 366.237 336.966 388.542L350.236 544.291C359.501 544.291 370.024 542.119 381.632 537.601C387.662 535.225 393.533 532.464 399.209 529.334Z" fill="white"/>
</g>
<path d="M466.599 262.692C405.208 286.611 336.214 367.721 312.797 443.518C289.38 519.315 320.285 561.491 381.675 537.63C443.066 513.769 512.074 432.586 535.477 356.804C558.879 281.022 528.003 238.772 466.599 262.692Z" stroke="#7B61FF" stroke-miterlimit="10"/>
<path d="M345.089 453.682C345.089 454.435 345.22 455.13 345.321 455.868C345.422 456.607 345.61 457.664 345.754 458.518C349.599 478.919 366.15 487.273 391.013 477.586C417.87 467.118 447.127 438.494 466.512 406.09L420.255 357.398L337.139 378.392C337.139 378.392 340.854 424.724 344.786 451.93C344.945 452.502 345.046 453.089 345.089 453.682Z" fill="#20364F"/>
<path d="M420.198 357.398L337.082 378.392C337.082 378.392 337.92 388.846 339.221 402.745C348.949 404.526 364.561 407.089 373.696 407.089C373.696 407.089 408.692 435.641 432.962 448.687C445.901 435.963 457.175 421.645 466.512 406.075L420.198 357.398Z" fill="#142130"/>
<path d="M483.54 368.807C491.013 344.598 489.322 326.094 480.446 316.22C479.593 315.322 478.798 314.54 478.162 313.961C471.99 308.763 455.844 297.788 455.844 297.788L365.5 378.392C365.5 378.392 397.301 418.687 436.792 444.864C457.506 423.493 475.257 395.593 483.54 368.807Z" fill="#20364F"/>
<path d="M470.097 307.793C463.36 302.899 455.844 297.788 455.844 297.788L365.5 378.392C365.5 378.392 374.462 389.743 388.787 404.324C423.58 394.71 462.898 361.495 470.097 307.793Z" fill="#142130"/>
<path d="M51.9274 235.92C51.9274 235.92 33.4973 223.555 31.3146 221.934C29.1319 220.312 12.9567 213.811 10.2102 212.363C7.46379 210.915 7.04459 215.346 9.41521 218.589C11.7858 221.832 19.7795 225.901 22.4247 227.276C24.2885 228.181 26.0728 229.242 27.7586 230.447L28.4958 231.012C26.6456 230.882 25.1856 230.766 24.5641 230.693C21.8754 230.418 4.64506 233.126 1.55169 233.299C-1.54169 233.473 0.351919 237.484 4.0524 239.091C7.75289 240.698 16.6861 240.076 19.7072 239.916C21.7701 239.731 23.8454 239.731 25.9084 239.916C26.9347 240.018 29.4499 240.539 31.4157 240.973C29.1463 241.19 27.325 241.364 26.6022 241.408C23.8991 241.596 7.37705 247.199 4.35596 247.894C1.33486 248.589 3.89339 252.238 7.79625 253.136C11.6991 254.033 20.4155 251.948 23.3643 251.282C25.3683 250.754 27.414 250.401 29.4788 250.225C31.8854 250.479 34.2621 250.964 36.5762 251.673C33.8586 252.223 29.8835 253.049 29.1029 253.382C27.8887 253.888 21.7887 257.971 19.6204 259.028C17.4522 260.085 18.5941 261.924 20.6468 262.88C21.8611 263.434 23.1867 263.7 24.5205 263.658C25.8543 263.615 27.1603 263.264 28.3368 262.634C30.7942 261.186 32.4131 260.418 32.4131 260.418L42.9075 262.981C46.8392 265.037 55.6857 270.539 58.5912 272.045C61.4966 273.551 64.5755 275.288 70.0106 273.724L77.3393 259.709C77.3393 259.709 51.0023 236.369 51.9274 235.92Z" fill="#E88E80"/>
<path d="M103.908 279.936C100.713 278.98 75.3881 272.986 69.2158 273.797C60.8752 274.912 52.3034 260.766 50.1352 256.422C47.9669 252.078 44.1652 244.347 43.3268 242.986L40.8984 241.046C39.8652 240.938 38.8238 240.938 37.7906 241.046C36.5041 241.234 33.1505 242.074 30.5631 241.219C29.4787 240.816 28.5132 240.145 27.7554 239.27C26.9975 238.394 26.4718 237.342 26.2266 236.21C26.2266 235.051 27.4697 234.762 28.9586 234.617C30.8464 234.175 32.6935 233.575 34.4804 232.822C37.159 232.391 39.8633 232.14 42.5752 232.069C45.9372 232.548 49.1788 233.658 52.13 235.341C53.5755 236.485 64.3733 243.927 67.0331 246.272C69.6928 248.618 74.5063 248.459 76.0675 248.3L103.908 250.008V279.936Z" fill="#FFCEBA"/>
<path d="M73.87 248.357V273.869L72.5112 273.797C72.5112 273.797 73.6965 281.89 73.87 282.484C74.0435 283.078 74.2314 283.483 75.7781 283.744C77.3247 284.004 93.4854 285.742 93.4854 285.742C93.4854 285.742 94.8298 289.897 97.3594 291.533C99.9634 292.225 102.73 291.936 105.136 290.723C105.136 290.723 172.656 299.193 189.871 302.204C207.087 305.216 212.277 304.144 213.852 303.536C215.428 302.928 227.816 291.953 231.675 288.449C235.535 284.945 278.539 243.16 278.539 243.16V180.901H228.611C228.611 180.901 192.762 242.928 191.563 244.376C190.363 245.824 187.588 245.693 186.98 246.91C186.38 248.367 185.859 249.855 185.419 251.369C183.432 250.393 181.244 249.897 179.03 249.921C176.385 250.283 158.07 251.369 146.275 251.253C134.48 251.137 112.06 249.443 108.331 248.719C104.601 247.995 102.303 246.186 99.7734 246.548C97.8589 246.914 95.9986 247.522 94.2371 248.357L75.5612 247.329C74.4771 247.358 73.87 247.315 73.87 248.357Z" fill="url(#paint0_linear_33186_284776)"/>
<path d="M231.199 210.264C231.199 210.264 226.154 261.736 223.971 295.356C227.093 292.634 230.129 289.941 231.705 288.493C235.564 285.003 278.568 243.203 278.568 243.203V210.264H231.199Z" fill="url(#paint1_linear_33186_284776)"/>
<path d="M231.199 210.264C231.199 210.264 226.154 261.736 223.971 295.356C227.093 292.634 230.129 289.941 231.705 288.493C235.564 285.003 278.568 243.203 278.568 243.203V210.264H231.199Z" fill="black" fill-opacity="0.2"/>
<path d="M253.112 160.355C253.112 160.355 236.373 172.43 232.283 175.804C228.192 179.178 226.255 187.633 225.893 189.443C225.532 191.253 229.146 209.583 240.464 231.794C251.782 254.004 283.829 311.297 319.735 345.815C321.658 359.323 329.854 382.243 330.808 382.967C331.762 383.691 353.459 392.625 388.397 385.139C423.334 377.654 464.517 339.053 465.731 294.646L447.417 284.28C447.417 284.28 411.033 208.512 401.883 189.689C392.733 170.867 382.123 160.239 370.805 156.142C359.487 152.044 313.708 142.387 313.708 142.387L253.112 160.355Z" fill="url(#paint2_linear_33186_284776)"/>
<path d="M345.798 235.978C349.932 254.801 331.675 298.787 297.388 321.099C304.305 329.805 311.769 338.06 319.736 345.815C321.658 359.323 329.854 382.243 330.808 382.967C331.762 383.691 353.459 392.625 388.397 385.139C402.577 382.113 417.798 373.932 430.952 362.335C432.297 321.418 418.348 252.296 407.478 224.438L345.798 235.978Z" fill="url(#paint3_linear_33186_284776)"/>
<path d="M345.798 235.978C349.932 254.801 331.675 298.787 297.388 321.099C304.305 329.805 311.769 338.06 319.736 345.815C321.658 359.323 329.854 382.243 330.808 382.967C331.762 383.691 353.459 392.625 388.397 385.139C402.577 382.113 417.798 373.932 430.952 362.335C432.297 321.418 418.348 252.296 407.478 224.438L345.798 235.978Z" fill="black" fill-opacity="0.2"/>
<path d="M274.564 356.297C274.564 356.297 240.956 359.396 239.033 359.497C236.93 359.833 234.906 360.555 233.063 361.625C232.023 362.219 223.668 365.477 222.121 366.23C220.058 367.446 218.306 369.127 217.004 371.138C216.079 372.832 212.667 379.145 211.496 381.273C210.348 383.264 209.033 385.153 207.565 386.92C206.972 387.572 208.302 390.163 210.586 390.105C212.87 390.047 215.139 389.208 217.813 385.646C220.487 382.084 223.754 377.48 224.347 377.045C226.704 376.11 229.118 375.327 231.574 374.7C231.849 374.7 231.574 375.293 230.866 375.858C230.158 376.423 226.356 379.579 225.59 380.202C224.64 381.128 223.956 382.293 223.61 383.575C222.443 387.218 221.023 390.774 219.36 394.217C217.51 397.518 216.7 398.894 217.235 399.386C217.77 399.879 219.721 402.412 223.523 400.11C227.325 397.808 228.539 395.578 230.143 392.219C231.748 388.86 231.849 387.586 232.76 386.934C233.67 386.283 238.354 382.808 238.975 382.88C239.597 382.953 234.191 392.422 233.815 393.479C233.439 394.536 232.673 401.5 231.849 404.628C231.025 407.755 230.404 408.971 231.762 409.782C233.121 410.593 235.983 410.825 239.163 405.221C242.343 399.618 241.924 397.432 243.37 395.651C244.967 393.537 246.706 391.534 248.574 389.656C248.877 389.656 246.492 397.866 246.333 398.966C246.299 401.655 246.522 404.341 246.998 406.988C247.323 408.573 247.54 410.179 247.648 411.795C247.648 412.75 251.291 413.518 253.257 410.101C255.223 406.684 253.459 401.746 254.486 400.371C255.512 398.995 258.562 394.71 259.155 394.217C259.779 393.64 260.567 393.271 261.41 393.16C262.118 393.16 267.943 391.712 273.87 390.395C279.796 389.077 285 385.182 289.308 380.433C294.642 377.248 296.839 376.09 300.597 372.427L285.405 349.188L274.564 356.297Z" fill="#FFCEBA"/>
<path d="M353.546 161.933C342.892 167.363 337.052 182.928 340.897 209.467C344.743 236.007 356.437 282.223 356.437 282.223C356.437 282.223 353.676 283.917 354.037 285.003L354.76 287.175C354.76 287.175 301.638 328.802 300.423 330.004C299.209 331.205 296.087 331.09 294.772 332.784C293.456 334.478 292.719 339.777 292.719 339.777C292.719 339.777 275.489 352.924 274.535 353.778C274.253 354.03 274.039 354.349 273.913 354.706C273.787 355.063 273.752 355.446 273.812 355.819C273.812 355.819 288.628 379.594 289.221 380.433C289.72 381.005 290.399 381.388 291.146 381.52C291.893 381.652 292.662 381.524 293.326 381.157C294.772 380.202 312.595 367.895 312.595 367.895C312.595 367.895 320.66 369.705 321.99 368.488C323.487 366.577 324.78 364.515 325.85 362.335C325.85 362.335 399.686 314.917 404.384 311.789C409.082 308.662 410.773 302.972 410.527 297.672C410.282 292.373 407.752 226.958 407.159 219.24C406.567 211.523 401.739 187.749 391.736 175.804C381.733 163.859 369.967 153.564 353.546 161.933Z" fill="url(#paint4_linear_33186_284776)"/>
<path d="M301.421 112.459C301.643 125.173 303.673 137.79 307.449 149.93C307.449 149.93 297.923 182.985 272.757 192.643C265.891 187.097 258.475 171.764 257.478 167.783C256.133 159.819 251.436 112.459 251.436 112.459H301.421Z" fill="#FFCEBA"/>
<path d="M268.03 179.366H280.259L285.318 178.135L292.242 183.391C289.568 189.845 286.006 195.893 281.661 201.359H268.839C268.839 201.359 261.525 190.992 258.316 183.521V178.367H265.225L268.03 179.366Z" fill="#20364F"/>
<path d="M298.487 126.431V112.459H251.436C251.436 112.459 256.133 159.819 257.478 167.783C257.579 168.174 257.752 168.68 257.955 169.231C261.781 172.214 266.151 174.422 270.82 175.732C282.875 166.639 295.422 149.568 298.487 126.431Z" fill="#E88E80"/>
<path d="M280.259 179.322C280.921 179.278 281.571 179.121 282.181 178.859C285.578 180.582 294.309 185.519 307.449 196.552C313.231 184.158 319.345 153.391 319.519 148.772C318.376 144.969 316.702 141.347 314.546 138.014C314.546 138.014 305.338 131.586 304.789 131.311C304.23 131.091 303.648 130.935 303.054 130.847C303.054 130.847 304.066 141.895 304.066 144.153C298.487 159.544 288.209 171.634 280.259 179.322Z" fill="url(#paint5_linear_33186_284776)"/>
<path d="M280.259 179.322C280.921 179.278 281.571 179.121 282.181 178.859C285.578 180.582 294.309 185.519 307.449 196.552C313.231 184.158 319.345 153.391 319.519 148.772C318.376 144.969 316.702 141.347 314.546 138.014C314.546 138.014 305.338 131.586 304.789 131.311C304.23 131.091 303.648 130.935 303.054 130.847C303.054 130.847 304.066 141.895 304.066 144.153C298.487 159.544 288.209 171.634 280.259 179.322Z" fill="white" fill-opacity="0.2"/>
<path d="M268.03 179.366H264.069C259.318 183.065 255.686 188.012 253.575 193.656C252.491 181.451 250.944 161.991 250.944 161.716C252.554 158.916 254.305 156.2 256.191 153.579L256.827 158.285C259.653 165.759 263.418 172.843 268.03 179.366Z" fill="url(#paint6_linear_33186_284776)"/>
<path d="M268.03 179.366H264.069C259.318 183.065 255.686 188.012 253.575 193.656C252.491 181.451 250.944 161.991 250.944 161.716C252.554 158.916 254.305 156.2 256.191 153.579L256.827 158.285C259.653 165.759 263.418 172.843 268.03 179.366Z" fill="white" fill-opacity="0.2"/>
<path d="M201.886 88.8811C202.869 94.6727 205.558 115.334 206.801 122.935C208.044 130.537 220.649 153.645 241.984 160.218C270.707 159.422 294.326 142.134 300.527 119.301C310.964 113.958 322.21 88.2441 312.005 59.185C301.799 30.126 277.226 13.8663 242.028 22.1626C211.007 29.431 194.196 43.6782 201.886 88.8811Z" fill="#FFCEBA"/>
<path d="M300.423 26.67C307.925 29.1025 319.446 35.0243 321.744 47.5051C324.043 59.9858 326.919 65.5457 331.863 67.1239C331.314 70.0197 326.674 71.2793 325.228 71.0332C325.272 74.3709 324.972 77.7042 324.332 80.9802L303.257 92.2881C303.257 92.2881 300.366 102.597 299.412 102.713C298.457 102.829 297.287 95.7775 296.983 94.0256C289.756 91.6366 280.663 81.1394 277.772 68.8324C276.688 73.6539 275.604 79.9377 274.636 79.9377C273.667 79.9377 268.218 71.0332 267.538 62.7947C261.987 71.9743 249.86 75.8257 234.523 78.3595C232.962 78.6056 235.13 73.0602 237.298 69.9183C229.464 73.2919 210.557 78.8518 198.877 76.0718C193.095 77.2736 185.361 72.0901 185.376 70.1066C185.376 69.0206 189.351 69.1365 190.377 66.2407C191.404 63.3449 192.603 60.4492 194.352 59.4212C190.32 57.1335 184.06 53.9482 183.034 39.035C187.602 39.6431 196.766 38.1228 198.515 33.9674C196.516 32.7871 194.872 31.0877 193.758 29.0488C192.644 27.0099 192.1 24.7072 192.184 22.3843C194.772 24.0783 208.923 22.3843 215.009 17.7366C219.63 14.3865 224.869 11.9894 230.422 10.6845C235.976 9.37954 241.733 9.19285 247.359 10.1352C243.977 6.57339 245.191 0 245.191 0C247.72 2.59171 251.696 5.37165 262.652 5.31373C273.609 5.25582 288.671 5.48748 293.673 21.5445C297.59 19.7926 301.507 14.6671 301.507 14.6671C302.823 17.4036 302.461 24.1652 300.423 26.67Z" fill="#20364F"/>
<path d="M321.745 47.5051C320.568 41.5255 317.155 36.222 312.204 32.6788C316.021 40.9317 287.631 54.4984 261.612 57.8575C251.852 62.0563 243.506 68.9833 237.573 77.8093C251.45 75.3045 262.349 71.3228 267.524 62.7658C268.203 71.0043 273.667 79.9087 274.621 79.9087C275.575 79.9087 276.674 73.6249 277.758 68.8035C280.649 81.1105 289.684 91.6076 296.969 93.9967C297.272 95.7776 298.414 102.829 299.397 102.684C300.38 102.539 303.242 92.2592 303.242 92.2592L324.318 80.9512C324.958 77.6753 325.258 74.342 325.214 71.0043C326.659 71.2504 331.3 69.9907 331.849 67.095C326.949 65.5457 324.058 60.0003 321.745 47.5051Z" fill="#142130"/>
<path d="M228.669 129.472C227.383 130.688 227.86 133.28 229.276 136.508C230.693 139.737 235.058 147.44 249.267 144.066C263.477 140.693 266.787 126.692 262.089 121.61C257.391 116.528 238.903 119.698 228.669 129.472Z" fill="#801515"/>
<path d="M264.069 128.183C250.438 122.652 235.26 134.38 234.089 142.503C237.11 144.559 241.823 145.833 249.267 144.066C259.183 141.721 263.78 134.25 264.069 128.183Z" fill="#CE4731"/>
<path d="M228.669 129.472C228.368 129.799 228.146 130.191 228.02 130.618C227.895 131.045 227.87 131.495 227.946 131.933C230.042 132.686 232.658 132.281 235.665 131.224C239.524 129.877 250.539 125.91 257.478 119.481C249.961 118.135 236.749 121.783 228.669 129.472Z" fill="white"/>
<path d="M230.042 97.6761C230.042 97.6761 230.331 106.161 230.403 107.334C230.476 108.506 232.919 112.039 233.063 112.387C232.066 112.951 227.614 111.619 227.397 109.752C227.145 105.559 228.061 101.378 230.042 97.6761Z" fill="#E88E80"/>
<path d="M239.134 111.156C239.134 111.156 238.151 108.897 239.727 108.868C242.401 108.868 243.615 109.795 243.24 110.056C242.019 110.842 240.584 111.227 239.134 111.156Z" fill="#E88E80"/>
<path d="M301.421 70.1085C309.166 72.4409 316.529 75.8943 323.277 80.3595C323.668 80.6698 323.969 81.0789 324.149 81.5447C324.33 82.0104 324.383 82.5159 324.303 83.0091C324.303 84.1674 321.542 97.6762 321.297 98.4725C321.051 99.2688 319.735 99.848 318.102 99.4281C316.469 99.0082 301.421 93.4049 301.421 93.4049V70.1085Z" fill="#20364F"/>
<path d="M301.421 99.182C302.129 94.1144 303.184 87.5989 310.094 87.2369C317.003 86.8749 319.894 93.6945 318.333 102.541C316.411 113.516 303.878 120.364 298.544 119.337L301.421 99.182Z" fill="#FFCEBA"/>
<path d="M414.17 312.745C386.228 288.623 355.454 287.812 334.913 285.727C308.894 283.063 272.337 286.06 281.661 201.316H268.839C263.361 226.364 256.697 270.018 280.259 298.136C303.82 326.254 352.736 303.826 382.369 347.262C382.369 347.262 403.329 351.114 421.397 351.114C420.834 338.044 418.4 325.122 414.17 312.745Z" fill="#20364F"/>
<ellipse cx="245.873" cy="88.8549" rx="2.86285" ry="5.40937" transform="rotate(-10.9558 245.873 88.8549)" fill="#142130"/>
<path d="M242.291 79.6555C240.794 80.4429 238.235 83.0789 237.224 84.8776C237.482 82.9174 238.561 78.2775 240.859 76.3774C244.044 73.7445 251.444 77.7573 251.125 77.8234C250.727 77.906 244.164 78.6714 242.291 79.6555Z" fill="#142130"/>
<path d="M210.501 88.944C212.269 88.6889 216.91 89.9289 218.892 90.8435C217.453 89.3223 213.645 86.0133 210.501 85.8112C206.144 85.5312 204.843 90.6748 205.156 90.5336C205.547 90.357 208.29 89.2629 210.501 88.944Z" fill="#142130"/>
<ellipse cx="215.088" cy="97.0248" rx="2.20185" ry="4.69185" transform="rotate(-10.9558 215.088 97.0248)" fill="#142130"/>
<defs>
<linearGradient id="paint0_linear_33186_284776" x1="114.15" y1="292.156" x2="171.024" y2="163.88" gradientUnits="userSpaceOnUse">
<stop stop-color="#FF9E0F"/>
<stop offset="1" stop-color="#FF7C0F"/>
</linearGradient>
<linearGradient id="paint1_linear_33186_284776" x1="235.005" y1="287.026" x2="287.416" y2="241.624" gradientUnits="userSpaceOnUse">
<stop stop-color="#FF9E0F"/>
<stop offset="1" stop-color="#FF7C0F"/>
</linearGradient>
<linearGradient id="paint2_linear_33186_284776" x1="274.346" y1="364.055" x2="421.61" y2="169.972" gradientUnits="userSpaceOnUse">
<stop stop-color="#FF9E0F"/>
<stop offset="1" stop-color="#FF7C0F"/>
</linearGradient>
<linearGradient id="paint3_linear_33186_284776" x1="324.4" y1="372.087" x2="425.768" y2="260.327" gradientUnits="userSpaceOnUse">
<stop stop-color="#FF9E0F"/>
<stop offset="1" stop-color="#FF7C0F"/>
</linearGradient>
<linearGradient id="paint4_linear_33186_284776" x1="301.425" y1="359.771" x2="437.602" y2="246.849" gradientUnits="userSpaceOnUse">
<stop stop-color="#FF9E0F"/>
<stop offset="1" stop-color="#FF7C0F"/>
</linearGradient>
<linearGradient id="paint5_linear_33186_284776" x1="288.193" y1="190.12" x2="328.156" y2="157.881" gradientUnits="userSpaceOnUse">
<stop stop-color="#FF9E0F"/>
<stop offset="1" stop-color="#FF7C0F"/>
</linearGradient>
<linearGradient id="paint6_linear_33186_284776" x1="254.397" y1="189.733" x2="275.962" y2="177.32" gradientUnits="userSpaceOnUse">
<stop stop-color="#FF9E0F"/>
<stop offset="1" stop-color="#FF7C0F"/>
</linearGradient>
</defs>
</svg>
