<svg width="112" height="112" viewBox="0 0 112 112" fill="none" xmlns="http://www.w3.org/2000/svg">
<rect width="112" height="112" rx="20" fill="url(#paint0_linear_33186_284779)" fill-opacity="0.15"/>
<g clip-path="url(#clip0_33186_284779)">
<path fill-rule="evenodd" clip-rule="evenodd" d="M33.212 69.0382H80.788C81.0383 69.0371 81.278 68.9371 81.4551 68.7601C81.6321 68.5831 81.732 68.3434 81.7331 68.0931V34.7337C81.7321 34.4833 81.6322 34.2435 81.4552 34.0665C81.2781 33.8895 81.0383 33.7896 80.788 33.7886H33.212C32.9617 33.7896 32.7219 33.8895 32.5449 34.0665C32.3678 34.2435 32.2679 34.4833 32.2669 34.7337V68.0931C32.268 68.3434 32.3679 68.5832 32.5449 68.7602C32.7219 68.9372 32.9617 69.0371 33.212 69.0382ZM49.3487 71.473L50.0478 73.6247H63.9522L64.6513 71.473H49.3487ZM67.2067 71.473H84.9781C84.9837 71.4733 84.989 71.4758 84.9928 71.4799C84.9969 71.4837 84.9993 71.4889 84.9997 71.4945V74.1271C84.9956 75.209 84.5641 76.2454 83.799 77.0105C83.034 77.7755 81.9975 78.2071 80.9156 78.2111H33.0842C32.0022 78.2071 30.9658 77.7755 30.2007 77.0105C29.4356 76.2455 29.004 75.209 29 74.1271V71.4945C29.0004 71.4889 29.0029 71.4837 29.007 71.48C29.0107 71.4758 29.016 71.4733 29.0215 71.473H46.7933L47.9855 75.1432C48.0525 75.4052 48.2048 75.6375 48.4184 75.8035C48.6321 75.9694 48.8949 76.0595 49.1654 76.0595H64.8343V76.0574C65.0909 76.0573 65.3409 75.9761 65.5484 75.8252C65.756 75.6744 65.9105 75.4618 65.9899 75.2177L67.2067 71.473Z" fill="url(#paint1_linear_33186_284779)"/>
<path fill-rule="evenodd" clip-rule="evenodd" d="M49.3486 71.473L50.0478 73.6247H63.9522L64.6513 71.473H49.3486Z" fill="white"/>
</g>
<defs>
<linearGradient id="paint0_linear_33186_284779" x1="22.6358" y1="101.036" x2="89.3053" y2="11.0232" gradientUnits="userSpaceOnUse">
<stop stop-color="#FF9E0F"/>
<stop offset="1" stop-color="#FF7C0F"/>
</linearGradient>
<linearGradient id="paint1_linear_33186_284779" x1="40.3178" y1="73.8624" x2="64.4656" y2="32.763" gradientUnits="userSpaceOnUse">
<stop stop-color="#FF9E0F"/>
<stop offset="1" stop-color="#FF7C0F"/>
</linearGradient>
<clipPath id="clip0_33186_284779">
<rect width="56" height="56" fill="white" transform="translate(29 28)"/>
</clipPath>
</defs>
</svg>
