<svg width="96" height="96" viewBox="0 0 96 96" fill="none" xmlns="http://www.w3.org/2000/svg">
<g filter="url(#filter0_b_33186_284778)">
<rect width="96" height="96" rx="16" fill="#FF9A03" fill-opacity="0.15"/>
</g>
<path d="M68 48C68 45.3736 67.4827 42.7728 66.4776 40.3463C65.4725 37.9198 63.9993 35.715 62.1421 33.8579C60.285 32.0007 58.0802 30.5275 55.6537 29.5224C53.2272 28.5173 50.6264 28 48 28C42.6957 28 37.6086 30.1071 33.8579 33.8579C30.1071 37.6086 28 42.6957 28 48C28 53.3043 30.1071 58.3914 33.8579 62.1421C37.6086 65.8929 42.6957 68 48 68C53.3043 68 58.3914 65.8929 62.1421 62.1421C65.8929 58.3914 68 53.3043 68 48ZM63.86 46H58C57.6701 41.2963 56.0585 36.7727 53.34 32.92C56.1329 33.9119 58.5955 35.6601 60.453 37.9697C62.3105 40.2792 63.49 43.0593 63.86 46ZM42.16 50H54C53.4882 54.9412 51.3821 59.5815 48 63.22C44.6201 59.5967 42.5624 54.9386 42.16 50ZM42.16 46C42.6258 41.0837 44.6752 36.4514 48 32.8C51.4094 36.4122 53.5203 41.0561 54 46H42.16ZM42.88 32.86C40.1471 36.734 38.5096 41.2734 38.14 46H32.14C32.5178 43.023 33.7252 40.2122 35.6243 37.8887C37.5234 35.5652 40.0377 33.8227 42.88 32.86ZM32.14 50H38.14C38.4694 54.7225 40.0958 59.2625 42.84 63.12C40.0079 62.1526 37.504 60.4104 35.6125 58.0912C33.7211 55.7719 32.518 52.9687 32.14 50ZM53.24 63.1C55.9768 59.2413 57.6213 54.7155 58 50H63.9C63.5218 52.9605 62.323 55.7562 60.4393 58.0711C58.5555 60.3861 56.0618 62.128 53.24 63.1Z" fill="url(#paint0_linear_33186_284778)"/>
<defs>
<filter id="filter0_b_33186_284778" x="-12" y="-12" width="120" height="120" filterUnits="userSpaceOnUse" color-interpolation-filters="sRGB">
<feFlood flood-opacity="0" result="BackgroundImageFix"/>
<feGaussianBlur in="BackgroundImageFix" stdDeviation="6"/>
<feComposite in2="SourceAlpha" operator="in" result="effect1_backgroundBlur_33186_284778"/>
<feBlend mode="normal" in="SourceGraphic" in2="effect1_backgroundBlur_33186_284778" result="shape"/>
</filter>
<linearGradient id="paint0_linear_33186_284778" x1="36.0842" y1="64.0842" x2="59.8947" y2="31.9368" gradientUnits="userSpaceOnUse">
<stop stop-color="#FF9E0F"/>
<stop offset="1" stop-color="#FF7C0F"/>
</linearGradient>
</defs>
</svg>
