<svg width="108" height="108" viewBox="0 0 108 108" fill="none" xmlns="http://www.w3.org/2000/svg">
<circle cx="54" cy="54" r="54" fill="url(#paint0_linear_33186_284793)"/>
<g opacity="0.87" clip-path="url(#clip0_33186_284793)">
<path d="M34 53.2969C34 56.5277 36.6285 59.1562 39.8594 59.1562C43.0902 59.1562 45.7188 56.5277 45.7188 53.2969C45.7188 53.1273 45.682 52.9598 45.6109 52.8058L41.6805 44.29C43.522 44.1839 45.3442 43.7006 46.9932 42.876L47.124 42.8107C48.5527 42.0963 50.0767 41.6119 51.6562 41.3684V61.1094H56.3438V41.3684C57.9234 41.612 59.4473 42.0964 60.8759 42.8106L61.0066 42.8759C62.6559 43.7005 64.478 44.1838 66.3195 44.29L62.3891 52.8058C62.318 52.9598 62.2812 53.1273 62.2812 53.2969C62.2812 56.5277 64.9098 59.1562 68.1406 59.1562C71.3715 59.1562 74 56.5277 74 53.2969C74 53.1273 73.9632 52.9598 73.8921 52.8058L69.7873 43.9119C71.2038 43.4786 72.5016 42.7026 73.5787 41.6255C74.0363 41.1679 74.0363 40.4259 73.5787 39.9682C73.1211 39.5106 72.3791 39.5106 71.9214 39.9682C70.6313 41.2583 68.9161 41.9688 67.0917 41.9688C65.3523 41.9688 63.6105 41.5576 62.0549 40.7797L61.9242 40.7143C60.2199 39.8623 58.3983 39.2933 56.5098 39.023C56.4548 39.0152 56.3993 39.0112 56.3438 39.0112V36.3438C56.3438 35.0493 55.2945 34 54 34C52.7055 34 51.6562 35.0493 51.6562 36.3438V39.0112C51.6007 39.0112 51.5452 39.0152 51.4902 39.023C49.6018 39.2932 47.7801 39.8623 46.0759 40.7143L45.9452 40.7797C44.3895 41.5576 42.6477 41.9688 40.9083 41.9688C39.0838 41.9688 37.3687 41.2583 36.0786 39.9683C35.621 39.5107 34.879 39.5107 34.4213 39.9683C33.9637 40.4259 33.9637 41.1679 34.4213 41.6255C35.4984 42.7027 36.7962 43.4787 38.2127 43.912L34.1079 52.8058C34.0368 52.9598 34 53.1273 34 53.2969H34ZM65.2847 52.125L68.1406 45.9371L70.9966 52.125H65.2847ZM39.8594 45.9371L42.7153 52.125H37.0034L39.8594 45.9371Z" fill="white"/>
<path d="M72.8281 71.6563H65.9141C65.9141 70.3618 64.8648 69.3125 63.5703 69.3125H44.4297C43.1352 69.3125 42.0859 70.3618 42.0859 71.6563H35.1719C34.5247 71.6563 34 72.1809 34 72.8281C34 73.4753 34.5247 74 35.1719 74H72.8281C73.4753 74 74 73.4753 74 72.8281C74 72.1809 73.4753 71.6563 72.8281 71.6563Z" fill="white"/>
<path d="M58.8828 63.4531H49.1172C47.8227 63.4531 46.7734 64.5024 46.7734 65.7969V66.9688H61.2266V65.7969C61.2266 64.5024 60.1773 63.4531 58.8828 63.4531Z" fill="white"/>
</g>
<defs>
<linearGradient id="paint0_linear_33186_284793" x1="21.8274" y1="97.4274" x2="86.1158" y2="10.6295" gradientUnits="userSpaceOnUse">
<stop stop-color="#FF9E0F"/>
<stop offset="1" stop-color="#FF7C0F"/>
</linearGradient>
<clipPath id="clip0_33186_284793">
<rect width="40" height="40" fill="white" transform="translate(34 34)"/>
</clipPath>
</defs>
</svg>
