<svg width="80" height="80" viewBox="0 0 80 80" fill="none" xmlns="http://www.w3.org/2000/svg">
<circle cx="40" cy="40" r="40" fill="url(#paint0_linear_33186_284783)"/>
<g clip-path="url(#clip0_33186_284783)">
<path d="M30.2778 44.7201L31.8537 45.2635C34.9068 46.3162 35.0048 50.6524 31.9355 51.8013C31.9355 52.6257 31.3195 53.1471 30.6452 53.1471C29.9776 53.1471 29.3548 52.6335 29.3548 51.8013C28.0366 51.3078 27.0954 50.0356 27.0954 48.5472C27.0954 47.8345 27.6731 47.2569 28.3857 47.2569C29.0984 47.2569 29.676 47.8345 29.676 48.5472C29.676 49.0394 30.0766 49.44 30.5689 49.44H30.7214C31.7288 49.44 31.9577 48.029 31.0124 47.7031L29.4365 47.1597C26.3835 46.1071 26.2855 41.7708 29.3548 40.6219C29.3548 39.7976 29.9708 39.2761 30.6452 39.2761C31.3127 39.2761 31.9355 39.7898 31.9355 40.6219C33.2537 41.1154 34.1949 42.3877 34.1949 43.8761C34.1949 44.5887 33.6173 45.1664 32.9046 45.1664C32.1919 45.1664 31.6143 44.5887 31.6143 43.8761C31.6143 43.3838 31.2137 42.9832 30.7215 42.9832H30.569C29.5615 42.9832 29.3327 44.3941 30.2778 44.7201ZM41.2903 46.2116C41.2903 52.0814 36.5149 56.8568 30.6452 56.8568C24.7754 56.8568 20 52.0815 20 46.2116C20 40.3418 24.7754 35.5665 30.6452 35.5665C36.5149 35.5665 41.2903 40.3419 41.2903 46.2116ZM38.7097 46.2116C38.7097 41.7648 35.092 38.1471 30.6452 38.1471C26.1983 38.1471 22.5806 41.7648 22.5806 46.2116C22.5806 50.6585 26.1983 54.2761 30.6452 54.2761C35.092 54.2761 38.7097 50.6585 38.7097 46.2116ZM58.7097 54.2761H57.8226V32.9858C57.8226 32.2732 57.2449 31.6955 56.5323 31.6955C55.8196 31.6955 55.2419 32.2732 55.2419 32.9858V54.2761H48.7097V38.1471C48.7097 37.4344 48.132 36.8568 47.4194 36.8568C46.7067 36.8568 46.129 37.4344 46.129 38.1471V54.2761H40.6452C39.9325 54.2761 39.3548 54.8538 39.3548 55.5665C39.3548 56.2791 39.9325 56.8568 40.6452 56.8568H58.7097C59.4223 56.8568 60 56.2791 60 55.5665C60 54.8538 59.4223 54.2761 58.7097 54.2761ZM39.864 37.0434L44.4758 32.4316L46.507 34.4627C47.0109 34.9666 47.8279 34.9666 48.3318 34.4627L55.2419 27.5525V28.1471C55.2419 28.8598 55.8196 29.4374 56.5323 29.4374C57.2449 29.4374 57.8226 28.8598 57.8226 28.1471C57.8226 24.0523 57.8287 24.3998 57.8083 24.2553C57.7458 23.8151 57.4565 23.4236 57.0256 23.2452C56.7065 23.1132 56.8053 23.1471 52.8226 23.1471C52.1099 23.1471 51.5323 23.7248 51.5323 24.4374C51.5323 25.1501 52.1099 25.7277 52.8226 25.7277H53.4172L47.4194 31.7255L45.3881 29.6944C44.8843 29.1905 44.0673 29.1905 43.5634 29.6944L38.0392 35.2186C37.5352 35.7224 37.5352 36.5394 38.0392 37.0433C38.5432 37.5473 39.3601 37.5473 39.864 37.0434Z" fill="white" fill-opacity="0.86"/>
</g>
<defs>
<linearGradient id="paint0_linear_33186_284783" x1="16.1684" y1="72.1684" x2="63.7895" y2="7.87368" gradientUnits="userSpaceOnUse">
<stop stop-color="#FF9E0F"/>
<stop offset="1" stop-color="#FF7C0F"/>
</linearGradient>
<clipPath id="clip0_33186_284783">
<rect width="40" height="40" fill="white" transform="translate(20 20)"/>
</clipPath>
</defs>
</svg>
